%TF.GenerationSoftware,KiCad,Pcbnew,8.0.4*%
%TF.CreationDate,2025-03-13T09:59:00-07:00*%
%TF.ProjectId,keyboard_board,6b657962-6f61-4726-945f-626f6172642e,rev?*%
%TF.SameCoordinates,Original*%
%TF.FileFunction,Legend,Top*%
%TF.FilePolarity,Positive*%
%FSLAX46Y46*%
G04 Gerber Fmt 4.6, Leading zero omitted, Abs format (unit mm)*
G04 Created by KiCad (PCBNEW 8.0.4) date 2025-03-13 09:59:00*
%MOMM*%
%LPD*%
G01*
G04 APERTURE LIST*
%ADD10C,0.200000*%
%ADD11C,0.150000*%
%ADD12C,0.100000*%
%ADD13C,0.152400*%
%ADD14C,0.508000*%
%ADD15C,0.127000*%
%ADD16C,0.120000*%
%ADD17C,0.000000*%
G04 APERTURE END LIST*
D10*
X200431904Y-97372623D02*
X200015238Y-96777385D01*
X199717619Y-97372623D02*
X199717619Y-96122623D01*
X199717619Y-96122623D02*
X200193809Y-96122623D01*
X200193809Y-96122623D02*
X200312857Y-96182147D01*
X200312857Y-96182147D02*
X200372380Y-96241671D01*
X200372380Y-96241671D02*
X200431904Y-96360719D01*
X200431904Y-96360719D02*
X200431904Y-96539290D01*
X200431904Y-96539290D02*
X200372380Y-96658338D01*
X200372380Y-96658338D02*
X200312857Y-96717861D01*
X200312857Y-96717861D02*
X200193809Y-96777385D01*
X200193809Y-96777385D02*
X199717619Y-96777385D01*
X201622380Y-96182147D02*
X201503333Y-96122623D01*
X201503333Y-96122623D02*
X201324761Y-96122623D01*
X201324761Y-96122623D02*
X201146190Y-96182147D01*
X201146190Y-96182147D02*
X201027142Y-96301195D01*
X201027142Y-96301195D02*
X200967619Y-96420242D01*
X200967619Y-96420242D02*
X200908095Y-96658338D01*
X200908095Y-96658338D02*
X200908095Y-96836909D01*
X200908095Y-96836909D02*
X200967619Y-97075004D01*
X200967619Y-97075004D02*
X201027142Y-97194052D01*
X201027142Y-97194052D02*
X201146190Y-97313100D01*
X201146190Y-97313100D02*
X201324761Y-97372623D01*
X201324761Y-97372623D02*
X201443809Y-97372623D01*
X201443809Y-97372623D02*
X201622380Y-97313100D01*
X201622380Y-97313100D02*
X201681904Y-97253576D01*
X201681904Y-97253576D02*
X201681904Y-96836909D01*
X201681904Y-96836909D02*
X201443809Y-96836909D01*
X202634285Y-96717861D02*
X202812857Y-96777385D01*
X202812857Y-96777385D02*
X202872380Y-96836909D01*
X202872380Y-96836909D02*
X202931904Y-96955957D01*
X202931904Y-96955957D02*
X202931904Y-97134528D01*
X202931904Y-97134528D02*
X202872380Y-97253576D01*
X202872380Y-97253576D02*
X202812857Y-97313100D01*
X202812857Y-97313100D02*
X202693809Y-97372623D01*
X202693809Y-97372623D02*
X202217619Y-97372623D01*
X202217619Y-97372623D02*
X202217619Y-96122623D01*
X202217619Y-96122623D02*
X202634285Y-96122623D01*
X202634285Y-96122623D02*
X202753333Y-96182147D01*
X202753333Y-96182147D02*
X202812857Y-96241671D01*
X202812857Y-96241671D02*
X202872380Y-96360719D01*
X202872380Y-96360719D02*
X202872380Y-96479766D01*
X202872380Y-96479766D02*
X202812857Y-96598814D01*
X202812857Y-96598814D02*
X202753333Y-96658338D01*
X202753333Y-96658338D02*
X202634285Y-96717861D01*
X202634285Y-96717861D02*
X202217619Y-96717861D01*
X238575762Y-87486193D02*
X238575762Y-86236193D01*
X238575762Y-86236193D02*
X239051952Y-86236193D01*
X239051952Y-86236193D02*
X239171000Y-86295717D01*
X239171000Y-86295717D02*
X239230523Y-86355241D01*
X239230523Y-86355241D02*
X239290047Y-86474289D01*
X239290047Y-86474289D02*
X239290047Y-86652860D01*
X239290047Y-86652860D02*
X239230523Y-86771908D01*
X239230523Y-86771908D02*
X239171000Y-86831431D01*
X239171000Y-86831431D02*
X239051952Y-86890955D01*
X239051952Y-86890955D02*
X238575762Y-86890955D01*
X240004333Y-87486193D02*
X239885285Y-87426670D01*
X239885285Y-87426670D02*
X239825762Y-87367146D01*
X239825762Y-87367146D02*
X239766238Y-87248098D01*
X239766238Y-87248098D02*
X239766238Y-86890955D01*
X239766238Y-86890955D02*
X239825762Y-86771908D01*
X239825762Y-86771908D02*
X239885285Y-86712384D01*
X239885285Y-86712384D02*
X240004333Y-86652860D01*
X240004333Y-86652860D02*
X240182904Y-86652860D01*
X240182904Y-86652860D02*
X240301952Y-86712384D01*
X240301952Y-86712384D02*
X240361476Y-86771908D01*
X240361476Y-86771908D02*
X240421000Y-86890955D01*
X240421000Y-86890955D02*
X240421000Y-87248098D01*
X240421000Y-87248098D02*
X240361476Y-87367146D01*
X240361476Y-87367146D02*
X240301952Y-87426670D01*
X240301952Y-87426670D02*
X240182904Y-87486193D01*
X240182904Y-87486193D02*
X240004333Y-87486193D01*
X240837666Y-86652860D02*
X241075761Y-87486193D01*
X241075761Y-87486193D02*
X241313856Y-86890955D01*
X241313856Y-86890955D02*
X241551952Y-87486193D01*
X241551952Y-87486193D02*
X241790047Y-86652860D01*
X242742428Y-87426670D02*
X242623380Y-87486193D01*
X242623380Y-87486193D02*
X242385285Y-87486193D01*
X242385285Y-87486193D02*
X242266238Y-87426670D01*
X242266238Y-87426670D02*
X242206714Y-87307622D01*
X242206714Y-87307622D02*
X242206714Y-86831431D01*
X242206714Y-86831431D02*
X242266238Y-86712384D01*
X242266238Y-86712384D02*
X242385285Y-86652860D01*
X242385285Y-86652860D02*
X242623380Y-86652860D01*
X242623380Y-86652860D02*
X242742428Y-86712384D01*
X242742428Y-86712384D02*
X242801952Y-86831431D01*
X242801952Y-86831431D02*
X242801952Y-86950479D01*
X242801952Y-86950479D02*
X242206714Y-87069527D01*
X243337667Y-87486193D02*
X243337667Y-86652860D01*
X243337667Y-86890955D02*
X243397190Y-86771908D01*
X243397190Y-86771908D02*
X243456714Y-86712384D01*
X243456714Y-86712384D02*
X243575762Y-86652860D01*
X243575762Y-86652860D02*
X243694809Y-86652860D01*
X238724571Y-88843861D02*
X238903143Y-88903385D01*
X238903143Y-88903385D02*
X238962666Y-88962909D01*
X238962666Y-88962909D02*
X239022190Y-89081957D01*
X239022190Y-89081957D02*
X239022190Y-89260528D01*
X239022190Y-89260528D02*
X238962666Y-89379576D01*
X238962666Y-89379576D02*
X238903143Y-89439100D01*
X238903143Y-89439100D02*
X238784095Y-89498623D01*
X238784095Y-89498623D02*
X238307905Y-89498623D01*
X238307905Y-89498623D02*
X238307905Y-88248623D01*
X238307905Y-88248623D02*
X238724571Y-88248623D01*
X238724571Y-88248623D02*
X238843619Y-88308147D01*
X238843619Y-88308147D02*
X238903143Y-88367671D01*
X238903143Y-88367671D02*
X238962666Y-88486719D01*
X238962666Y-88486719D02*
X238962666Y-88605766D01*
X238962666Y-88605766D02*
X238903143Y-88724814D01*
X238903143Y-88724814D02*
X238843619Y-88784338D01*
X238843619Y-88784338D02*
X238724571Y-88843861D01*
X238724571Y-88843861D02*
X238307905Y-88843861D01*
X240093619Y-88665290D02*
X240093619Y-89498623D01*
X239557905Y-88665290D02*
X239557905Y-89320052D01*
X239557905Y-89320052D02*
X239617428Y-89439100D01*
X239617428Y-89439100D02*
X239736476Y-89498623D01*
X239736476Y-89498623D02*
X239915047Y-89498623D01*
X239915047Y-89498623D02*
X240034095Y-89439100D01*
X240034095Y-89439100D02*
X240093619Y-89379576D01*
X240510285Y-88665290D02*
X240986476Y-88665290D01*
X240688857Y-88248623D02*
X240688857Y-89320052D01*
X240688857Y-89320052D02*
X240748380Y-89439100D01*
X240748380Y-89439100D02*
X240867428Y-89498623D01*
X240867428Y-89498623D02*
X240986476Y-89498623D01*
X241224571Y-88665290D02*
X241700762Y-88665290D01*
X241403143Y-88248623D02*
X241403143Y-89320052D01*
X241403143Y-89320052D02*
X241462666Y-89439100D01*
X241462666Y-89439100D02*
X241581714Y-89498623D01*
X241581714Y-89498623D02*
X241700762Y-89498623D01*
X242296000Y-89498623D02*
X242176952Y-89439100D01*
X242176952Y-89439100D02*
X242117429Y-89379576D01*
X242117429Y-89379576D02*
X242057905Y-89260528D01*
X242057905Y-89260528D02*
X242057905Y-88903385D01*
X242057905Y-88903385D02*
X242117429Y-88784338D01*
X242117429Y-88784338D02*
X242176952Y-88724814D01*
X242176952Y-88724814D02*
X242296000Y-88665290D01*
X242296000Y-88665290D02*
X242474571Y-88665290D01*
X242474571Y-88665290D02*
X242593619Y-88724814D01*
X242593619Y-88724814D02*
X242653143Y-88784338D01*
X242653143Y-88784338D02*
X242712667Y-88903385D01*
X242712667Y-88903385D02*
X242712667Y-89260528D01*
X242712667Y-89260528D02*
X242653143Y-89379576D01*
X242653143Y-89379576D02*
X242593619Y-89439100D01*
X242593619Y-89439100D02*
X242474571Y-89498623D01*
X242474571Y-89498623D02*
X242296000Y-89498623D01*
X243248381Y-88665290D02*
X243248381Y-89498623D01*
X243248381Y-88784338D02*
X243307904Y-88724814D01*
X243307904Y-88724814D02*
X243426952Y-88665290D01*
X243426952Y-88665290D02*
X243605523Y-88665290D01*
X243605523Y-88665290D02*
X243724571Y-88724814D01*
X243724571Y-88724814D02*
X243784095Y-88843861D01*
X243784095Y-88843861D02*
X243784095Y-89498623D01*
X241570381Y-94237193D02*
X242284667Y-94237193D01*
X241927524Y-95487193D02*
X241927524Y-94237193D01*
X242701334Y-95487193D02*
X242701334Y-94653860D01*
X242701334Y-94891955D02*
X242760857Y-94772908D01*
X242760857Y-94772908D02*
X242820381Y-94713384D01*
X242820381Y-94713384D02*
X242939429Y-94653860D01*
X242939429Y-94653860D02*
X243058476Y-94653860D01*
X244010858Y-95487193D02*
X244010858Y-94832431D01*
X244010858Y-94832431D02*
X243951334Y-94713384D01*
X243951334Y-94713384D02*
X243832286Y-94653860D01*
X243832286Y-94653860D02*
X243594191Y-94653860D01*
X243594191Y-94653860D02*
X243475144Y-94713384D01*
X244010858Y-95427670D02*
X243891810Y-95487193D01*
X243891810Y-95487193D02*
X243594191Y-95487193D01*
X243594191Y-95487193D02*
X243475144Y-95427670D01*
X243475144Y-95427670D02*
X243415620Y-95308622D01*
X243415620Y-95308622D02*
X243415620Y-95189574D01*
X243415620Y-95189574D02*
X243475144Y-95070527D01*
X243475144Y-95070527D02*
X243594191Y-95011003D01*
X243594191Y-95011003D02*
X243891810Y-95011003D01*
X243891810Y-95011003D02*
X244010858Y-94951479D01*
X245141810Y-95427670D02*
X245022762Y-95487193D01*
X245022762Y-95487193D02*
X244784667Y-95487193D01*
X244784667Y-95487193D02*
X244665619Y-95427670D01*
X244665619Y-95427670D02*
X244606096Y-95368146D01*
X244606096Y-95368146D02*
X244546572Y-95249098D01*
X244546572Y-95249098D02*
X244546572Y-94891955D01*
X244546572Y-94891955D02*
X244606096Y-94772908D01*
X244606096Y-94772908D02*
X244665619Y-94713384D01*
X244665619Y-94713384D02*
X244784667Y-94653860D01*
X244784667Y-94653860D02*
X245022762Y-94653860D01*
X245022762Y-94653860D02*
X245141810Y-94713384D01*
X245677525Y-95487193D02*
X245677525Y-94237193D01*
X245796572Y-95011003D02*
X246153715Y-95487193D01*
X246153715Y-94653860D02*
X245677525Y-95130050D01*
X246689430Y-94653860D02*
X246689430Y-95903860D01*
X246689430Y-94713384D02*
X246808477Y-94653860D01*
X246808477Y-94653860D02*
X247046572Y-94653860D01*
X247046572Y-94653860D02*
X247165620Y-94713384D01*
X247165620Y-94713384D02*
X247225144Y-94772908D01*
X247225144Y-94772908D02*
X247284668Y-94891955D01*
X247284668Y-94891955D02*
X247284668Y-95249098D01*
X247284668Y-95249098D02*
X247225144Y-95368146D01*
X247225144Y-95368146D02*
X247165620Y-95427670D01*
X247165620Y-95427670D02*
X247046572Y-95487193D01*
X247046572Y-95487193D02*
X246808477Y-95487193D01*
X246808477Y-95487193D02*
X246689430Y-95427670D01*
X248356096Y-95487193D02*
X248356096Y-94832431D01*
X248356096Y-94832431D02*
X248296572Y-94713384D01*
X248296572Y-94713384D02*
X248177524Y-94653860D01*
X248177524Y-94653860D02*
X247939429Y-94653860D01*
X247939429Y-94653860D02*
X247820382Y-94713384D01*
X248356096Y-95427670D02*
X248237048Y-95487193D01*
X248237048Y-95487193D02*
X247939429Y-95487193D01*
X247939429Y-95487193D02*
X247820382Y-95427670D01*
X247820382Y-95427670D02*
X247760858Y-95308622D01*
X247760858Y-95308622D02*
X247760858Y-95189574D01*
X247760858Y-95189574D02*
X247820382Y-95070527D01*
X247820382Y-95070527D02*
X247939429Y-95011003D01*
X247939429Y-95011003D02*
X248237048Y-95011003D01*
X248237048Y-95011003D02*
X248356096Y-94951479D01*
X249487048Y-95487193D02*
X249487048Y-94237193D01*
X249487048Y-95427670D02*
X249368000Y-95487193D01*
X249368000Y-95487193D02*
X249129905Y-95487193D01*
X249129905Y-95487193D02*
X249010857Y-95427670D01*
X249010857Y-95427670D02*
X248951334Y-95368146D01*
X248951334Y-95368146D02*
X248891810Y-95249098D01*
X248891810Y-95249098D02*
X248891810Y-94891955D01*
X248891810Y-94891955D02*
X248951334Y-94772908D01*
X248951334Y-94772908D02*
X249010857Y-94713384D01*
X249010857Y-94713384D02*
X249129905Y-94653860D01*
X249129905Y-94653860D02*
X249368000Y-94653860D01*
X249368000Y-94653860D02*
X249487048Y-94713384D01*
X243296571Y-96844861D02*
X243475143Y-96904385D01*
X243475143Y-96904385D02*
X243534666Y-96963909D01*
X243534666Y-96963909D02*
X243594190Y-97082957D01*
X243594190Y-97082957D02*
X243594190Y-97261528D01*
X243594190Y-97261528D02*
X243534666Y-97380576D01*
X243534666Y-97380576D02*
X243475143Y-97440100D01*
X243475143Y-97440100D02*
X243356095Y-97499623D01*
X243356095Y-97499623D02*
X242879905Y-97499623D01*
X242879905Y-97499623D02*
X242879905Y-96249623D01*
X242879905Y-96249623D02*
X243296571Y-96249623D01*
X243296571Y-96249623D02*
X243415619Y-96309147D01*
X243415619Y-96309147D02*
X243475143Y-96368671D01*
X243475143Y-96368671D02*
X243534666Y-96487719D01*
X243534666Y-96487719D02*
X243534666Y-96606766D01*
X243534666Y-96606766D02*
X243475143Y-96725814D01*
X243475143Y-96725814D02*
X243415619Y-96785338D01*
X243415619Y-96785338D02*
X243296571Y-96844861D01*
X243296571Y-96844861D02*
X242879905Y-96844861D01*
X244665619Y-96666290D02*
X244665619Y-97499623D01*
X244129905Y-96666290D02*
X244129905Y-97321052D01*
X244129905Y-97321052D02*
X244189428Y-97440100D01*
X244189428Y-97440100D02*
X244308476Y-97499623D01*
X244308476Y-97499623D02*
X244487047Y-97499623D01*
X244487047Y-97499623D02*
X244606095Y-97440100D01*
X244606095Y-97440100D02*
X244665619Y-97380576D01*
X245082285Y-96666290D02*
X245558476Y-96666290D01*
X245260857Y-96249623D02*
X245260857Y-97321052D01*
X245260857Y-97321052D02*
X245320380Y-97440100D01*
X245320380Y-97440100D02*
X245439428Y-97499623D01*
X245439428Y-97499623D02*
X245558476Y-97499623D01*
X245796571Y-96666290D02*
X246272762Y-96666290D01*
X245975143Y-96249623D02*
X245975143Y-97321052D01*
X245975143Y-97321052D02*
X246034666Y-97440100D01*
X246034666Y-97440100D02*
X246153714Y-97499623D01*
X246153714Y-97499623D02*
X246272762Y-97499623D01*
X246868000Y-97499623D02*
X246748952Y-97440100D01*
X246748952Y-97440100D02*
X246689429Y-97380576D01*
X246689429Y-97380576D02*
X246629905Y-97261528D01*
X246629905Y-97261528D02*
X246629905Y-96904385D01*
X246629905Y-96904385D02*
X246689429Y-96785338D01*
X246689429Y-96785338D02*
X246748952Y-96725814D01*
X246748952Y-96725814D02*
X246868000Y-96666290D01*
X246868000Y-96666290D02*
X247046571Y-96666290D01*
X247046571Y-96666290D02*
X247165619Y-96725814D01*
X247165619Y-96725814D02*
X247225143Y-96785338D01*
X247225143Y-96785338D02*
X247284667Y-96904385D01*
X247284667Y-96904385D02*
X247284667Y-97261528D01*
X247284667Y-97261528D02*
X247225143Y-97380576D01*
X247225143Y-97380576D02*
X247165619Y-97440100D01*
X247165619Y-97440100D02*
X247046571Y-97499623D01*
X247046571Y-97499623D02*
X246868000Y-97499623D01*
X247820381Y-96666290D02*
X247820381Y-97499623D01*
X247820381Y-96785338D02*
X247879904Y-96725814D01*
X247879904Y-96725814D02*
X247998952Y-96666290D01*
X247998952Y-96666290D02*
X248177523Y-96666290D01*
X248177523Y-96666290D02*
X248296571Y-96725814D01*
X248296571Y-96725814D02*
X248356095Y-96844861D01*
X248356095Y-96844861D02*
X248356095Y-97499623D01*
X190798095Y-86597001D02*
X191214761Y-86597001D01*
X191393333Y-87251763D02*
X190798095Y-87251763D01*
X190798095Y-87251763D02*
X190798095Y-86001763D01*
X190798095Y-86001763D02*
X191393333Y-86001763D01*
X191809999Y-87251763D02*
X192464761Y-86418430D01*
X191809999Y-86418430D02*
X192464761Y-87251763D01*
X192762380Y-86418430D02*
X193238571Y-86418430D01*
X192940952Y-86001763D02*
X192940952Y-87073192D01*
X192940952Y-87073192D02*
X193000475Y-87192240D01*
X193000475Y-87192240D02*
X193119523Y-87251763D01*
X193119523Y-87251763D02*
X193238571Y-87251763D01*
X194131428Y-87192240D02*
X194012380Y-87251763D01*
X194012380Y-87251763D02*
X193774285Y-87251763D01*
X193774285Y-87251763D02*
X193655238Y-87192240D01*
X193655238Y-87192240D02*
X193595714Y-87073192D01*
X193595714Y-87073192D02*
X193595714Y-86597001D01*
X193595714Y-86597001D02*
X193655238Y-86477954D01*
X193655238Y-86477954D02*
X193774285Y-86418430D01*
X193774285Y-86418430D02*
X194012380Y-86418430D01*
X194012380Y-86418430D02*
X194131428Y-86477954D01*
X194131428Y-86477954D02*
X194190952Y-86597001D01*
X194190952Y-86597001D02*
X194190952Y-86716049D01*
X194190952Y-86716049D02*
X193595714Y-86835097D01*
X194726667Y-87251763D02*
X194726667Y-86418430D01*
X194726667Y-86656525D02*
X194786190Y-86537478D01*
X194786190Y-86537478D02*
X194845714Y-86477954D01*
X194845714Y-86477954D02*
X194964762Y-86418430D01*
X194964762Y-86418430D02*
X195083809Y-86418430D01*
X195500477Y-86418430D02*
X195500477Y-87251763D01*
X195500477Y-86537478D02*
X195560000Y-86477954D01*
X195560000Y-86477954D02*
X195679048Y-86418430D01*
X195679048Y-86418430D02*
X195857619Y-86418430D01*
X195857619Y-86418430D02*
X195976667Y-86477954D01*
X195976667Y-86477954D02*
X196036191Y-86597001D01*
X196036191Y-86597001D02*
X196036191Y-87251763D01*
X197167143Y-87251763D02*
X197167143Y-86597001D01*
X197167143Y-86597001D02*
X197107619Y-86477954D01*
X197107619Y-86477954D02*
X196988571Y-86418430D01*
X196988571Y-86418430D02*
X196750476Y-86418430D01*
X196750476Y-86418430D02*
X196631429Y-86477954D01*
X197167143Y-87192240D02*
X197048095Y-87251763D01*
X197048095Y-87251763D02*
X196750476Y-87251763D01*
X196750476Y-87251763D02*
X196631429Y-87192240D01*
X196631429Y-87192240D02*
X196571905Y-87073192D01*
X196571905Y-87073192D02*
X196571905Y-86954144D01*
X196571905Y-86954144D02*
X196631429Y-86835097D01*
X196631429Y-86835097D02*
X196750476Y-86775573D01*
X196750476Y-86775573D02*
X197048095Y-86775573D01*
X197048095Y-86775573D02*
X197167143Y-86716049D01*
X197940952Y-87251763D02*
X197821904Y-87192240D01*
X197821904Y-87192240D02*
X197762381Y-87073192D01*
X197762381Y-87073192D02*
X197762381Y-86001763D01*
X192167143Y-89264193D02*
X192167143Y-88014193D01*
X192167143Y-88014193D02*
X192643333Y-88014193D01*
X192643333Y-88014193D02*
X192762381Y-88073717D01*
X192762381Y-88073717D02*
X192821904Y-88133241D01*
X192821904Y-88133241D02*
X192881428Y-88252289D01*
X192881428Y-88252289D02*
X192881428Y-88430860D01*
X192881428Y-88430860D02*
X192821904Y-88549908D01*
X192821904Y-88549908D02*
X192762381Y-88609431D01*
X192762381Y-88609431D02*
X192643333Y-88668955D01*
X192643333Y-88668955D02*
X192167143Y-88668955D01*
X193298095Y-88014193D02*
X193595714Y-89264193D01*
X193595714Y-89264193D02*
X193833809Y-88371336D01*
X193833809Y-88371336D02*
X194071904Y-89264193D01*
X194071904Y-89264193D02*
X194369524Y-88014193D01*
X195559999Y-89264193D02*
X195143333Y-88668955D01*
X194845714Y-89264193D02*
X194845714Y-88014193D01*
X194845714Y-88014193D02*
X195321904Y-88014193D01*
X195321904Y-88014193D02*
X195440952Y-88073717D01*
X195440952Y-88073717D02*
X195500475Y-88133241D01*
X195500475Y-88133241D02*
X195559999Y-88252289D01*
X195559999Y-88252289D02*
X195559999Y-88430860D01*
X195559999Y-88430860D02*
X195500475Y-88549908D01*
X195500475Y-88549908D02*
X195440952Y-88609431D01*
X195440952Y-88609431D02*
X195321904Y-88668955D01*
X195321904Y-88668955D02*
X194845714Y-88668955D01*
X189756429Y-91752814D02*
X189696906Y-91693290D01*
X189696906Y-91693290D02*
X189577858Y-91514719D01*
X189577858Y-91514719D02*
X189518334Y-91395671D01*
X189518334Y-91395671D02*
X189458810Y-91217100D01*
X189458810Y-91217100D02*
X189399287Y-90919480D01*
X189399287Y-90919480D02*
X189399287Y-90681385D01*
X189399287Y-90681385D02*
X189458810Y-90383766D01*
X189458810Y-90383766D02*
X189518334Y-90205195D01*
X189518334Y-90205195D02*
X189577858Y-90086147D01*
X189577858Y-90086147D02*
X189696906Y-89907576D01*
X189696906Y-89907576D02*
X189756429Y-89848052D01*
X190113572Y-90026623D02*
X190887381Y-90026623D01*
X190887381Y-90026623D02*
X190470715Y-90502814D01*
X190470715Y-90502814D02*
X190649286Y-90502814D01*
X190649286Y-90502814D02*
X190768334Y-90562338D01*
X190768334Y-90562338D02*
X190827858Y-90621861D01*
X190827858Y-90621861D02*
X190887381Y-90740909D01*
X190887381Y-90740909D02*
X190887381Y-91038528D01*
X190887381Y-91038528D02*
X190827858Y-91157576D01*
X190827858Y-91157576D02*
X190768334Y-91217100D01*
X190768334Y-91217100D02*
X190649286Y-91276623D01*
X190649286Y-91276623D02*
X190292143Y-91276623D01*
X190292143Y-91276623D02*
X190173096Y-91217100D01*
X190173096Y-91217100D02*
X190113572Y-91157576D01*
X191304048Y-90443290D02*
X191601667Y-91276623D01*
X191601667Y-91276623D02*
X191899286Y-90443290D01*
X192256429Y-90026623D02*
X193030238Y-90026623D01*
X193030238Y-90026623D02*
X192613572Y-90502814D01*
X192613572Y-90502814D02*
X192792143Y-90502814D01*
X192792143Y-90502814D02*
X192911191Y-90562338D01*
X192911191Y-90562338D02*
X192970715Y-90621861D01*
X192970715Y-90621861D02*
X193030238Y-90740909D01*
X193030238Y-90740909D02*
X193030238Y-91038528D01*
X193030238Y-91038528D02*
X192970715Y-91157576D01*
X192970715Y-91157576D02*
X192911191Y-91217100D01*
X192911191Y-91217100D02*
X192792143Y-91276623D01*
X192792143Y-91276623D02*
X192435000Y-91276623D01*
X192435000Y-91276623D02*
X192315953Y-91217100D01*
X192315953Y-91217100D02*
X192256429Y-91157576D01*
X194696905Y-91276623D02*
X194577857Y-91217100D01*
X194577857Y-91217100D02*
X194518334Y-91157576D01*
X194518334Y-91157576D02*
X194458810Y-91038528D01*
X194458810Y-91038528D02*
X194458810Y-90681385D01*
X194458810Y-90681385D02*
X194518334Y-90562338D01*
X194518334Y-90562338D02*
X194577857Y-90502814D01*
X194577857Y-90502814D02*
X194696905Y-90443290D01*
X194696905Y-90443290D02*
X194875476Y-90443290D01*
X194875476Y-90443290D02*
X194994524Y-90502814D01*
X194994524Y-90502814D02*
X195054048Y-90562338D01*
X195054048Y-90562338D02*
X195113572Y-90681385D01*
X195113572Y-90681385D02*
X195113572Y-91038528D01*
X195113572Y-91038528D02*
X195054048Y-91157576D01*
X195054048Y-91157576D02*
X194994524Y-91217100D01*
X194994524Y-91217100D02*
X194875476Y-91276623D01*
X194875476Y-91276623D02*
X194696905Y-91276623D01*
X195649286Y-90443290D02*
X195649286Y-91276623D01*
X195649286Y-90562338D02*
X195708809Y-90502814D01*
X195708809Y-90502814D02*
X195827857Y-90443290D01*
X195827857Y-90443290D02*
X196006428Y-90443290D01*
X196006428Y-90443290D02*
X196125476Y-90502814D01*
X196125476Y-90502814D02*
X196185000Y-90621861D01*
X196185000Y-90621861D02*
X196185000Y-91276623D01*
X196958809Y-91276623D02*
X196839761Y-91217100D01*
X196839761Y-91217100D02*
X196780238Y-91098052D01*
X196780238Y-91098052D02*
X196780238Y-90026623D01*
X197315952Y-90443290D02*
X197613571Y-91276623D01*
X197911190Y-90443290D02*
X197613571Y-91276623D01*
X197613571Y-91276623D02*
X197494523Y-91574242D01*
X197494523Y-91574242D02*
X197435000Y-91633766D01*
X197435000Y-91633766D02*
X197315952Y-91693290D01*
X198387381Y-91157576D02*
X198446904Y-91217100D01*
X198446904Y-91217100D02*
X198387381Y-91276623D01*
X198387381Y-91276623D02*
X198327857Y-91217100D01*
X198327857Y-91217100D02*
X198387381Y-91157576D01*
X198387381Y-91157576D02*
X198387381Y-91276623D01*
X198387381Y-90800433D02*
X198327857Y-90086147D01*
X198327857Y-90086147D02*
X198387381Y-90026623D01*
X198387381Y-90026623D02*
X198446904Y-90086147D01*
X198446904Y-90086147D02*
X198387381Y-90800433D01*
X198387381Y-90800433D02*
X198387381Y-90026623D01*
X198863571Y-91752814D02*
X198923095Y-91693290D01*
X198923095Y-91693290D02*
X199042142Y-91514719D01*
X199042142Y-91514719D02*
X199101666Y-91395671D01*
X199101666Y-91395671D02*
X199161190Y-91217100D01*
X199161190Y-91217100D02*
X199220714Y-90919480D01*
X199220714Y-90919480D02*
X199220714Y-90681385D01*
X199220714Y-90681385D02*
X199161190Y-90383766D01*
X199161190Y-90383766D02*
X199101666Y-90205195D01*
X199101666Y-90205195D02*
X199042142Y-90086147D01*
X199042142Y-90086147D02*
X198923095Y-89907576D01*
X198923095Y-89907576D02*
X198863571Y-89848052D01*
X234543810Y-95404193D02*
X233948572Y-95404193D01*
X233948572Y-95404193D02*
X233948572Y-94154193D01*
X234960477Y-95404193D02*
X234960477Y-94570860D01*
X234960477Y-94154193D02*
X234900953Y-94213717D01*
X234900953Y-94213717D02*
X234960477Y-94273241D01*
X234960477Y-94273241D02*
X235020000Y-94213717D01*
X235020000Y-94213717D02*
X234960477Y-94154193D01*
X234960477Y-94154193D02*
X234960477Y-94273241D01*
X236091429Y-95404193D02*
X236091429Y-94154193D01*
X236091429Y-95344670D02*
X235972381Y-95404193D01*
X235972381Y-95404193D02*
X235734286Y-95404193D01*
X235734286Y-95404193D02*
X235615238Y-95344670D01*
X235615238Y-95344670D02*
X235555715Y-95285146D01*
X235555715Y-95285146D02*
X235496191Y-95166098D01*
X235496191Y-95166098D02*
X235496191Y-94808955D01*
X235496191Y-94808955D02*
X235555715Y-94689908D01*
X235555715Y-94689908D02*
X235615238Y-94630384D01*
X235615238Y-94630384D02*
X235734286Y-94570860D01*
X235734286Y-94570860D02*
X235972381Y-94570860D01*
X235972381Y-94570860D02*
X236091429Y-94630384D01*
X232252143Y-97357100D02*
X232430714Y-97416623D01*
X232430714Y-97416623D02*
X232728333Y-97416623D01*
X232728333Y-97416623D02*
X232847381Y-97357100D01*
X232847381Y-97357100D02*
X232906905Y-97297576D01*
X232906905Y-97297576D02*
X232966428Y-97178528D01*
X232966428Y-97178528D02*
X232966428Y-97059480D01*
X232966428Y-97059480D02*
X232906905Y-96940433D01*
X232906905Y-96940433D02*
X232847381Y-96880909D01*
X232847381Y-96880909D02*
X232728333Y-96821385D01*
X232728333Y-96821385D02*
X232490238Y-96761861D01*
X232490238Y-96761861D02*
X232371190Y-96702338D01*
X232371190Y-96702338D02*
X232311667Y-96642814D01*
X232311667Y-96642814D02*
X232252143Y-96523766D01*
X232252143Y-96523766D02*
X232252143Y-96404719D01*
X232252143Y-96404719D02*
X232311667Y-96285671D01*
X232311667Y-96285671D02*
X232371190Y-96226147D01*
X232371190Y-96226147D02*
X232490238Y-96166623D01*
X232490238Y-96166623D02*
X232787857Y-96166623D01*
X232787857Y-96166623D02*
X232966428Y-96226147D01*
X233383095Y-96583290D02*
X233621190Y-97416623D01*
X233621190Y-97416623D02*
X233859285Y-96821385D01*
X233859285Y-96821385D02*
X234097381Y-97416623D01*
X234097381Y-97416623D02*
X234335476Y-96583290D01*
X234811667Y-97416623D02*
X234811667Y-96583290D01*
X234811667Y-96166623D02*
X234752143Y-96226147D01*
X234752143Y-96226147D02*
X234811667Y-96285671D01*
X234811667Y-96285671D02*
X234871190Y-96226147D01*
X234871190Y-96226147D02*
X234811667Y-96166623D01*
X234811667Y-96166623D02*
X234811667Y-96285671D01*
X235228333Y-96583290D02*
X235704524Y-96583290D01*
X235406905Y-96166623D02*
X235406905Y-97238052D01*
X235406905Y-97238052D02*
X235466428Y-97357100D01*
X235466428Y-97357100D02*
X235585476Y-97416623D01*
X235585476Y-97416623D02*
X235704524Y-97416623D01*
X236656905Y-97357100D02*
X236537857Y-97416623D01*
X236537857Y-97416623D02*
X236299762Y-97416623D01*
X236299762Y-97416623D02*
X236180714Y-97357100D01*
X236180714Y-97357100D02*
X236121191Y-97297576D01*
X236121191Y-97297576D02*
X236061667Y-97178528D01*
X236061667Y-97178528D02*
X236061667Y-96821385D01*
X236061667Y-96821385D02*
X236121191Y-96702338D01*
X236121191Y-96702338D02*
X236180714Y-96642814D01*
X236180714Y-96642814D02*
X236299762Y-96583290D01*
X236299762Y-96583290D02*
X236537857Y-96583290D01*
X236537857Y-96583290D02*
X236656905Y-96642814D01*
X237192620Y-97416623D02*
X237192620Y-96166623D01*
X237728334Y-97416623D02*
X237728334Y-96761861D01*
X237728334Y-96761861D02*
X237668810Y-96642814D01*
X237668810Y-96642814D02*
X237549762Y-96583290D01*
X237549762Y-96583290D02*
X237371191Y-96583290D01*
X237371191Y-96583290D02*
X237252143Y-96642814D01*
X237252143Y-96642814D02*
X237192620Y-96702338D01*
X219443482Y-102392219D02*
X218872054Y-102392219D01*
X219157768Y-102392219D02*
X219157768Y-101392219D01*
X219157768Y-101392219D02*
X219062530Y-101535076D01*
X219062530Y-101535076D02*
X218967292Y-101630314D01*
X218967292Y-101630314D02*
X218872054Y-101677933D01*
X251476381Y-76437623D02*
X252190667Y-76437623D01*
X251833524Y-77687623D02*
X251833524Y-76437623D01*
X252607334Y-77687623D02*
X252607334Y-76854290D01*
X252607334Y-77092385D02*
X252666857Y-76973338D01*
X252666857Y-76973338D02*
X252726381Y-76913814D01*
X252726381Y-76913814D02*
X252845429Y-76854290D01*
X252845429Y-76854290D02*
X252964476Y-76854290D01*
X253916858Y-77687623D02*
X253916858Y-77032861D01*
X253916858Y-77032861D02*
X253857334Y-76913814D01*
X253857334Y-76913814D02*
X253738286Y-76854290D01*
X253738286Y-76854290D02*
X253500191Y-76854290D01*
X253500191Y-76854290D02*
X253381144Y-76913814D01*
X253916858Y-77628100D02*
X253797810Y-77687623D01*
X253797810Y-77687623D02*
X253500191Y-77687623D01*
X253500191Y-77687623D02*
X253381144Y-77628100D01*
X253381144Y-77628100D02*
X253321620Y-77509052D01*
X253321620Y-77509052D02*
X253321620Y-77390004D01*
X253321620Y-77390004D02*
X253381144Y-77270957D01*
X253381144Y-77270957D02*
X253500191Y-77211433D01*
X253500191Y-77211433D02*
X253797810Y-77211433D01*
X253797810Y-77211433D02*
X253916858Y-77151909D01*
X255047810Y-77628100D02*
X254928762Y-77687623D01*
X254928762Y-77687623D02*
X254690667Y-77687623D01*
X254690667Y-77687623D02*
X254571619Y-77628100D01*
X254571619Y-77628100D02*
X254512096Y-77568576D01*
X254512096Y-77568576D02*
X254452572Y-77449528D01*
X254452572Y-77449528D02*
X254452572Y-77092385D01*
X254452572Y-77092385D02*
X254512096Y-76973338D01*
X254512096Y-76973338D02*
X254571619Y-76913814D01*
X254571619Y-76913814D02*
X254690667Y-76854290D01*
X254690667Y-76854290D02*
X254928762Y-76854290D01*
X254928762Y-76854290D02*
X255047810Y-76913814D01*
X255583525Y-77687623D02*
X255583525Y-76437623D01*
X255702572Y-77211433D02*
X256059715Y-77687623D01*
X256059715Y-76854290D02*
X255583525Y-77330480D01*
X256595430Y-76854290D02*
X256595430Y-78104290D01*
X256595430Y-76913814D02*
X256714477Y-76854290D01*
X256714477Y-76854290D02*
X256952572Y-76854290D01*
X256952572Y-76854290D02*
X257071620Y-76913814D01*
X257071620Y-76913814D02*
X257131144Y-76973338D01*
X257131144Y-76973338D02*
X257190668Y-77092385D01*
X257190668Y-77092385D02*
X257190668Y-77449528D01*
X257190668Y-77449528D02*
X257131144Y-77568576D01*
X257131144Y-77568576D02*
X257071620Y-77628100D01*
X257071620Y-77628100D02*
X256952572Y-77687623D01*
X256952572Y-77687623D02*
X256714477Y-77687623D01*
X256714477Y-77687623D02*
X256595430Y-77628100D01*
X258262096Y-77687623D02*
X258262096Y-77032861D01*
X258262096Y-77032861D02*
X258202572Y-76913814D01*
X258202572Y-76913814D02*
X258083524Y-76854290D01*
X258083524Y-76854290D02*
X257845429Y-76854290D01*
X257845429Y-76854290D02*
X257726382Y-76913814D01*
X258262096Y-77628100D02*
X258143048Y-77687623D01*
X258143048Y-77687623D02*
X257845429Y-77687623D01*
X257845429Y-77687623D02*
X257726382Y-77628100D01*
X257726382Y-77628100D02*
X257666858Y-77509052D01*
X257666858Y-77509052D02*
X257666858Y-77390004D01*
X257666858Y-77390004D02*
X257726382Y-77270957D01*
X257726382Y-77270957D02*
X257845429Y-77211433D01*
X257845429Y-77211433D02*
X258143048Y-77211433D01*
X258143048Y-77211433D02*
X258262096Y-77151909D01*
X259393048Y-77687623D02*
X259393048Y-76437623D01*
X259393048Y-77628100D02*
X259274000Y-77687623D01*
X259274000Y-77687623D02*
X259035905Y-77687623D01*
X259035905Y-77687623D02*
X258916857Y-77628100D01*
X258916857Y-77628100D02*
X258857334Y-77568576D01*
X258857334Y-77568576D02*
X258797810Y-77449528D01*
X258797810Y-77449528D02*
X258797810Y-77092385D01*
X258797810Y-77092385D02*
X258857334Y-76973338D01*
X258857334Y-76973338D02*
X258916857Y-76913814D01*
X258916857Y-76913814D02*
X259035905Y-76854290D01*
X259035905Y-76854290D02*
X259274000Y-76854290D01*
X259274000Y-76854290D02*
X259393048Y-76913814D01*
X211772054Y-101537457D02*
X211819673Y-101489838D01*
X211819673Y-101489838D02*
X211914911Y-101442219D01*
X211914911Y-101442219D02*
X212153006Y-101442219D01*
X212153006Y-101442219D02*
X212248244Y-101489838D01*
X212248244Y-101489838D02*
X212295863Y-101537457D01*
X212295863Y-101537457D02*
X212343482Y-101632695D01*
X212343482Y-101632695D02*
X212343482Y-101727933D01*
X212343482Y-101727933D02*
X212295863Y-101870790D01*
X212295863Y-101870790D02*
X211724435Y-102442219D01*
X211724435Y-102442219D02*
X212343482Y-102442219D01*
X211657905Y-105246623D02*
X211657905Y-103996623D01*
X212372190Y-105246623D02*
X211836476Y-104532338D01*
X212372190Y-103996623D02*
X211657905Y-104710909D01*
X213384095Y-105187100D02*
X213265047Y-105246623D01*
X213265047Y-105246623D02*
X213026952Y-105246623D01*
X213026952Y-105246623D02*
X212907905Y-105187100D01*
X212907905Y-105187100D02*
X212848381Y-105068052D01*
X212848381Y-105068052D02*
X212848381Y-104591861D01*
X212848381Y-104591861D02*
X212907905Y-104472814D01*
X212907905Y-104472814D02*
X213026952Y-104413290D01*
X213026952Y-104413290D02*
X213265047Y-104413290D01*
X213265047Y-104413290D02*
X213384095Y-104472814D01*
X213384095Y-104472814D02*
X213443619Y-104591861D01*
X213443619Y-104591861D02*
X213443619Y-104710909D01*
X213443619Y-104710909D02*
X212848381Y-104829957D01*
X213860286Y-104413290D02*
X214157905Y-105246623D01*
X214455524Y-104413290D02*
X214157905Y-105246623D01*
X214157905Y-105246623D02*
X214038857Y-105544242D01*
X214038857Y-105544242D02*
X213979334Y-105603766D01*
X213979334Y-105603766D02*
X213860286Y-105663290D01*
X214931715Y-105246623D02*
X214931715Y-103996623D01*
X214931715Y-104472814D02*
X215050762Y-104413290D01*
X215050762Y-104413290D02*
X215288857Y-104413290D01*
X215288857Y-104413290D02*
X215407905Y-104472814D01*
X215407905Y-104472814D02*
X215467429Y-104532338D01*
X215467429Y-104532338D02*
X215526953Y-104651385D01*
X215526953Y-104651385D02*
X215526953Y-105008528D01*
X215526953Y-105008528D02*
X215467429Y-105127576D01*
X215467429Y-105127576D02*
X215407905Y-105187100D01*
X215407905Y-105187100D02*
X215288857Y-105246623D01*
X215288857Y-105246623D02*
X215050762Y-105246623D01*
X215050762Y-105246623D02*
X214931715Y-105187100D01*
X216241238Y-105246623D02*
X216122190Y-105187100D01*
X216122190Y-105187100D02*
X216062667Y-105127576D01*
X216062667Y-105127576D02*
X216003143Y-105008528D01*
X216003143Y-105008528D02*
X216003143Y-104651385D01*
X216003143Y-104651385D02*
X216062667Y-104532338D01*
X216062667Y-104532338D02*
X216122190Y-104472814D01*
X216122190Y-104472814D02*
X216241238Y-104413290D01*
X216241238Y-104413290D02*
X216419809Y-104413290D01*
X216419809Y-104413290D02*
X216538857Y-104472814D01*
X216538857Y-104472814D02*
X216598381Y-104532338D01*
X216598381Y-104532338D02*
X216657905Y-104651385D01*
X216657905Y-104651385D02*
X216657905Y-105008528D01*
X216657905Y-105008528D02*
X216598381Y-105127576D01*
X216598381Y-105127576D02*
X216538857Y-105187100D01*
X216538857Y-105187100D02*
X216419809Y-105246623D01*
X216419809Y-105246623D02*
X216241238Y-105246623D01*
X217729333Y-105246623D02*
X217729333Y-104591861D01*
X217729333Y-104591861D02*
X217669809Y-104472814D01*
X217669809Y-104472814D02*
X217550761Y-104413290D01*
X217550761Y-104413290D02*
X217312666Y-104413290D01*
X217312666Y-104413290D02*
X217193619Y-104472814D01*
X217729333Y-105187100D02*
X217610285Y-105246623D01*
X217610285Y-105246623D02*
X217312666Y-105246623D01*
X217312666Y-105246623D02*
X217193619Y-105187100D01*
X217193619Y-105187100D02*
X217134095Y-105068052D01*
X217134095Y-105068052D02*
X217134095Y-104949004D01*
X217134095Y-104949004D02*
X217193619Y-104829957D01*
X217193619Y-104829957D02*
X217312666Y-104770433D01*
X217312666Y-104770433D02*
X217610285Y-104770433D01*
X217610285Y-104770433D02*
X217729333Y-104710909D01*
X218324571Y-105246623D02*
X218324571Y-104413290D01*
X218324571Y-104651385D02*
X218384094Y-104532338D01*
X218384094Y-104532338D02*
X218443618Y-104472814D01*
X218443618Y-104472814D02*
X218562666Y-104413290D01*
X218562666Y-104413290D02*
X218681713Y-104413290D01*
X219634095Y-105246623D02*
X219634095Y-103996623D01*
X219634095Y-105187100D02*
X219515047Y-105246623D01*
X219515047Y-105246623D02*
X219276952Y-105246623D01*
X219276952Y-105246623D02*
X219157904Y-105187100D01*
X219157904Y-105187100D02*
X219098381Y-105127576D01*
X219098381Y-105127576D02*
X219038857Y-105008528D01*
X219038857Y-105008528D02*
X219038857Y-104651385D01*
X219038857Y-104651385D02*
X219098381Y-104532338D01*
X219098381Y-104532338D02*
X219157904Y-104472814D01*
X219157904Y-104472814D02*
X219276952Y-104413290D01*
X219276952Y-104413290D02*
X219515047Y-104413290D01*
X219515047Y-104413290D02*
X219634095Y-104472814D01*
D11*
X201469334Y-100514322D02*
X201469334Y-99800037D01*
X201469334Y-99800037D02*
X201516953Y-99657180D01*
X201516953Y-99657180D02*
X201612191Y-99561942D01*
X201612191Y-99561942D02*
X201755048Y-99514322D01*
X201755048Y-99514322D02*
X201850286Y-99514322D01*
X200564572Y-100180989D02*
X200564572Y-99514322D01*
X200802667Y-100561942D02*
X201040762Y-99847656D01*
X201040762Y-99847656D02*
X200421715Y-99847656D01*
X239059062Y-75540171D02*
X239059062Y-74538785D01*
X239059062Y-74538785D02*
X239440542Y-74538785D01*
X239440542Y-74538785D02*
X239535912Y-74586470D01*
X239535912Y-74586470D02*
X239583597Y-74634155D01*
X239583597Y-74634155D02*
X239631282Y-74729525D01*
X239631282Y-74729525D02*
X239631282Y-74872580D01*
X239631282Y-74872580D02*
X239583597Y-74967950D01*
X239583597Y-74967950D02*
X239535912Y-75015635D01*
X239535912Y-75015635D02*
X239440542Y-75063320D01*
X239440542Y-75063320D02*
X239059062Y-75063320D01*
X240489613Y-74872580D02*
X240489613Y-75540171D01*
X240251188Y-74491100D02*
X240012763Y-75206375D01*
X240012763Y-75206375D02*
X240632668Y-75206375D01*
X252329819Y-80041666D02*
X251853628Y-80374999D01*
X252329819Y-80613094D02*
X251329819Y-80613094D01*
X251329819Y-80613094D02*
X251329819Y-80232142D01*
X251329819Y-80232142D02*
X251377438Y-80136904D01*
X251377438Y-80136904D02*
X251425057Y-80089285D01*
X251425057Y-80089285D02*
X251520295Y-80041666D01*
X251520295Y-80041666D02*
X251663152Y-80041666D01*
X251663152Y-80041666D02*
X251758390Y-80089285D01*
X251758390Y-80089285D02*
X251806009Y-80136904D01*
X251806009Y-80136904D02*
X251853628Y-80232142D01*
X251853628Y-80232142D02*
X251853628Y-80613094D01*
X252329819Y-79089285D02*
X252329819Y-79660713D01*
X252329819Y-79374999D02*
X251329819Y-79374999D01*
X251329819Y-79374999D02*
X251472676Y-79470237D01*
X251472676Y-79470237D02*
X251567914Y-79565475D01*
X251567914Y-79565475D02*
X251615533Y-79660713D01*
X256555105Y-91964468D02*
X256555105Y-92678753D01*
X256555105Y-92678753D02*
X256507486Y-92821610D01*
X256507486Y-92821610D02*
X256412248Y-92916849D01*
X256412248Y-92916849D02*
X256269391Y-92964468D01*
X256269391Y-92964468D02*
X256174153Y-92964468D01*
X256983677Y-92059706D02*
X257031296Y-92012087D01*
X257031296Y-92012087D02*
X257126534Y-91964468D01*
X257126534Y-91964468D02*
X257364629Y-91964468D01*
X257364629Y-91964468D02*
X257459867Y-92012087D01*
X257459867Y-92012087D02*
X257507486Y-92059706D01*
X257507486Y-92059706D02*
X257555105Y-92154944D01*
X257555105Y-92154944D02*
X257555105Y-92250182D01*
X257555105Y-92250182D02*
X257507486Y-92393039D01*
X257507486Y-92393039D02*
X256936058Y-92964468D01*
X256936058Y-92964468D02*
X257555105Y-92964468D01*
X234336306Y-109753440D02*
X234336306Y-108752054D01*
X234336306Y-108752054D02*
X234717786Y-108752054D01*
X234717786Y-108752054D02*
X234813156Y-108799739D01*
X234813156Y-108799739D02*
X234860841Y-108847424D01*
X234860841Y-108847424D02*
X234908526Y-108942794D01*
X234908526Y-108942794D02*
X234908526Y-109085849D01*
X234908526Y-109085849D02*
X234860841Y-109181219D01*
X234860841Y-109181219D02*
X234813156Y-109228904D01*
X234813156Y-109228904D02*
X234717786Y-109276589D01*
X234717786Y-109276589D02*
X234336306Y-109276589D01*
X235290007Y-108847424D02*
X235337692Y-108799739D01*
X235337692Y-108799739D02*
X235433062Y-108752054D01*
X235433062Y-108752054D02*
X235671487Y-108752054D01*
X235671487Y-108752054D02*
X235766857Y-108799739D01*
X235766857Y-108799739D02*
X235814542Y-108847424D01*
X235814542Y-108847424D02*
X235862227Y-108942794D01*
X235862227Y-108942794D02*
X235862227Y-109038164D01*
X235862227Y-109038164D02*
X235814542Y-109181219D01*
X235814542Y-109181219D02*
X235242322Y-109753440D01*
X235242322Y-109753440D02*
X235862227Y-109753440D01*
X192534062Y-75188171D02*
X192534062Y-74186785D01*
X192534062Y-74186785D02*
X192915542Y-74186785D01*
X192915542Y-74186785D02*
X193010912Y-74234470D01*
X193010912Y-74234470D02*
X193058597Y-74282155D01*
X193058597Y-74282155D02*
X193106282Y-74377525D01*
X193106282Y-74377525D02*
X193106282Y-74520580D01*
X193106282Y-74520580D02*
X193058597Y-74615950D01*
X193058597Y-74615950D02*
X193010912Y-74663635D01*
X193010912Y-74663635D02*
X192915542Y-74711320D01*
X192915542Y-74711320D02*
X192534062Y-74711320D01*
X193440078Y-74186785D02*
X194059983Y-74186785D01*
X194059983Y-74186785D02*
X193726188Y-74568265D01*
X193726188Y-74568265D02*
X193869243Y-74568265D01*
X193869243Y-74568265D02*
X193964613Y-74615950D01*
X193964613Y-74615950D02*
X194012298Y-74663635D01*
X194012298Y-74663635D02*
X194059983Y-74759005D01*
X194059983Y-74759005D02*
X194059983Y-74997430D01*
X194059983Y-74997430D02*
X194012298Y-75092800D01*
X194012298Y-75092800D02*
X193964613Y-75140486D01*
X193964613Y-75140486D02*
X193869243Y-75188171D01*
X193869243Y-75188171D02*
X193583133Y-75188171D01*
X193583133Y-75188171D02*
X193487763Y-75140486D01*
X193487763Y-75140486D02*
X193440078Y-75092800D01*
D12*
X215141666Y-101132419D02*
X215141666Y-101846704D01*
X215141666Y-101846704D02*
X215094047Y-101989561D01*
X215094047Y-101989561D02*
X214998809Y-102084800D01*
X214998809Y-102084800D02*
X214855952Y-102132419D01*
X214855952Y-102132419D02*
X214760714Y-102132419D01*
X216141666Y-102132419D02*
X215570238Y-102132419D01*
X215855952Y-102132419D02*
X215855952Y-101132419D01*
X215855952Y-101132419D02*
X215760714Y-101275276D01*
X215760714Y-101275276D02*
X215665476Y-101370514D01*
X215665476Y-101370514D02*
X215570238Y-101418133D01*
D11*
X227354819Y-79590476D02*
X226878628Y-79923809D01*
X227354819Y-80161904D02*
X226354819Y-80161904D01*
X226354819Y-80161904D02*
X226354819Y-79780952D01*
X226354819Y-79780952D02*
X226402438Y-79685714D01*
X226402438Y-79685714D02*
X226450057Y-79638095D01*
X226450057Y-79638095D02*
X226545295Y-79590476D01*
X226545295Y-79590476D02*
X226688152Y-79590476D01*
X226688152Y-79590476D02*
X226783390Y-79638095D01*
X226783390Y-79638095D02*
X226831009Y-79685714D01*
X226831009Y-79685714D02*
X226878628Y-79780952D01*
X226878628Y-79780952D02*
X226878628Y-80161904D01*
X227354819Y-79161904D02*
X226354819Y-79161904D01*
X226354819Y-79161904D02*
X227354819Y-78590476D01*
X227354819Y-78590476D02*
X226354819Y-78590476D01*
X226354819Y-78209523D02*
X226354819Y-77590476D01*
X226354819Y-77590476D02*
X226735771Y-77923809D01*
X226735771Y-77923809D02*
X226735771Y-77780952D01*
X226735771Y-77780952D02*
X226783390Y-77685714D01*
X226783390Y-77685714D02*
X226831009Y-77638095D01*
X226831009Y-77638095D02*
X226926247Y-77590476D01*
X226926247Y-77590476D02*
X227164342Y-77590476D01*
X227164342Y-77590476D02*
X227259580Y-77638095D01*
X227259580Y-77638095D02*
X227307200Y-77685714D01*
X227307200Y-77685714D02*
X227354819Y-77780952D01*
X227354819Y-77780952D02*
X227354819Y-78066666D01*
X227354819Y-78066666D02*
X227307200Y-78161904D01*
X227307200Y-78161904D02*
X227259580Y-78209523D01*
X199669819Y-80272004D02*
X200479342Y-80272004D01*
X200479342Y-80272004D02*
X200574580Y-80224385D01*
X200574580Y-80224385D02*
X200622200Y-80176766D01*
X200622200Y-80176766D02*
X200669819Y-80081528D01*
X200669819Y-80081528D02*
X200669819Y-79891052D01*
X200669819Y-79891052D02*
X200622200Y-79795814D01*
X200622200Y-79795814D02*
X200574580Y-79748195D01*
X200574580Y-79748195D02*
X200479342Y-79700576D01*
X200479342Y-79700576D02*
X199669819Y-79700576D01*
X199765057Y-79272004D02*
X199717438Y-79224385D01*
X199717438Y-79224385D02*
X199669819Y-79129147D01*
X199669819Y-79129147D02*
X199669819Y-78891052D01*
X199669819Y-78891052D02*
X199717438Y-78795814D01*
X199717438Y-78795814D02*
X199765057Y-78748195D01*
X199765057Y-78748195D02*
X199860295Y-78700576D01*
X199860295Y-78700576D02*
X199955533Y-78700576D01*
X199955533Y-78700576D02*
X200098390Y-78748195D01*
X200098390Y-78748195D02*
X200669819Y-79319623D01*
X200669819Y-79319623D02*
X200669819Y-78700576D01*
X227329819Y-90665476D02*
X226853628Y-90998809D01*
X227329819Y-91236904D02*
X226329819Y-91236904D01*
X226329819Y-91236904D02*
X226329819Y-90855952D01*
X226329819Y-90855952D02*
X226377438Y-90760714D01*
X226377438Y-90760714D02*
X226425057Y-90713095D01*
X226425057Y-90713095D02*
X226520295Y-90665476D01*
X226520295Y-90665476D02*
X226663152Y-90665476D01*
X226663152Y-90665476D02*
X226758390Y-90713095D01*
X226758390Y-90713095D02*
X226806009Y-90760714D01*
X226806009Y-90760714D02*
X226853628Y-90855952D01*
X226853628Y-90855952D02*
X226853628Y-91236904D01*
X227329819Y-90236904D02*
X226329819Y-90236904D01*
X226329819Y-90236904D02*
X227329819Y-89665476D01*
X227329819Y-89665476D02*
X226329819Y-89665476D01*
X227329819Y-88665476D02*
X227329819Y-89236904D01*
X227329819Y-88951190D02*
X226329819Y-88951190D01*
X226329819Y-88951190D02*
X226472676Y-89046428D01*
X226472676Y-89046428D02*
X226567914Y-89141666D01*
X226567914Y-89141666D02*
X226615533Y-89236904D01*
X199754819Y-87434354D02*
X200564342Y-87434354D01*
X200564342Y-87434354D02*
X200659580Y-87386735D01*
X200659580Y-87386735D02*
X200707200Y-87339116D01*
X200707200Y-87339116D02*
X200754819Y-87243878D01*
X200754819Y-87243878D02*
X200754819Y-87053402D01*
X200754819Y-87053402D02*
X200707200Y-86958164D01*
X200707200Y-86958164D02*
X200659580Y-86910545D01*
X200659580Y-86910545D02*
X200564342Y-86862926D01*
X200564342Y-86862926D02*
X199754819Y-86862926D01*
X199754819Y-86481973D02*
X199754819Y-85862926D01*
X199754819Y-85862926D02*
X200135771Y-86196259D01*
X200135771Y-86196259D02*
X200135771Y-86053402D01*
X200135771Y-86053402D02*
X200183390Y-85958164D01*
X200183390Y-85958164D02*
X200231009Y-85910545D01*
X200231009Y-85910545D02*
X200326247Y-85862926D01*
X200326247Y-85862926D02*
X200564342Y-85862926D01*
X200564342Y-85862926D02*
X200659580Y-85910545D01*
X200659580Y-85910545D02*
X200707200Y-85958164D01*
X200707200Y-85958164D02*
X200754819Y-86053402D01*
X200754819Y-86053402D02*
X200754819Y-86339116D01*
X200754819Y-86339116D02*
X200707200Y-86434354D01*
X200707200Y-86434354D02*
X200659580Y-86481973D01*
X227354819Y-84640476D02*
X226878628Y-84973809D01*
X227354819Y-85211904D02*
X226354819Y-85211904D01*
X226354819Y-85211904D02*
X226354819Y-84830952D01*
X226354819Y-84830952D02*
X226402438Y-84735714D01*
X226402438Y-84735714D02*
X226450057Y-84688095D01*
X226450057Y-84688095D02*
X226545295Y-84640476D01*
X226545295Y-84640476D02*
X226688152Y-84640476D01*
X226688152Y-84640476D02*
X226783390Y-84688095D01*
X226783390Y-84688095D02*
X226831009Y-84735714D01*
X226831009Y-84735714D02*
X226878628Y-84830952D01*
X226878628Y-84830952D02*
X226878628Y-85211904D01*
X227354819Y-84211904D02*
X226354819Y-84211904D01*
X226354819Y-84211904D02*
X227354819Y-83640476D01*
X227354819Y-83640476D02*
X226354819Y-83640476D01*
X226450057Y-83211904D02*
X226402438Y-83164285D01*
X226402438Y-83164285D02*
X226354819Y-83069047D01*
X226354819Y-83069047D02*
X226354819Y-82830952D01*
X226354819Y-82830952D02*
X226402438Y-82735714D01*
X226402438Y-82735714D02*
X226450057Y-82688095D01*
X226450057Y-82688095D02*
X226545295Y-82640476D01*
X226545295Y-82640476D02*
X226640533Y-82640476D01*
X226640533Y-82640476D02*
X226783390Y-82688095D01*
X226783390Y-82688095D02*
X227354819Y-83259523D01*
X227354819Y-83259523D02*
X227354819Y-82640476D01*
X244711306Y-109828440D02*
X244711306Y-108827054D01*
X244711306Y-108827054D02*
X245092786Y-108827054D01*
X245092786Y-108827054D02*
X245188156Y-108874739D01*
X245188156Y-108874739D02*
X245235841Y-108922424D01*
X245235841Y-108922424D02*
X245283526Y-109017794D01*
X245283526Y-109017794D02*
X245283526Y-109160849D01*
X245283526Y-109160849D02*
X245235841Y-109256219D01*
X245235841Y-109256219D02*
X245188156Y-109303904D01*
X245188156Y-109303904D02*
X245092786Y-109351589D01*
X245092786Y-109351589D02*
X244711306Y-109351589D01*
X246237227Y-109828440D02*
X245665007Y-109828440D01*
X245951117Y-109828440D02*
X245951117Y-108827054D01*
X245951117Y-108827054D02*
X245855747Y-108970109D01*
X245855747Y-108970109D02*
X245760377Y-109065479D01*
X245760377Y-109065479D02*
X245665007Y-109113164D01*
D13*
%TO.C,J4*%
X206216001Y-103578660D02*
X206216001Y-99497543D01*
X206216001Y-99497543D02*
X203964042Y-99497543D01*
X202307962Y-99497543D02*
X201964041Y-99497543D01*
X200307961Y-99497543D02*
X199964040Y-99497543D01*
X198307960Y-99497543D02*
X196056001Y-99497543D01*
X197918840Y-107346143D02*
X204353162Y-107346143D01*
X196056001Y-99497543D02*
X196056001Y-103578660D01*
D14*
X195802001Y-99969142D02*
G75*
G02*
X195040001Y-99969142I-381000J0D01*
G01*
X195040001Y-99969142D02*
G75*
G02*
X195802001Y-99969142I381000J0D01*
G01*
%TO.C,P4*%
D15*
X243088500Y-85582000D02*
G75*
G02*
X242961500Y-85582000I-63500J0D01*
G01*
X242961500Y-85582000D02*
G75*
G02*
X243088500Y-85582000I63500J0D01*
G01*
D16*
%TO.C,R1*%
X252790000Y-80102064D02*
X252790000Y-79647936D01*
X254260000Y-80102064D02*
X254260000Y-79647936D01*
D15*
%TO.C,J2*%
X255188439Y-78709649D02*
X255188439Y-81789649D01*
X255188439Y-83789649D02*
X255188439Y-83029649D01*
X255188439Y-85789649D02*
X255188439Y-85029649D01*
X255188439Y-87029649D02*
X255188439Y-91109649D01*
X255188439Y-91109649D02*
X258788439Y-91109649D01*
X258788439Y-78709649D02*
X255188439Y-78709649D01*
X258788439Y-82789649D02*
X258788439Y-78709649D01*
X258788439Y-84029649D02*
X258788439Y-84789649D01*
X258788439Y-86029649D02*
X258788439Y-86789649D01*
X258788439Y-91109649D02*
X258788439Y-88029649D01*
D10*
X253588439Y-82409649D02*
G75*
G02*
X253388439Y-82409649I-100000J0D01*
G01*
X253388439Y-82409649D02*
G75*
G02*
X253588439Y-82409649I100000J0D01*
G01*
%TO.C,P2*%
D15*
X233288924Y-98822979D02*
G75*
G02*
X233161924Y-98822979I-63500J0D01*
G01*
X233161924Y-98822979D02*
G75*
G02*
X233288924Y-98822979I63500J0D01*
G01*
%TO.C,P3*%
X196563500Y-85230000D02*
G75*
G02*
X196436500Y-85230000I-63500J0D01*
G01*
X196436500Y-85230000D02*
G75*
G02*
X196563500Y-85230000I63500J0D01*
G01*
D12*
%TO.C,J1*%
X213975000Y-102450000D02*
X213975000Y-76650000D01*
X217075000Y-76650000D02*
X213975000Y-76650000D01*
X217075000Y-102450000D02*
X213975000Y-102450000D01*
X217075000Y-102450000D02*
X217075000Y-76650000D01*
D16*
%TO.C,RN3*%
X226070000Y-79950000D02*
X226070000Y-77850000D01*
X220730000Y-79950000D02*
X220730000Y-77850000D01*
D13*
%TO.C,U2*%
X201044200Y-77854100D02*
X201044200Y-82095900D01*
X211305800Y-82095900D02*
X211305800Y-77854100D01*
D17*
G36*
X203190500Y-83734200D02*
G01*
X202809500Y-83734200D01*
X202809500Y-83480200D01*
X203190500Y-83480200D01*
X203190500Y-83734200D01*
G37*
D16*
%TO.C,RN1*%
X220705000Y-89025000D02*
X220705000Y-91125000D01*
X226045000Y-89025000D02*
X226045000Y-91125000D01*
D13*
%TO.C,U3*%
X201054200Y-84956550D02*
X201054200Y-89198350D01*
X211315800Y-89198350D02*
X211315800Y-84956550D01*
D17*
G36*
X203200500Y-90836650D02*
G01*
X202819500Y-90836650D01*
X202819500Y-90582650D01*
X203200500Y-90582650D01*
X203200500Y-90836650D01*
G37*
D16*
%TO.C,RN2*%
X220730000Y-85000000D02*
X220730000Y-82900000D01*
X226070000Y-85000000D02*
X226070000Y-82900000D01*
%TO.C,P1*%
D15*
X243663924Y-98822979D02*
G75*
G02*
X243536924Y-98822979I-63500J0D01*
G01*
X243536924Y-98822979D02*
G75*
G02*
X243663924Y-98822979I63500J0D01*
G01*
%TD*%
M02*
