%TF.GenerationSoftware,KiCad,Pcbnew,8.0.4*%
%TF.CreationDate,2025-03-13T09:59:00-07:00*%
%TF.ProjectId,keyboard_board,6b657962-6f61-4726-945f-626f6172642e,rev?*%
%TF.SameCoordinates,Original*%
%TF.FileFunction,Copper,L1,Top*%
%TF.FilePolarity,Positive*%
%FSLAX46Y46*%
G04 Gerber Fmt 4.6, Leading zero omitted, Abs format (unit mm)*
G04 Created by KiCad (PCBNEW 8.0.4) date 2025-03-13 09:59:00*
%MOMM*%
%LPD*%
G01*
G04 APERTURE LIST*
G04 Aperture macros list*
%AMRoundRect*
0 Rectangle with rounded corners*
0 $1 Rounding radius*
0 $2 $3 $4 $5 $6 $7 $8 $9 X,Y pos of 4 corners*
0 Add a 4 corners polygon primitive as box body*
4,1,4,$2,$3,$4,$5,$6,$7,$8,$9,$2,$3,0*
0 Add four circle primitives for the rounded corners*
1,1,$1+$1,$2,$3*
1,1,$1+$1,$4,$5*
1,1,$1+$1,$6,$7*
1,1,$1+$1,$8,$9*
0 Add four rect primitives between the rounded corners*
20,1,$1+$1,$2,$3,$4,$5,0*
20,1,$1+$1,$4,$5,$6,$7,0*
20,1,$1+$1,$6,$7,$8,$9,0*
20,1,$1+$1,$8,$9,$2,$3,0*%
G04 Aperture macros list end*
%TA.AperFunction,SMDPad,CuDef*%
%ADD10R,0.990600X3.505200*%
%TD*%
%TA.AperFunction,SMDPad,CuDef*%
%ADD11R,1.600200X3.505200*%
%TD*%
%TA.AperFunction,SMDPad,CuDef*%
%ADD12R,1.500000X3.400000*%
%TD*%
%TA.AperFunction,SMDPad,CuDef*%
%ADD13R,1.000000X3.500000*%
%TD*%
%TA.AperFunction,SMDPad,CuDef*%
%ADD14RoundRect,0.250000X0.450000X-0.262500X0.450000X0.262500X-0.450000X0.262500X-0.450000X-0.262500X0*%
%TD*%
%TA.AperFunction,SMDPad,CuDef*%
%ADD15R,1.650000X0.600000*%
%TD*%
%TA.AperFunction,SMDPad,CuDef*%
%ADD16R,1.850000X0.600000*%
%TD*%
%TA.AperFunction,SMDPad,CuDef*%
%ADD17R,1.600000X0.740000*%
%TD*%
%TA.AperFunction,SMDPad,CuDef*%
%ADD18R,0.900000X0.900000*%
%TD*%
%TA.AperFunction,SMDPad,CuDef*%
%ADD19R,0.508000X1.257300*%
%TD*%
%TA.AperFunction,ViaPad*%
%ADD20C,0.600000*%
%TD*%
%TA.AperFunction,Conductor*%
%ADD21C,0.200000*%
%TD*%
%TA.AperFunction,Conductor*%
%ADD22C,0.350000*%
%TD*%
%TA.AperFunction,Conductor*%
%ADD23C,0.500000*%
%TD*%
G04 APERTURE END LIST*
D10*
%TO.P,J4,1,1*%
%TO.N,VBUS*%
X199136000Y-99969142D03*
%TO.P,J4,2,2*%
%TO.N,RGB*%
X201136001Y-99969142D03*
%TO.P,J4,3,3*%
%TO.N,GND*%
X203136002Y-99969142D03*
D11*
%TO.P,J4,4*%
%TO.N,N/C*%
X205486002Y-105664000D03*
%TO.P,J4,5*%
X196786000Y-105664000D03*
%TD*%
D12*
%TO.P,P4,P2*%
%TO.N,N/C*%
X237775000Y-78232000D03*
%TO.P,P4,P1*%
X244475000Y-78232000D03*
D13*
%TO.P,P4,2,2*%
%TO.N,GND*%
X240125000Y-83982000D03*
%TO.P,P4,1,1*%
%TO.N,PowerSwitch*%
X242125000Y-83982000D03*
%TD*%
D14*
%TO.P,R1,1*%
%TO.N,TP_TX*%
X253525000Y-80787500D03*
%TO.P,R1,2*%
%TO.N,Net-(J2-Pin_3)*%
X253525000Y-78962500D03*
%TD*%
D15*
%TO.P,J2,1,Pin_1*%
%TO.N,+3.3V*%
X255063439Y-82409649D03*
D16*
%TO.P,J2,2,Pin_2*%
%TO.N,TP_RX*%
X258813439Y-83409649D03*
D15*
%TO.P,J2,3,Pin_3*%
%TO.N,Net-(J2-Pin_3)*%
X255063439Y-84409649D03*
D16*
%TO.P,J2,4,Pin_4*%
%TO.N,GND*%
X258813439Y-85409649D03*
D15*
%TO.P,J2,5,Pin_5*%
%TO.N,unconnected-(J2-Pin_5-Pad5)*%
X255063439Y-86409649D03*
D16*
%TO.P,J2,6,Pin_6*%
%TO.N,unconnected-(J2-Pin_6-Pad6)*%
X258813439Y-87409649D03*
%TD*%
D13*
%TO.P,P2,1,1*%
%TO.N,LidSwitch*%
X234125424Y-100422979D03*
%TO.P,P2,2,2*%
%TO.N,GND*%
X236125424Y-100422979D03*
D12*
%TO.P,P2,P1*%
%TO.N,N/C*%
X231775424Y-106172979D03*
%TO.P,P2,P2*%
X238475424Y-106172979D03*
%TD*%
D13*
%TO.P,P3,1,1*%
%TO.N,+3.3V*%
X195600000Y-83630000D03*
%TO.P,P3,2,2*%
%TO.N,GND*%
X193600000Y-83630000D03*
D12*
%TO.P,P3,P1*%
%TO.N,N/C*%
X197950000Y-77880000D03*
%TO.P,P3,P2*%
X191250000Y-77880000D03*
%TD*%
D17*
%TO.P,J1,1,Pin_1*%
%TO.N,Meta 1 (Fn)*%
X217425000Y-101615000D03*
%TO.P,J1,2,Pin_2*%
%TO.N,unconnected-(J1-Pin_2-Pad2)*%
X213625000Y-101615000D03*
%TO.P,J1,3,Pin_3*%
%TO.N,Meta 3 (Option)*%
X217425000Y-100345000D03*
%TO.P,J1,4,Pin_4*%
%TO.N,unconnected-(J1-Pin_4-Pad4)*%
X213625000Y-100345000D03*
%TO.P,J1,5,Pin_5*%
%TO.N,Meta 5 (Command)*%
X217425000Y-99075000D03*
%TO.P,J1,6,Pin_6*%
%TO.N,unconnected-(J1-Pin_6-Pad6)*%
X213625000Y-99075000D03*
%TO.P,J1,7,Pin_7*%
%TO.N,Row 7*%
X217425000Y-97805000D03*
%TO.P,J1,8,Pin_8*%
%TO.N,Caps LED V+*%
X213625000Y-97805000D03*
%TO.P,J1,9,Pin_9*%
%TO.N,Row 9*%
X217425000Y-96535000D03*
%TO.P,J1,10,Pin_10*%
%TO.N,GND*%
X213625000Y-96535000D03*
%TO.P,J1,11,Pin_11*%
%TO.N,Row 11*%
X217425000Y-95265000D03*
%TO.P,J1,12,Pin_12*%
%TO.N,GND*%
X213625000Y-95265000D03*
%TO.P,J1,13,Pin_13*%
%TO.N,Meta 13 (Ctrl)*%
X217425000Y-93995000D03*
%TO.P,J1,14,Pin_14*%
%TO.N,Col 14*%
X213625000Y-93995000D03*
%TO.P,J1,15,Pin_15*%
%TO.N,Meta 15 (L Shift)*%
X217425000Y-92725000D03*
%TO.P,J1,16,Pin_16*%
%TO.N,Col 16*%
X213625000Y-92725000D03*
%TO.P,J1,17,Pin_17*%
%TO.N,Row 17*%
X217425000Y-91455000D03*
%TO.P,J1,18,Pin_18*%
%TO.N,Col 18*%
X213625000Y-91455000D03*
%TO.P,J1,19,Pin_19*%
%TO.N,Meta 19 (R Option)*%
X217425000Y-90185000D03*
%TO.P,J1,20,Pin_20*%
%TO.N,Power LED V+*%
X213625000Y-90185000D03*
%TO.P,J1,21,Pin_21*%
%TO.N,Row 21*%
X217425000Y-88915000D03*
%TO.P,J1,22,Pin_22*%
%TO.N,GND*%
X213625000Y-88915000D03*
%TO.P,J1,23,Pin_23*%
%TO.N,Row 23*%
X217425000Y-87645000D03*
%TO.P,J1,24,Pin_24*%
%TO.N,GND*%
X213625000Y-87645000D03*
%TO.P,J1,25,Pin_25*%
%TO.N,Row 25*%
X217425000Y-86375000D03*
%TO.P,J1,26,Pin_26*%
%TO.N,Col 26*%
X213625000Y-86375000D03*
%TO.P,J1,27,Pin_27*%
%TO.N,Row 27*%
X217425000Y-85105000D03*
%TO.P,J1,28,Pin_28*%
%TO.N,Col 28*%
X213625000Y-85105000D03*
%TO.P,J1,29,Pin_29*%
%TO.N,Meta 29 (R Shift)*%
X217425000Y-83835000D03*
%TO.P,J1,30,Pin_30*%
%TO.N,Col 30*%
X213625000Y-83835000D03*
%TO.P,J1,31,Pin_31*%
%TO.N,unconnected-(J1-Pin_31-Pad31)*%
X217425000Y-82565000D03*
%TO.P,J1,32,Pin_32*%
%TO.N,Col 32*%
X213625000Y-82565000D03*
%TO.P,J1,33,Pin_33*%
%TO.N,unconnected-(J1-Pin_33-Pad33)*%
X217425000Y-81295000D03*
%TO.P,J1,34,Pin_34*%
%TO.N,Col 34*%
X213625000Y-81295000D03*
%TO.P,J1,35,Pin_35*%
%TO.N,GND*%
X217425000Y-80025000D03*
%TO.P,J1,36,Pin_36*%
X213625000Y-80025000D03*
%TO.P,J1,37,Pin_37*%
X217425000Y-78755000D03*
%TO.P,J1,38,Pin_38*%
X213625000Y-78755000D03*
%TO.P,J1,39,Pin_39*%
%TO.N,Col 39*%
X217425000Y-77485000D03*
%TO.P,J1,40,Pin_40*%
%TO.N,Col 40*%
X213625000Y-77485000D03*
%TD*%
D18*
%TO.P,RN3,8,R1.2*%
%TO.N,GND*%
X225400000Y-80400000D03*
%TO.P,RN3,7,R2.2*%
X224060000Y-80400000D03*
%TO.P,RN3,6,R3.2*%
%TO.N,unconnected-(RN3-R3.2-Pad6)*%
X222740000Y-80400000D03*
%TO.P,RN3,5,R4.2*%
%TO.N,unconnected-(RN3-R4.2-Pad5)*%
X221400000Y-80400000D03*
%TO.P,RN3,4,R4.1*%
%TO.N,unconnected-(RN3-R4.1-Pad4)*%
X221400000Y-77400000D03*
%TO.P,RN3,3,R3.1*%
%TO.N,unconnected-(RN3-R3.1-Pad3)*%
X222740000Y-77400000D03*
%TO.P,RN3,2,R2.1*%
%TO.N,Col 39*%
X224060000Y-77400000D03*
%TO.P,RN3,1,R1.1*%
%TO.N,Col 40*%
X225400000Y-77400000D03*
%TD*%
D19*
%TO.P,U2,1,~{PL}*%
%TO.N,Paralell Latch*%
X210620000Y-77352450D03*
%TO.P,U2,2,CP*%
%TO.N,Shift Clock*%
X209350000Y-77352450D03*
%TO.P,U2,3,D4*%
%TO.N,GND*%
X208080000Y-77352450D03*
%TO.P,U2,4,D5*%
X206810000Y-77352450D03*
%TO.P,U2,5,D6*%
%TO.N,Col 39*%
X205540000Y-77352450D03*
%TO.P,U2,6,D7*%
%TO.N,Col 40*%
X204270000Y-77352450D03*
%TO.P,U2,7,~{Q7}*%
%TO.N,unconnected-(U2-~{Q7}-Pad7)*%
X203000000Y-77352450D03*
%TO.P,U2,8,GND*%
%TO.N,GND*%
X201730000Y-77352450D03*
%TO.P,U2,9,Q7*%
%TO.N,Shift*%
X201730000Y-82597550D03*
%TO.P,U2,10,DS*%
%TO.N,unconnected-(U2-DS-Pad10)*%
X203000000Y-82597550D03*
%TO.P,U2,11,D0*%
%TO.N,GND*%
X204270000Y-82597550D03*
%TO.P,U2,12,D1*%
X205540000Y-82597550D03*
%TO.P,U2,13,D2*%
X206810000Y-82597550D03*
%TO.P,U2,14,D3*%
X208080000Y-82597550D03*
%TO.P,U2,15,~{CE}*%
X209350000Y-82597550D03*
%TO.P,U2,16,VCC*%
%TO.N,+3.3V*%
X210620000Y-82597550D03*
%TD*%
D18*
%TO.P,RN1,1,R1.1*%
%TO.N,GND*%
X221375000Y-91575000D03*
%TO.P,RN1,2,R2.1*%
X222715000Y-91575000D03*
%TO.P,RN1,3,R3.1*%
X224035000Y-91575000D03*
%TO.P,RN1,4,R4.1*%
X225375000Y-91575000D03*
%TO.P,RN1,5,R4.2*%
%TO.N,Col 14*%
X225375000Y-88575000D03*
%TO.P,RN1,6,R3.2*%
%TO.N,Col 16*%
X224035000Y-88575000D03*
%TO.P,RN1,7,R2.2*%
%TO.N,Col 18*%
X222715000Y-88575000D03*
%TO.P,RN1,8,R1.2*%
%TO.N,Col 26*%
X221375000Y-88575000D03*
%TD*%
D19*
%TO.P,U3,1,~{PL}*%
%TO.N,Paralell Latch*%
X210630000Y-84454900D03*
%TO.P,U3,2,CP*%
%TO.N,Shift Clock*%
X209360000Y-84454900D03*
%TO.P,U3,3,D4*%
%TO.N,Col 28*%
X208090000Y-84454900D03*
%TO.P,U3,4,D5*%
%TO.N,Col 30*%
X206820000Y-84454900D03*
%TO.P,U3,5,D6*%
%TO.N,Col 32*%
X205550000Y-84454900D03*
%TO.P,U3,6,D7*%
%TO.N,Col 34*%
X204280000Y-84454900D03*
%TO.P,U3,7,~{Q7}*%
%TO.N,unconnected-(U3-~{Q7}-Pad7)*%
X203010000Y-84454900D03*
%TO.P,U3,8,GND*%
%TO.N,GND*%
X201740000Y-84454900D03*
%TO.P,U3,9,Q7*%
%TO.N,Serial Out*%
X201740000Y-89700000D03*
%TO.P,U3,10,DS*%
%TO.N,Shift*%
X203010000Y-89700000D03*
%TO.P,U3,11,D0*%
%TO.N,Col 14*%
X204280000Y-89700000D03*
%TO.P,U3,12,D1*%
%TO.N,Col 16*%
X205550000Y-89700000D03*
%TO.P,U3,13,D2*%
%TO.N,Col 18*%
X206820000Y-89700000D03*
%TO.P,U3,14,D3*%
%TO.N,Col 26*%
X208090000Y-89700000D03*
%TO.P,U3,15,~{CE}*%
%TO.N,GND*%
X209360000Y-89700000D03*
%TO.P,U3,16,VCC*%
%TO.N,+3.3V*%
X210630000Y-89700000D03*
%TD*%
D18*
%TO.P,RN2,1,R1.1*%
%TO.N,GND*%
X225400000Y-82450000D03*
%TO.P,RN2,2,R2.1*%
X224060000Y-82450000D03*
%TO.P,RN2,3,R3.1*%
X222740000Y-82450000D03*
%TO.P,RN2,4,R4.1*%
X221400000Y-82450000D03*
%TO.P,RN2,5,R4.2*%
%TO.N,Col 28*%
X221400000Y-85450000D03*
%TO.P,RN2,6,R3.2*%
%TO.N,Col 30*%
X222740000Y-85450000D03*
%TO.P,RN2,7,R2.2*%
%TO.N,Col 32*%
X224060000Y-85450000D03*
%TO.P,RN2,8,R1.2*%
%TO.N,Col 34*%
X225400000Y-85450000D03*
%TD*%
D13*
%TO.P,P1,1,1*%
%TO.N,MouseButton *%
X244500424Y-100422979D03*
%TO.P,P1,2,2*%
%TO.N,GND*%
X246500424Y-100422979D03*
D12*
%TO.P,P1,P1*%
%TO.N,N/C*%
X242150424Y-106172979D03*
%TO.P,P1,P2*%
X248850424Y-106172979D03*
%TD*%
D20*
%TO.N,RGB*%
X223393000Y-103124000D03*
%TO.N,VBUS*%
X181356000Y-103378000D03*
%TO.N,+3.3V*%
X210185000Y-89535000D03*
X211709000Y-83693000D03*
%TO.N,Meta 3 (Option)*%
X231648000Y-85471000D03*
X228727000Y-89408000D03*
%TO.N,GND*%
X230886000Y-79883000D03*
X232494670Y-80244925D03*
X226695000Y-82169000D03*
X226719235Y-80869950D03*
%TO.N,TP_RX*%
X228429735Y-78783265D03*
%TO.N,Col 16*%
X211994963Y-92371433D03*
X218725002Y-91322455D03*
%TO.N,Col 26*%
X219461473Y-88290000D03*
X212324998Y-89100000D03*
%TO.N,GND*%
X227076000Y-89662000D03*
X192600000Y-82980000D03*
X232590000Y-95260000D03*
X186630000Y-103600000D03*
X224640000Y-103480000D03*
X187706000Y-84836000D03*
X211410000Y-103540000D03*
X210825002Y-87657998D03*
X205710000Y-93350000D03*
X207886500Y-91173500D03*
X212323234Y-88253234D03*
X199510000Y-103600000D03*
X200610000Y-83850000D03*
%TO.N,Caps LED V+*%
X236930000Y-91948000D03*
X218775000Y-99900000D03*
X212200000Y-97900000D03*
X227908622Y-89662000D03*
X229860025Y-89932001D03*
%TO.N,Meta 5 (Command)*%
X219300000Y-96130000D03*
%TO.N,Col 18*%
X218725002Y-90522452D03*
X211991403Y-91519344D03*
%TO.N,Col 30*%
X219325000Y-82150000D03*
X214944265Y-82856246D03*
%TO.N,Meta 13 (Ctrl)*%
X221770000Y-93004734D03*
X218820000Y-94890000D03*
%TO.N,Row 21*%
X235745796Y-88587386D03*
X211590000Y-100700000D03*
%TO.N,Meta 15 (L Shift)*%
X218724232Y-93597265D03*
X220778064Y-93160000D03*
%TO.N,Col 39*%
X219522534Y-76972154D03*
X206050000Y-77023800D03*
%TO.N,Meta 1 (Fn)*%
X225425000Y-93810000D03*
%TO.N,Col 14*%
X220099957Y-90564259D03*
X212025000Y-93250000D03*
%TO.N,Row 17*%
X220570000Y-94360000D03*
%TO.N,Col 28*%
X215402545Y-81200000D03*
X218807029Y-81013901D03*
%TO.N,Row 23*%
X236690470Y-88683530D03*
X212275000Y-101221511D03*
%TO.N,Row 11*%
X221870000Y-97656553D03*
%TO.N,Meta 29 (R Shift)*%
X218912152Y-83962991D03*
X216225000Y-83875000D03*
%TO.N,Col 34*%
X219495093Y-80004907D03*
X212399468Y-80990938D03*
X204900000Y-81550000D03*
X209439756Y-80248903D03*
%TO.N,Row 9*%
X220750337Y-97769663D03*
%TO.N,Row 7*%
X220146788Y-98294766D03*
%TO.N,Row 27*%
X214821804Y-102289217D03*
X238506000Y-88802000D03*
%TO.N,Row 25*%
X237609636Y-88754166D03*
X213681246Y-102581246D03*
%TO.N,Power LED V+*%
X212300000Y-90650000D03*
X240792000Y-90602000D03*
X223090000Y-90350000D03*
%TO.N,Col 32*%
X206300000Y-81500000D03*
X209328823Y-81041177D03*
X216103328Y-80670000D03*
X219603878Y-80942939D03*
%TO.N,Meta 19 (R Option)*%
X218725002Y-89250000D03*
X202946000Y-88138000D03*
X210185000Y-88138000D03*
%TO.N,+3.3V*%
X253492000Y-86106000D03*
X204720000Y-93960000D03*
X209991403Y-91450000D03*
%TO.N,TP_TX*%
X196720000Y-80200000D03*
X218759727Y-79413901D03*
X223901000Y-78790000D03*
X227748000Y-80737000D03*
X181830000Y-83860000D03*
%TO.N,TP_RX*%
X183134000Y-84836000D03*
X220449998Y-80000000D03*
X195300000Y-80800000D03*
X224650962Y-79068492D03*
%TO.N,Serial Out*%
X226090000Y-76299026D03*
X226447765Y-78105000D03*
X200950000Y-89575000D03*
%TO.N,Shift Clock*%
X231521000Y-81534000D03*
X209959291Y-81617090D03*
X210361047Y-79236451D03*
X221250000Y-81462843D03*
%TO.N,Paralell Latch*%
X218880000Y-78180000D03*
X211304345Y-81714333D03*
X229835000Y-79657500D03*
X211710000Y-79240000D03*
X212230121Y-77699026D03*
%TO.N,MouseButton *%
X231737422Y-89090000D03*
X237700735Y-92666735D03*
%TO.N,RGB*%
X239268000Y-92964000D03*
X237789787Y-91729153D03*
%TO.N,LidSwitch*%
X234150000Y-98050000D03*
X227090000Y-102700000D03*
%TO.N,Meta 3 (Option)*%
X235442000Y-85598000D03*
%TO.N,PowerSwitch*%
X234315000Y-81280000D03*
X240919000Y-81280000D03*
%TD*%
D21*
%TO.N,TP_TX*%
X193614314Y-80200000D02*
X190013314Y-83801000D01*
X187326785Y-83801000D02*
X186418785Y-84709000D01*
X182280000Y-84236000D02*
X181904000Y-83860000D01*
X186418785Y-84709000D02*
X183734000Y-84709000D01*
X190013314Y-83801000D02*
X187326785Y-83801000D01*
X196720000Y-80200000D02*
X193614314Y-80200000D01*
X183734000Y-84709000D02*
X183734000Y-84587471D01*
X183734000Y-84587471D02*
X183382529Y-84236000D01*
X183382529Y-84236000D02*
X182280000Y-84236000D01*
X181904000Y-83860000D02*
X181830000Y-83860000D01*
%TO.N,TP_RX*%
X183134000Y-84836000D02*
X183642000Y-85344000D01*
X183642000Y-85344000D02*
X186563000Y-85344000D01*
X187106000Y-84801000D02*
X187106000Y-84587471D01*
X186563000Y-85344000D02*
X187106000Y-84801000D01*
X187106000Y-84587471D02*
X187492471Y-84201000D01*
X187492471Y-84201000D02*
X190179000Y-84201000D01*
X190179000Y-84201000D02*
X193580000Y-80800000D01*
X193580000Y-80800000D02*
X195300000Y-80800000D01*
D22*
%TO.N,GND*%
X187706000Y-84836000D02*
X192913000Y-84836000D01*
X193600000Y-84149000D02*
X193600000Y-83630000D01*
X192913000Y-84836000D02*
X193600000Y-84149000D01*
D21*
%TO.N,Row 25*%
X216825000Y-85775000D02*
X216325000Y-85775000D01*
X215125000Y-101743884D02*
X215421804Y-102040688D01*
X217425000Y-86375000D02*
X216825000Y-85775000D01*
X216325000Y-85775000D02*
X215125000Y-86975000D01*
X215070333Y-102889217D02*
X213989217Y-102889217D01*
X215125000Y-86975000D02*
X215125000Y-101743884D01*
X215421804Y-102040688D02*
X215421804Y-102537746D01*
X215421804Y-102537746D02*
X215070333Y-102889217D01*
X213989217Y-102889217D02*
X213681246Y-102581246D01*
%TO.N,RGB*%
X201136001Y-99969142D02*
X201136001Y-99121701D01*
X204938013Y-97916542D02*
X211161471Y-104140000D01*
X201136001Y-99121701D02*
X202341160Y-97916542D01*
X202341160Y-97916542D02*
X204938013Y-97916542D01*
D22*
%TO.N,GND*%
X203136002Y-99969142D02*
X203136002Y-102298998D01*
X203136002Y-102298998D02*
X202819000Y-102616000D01*
X202819000Y-102616000D02*
X200494000Y-102616000D01*
X200494000Y-102616000D02*
X199510000Y-103600000D01*
D23*
%TO.N,VBUS*%
X181356000Y-103378000D02*
X182372000Y-102362000D01*
X182372000Y-102362000D02*
X196743142Y-102362000D01*
X196743142Y-102362000D02*
X199136000Y-99969142D01*
D21*
%TO.N,RGB*%
X222377000Y-104140000D02*
X211161471Y-104140000D01*
X223393000Y-103124000D02*
X222377000Y-104140000D01*
D22*
%TO.N,GND*%
X199510000Y-103600000D02*
X199161000Y-103251000D01*
X186979000Y-103251000D02*
X186630000Y-103600000D01*
X199161000Y-103251000D02*
X186979000Y-103251000D01*
D21*
%TO.N,+3.3V*%
X210185000Y-89535000D02*
X210465000Y-89535000D01*
X210465000Y-89535000D02*
X210630000Y-89700000D01*
%TO.N,GND*%
X208644000Y-90628650D02*
X208644000Y-90416000D01*
X207886500Y-91173500D02*
X208099150Y-91173500D01*
X208099150Y-91173500D02*
X208644000Y-90628650D01*
X208644000Y-90416000D02*
X209360000Y-89700000D01*
%TO.N,+3.3V*%
X211709000Y-83820000D02*
X211709000Y-83693000D01*
X210620000Y-82731000D02*
X211709000Y-83820000D01*
X210620000Y-82597550D02*
X210620000Y-82731000D01*
%TO.N,Paralell Latch*%
X211304345Y-81714333D02*
X211708647Y-81714333D01*
X212525000Y-84035000D02*
X212497942Y-84035000D01*
X211708647Y-81714333D02*
X212525000Y-82530686D01*
X212525000Y-82530686D02*
X212525000Y-84035000D01*
X212497942Y-84035000D02*
X212078042Y-84454900D01*
X212078042Y-84454900D02*
X210630000Y-84454900D01*
%TO.N,Col 30*%
X206820000Y-84454900D02*
X206820000Y-84305000D01*
X206820000Y-84305000D02*
X207598750Y-83526250D01*
X207598750Y-83526250D02*
X208806000Y-83526250D01*
X208806000Y-83526250D02*
X208806000Y-85453000D01*
X211645628Y-85453000D02*
X212663628Y-84435000D01*
X208806000Y-85453000D02*
X211645628Y-85453000D01*
X212663628Y-84435000D02*
X213507000Y-84435000D01*
X213507000Y-84435000D02*
X213625000Y-84317000D01*
X213625000Y-84317000D02*
X213625000Y-83835000D01*
%TO.N,Col 28*%
X213625000Y-85105000D02*
X212559314Y-85105000D01*
X207899000Y-85598000D02*
X207899000Y-84645900D01*
X212559314Y-85105000D02*
X211811314Y-85853000D01*
X208154000Y-85853000D02*
X207899000Y-85598000D01*
X211811314Y-85853000D02*
X208154000Y-85853000D01*
X207899000Y-84645900D02*
X208090000Y-84454900D01*
%TO.N,GND*%
X210689264Y-87793736D02*
X210785000Y-87889471D01*
X210785000Y-87889471D02*
X210785000Y-88386529D01*
X210825002Y-87657998D02*
X210689264Y-87793736D01*
X210785000Y-88386529D02*
X210433529Y-88738000D01*
X210433529Y-88738000D02*
X209423000Y-88738000D01*
X209423000Y-88738000D02*
X209423000Y-89637000D01*
X209423000Y-89637000D02*
X209360000Y-89700000D01*
%TO.N,Meta 19 (R Option)*%
X203208000Y-88400000D02*
X202946000Y-88138000D01*
X210185000Y-88138000D02*
X207264000Y-88138000D01*
X207002000Y-88400000D02*
X203208000Y-88400000D01*
X207264000Y-88138000D02*
X207002000Y-88400000D01*
%TO.N,Shift Clock*%
X209959291Y-81617090D02*
X209959291Y-83470909D01*
X209904000Y-83526200D02*
X209462800Y-83526200D01*
X209462800Y-83526200D02*
X209360000Y-83629000D01*
X209360000Y-83629000D02*
X209360000Y-84454900D01*
X209959291Y-83470909D02*
X209904000Y-83526200D01*
%TO.N,MouseButton *%
X231737422Y-89090000D02*
X231737422Y-90571108D01*
X231737422Y-90571108D02*
X233833049Y-92666735D01*
X233833049Y-92666735D02*
X237700735Y-92666735D01*
%TO.N,GND*%
X227076000Y-89662000D02*
X227076000Y-88939686D01*
X227076000Y-88939686D02*
X227223686Y-88792000D01*
X227223686Y-88792000D02*
X229235000Y-88792000D01*
X229235000Y-88792000D02*
X229327000Y-88884000D01*
X229327000Y-88884000D02*
X229327000Y-89656529D01*
X229327000Y-89656529D02*
X229235000Y-89748529D01*
X229235000Y-91115000D02*
X232640000Y-94520000D01*
X229235000Y-89748529D02*
X229235000Y-91115000D01*
%TO.N,Meta 3 (Option)*%
X228600000Y-89535000D02*
X228727000Y-89408000D01*
X228600000Y-90424000D02*
X228600000Y-89535000D01*
X225814000Y-93210000D02*
X228600000Y-90424000D01*
X224912000Y-93210000D02*
X225814000Y-93210000D01*
X223380000Y-94742000D02*
X224912000Y-93210000D01*
%TO.N,Caps LED V+*%
X227908622Y-89662000D02*
X227908622Y-90548954D01*
X227908622Y-90548954D02*
X226128576Y-92329000D01*
X226128576Y-92329000D02*
X224141000Y-92329000D01*
X222970000Y-93500000D02*
X222970000Y-97970768D01*
X224141000Y-92329000D02*
X222970000Y-93500000D01*
X222970000Y-97970768D02*
X221040768Y-99900000D01*
X221040768Y-99900000D02*
X218775000Y-99900000D01*
%TO.N,Meta 1 (Fn)*%
X221092000Y-101615000D02*
X217425000Y-101615000D01*
X225425000Y-93810000D02*
X223780000Y-95455000D01*
X223780000Y-95455000D02*
X223780000Y-98927000D01*
X223780000Y-98927000D02*
X221092000Y-101615000D01*
%TO.N,Meta 3 (Option)*%
X223380000Y-98438000D02*
X223380000Y-94742000D01*
X220853000Y-100965000D02*
X223380000Y-98438000D01*
X218821000Y-100965000D02*
X220853000Y-100965000D01*
X218201000Y-100345000D02*
X218821000Y-100965000D01*
X217425000Y-100345000D02*
X218201000Y-100345000D01*
%TO.N,Serial Out*%
X226447765Y-78105000D02*
X226447765Y-76947765D01*
X226090000Y-76590000D02*
X226090000Y-76299026D01*
X226447765Y-76947765D02*
X226090000Y-76590000D01*
%TO.N,Shift*%
X201730000Y-82597550D02*
X199950000Y-82597550D01*
X201805685Y-88365685D02*
X201903685Y-88365685D01*
X199950000Y-82597550D02*
X199950000Y-86510000D01*
X199950000Y-86510000D02*
X201805685Y-88365685D01*
X201903685Y-88365685D02*
X203010000Y-89472000D01*
X203010000Y-89472000D02*
X203010000Y-89700000D01*
%TO.N,Col 26*%
X212324998Y-89100000D02*
X212324998Y-88853234D01*
X212324998Y-88853234D02*
X212074705Y-88853234D01*
X212074705Y-88853234D02*
X211723234Y-88501763D01*
X211723234Y-88501763D02*
X211723234Y-87776766D01*
X211723234Y-87776766D02*
X213125000Y-86375000D01*
X213125000Y-86375000D02*
X213625000Y-86375000D01*
%TO.N,GND*%
X225400000Y-82450000D02*
X226414000Y-82450000D01*
X226414000Y-82450000D02*
X226695000Y-82169000D01*
%TO.N,TP_RX*%
X224650962Y-79068492D02*
X224069454Y-79650000D01*
X224069454Y-79650000D02*
X220799998Y-79650000D01*
X220799998Y-79650000D02*
X220449998Y-80000000D01*
%TO.N,TP_TX*%
X223441000Y-79250000D02*
X218923628Y-79250000D01*
X223901000Y-78790000D02*
X223441000Y-79250000D01*
X218923628Y-79250000D02*
X218759727Y-79413901D01*
%TO.N,GND*%
X227076000Y-89874000D02*
X225375000Y-91575000D01*
X227076000Y-89662000D02*
X227076000Y-89874000D01*
%TO.N,RGB*%
X237789787Y-91729153D02*
X237809526Y-91748892D01*
X238052892Y-91748892D02*
X239268000Y-92964000D01*
X237809526Y-91748892D02*
X238052892Y-91748892D01*
%TO.N,MouseButton *%
X237700735Y-92666735D02*
X238250000Y-93216000D01*
X238250000Y-93216000D02*
X238250000Y-99470000D01*
X238250000Y-99470000D02*
X239202979Y-100422979D01*
X239202979Y-100422979D02*
X244500424Y-100422979D01*
D22*
%TO.N,+3.3V*%
X253492000Y-83981088D02*
X255063439Y-82409649D01*
X253492000Y-86106000D02*
X253492000Y-83981088D01*
D21*
%TO.N,Col 16*%
X219325002Y-90490684D02*
X220090686Y-89725000D01*
X205550000Y-91014314D02*
X205550000Y-89700000D01*
X211994963Y-92371433D02*
X211516396Y-92850000D01*
X212241396Y-92125000D02*
X212525000Y-92125000D01*
X218725002Y-91322455D02*
X218773528Y-91322455D01*
X213125000Y-92725000D02*
X213625000Y-92725000D01*
X219325002Y-90770981D02*
X219325002Y-90490684D01*
X223465000Y-89325000D02*
X224035000Y-88755000D01*
X207385686Y-92850000D02*
X205550000Y-91014314D01*
X211516396Y-92850000D02*
X207385686Y-92850000D01*
X212525000Y-92125000D02*
X213125000Y-92725000D01*
X211994963Y-92371433D02*
X212241396Y-92125000D01*
X218773528Y-91322455D02*
X219325002Y-90770981D01*
X222530686Y-89325000D02*
X223465000Y-89325000D01*
X222130686Y-89725000D02*
X222530686Y-89325000D01*
X220090686Y-89725000D02*
X222130686Y-89725000D01*
X224035000Y-88755000D02*
X224035000Y-88575000D01*
%TO.N,Col 26*%
X210612218Y-92050000D02*
X207717058Y-92050000D01*
X211700000Y-90962218D02*
X210612218Y-92050000D01*
X212324998Y-89100000D02*
X212324998Y-90050000D01*
X212324998Y-90050000D02*
X212051471Y-90050000D01*
X212051471Y-90050000D02*
X211700000Y-90401471D01*
X207250000Y-91582942D02*
X207250000Y-90752650D01*
X207374000Y-90628650D02*
X207374000Y-90416000D01*
X207717058Y-92050000D02*
X207250000Y-91582942D01*
X211700000Y-90401471D02*
X211700000Y-90962218D01*
X219746473Y-88575000D02*
X221375000Y-88575000D01*
X207250000Y-90752650D02*
X207374000Y-90628650D01*
X207374000Y-90416000D02*
X208090000Y-89700000D01*
X219461473Y-88290000D02*
X219746473Y-88575000D01*
D22*
%TO.N,GND*%
X210110000Y-79940000D02*
X208080000Y-77910000D01*
X213625000Y-95265000D02*
X207625000Y-95265000D01*
D21*
X206256000Y-78281100D02*
X202446000Y-78281100D01*
D22*
X210915000Y-98095000D02*
X212475000Y-96535000D01*
X201740000Y-84454900D02*
X201214900Y-84454900D01*
D21*
X202834900Y-81280000D02*
X202375000Y-81739900D01*
X236125424Y-100422979D02*
X236125424Y-101672979D01*
X238175424Y-102472979D02*
X245700424Y-102472979D01*
X204270000Y-83130000D02*
X204270000Y-82597550D01*
D22*
X210915000Y-103045000D02*
X210915000Y-98095000D01*
D21*
X205200000Y-80350000D02*
X206250000Y-80350000D01*
X202375000Y-81725000D02*
X202375000Y-82075000D01*
D22*
X201214900Y-84454900D02*
X200610000Y-83850000D01*
D21*
X247625109Y-100422979D02*
X260038439Y-88009649D01*
X245700424Y-102472979D02*
X246500424Y-101672979D01*
D22*
X217425000Y-80025000D02*
X217425000Y-78755000D01*
X210110000Y-80142090D02*
X210110000Y-79940000D01*
D21*
X201730000Y-77352450D02*
X201730000Y-76977800D01*
X206810000Y-77352450D02*
X206810000Y-77727100D01*
X205540000Y-82597550D02*
X205540000Y-80690000D01*
X204270000Y-82597550D02*
X204270000Y-81280000D01*
X236125424Y-100422979D02*
X238175424Y-102472979D01*
X202446000Y-78281100D02*
X201730000Y-77565100D01*
X236125424Y-100422979D02*
X236125424Y-98094576D01*
X205540000Y-80690000D02*
X205200000Y-80350000D01*
X204270000Y-81280000D02*
X205200000Y-80350000D01*
D22*
X192950000Y-82980000D02*
X193600000Y-83630000D01*
D21*
X246500424Y-100422979D02*
X247625109Y-100422979D01*
D22*
X213625000Y-78755000D02*
X213195000Y-78755000D01*
X217425000Y-78755000D02*
X217960405Y-78755000D01*
D21*
X213625000Y-87645000D02*
X213625000Y-88915000D01*
X232640000Y-94520000D02*
X232590000Y-94570000D01*
X213625000Y-96535000D02*
X213625000Y-95265000D01*
D22*
X221400000Y-82450000D02*
X225400000Y-82450000D01*
D21*
X260038439Y-88009649D02*
X260038439Y-86634649D01*
D22*
X213195000Y-78755000D02*
X211807910Y-80142090D01*
D21*
X221375000Y-91575000D02*
X225375000Y-91575000D01*
D22*
X208080000Y-81327550D02*
X209350000Y-82597550D01*
D21*
X212931468Y-87645000D02*
X213625000Y-87645000D01*
D22*
X208080000Y-82597550D02*
X208080000Y-81327550D01*
D21*
X212323234Y-88253234D02*
X212931468Y-87645000D01*
X201730000Y-77565100D02*
X201730000Y-77352450D01*
X236125424Y-98094576D02*
X236170000Y-98050000D01*
D22*
X211410000Y-103540000D02*
X210915000Y-103045000D01*
D21*
X202375000Y-82075000D02*
X202375000Y-84075000D01*
D22*
X212475000Y-96535000D02*
X213625000Y-96535000D01*
D21*
X206900000Y-81000000D02*
X206250000Y-80350000D01*
D22*
X208080000Y-77910000D02*
X208080000Y-77352450D01*
D21*
X206810000Y-82597550D02*
X206900000Y-82507550D01*
D22*
X208080000Y-77352450D02*
X208080000Y-81327550D01*
X192600000Y-82980000D02*
X192950000Y-82980000D01*
X207625000Y-95265000D02*
X205710000Y-93350000D01*
D21*
X206900000Y-82507550D02*
X206900000Y-81000000D01*
X232590000Y-94570000D02*
X232590000Y-95260000D01*
X217425000Y-80025000D02*
X213625000Y-80025000D01*
X206810000Y-77352450D02*
X208080000Y-77352450D01*
D22*
X208080000Y-82597550D02*
X206810000Y-82597550D01*
D21*
X206810000Y-77727100D02*
X206256000Y-78281100D01*
X204270000Y-81280000D02*
X202834900Y-81280000D01*
X202375000Y-81739900D02*
X202375000Y-82075000D01*
X234318403Y-103480000D02*
X224640000Y-103480000D01*
X236125424Y-101672979D02*
X234318403Y-103480000D01*
D22*
X211807910Y-80142090D02*
X210110000Y-80142090D01*
D21*
X193600000Y-84880000D02*
X193600000Y-83630000D01*
X246500424Y-101672979D02*
X246500424Y-100422979D01*
X232640000Y-94520000D02*
X236170000Y-98050000D01*
D22*
X213625000Y-80025000D02*
X213625000Y-78755000D01*
D21*
X206810000Y-76960000D02*
X206810000Y-77352450D01*
X201782450Y-84667550D02*
X201740000Y-84667550D01*
X260038439Y-86634649D02*
X258813439Y-85409649D01*
X202375000Y-84075000D02*
X201782450Y-84667550D01*
%TO.N,Caps LED V+*%
X213625000Y-97805000D02*
X212295000Y-97805000D01*
X212295000Y-97805000D02*
X212200000Y-97900000D01*
%TO.N,Meta 5 (Command)*%
X219300000Y-96130000D02*
X221191976Y-96130000D01*
X222570000Y-97508024D02*
X222570000Y-97805082D01*
X221300082Y-99075000D02*
X217425000Y-99075000D01*
X222570000Y-97805082D02*
X221300082Y-99075000D01*
X221191976Y-96130000D02*
X222570000Y-97508024D01*
%TO.N,Col 18*%
X207551372Y-92450000D02*
X206820000Y-91718628D01*
X213125000Y-91455000D02*
X213625000Y-91455000D01*
X211991403Y-91519344D02*
X213060656Y-91519344D01*
X221965000Y-89325000D02*
X222715000Y-88575000D01*
X218727548Y-90522452D02*
X219925000Y-89325000D01*
X218725002Y-90522452D02*
X218727548Y-90522452D01*
X211060747Y-92450000D02*
X207551372Y-92450000D01*
X206820000Y-91718628D02*
X206820000Y-89700000D01*
X219925000Y-89325000D02*
X221965000Y-89325000D01*
X213060656Y-91519344D02*
X213125000Y-91455000D01*
X211991403Y-91519344D02*
X211060747Y-92450000D01*
%TO.N,Col 30*%
X214944265Y-82930264D02*
X214039529Y-83835000D01*
X221290000Y-84000000D02*
X222740000Y-85450000D01*
X219850000Y-83531371D02*
X220318629Y-84000000D01*
X219325000Y-82150000D02*
X219850000Y-82675000D01*
X219850000Y-82675000D02*
X219850000Y-83531371D01*
X220318629Y-84000000D02*
X221290000Y-84000000D01*
X214039529Y-83835000D02*
X213625000Y-83835000D01*
X214944265Y-82856246D02*
X214944265Y-82930264D01*
%TO.N,Meta 13 (Ctrl)*%
X221850000Y-94780000D02*
X221850000Y-93084734D01*
X221087254Y-95542746D02*
X221850000Y-94780000D01*
X217925000Y-93995000D02*
X217425000Y-93995000D01*
X218820000Y-94890000D02*
X219472746Y-95542746D01*
X221850000Y-93084734D02*
X221770000Y-93004734D01*
X218820000Y-94890000D02*
X217925000Y-93995000D01*
X219472746Y-95542746D02*
X221087254Y-95542746D01*
%TO.N,Row 21*%
X215987489Y-103103432D02*
X216221804Y-102869118D01*
X215925000Y-89155000D02*
X216165000Y-88915000D01*
X211675000Y-100785000D02*
X211675000Y-102000686D01*
X213363531Y-103689217D02*
X215401705Y-103689217D01*
X216221804Y-102869118D02*
X216221804Y-101709316D01*
X215925000Y-101412512D02*
X215925000Y-89155000D01*
X211590000Y-100700000D02*
X211675000Y-100785000D01*
X211675000Y-102000686D02*
X213363531Y-103689217D01*
X216165000Y-88915000D02*
X217425000Y-88915000D01*
X215401705Y-103689217D02*
X215987489Y-103103432D01*
X216221804Y-101709316D02*
X215925000Y-101412512D01*
%TO.N,Meta 15 (L Shift)*%
X218525000Y-93398033D02*
X218525000Y-93325000D01*
X220818529Y-94960000D02*
X220064314Y-94960000D01*
X220064314Y-94960000D02*
X218724232Y-93619918D01*
X221450000Y-94328529D02*
X220818529Y-94960000D01*
X218025000Y-93325000D02*
X217425000Y-92725000D01*
X221450000Y-93831936D02*
X220778064Y-93160000D01*
X218724232Y-93619918D02*
X218724232Y-93597265D01*
X218525000Y-93325000D02*
X218025000Y-93325000D01*
X221450000Y-93831936D02*
X221450000Y-94328529D01*
X218724232Y-93597265D02*
X218525000Y-93398033D01*
%TO.N,Col 39*%
X224060000Y-77220000D02*
X223490000Y-76650000D01*
X217425000Y-77485000D02*
X217855000Y-77485000D01*
X218260000Y-76650000D02*
X217425000Y-77485000D01*
X206050000Y-77023800D02*
X205721350Y-77352450D01*
X219522534Y-76972154D02*
X217937846Y-76972154D01*
X205721350Y-77352450D02*
X205540000Y-77352450D01*
X223490000Y-76650000D02*
X218260000Y-76650000D01*
X224060000Y-77474314D02*
X224060000Y-77400000D01*
X217937846Y-76972154D02*
X217425000Y-77485000D01*
X224060000Y-77400000D02*
X224060000Y-77220000D01*
%TO.N,Meta 1 (Fn)*%
X217425000Y-101615000D02*
X216925000Y-101615000D01*
%TO.N,Col 14*%
X220291031Y-90373185D02*
X220291031Y-90154655D01*
X220099957Y-90564259D02*
X220291031Y-90373185D01*
X222696372Y-89725000D02*
X224225000Y-89725000D01*
X207220000Y-93250000D02*
X204280000Y-90310000D01*
X212025000Y-93250000D02*
X212380000Y-93250000D01*
X220291031Y-90154655D02*
X220320686Y-90125000D01*
X204280000Y-90310000D02*
X204280000Y-89700000D01*
X220320686Y-90125000D02*
X222296372Y-90125000D01*
X212025000Y-93250000D02*
X207220000Y-93250000D01*
X212380000Y-93250000D02*
X213125000Y-93995000D01*
X213125000Y-93995000D02*
X213625000Y-93995000D01*
X224225000Y-89725000D02*
X225375000Y-88575000D01*
X222296372Y-90125000D02*
X222696372Y-89725000D01*
%TO.N,Col 40*%
X224250000Y-76250000D02*
X214860000Y-76250000D01*
X225400000Y-77400000D02*
X224250000Y-76250000D01*
X214860000Y-76250000D02*
X213625000Y-77485000D01*
X212563800Y-76423800D02*
X213625000Y-77485000D01*
X204986000Y-76423800D02*
X212563800Y-76423800D01*
X204270000Y-77352450D02*
X204270000Y-77139800D01*
X204270000Y-77139800D02*
X204986000Y-76423800D01*
%TO.N,Row 17*%
X220030000Y-94360000D02*
X219324232Y-93654232D01*
X220570000Y-94360000D02*
X220030000Y-94360000D01*
X219324232Y-93654232D02*
X219324232Y-92987012D01*
X217792220Y-91455000D02*
X217425000Y-91455000D01*
X219324232Y-92987012D02*
X217792220Y-91455000D01*
%TO.N,Col 28*%
X219450000Y-83440000D02*
X219450000Y-83697057D01*
X218807029Y-81023350D02*
X218725000Y-81105379D01*
X215402545Y-81200000D02*
X215544265Y-81341720D01*
X219450000Y-83697057D02*
X220152943Y-84400000D01*
X215544265Y-83330433D02*
X214725000Y-84149698D01*
X218725000Y-81105379D02*
X218725000Y-82715000D01*
X220152943Y-84400000D02*
X221124314Y-84400000D01*
X218725000Y-82715000D02*
X219450000Y-83440000D01*
X221400000Y-84675686D02*
X221400000Y-85450000D01*
X214725000Y-84505000D02*
X214125000Y-85105000D01*
X221124314Y-84400000D02*
X221400000Y-84675686D01*
X218807029Y-81013901D02*
X218807029Y-81023350D01*
X215544265Y-81341720D02*
X215544265Y-83330433D01*
X214725000Y-84149698D02*
X214725000Y-84505000D01*
X214125000Y-85105000D02*
X213625000Y-85105000D01*
%TO.N,Row 23*%
X215525000Y-101578198D02*
X215525000Y-87140686D01*
X213529217Y-103289217D02*
X215236019Y-103289217D01*
X215236019Y-103289217D02*
X215821804Y-102703432D01*
X215620686Y-87045000D02*
X216825000Y-87045000D01*
X212525000Y-101471511D02*
X212525000Y-102285000D01*
X215821804Y-101875002D02*
X215525000Y-101578198D01*
X215525000Y-87140686D02*
X215620686Y-87045000D01*
X216825000Y-87045000D02*
X217425000Y-87645000D01*
X212525000Y-102285000D02*
X213529217Y-103289217D01*
X212275000Y-101221511D02*
X212525000Y-101471511D01*
X215821804Y-102703432D02*
X215821804Y-101875002D01*
%TO.N,Row 11*%
X218685686Y-96730000D02*
X218525000Y-96569314D01*
X221870000Y-97656553D02*
X220943447Y-96730000D01*
X220943447Y-96730000D02*
X218685686Y-96730000D01*
X218525000Y-95865000D02*
X217925000Y-95265000D01*
X217925000Y-95265000D02*
X217425000Y-95265000D01*
X218525000Y-96569314D02*
X218525000Y-95865000D01*
%TO.N,Meta 29 (R Shift)*%
X218912152Y-83962991D02*
X218784161Y-83835000D01*
X216225000Y-83875000D02*
X217385000Y-83875000D01*
X217385000Y-83875000D02*
X217425000Y-83835000D01*
X218784161Y-83835000D02*
X217425000Y-83835000D01*
%TO.N,Col 34*%
X204875000Y-83859900D02*
X204875000Y-81575000D01*
X212025620Y-80617090D02*
X209807943Y-80617090D01*
X212399468Y-80990938D02*
X212703530Y-81295000D01*
X220650000Y-83200000D02*
X223150000Y-83200000D01*
X209807943Y-80617090D02*
X209439756Y-80248903D01*
X223150000Y-83200000D02*
X225400000Y-85450000D01*
X219514375Y-80004907D02*
X220650000Y-81140532D01*
X219495093Y-80004907D02*
X219514375Y-80004907D01*
X220650000Y-81140532D02*
X220650000Y-83200000D01*
X212703530Y-81295000D02*
X213625000Y-81295000D01*
X212399468Y-80990938D02*
X212025620Y-80617090D01*
X204280000Y-84454900D02*
X204875000Y-83859900D01*
X204875000Y-81575000D02*
X204900000Y-81550000D01*
%TO.N,Row 9*%
X218025000Y-97135000D02*
X217425000Y-96535000D01*
X220115675Y-97135000D02*
X218025000Y-97135000D01*
X220750337Y-97769662D02*
X220115675Y-97135000D01*
X220750337Y-97769663D02*
X220750337Y-97769662D01*
%TO.N,Row 7*%
X217510000Y-97890000D02*
X217425000Y-97805000D01*
X219742022Y-97890000D02*
X217510000Y-97890000D01*
X220146788Y-98294766D02*
X219742022Y-97890000D01*
%TO.N,Row 27*%
X217425000Y-85105000D02*
X216145000Y-85105000D01*
X214725000Y-102192413D02*
X214821804Y-102289217D01*
X216145000Y-85105000D02*
X214725000Y-86525000D01*
X214725000Y-86525000D02*
X214725000Y-102192413D01*
%TO.N,Power LED V+*%
X213625000Y-90185000D02*
X212765000Y-90185000D01*
X212765000Y-90185000D02*
X212300000Y-90650000D01*
%TO.N,Col 32*%
X216103328Y-80670000D02*
X216033328Y-80600000D01*
X209352910Y-81017090D02*
X211577090Y-81017090D01*
X219603878Y-80942939D02*
X219925000Y-81264061D01*
X214802545Y-80951471D02*
X214802545Y-81448529D01*
X220250000Y-81925000D02*
X220250000Y-83365685D01*
X206104000Y-81696000D02*
X206104000Y-83900900D01*
X219925000Y-81600000D02*
X220250000Y-81925000D01*
X214802545Y-81448529D02*
X215063672Y-81709656D01*
X222984314Y-83600000D02*
X224060000Y-84675686D01*
X206104000Y-83900900D02*
X205550000Y-84454900D01*
X224060000Y-84675686D02*
X224060000Y-85450000D01*
X216033328Y-80600000D02*
X215154016Y-80600000D01*
X215063672Y-81709656D02*
X214808328Y-81965000D01*
X219925000Y-81264061D02*
X219925000Y-81600000D01*
X209328823Y-81041177D02*
X209352910Y-81017090D01*
X213125000Y-82565000D02*
X213625000Y-82565000D01*
X220484315Y-83600000D02*
X222984314Y-83600000D01*
X206300000Y-81500000D02*
X206104000Y-81696000D01*
X211577090Y-81017090D02*
X213125000Y-82565000D01*
X215154016Y-80600000D02*
X214802545Y-80951471D01*
X220250000Y-83365685D02*
X220484315Y-83600000D01*
X214225000Y-81965000D02*
X213625000Y-82565000D01*
X214808328Y-81965000D02*
X214225000Y-81965000D01*
%TO.N,Meta 19 (R Option)*%
X217425000Y-90185000D02*
X216925000Y-90185000D01*
X217790002Y-90185000D02*
X217425000Y-90185000D01*
X218725002Y-89250000D02*
X217790002Y-90185000D01*
X217425000Y-90185000D02*
X216995000Y-90185000D01*
%TO.N,+3.3V*%
X195995000Y-85352500D02*
X195420000Y-84777500D01*
X209991403Y-91450000D02*
X210070000Y-91371403D01*
D22*
X203830000Y-93960000D02*
X195600000Y-85730000D01*
D21*
X195420000Y-84777500D02*
X195420000Y-82932500D01*
D22*
X204720000Y-93960000D02*
X203830000Y-93960000D01*
D21*
X210070000Y-91371403D02*
X210070000Y-91030000D01*
X210070000Y-91030000D02*
X210630000Y-90470000D01*
X210630000Y-90470000D02*
X210630000Y-89700000D01*
D22*
X195600000Y-85730000D02*
X195600000Y-83630000D01*
D21*
%TO.N,Serial Out*%
X201075000Y-89700000D02*
X200950000Y-89575000D01*
X201740000Y-89700000D02*
X201075000Y-89700000D01*
%TO.N,Shift Clock*%
X209350000Y-78225404D02*
X209350000Y-77352450D01*
X210361047Y-79236451D02*
X209350000Y-78225404D01*
X209959291Y-81617090D02*
X209904000Y-81672381D01*
%TO.N,Paralell Latch*%
X211710000Y-79240000D02*
X210620000Y-78150000D01*
X211883545Y-77352450D02*
X212230121Y-77699026D01*
X210620000Y-77352450D02*
X211883545Y-77352450D01*
X210620000Y-78150000D02*
X210620000Y-77352450D01*
%TO.N,Net-(J2-Pin_3)*%
X256188439Y-81625939D02*
X256188439Y-83284649D01*
X253525000Y-78962500D02*
X256188439Y-81625939D01*
X256188439Y-83284649D02*
X255063439Y-84409649D01*
%TO.N,LidSwitch*%
X234125424Y-100422979D02*
X234125424Y-98074576D01*
X231848403Y-102700000D02*
X234125424Y-100422979D01*
X234125424Y-98074576D02*
X234150000Y-98050000D01*
X227090000Y-102700000D02*
X231848403Y-102700000D01*
D22*
%TO.N,GND*%
X224060000Y-80400000D02*
X225400000Y-80400000D01*
D21*
X240125000Y-83982000D02*
X240125000Y-85232000D01*
%TO.N,Power LED V+*%
X240792000Y-90602000D02*
X240462000Y-90932000D01*
X233124000Y-88090000D02*
X227360000Y-88090000D01*
X227360000Y-88090000D02*
X225100000Y-90350000D01*
X240462000Y-90932000D02*
X235966000Y-90932000D01*
X235966000Y-90932000D02*
X233124000Y-88090000D01*
X225100000Y-90350000D02*
X223090000Y-90350000D01*
%TO.N,Caps LED V+*%
X229860025Y-89932001D02*
X229860025Y-89709975D01*
X229860025Y-89709975D02*
X230651000Y-88919000D01*
X230651000Y-88919000D02*
X230651000Y-88490000D01*
X232254000Y-88490000D02*
X235458000Y-91694000D01*
X230651000Y-88490000D02*
X232254000Y-88490000D01*
X236676000Y-91694000D02*
X236930000Y-91948000D01*
X235458000Y-91694000D02*
X236676000Y-91694000D01*
%TO.N,Row 27*%
X235904000Y-86200000D02*
X220700000Y-86200000D01*
X238506000Y-88802000D02*
X235904000Y-86200000D01*
X220700000Y-86200000D02*
X219605000Y-85105000D01*
X219605000Y-85105000D02*
X217425000Y-85105000D01*
%TO.N,Row 25*%
X237609636Y-88754166D02*
X235455470Y-86600000D01*
X235455470Y-86600000D02*
X220534314Y-86600000D01*
X220534314Y-86600000D02*
X220244314Y-86310000D01*
X220244314Y-86310000D02*
X217490000Y-86310000D01*
X217490000Y-86310000D02*
X217425000Y-86375000D01*
%TO.N,Row 23*%
X236690470Y-88683530D02*
X235206940Y-87200000D01*
X235206940Y-87200000D02*
X217870000Y-87200000D01*
X217870000Y-87200000D02*
X217425000Y-87645000D01*
%TO.N,Row 21*%
X235745796Y-88587386D02*
X234848410Y-87690000D01*
X234848410Y-87690000D02*
X219080000Y-87690000D01*
X219080000Y-87690000D02*
X217855000Y-88915000D01*
X217855000Y-88915000D02*
X217425000Y-88915000D01*
%TO.N,GND*%
X226249285Y-80400000D02*
X226719235Y-80869950D01*
X225400000Y-80400000D02*
X226249285Y-80400000D01*
%TO.N,Shift Clock*%
X226698314Y-81534000D02*
X226627157Y-81462843D01*
X226627157Y-81462843D02*
X221250000Y-81462843D01*
X231521000Y-81534000D02*
X226698314Y-81534000D01*
D22*
%TO.N,GND*%
X230886000Y-80391000D02*
X230886000Y-79883000D01*
X228177595Y-80051406D02*
X228517189Y-80391000D01*
X228517189Y-80391000D02*
X230886000Y-80391000D01*
X227478999Y-80051406D02*
X228177595Y-80051406D01*
X226719235Y-80811170D02*
X227478999Y-80051406D01*
X226719235Y-80869950D02*
X226719235Y-80811170D01*
D21*
%TO.N,Paralell Latch*%
X229835000Y-79657500D02*
X228455441Y-79657500D01*
X228455441Y-79657500D02*
X228172941Y-79375000D01*
X228172941Y-79375000D02*
X225806000Y-79375000D01*
X225806000Y-79375000D02*
X224611000Y-78180000D01*
X224611000Y-78180000D02*
X218880000Y-78180000D01*
%TO.N,GND*%
X240125000Y-85232000D02*
X240999000Y-86106000D01*
X244348000Y-86106000D02*
X245999000Y-84455000D01*
X240999000Y-86106000D02*
X244348000Y-86106000D01*
%TO.N,PowerSwitch*%
X242125000Y-82732000D02*
X242125000Y-83982000D01*
X240673000Y-81280000D02*
X242125000Y-82732000D01*
D22*
%TO.N,GND*%
X240125000Y-83982000D02*
X236062405Y-83982000D01*
X232410000Y-80329595D02*
X232410000Y-80264000D01*
X236062405Y-83982000D02*
X232410000Y-80329595D01*
D21*
%TO.N,TP_RX*%
X228429735Y-78783265D02*
X228703970Y-79057500D01*
X239325000Y-86032000D02*
X240269000Y-86976000D01*
X252525000Y-78465256D02*
X252840256Y-78150000D01*
X230909029Y-79057500D02*
X231738215Y-79886686D01*
X228703970Y-79057500D02*
X230909029Y-79057500D01*
X231738215Y-79886686D02*
X231738215Y-80337000D01*
X239325000Y-85528000D02*
X239325000Y-86032000D01*
X231738215Y-80337000D02*
X232521000Y-81119785D01*
X232521000Y-81119785D02*
X232528438Y-81119785D01*
X240269000Y-86976000D02*
X246067000Y-86976000D01*
X246067000Y-86976000D02*
X252525000Y-80518000D01*
X232528438Y-81119785D02*
X235865653Y-84457000D01*
X235865653Y-84457000D02*
X238254000Y-84457000D01*
X258813439Y-82753695D02*
X258813439Y-83409649D01*
X238254000Y-84457000D02*
X239325000Y-85528000D01*
X252525000Y-80518000D02*
X252525000Y-78465256D01*
X252840256Y-78150000D02*
X254209744Y-78150000D01*
X254209744Y-78150000D02*
X258813439Y-82753695D01*
%TO.N,TP_TX*%
X227748000Y-80737000D02*
X228037000Y-81026000D01*
X231180471Y-81026000D02*
X231272471Y-80934000D01*
X231769529Y-80934000D02*
X232355314Y-81519785D01*
X231272471Y-80934000D02*
X231769529Y-80934000D01*
X232355314Y-81519785D02*
X232362752Y-81519785D01*
X232362752Y-81519785D02*
X235699967Y-84857000D01*
X228037000Y-81026000D02*
X231180471Y-81026000D01*
X238925000Y-86197686D02*
X240103314Y-87376000D01*
X240103314Y-87376000D02*
X246936500Y-87376000D01*
X235699967Y-84857000D02*
X238088314Y-84857000D01*
X238088314Y-84857000D02*
X238925000Y-85693686D01*
X246936500Y-87376000D02*
X253525000Y-80787500D01*
X238925000Y-85693686D02*
X238925000Y-86197686D01*
%TO.N,PowerSwitch*%
X240411000Y-81280000D02*
X240919000Y-81280000D01*
X234315000Y-81280000D02*
X240411000Y-81280000D01*
X240411000Y-81280000D02*
X240673000Y-81280000D01*
%TO.N,Meta 3 (Option)*%
X231775000Y-85598000D02*
X235442000Y-85598000D01*
X231648000Y-85471000D02*
X231775000Y-85598000D01*
%TD*%
%TA.AperFunction,Conductor*%
%TO.N,GND*%
G36*
X243334259Y-75997120D02*
G01*
X243380014Y-76049924D01*
X243389958Y-76119082D01*
X243366487Y-76175745D01*
X243356478Y-76189116D01*
X243281203Y-76289669D01*
X243281202Y-76289671D01*
X243230908Y-76424517D01*
X243224501Y-76484116D01*
X243224501Y-76484123D01*
X243224500Y-76484135D01*
X243224500Y-79979870D01*
X243224501Y-79979876D01*
X243230908Y-80039483D01*
X243281202Y-80174328D01*
X243281206Y-80174335D01*
X243367452Y-80289544D01*
X243367455Y-80289547D01*
X243482664Y-80375793D01*
X243482671Y-80375797D01*
X243617517Y-80426091D01*
X243617516Y-80426091D01*
X243624444Y-80426835D01*
X243677127Y-80432500D01*
X245272872Y-80432499D01*
X245332483Y-80426091D01*
X245467331Y-80375796D01*
X245582546Y-80289546D01*
X245668796Y-80174331D01*
X245719091Y-80039483D01*
X245725500Y-79979873D01*
X245725499Y-76484128D01*
X245719091Y-76424517D01*
X245714591Y-76412453D01*
X245668797Y-76289671D01*
X245668796Y-76289669D01*
X245593522Y-76189116D01*
X245583512Y-76175745D01*
X245559096Y-76110282D01*
X245573947Y-76042009D01*
X245623352Y-75992603D01*
X245682780Y-75977435D01*
X257277533Y-75977435D01*
X257340718Y-75977435D01*
X257346127Y-75977553D01*
X257744620Y-75994953D01*
X257755362Y-75995893D01*
X258148143Y-76047606D01*
X258158770Y-76049479D01*
X258545550Y-76135228D01*
X258555988Y-76138025D01*
X258933812Y-76257155D01*
X258943954Y-76260846D01*
X259309965Y-76412455D01*
X259319763Y-76417025D01*
X259671154Y-76599948D01*
X259680501Y-76605345D01*
X259967587Y-76788240D01*
X260014614Y-76818200D01*
X260023475Y-76824404D01*
X260337777Y-77065578D01*
X260346051Y-77072522D01*
X260457819Y-77174939D01*
X260638111Y-77340147D01*
X260645761Y-77347796D01*
X260913401Y-77639877D01*
X260920354Y-77648164D01*
X261161506Y-77962440D01*
X261167711Y-77971301D01*
X261380562Y-78305411D01*
X261385971Y-78314780D01*
X261472551Y-78481100D01*
X261531385Y-78594121D01*
X261568890Y-78666167D01*
X261573461Y-78675971D01*
X261725058Y-79041961D01*
X261728758Y-79052126D01*
X261847880Y-79429934D01*
X261850680Y-79440383D01*
X261936422Y-79827145D01*
X261938300Y-79837798D01*
X261944466Y-79884630D01*
X261988657Y-80220297D01*
X261990007Y-80230547D01*
X261990950Y-80241324D01*
X262008382Y-80640613D01*
X262008500Y-80646021D01*
X262008500Y-103491413D01*
X262008227Y-103499642D01*
X261981971Y-103894390D01*
X261980783Y-103905142D01*
X261920125Y-104296739D01*
X261918004Y-104307347D01*
X261823447Y-104692160D01*
X261820410Y-104702542D01*
X261692677Y-105077646D01*
X261688747Y-105087725D01*
X261528800Y-105450286D01*
X261524006Y-105459983D01*
X261333076Y-105807211D01*
X261327455Y-105816454D01*
X261106984Y-106145727D01*
X261100579Y-106154444D01*
X260852261Y-106463235D01*
X260845121Y-106471362D01*
X260570815Y-106757355D01*
X260562994Y-106764827D01*
X260264817Y-107025818D01*
X260256373Y-107032581D01*
X259936596Y-107266580D01*
X259927596Y-107272582D01*
X259588627Y-107477830D01*
X259579139Y-107483024D01*
X259223564Y-107657952D01*
X259213658Y-107662299D01*
X258844200Y-107805567D01*
X258833953Y-107809034D01*
X258453419Y-107919556D01*
X258442909Y-107922117D01*
X258054194Y-107999051D01*
X258043501Y-108000687D01*
X257649542Y-108043452D01*
X257638747Y-108044149D01*
X257244254Y-108052382D01*
X257241667Y-108052409D01*
X257232876Y-108052409D01*
X257230052Y-108052377D01*
X257224642Y-108052253D01*
X257171286Y-108051038D01*
X257171285Y-108051038D01*
X257171282Y-108051038D01*
X257165322Y-108051685D01*
X257151943Y-108052409D01*
X250224697Y-108052409D01*
X250157658Y-108032724D01*
X250111903Y-107979920D01*
X250101330Y-107924173D01*
X250100924Y-107924173D01*
X250100923Y-107922032D01*
X250100875Y-107921774D01*
X250100923Y-107920859D01*
X250100924Y-107920852D01*
X250100923Y-104425107D01*
X250094515Y-104365496D01*
X250068870Y-104296739D01*
X250044221Y-104230650D01*
X250044217Y-104230643D01*
X249957971Y-104115434D01*
X249957968Y-104115431D01*
X249842759Y-104029185D01*
X249842752Y-104029181D01*
X249707906Y-103978887D01*
X249707907Y-103978887D01*
X249648307Y-103972480D01*
X249648305Y-103972479D01*
X249648297Y-103972479D01*
X249648288Y-103972479D01*
X248052553Y-103972479D01*
X248052547Y-103972480D01*
X247992940Y-103978887D01*
X247858095Y-104029181D01*
X247858088Y-104029185D01*
X247742879Y-104115431D01*
X247742876Y-104115434D01*
X247656630Y-104230643D01*
X247656626Y-104230650D01*
X247606332Y-104365496D01*
X247599925Y-104425095D01*
X247599925Y-104425102D01*
X247599924Y-104425114D01*
X247599924Y-107920843D01*
X247599975Y-107921777D01*
X247599924Y-107921988D01*
X247599925Y-107924171D01*
X247599409Y-107924171D01*
X247583904Y-107989773D01*
X247533623Y-108038287D01*
X247476152Y-108052409D01*
X243524697Y-108052409D01*
X243457658Y-108032724D01*
X243411903Y-107979920D01*
X243401330Y-107924173D01*
X243400924Y-107924173D01*
X243400923Y-107922032D01*
X243400875Y-107921774D01*
X243400923Y-107920859D01*
X243400924Y-107920852D01*
X243400923Y-104425107D01*
X243394515Y-104365496D01*
X243368870Y-104296739D01*
X243344221Y-104230650D01*
X243344217Y-104230643D01*
X243257971Y-104115434D01*
X243257968Y-104115431D01*
X243142759Y-104029185D01*
X243142752Y-104029181D01*
X243007906Y-103978887D01*
X243007907Y-103978887D01*
X242948307Y-103972480D01*
X242948305Y-103972479D01*
X242948297Y-103972479D01*
X242948288Y-103972479D01*
X241352553Y-103972479D01*
X241352547Y-103972480D01*
X241292940Y-103978887D01*
X241158095Y-104029181D01*
X241158088Y-104029185D01*
X241042879Y-104115431D01*
X241042876Y-104115434D01*
X240956630Y-104230643D01*
X240956626Y-104230650D01*
X240906332Y-104365496D01*
X240899925Y-104425095D01*
X240899925Y-104425102D01*
X240899924Y-104425114D01*
X240899924Y-107920843D01*
X240899975Y-107921777D01*
X240899924Y-107921988D01*
X240899925Y-107924171D01*
X240899409Y-107924171D01*
X240883904Y-107989773D01*
X240833623Y-108038287D01*
X240776152Y-108052409D01*
X239849697Y-108052409D01*
X239782658Y-108032724D01*
X239736903Y-107979920D01*
X239726330Y-107924173D01*
X239725924Y-107924173D01*
X239725923Y-107922032D01*
X239725875Y-107921774D01*
X239725923Y-107920859D01*
X239725924Y-107920852D01*
X239725923Y-104425107D01*
X239719515Y-104365496D01*
X239693870Y-104296739D01*
X239669221Y-104230650D01*
X239669217Y-104230643D01*
X239582971Y-104115434D01*
X239582968Y-104115431D01*
X239467759Y-104029185D01*
X239467752Y-104029181D01*
X239332906Y-103978887D01*
X239332907Y-103978887D01*
X239273307Y-103972480D01*
X239273305Y-103972479D01*
X239273297Y-103972479D01*
X239273288Y-103972479D01*
X237677553Y-103972479D01*
X237677547Y-103972480D01*
X237617940Y-103978887D01*
X237483095Y-104029181D01*
X237483088Y-104029185D01*
X237367879Y-104115431D01*
X237367876Y-104115434D01*
X237281630Y-104230643D01*
X237281626Y-104230650D01*
X237231332Y-104365496D01*
X237224925Y-104425095D01*
X237224925Y-104425102D01*
X237224924Y-104425114D01*
X237224924Y-107920843D01*
X237224975Y-107921777D01*
X237224924Y-107921988D01*
X237224925Y-107924171D01*
X237224409Y-107924171D01*
X237208904Y-107989773D01*
X237158623Y-108038287D01*
X237101152Y-108052409D01*
X233149697Y-108052409D01*
X233082658Y-108032724D01*
X233036903Y-107979920D01*
X233026330Y-107924173D01*
X233025924Y-107924173D01*
X233025923Y-107922032D01*
X233025875Y-107921774D01*
X233025923Y-107920859D01*
X233025924Y-107920852D01*
X233025923Y-104425107D01*
X233019515Y-104365496D01*
X232993870Y-104296739D01*
X232969221Y-104230650D01*
X232969217Y-104230643D01*
X232882971Y-104115434D01*
X232882968Y-104115431D01*
X232767759Y-104029185D01*
X232767752Y-104029181D01*
X232632906Y-103978887D01*
X232632907Y-103978887D01*
X232573307Y-103972480D01*
X232573305Y-103972479D01*
X232573297Y-103972479D01*
X232573288Y-103972479D01*
X230977553Y-103972479D01*
X230977547Y-103972480D01*
X230917940Y-103978887D01*
X230783095Y-104029181D01*
X230783088Y-104029185D01*
X230667879Y-104115431D01*
X230667876Y-104115434D01*
X230581630Y-104230643D01*
X230581626Y-104230650D01*
X230531332Y-104365496D01*
X230524925Y-104425095D01*
X230524925Y-104425102D01*
X230524924Y-104425114D01*
X230524924Y-107920843D01*
X230524975Y-107921777D01*
X230524924Y-107921988D01*
X230524925Y-107924171D01*
X230524409Y-107924171D01*
X230508904Y-107989773D01*
X230458623Y-108038287D01*
X230401152Y-108052409D01*
X206644494Y-108052409D01*
X206577455Y-108032724D01*
X206531700Y-107979920D01*
X206521756Y-107910762D01*
X206550781Y-107847206D01*
X206570182Y-107829143D01*
X206585138Y-107817946D01*
X206643648Y-107774146D01*
X206729898Y-107658931D01*
X206780193Y-107524083D01*
X206786602Y-107464473D01*
X206786601Y-103863528D01*
X206780193Y-103803917D01*
X206771116Y-103779581D01*
X206729899Y-103669071D01*
X206729895Y-103669064D01*
X206643649Y-103553855D01*
X206643646Y-103553852D01*
X206528437Y-103467606D01*
X206528430Y-103467602D01*
X206393584Y-103417308D01*
X206393585Y-103417308D01*
X206333985Y-103410901D01*
X206333983Y-103410900D01*
X206333975Y-103410900D01*
X206333966Y-103410900D01*
X204638031Y-103410900D01*
X204638025Y-103410901D01*
X204578418Y-103417308D01*
X204443573Y-103467602D01*
X204443566Y-103467606D01*
X204328357Y-103553852D01*
X204328354Y-103553855D01*
X204242108Y-103669064D01*
X204242104Y-103669071D01*
X204191810Y-103803917D01*
X204187334Y-103845553D01*
X204185403Y-103863523D01*
X204185402Y-103863535D01*
X204185402Y-107464470D01*
X204185403Y-107464476D01*
X204191810Y-107524083D01*
X204242104Y-107658928D01*
X204242108Y-107658935D01*
X204328354Y-107774144D01*
X204328355Y-107774144D01*
X204328356Y-107774146D01*
X204370329Y-107805567D01*
X204401822Y-107829143D01*
X204443692Y-107885077D01*
X204448676Y-107954769D01*
X204415190Y-108016091D01*
X204353867Y-108049576D01*
X204327510Y-108052409D01*
X197944492Y-108052409D01*
X197877453Y-108032724D01*
X197831698Y-107979920D01*
X197821754Y-107910762D01*
X197850779Y-107847206D01*
X197870180Y-107829143D01*
X197885136Y-107817946D01*
X197943646Y-107774146D01*
X198029896Y-107658931D01*
X198080191Y-107524083D01*
X198086600Y-107464473D01*
X198086599Y-103863528D01*
X198080191Y-103803917D01*
X198071114Y-103779581D01*
X198029897Y-103669071D01*
X198029893Y-103669064D01*
X197943647Y-103553855D01*
X197943644Y-103553852D01*
X197828435Y-103467606D01*
X197828428Y-103467602D01*
X197693582Y-103417308D01*
X197693583Y-103417308D01*
X197633983Y-103410901D01*
X197633981Y-103410900D01*
X197633973Y-103410900D01*
X197633964Y-103410900D01*
X195938029Y-103410900D01*
X195938023Y-103410901D01*
X195878416Y-103417308D01*
X195743571Y-103467602D01*
X195743564Y-103467606D01*
X195628355Y-103553852D01*
X195628352Y-103553855D01*
X195542106Y-103669064D01*
X195542102Y-103669071D01*
X195491808Y-103803917D01*
X195487332Y-103845553D01*
X195485401Y-103863523D01*
X195485400Y-103863535D01*
X195485400Y-107464470D01*
X195485401Y-107464476D01*
X195491808Y-107524083D01*
X195542102Y-107658928D01*
X195542106Y-107658935D01*
X195628352Y-107774144D01*
X195628353Y-107774144D01*
X195628354Y-107774146D01*
X195670327Y-107805567D01*
X195701820Y-107829143D01*
X195743690Y-107885077D01*
X195748674Y-107954769D01*
X195715188Y-108016091D01*
X195653865Y-108049576D01*
X195627508Y-108052409D01*
X192559866Y-108052409D01*
X192559581Y-108052427D01*
X192448478Y-108052427D01*
X192367145Y-108059962D01*
X192080158Y-108086553D01*
X192080151Y-108086554D01*
X191716529Y-108154524D01*
X191716528Y-108154525D01*
X191360751Y-108255750D01*
X191360743Y-108255752D01*
X191015811Y-108389377D01*
X190684696Y-108554252D01*
X190684680Y-108554261D01*
X190370190Y-108748984D01*
X190074985Y-108971910D01*
X189801619Y-109221115D01*
X189552421Y-109494472D01*
X189552414Y-109494481D01*
X189329500Y-109789665D01*
X189134767Y-110104170D01*
X189042309Y-110289851D01*
X188969884Y-110435299D01*
X188836258Y-110780228D01*
X188836256Y-110780234D01*
X188836254Y-110780240D01*
X188821270Y-110832904D01*
X188735028Y-111136015D01*
X188667058Y-111499626D01*
X188667057Y-111499633D01*
X188667056Y-111499634D01*
X188632928Y-111867959D01*
X188632928Y-116993971D01*
X188632788Y-116999872D01*
X188614645Y-117380718D01*
X188613523Y-117392464D01*
X188559684Y-117766918D01*
X188557451Y-117778505D01*
X188468260Y-118146159D01*
X188464935Y-118157482D01*
X188341204Y-118514978D01*
X188336818Y-118525933D01*
X188179661Y-118870057D01*
X188174254Y-118880545D01*
X187985098Y-119208173D01*
X187978718Y-119218100D01*
X187759281Y-119526255D01*
X187751987Y-119535531D01*
X187504243Y-119821444D01*
X187496100Y-119829984D01*
X187222307Y-120091044D01*
X187213389Y-120098771D01*
X186916005Y-120332637D01*
X186906393Y-120339482D01*
X186588157Y-120544001D01*
X186577937Y-120549902D01*
X186241672Y-120723258D01*
X186230938Y-120728160D01*
X185879724Y-120868765D01*
X185868573Y-120872624D01*
X185505590Y-120979205D01*
X185494122Y-120981987D01*
X185122656Y-121053581D01*
X185110976Y-121055260D01*
X184734368Y-121091223D01*
X184722581Y-121091785D01*
X184344281Y-121091785D01*
X184332494Y-121091223D01*
X183955885Y-121055260D01*
X183944205Y-121053581D01*
X183572739Y-120981988D01*
X183561271Y-120979206D01*
X183198288Y-120872625D01*
X183187137Y-120868765D01*
X182835923Y-120728159D01*
X182825189Y-120723258D01*
X182488932Y-120549906D01*
X182478713Y-120544006D01*
X182160462Y-120339479D01*
X182150849Y-120332634D01*
X181853471Y-120098774D01*
X181844553Y-120091046D01*
X181570761Y-119829986D01*
X181562618Y-119821446D01*
X181314873Y-119535533D01*
X181307579Y-119526257D01*
X181112469Y-119252264D01*
X181088138Y-119218097D01*
X181081762Y-119208175D01*
X180892603Y-118880543D01*
X180887196Y-118870055D01*
X180848905Y-118786209D01*
X180730034Y-118525918D01*
X180725662Y-118514996D01*
X180601921Y-118157470D01*
X180598603Y-118146174D01*
X180509408Y-117778505D01*
X180507175Y-117766919D01*
X180453336Y-117392465D01*
X180452214Y-117380718D01*
X180434067Y-116999773D01*
X180434000Y-116996927D01*
X182278099Y-116996927D01*
X182278099Y-116996942D01*
X182297392Y-117291298D01*
X182297393Y-117291308D01*
X182297394Y-117291315D01*
X182297396Y-117291325D01*
X182354946Y-117580651D01*
X182354949Y-117580665D01*
X182449777Y-117860015D01*
X182580253Y-118124595D01*
X182580257Y-118124602D01*
X182744153Y-118369890D01*
X182938669Y-118591693D01*
X183160471Y-118786208D01*
X183405763Y-118950107D01*
X183670351Y-119080587D01*
X183949706Y-119175416D01*
X184239048Y-119232969D01*
X184267316Y-119234821D01*
X184533421Y-119252264D01*
X184533428Y-119252264D01*
X184533435Y-119252264D01*
X184769103Y-119236816D01*
X184827808Y-119232969D01*
X185117150Y-119175416D01*
X185396505Y-119080587D01*
X185661093Y-118950107D01*
X185906385Y-118786208D01*
X186128186Y-118591693D01*
X186322701Y-118369892D01*
X186486600Y-118124600D01*
X186617080Y-117860012D01*
X186711909Y-117580657D01*
X186769462Y-117291315D01*
X186774536Y-117213908D01*
X186788757Y-116996942D01*
X186788757Y-116996927D01*
X186769463Y-116702571D01*
X186769462Y-116702555D01*
X186711909Y-116413213D01*
X186617080Y-116133858D01*
X186486600Y-115869271D01*
X186322701Y-115623978D01*
X186280083Y-115575382D01*
X186128186Y-115402176D01*
X185906383Y-115207660D01*
X185661095Y-115043764D01*
X185661088Y-115043760D01*
X185396508Y-114913284D01*
X185117158Y-114818456D01*
X185117152Y-114818454D01*
X185117150Y-114818454D01*
X184827808Y-114760901D01*
X184827801Y-114760900D01*
X184827791Y-114760899D01*
X184533435Y-114741606D01*
X184533421Y-114741606D01*
X184239064Y-114760899D01*
X184239052Y-114760900D01*
X184239048Y-114760901D01*
X184239040Y-114760902D01*
X184239037Y-114760903D01*
X183949711Y-114818453D01*
X183949697Y-114818456D01*
X183670347Y-114913284D01*
X183405762Y-115043763D01*
X183160469Y-115207663D01*
X182938669Y-115402176D01*
X182744156Y-115623976D01*
X182580256Y-115869269D01*
X182449777Y-116133854D01*
X182354949Y-116413204D01*
X182354946Y-116413218D01*
X182297396Y-116702544D01*
X182297392Y-116702571D01*
X182278099Y-116996927D01*
X180434000Y-116996927D01*
X180433928Y-116993905D01*
X180433928Y-103845553D01*
X180453613Y-103778514D01*
X180506417Y-103732759D01*
X180575575Y-103722815D01*
X180639131Y-103751840D01*
X180662921Y-103779580D01*
X180726184Y-103880262D01*
X180853738Y-104007816D01*
X181006478Y-104103789D01*
X181176745Y-104163368D01*
X181176750Y-104163369D01*
X181355996Y-104183565D01*
X181356000Y-104183565D01*
X181356004Y-104183565D01*
X181535249Y-104163369D01*
X181535252Y-104163368D01*
X181535255Y-104163368D01*
X181705522Y-104103789D01*
X181858262Y-104007816D01*
X181985816Y-103880262D01*
X182081789Y-103727522D01*
X182081790Y-103727518D01*
X182084811Y-103721246D01*
X182086655Y-103722134D01*
X182109305Y-103686061D01*
X182646549Y-103148819D01*
X182707872Y-103115334D01*
X182734230Y-103112500D01*
X196817062Y-103112500D01*
X196914604Y-103093096D01*
X196962055Y-103083658D01*
X197098637Y-103027084D01*
X197147871Y-102994186D01*
X197221558Y-102944952D01*
X198098085Y-102068423D01*
X198159406Y-102034940D01*
X198229097Y-102039924D01*
X198275347Y-102074546D01*
X198276880Y-102073014D01*
X198283151Y-102079284D01*
X198283154Y-102079288D01*
X198283157Y-102079290D01*
X198398364Y-102165535D01*
X198398371Y-102165539D01*
X198533217Y-102215833D01*
X198533216Y-102215833D01*
X198540144Y-102216577D01*
X198592827Y-102222242D01*
X199679172Y-102222241D01*
X199738783Y-102215833D01*
X199873631Y-102165538D01*
X199988846Y-102079288D01*
X200036735Y-102015316D01*
X200092667Y-101973447D01*
X200162359Y-101968463D01*
X200223682Y-102001948D01*
X200235266Y-102015317D01*
X200282888Y-102078932D01*
X200283156Y-102079289D01*
X200398365Y-102165535D01*
X200398372Y-102165539D01*
X200533218Y-102215833D01*
X200533217Y-102215833D01*
X200540145Y-102216577D01*
X200592828Y-102222242D01*
X201679173Y-102222241D01*
X201738784Y-102215833D01*
X201873632Y-102165538D01*
X201988847Y-102079288D01*
X202037048Y-102014899D01*
X202092980Y-101973030D01*
X202162671Y-101968046D01*
X202223994Y-102001531D01*
X202235579Y-102014900D01*
X202283514Y-102078932D01*
X202398608Y-102165092D01*
X202398615Y-102165096D01*
X202533322Y-102215338D01*
X202533329Y-102215340D01*
X202592857Y-102221741D01*
X202592874Y-102221742D01*
X202886002Y-102221742D01*
X203386002Y-102221742D01*
X203679130Y-102221742D01*
X203679146Y-102221741D01*
X203738674Y-102215340D01*
X203738681Y-102215338D01*
X203873388Y-102165096D01*
X203873395Y-102165092D01*
X203988489Y-102078932D01*
X203988492Y-102078929D01*
X204074652Y-101963835D01*
X204074656Y-101963828D01*
X204124898Y-101829121D01*
X204124900Y-101829114D01*
X204131301Y-101769586D01*
X204131302Y-101769569D01*
X204131302Y-100219142D01*
X203386002Y-100219142D01*
X203386002Y-102221742D01*
X202886002Y-102221742D01*
X202886002Y-99843142D01*
X202905687Y-99776103D01*
X202958491Y-99730348D01*
X203010002Y-99719142D01*
X204131302Y-99719142D01*
X204131302Y-98641042D01*
X204150987Y-98574003D01*
X204203791Y-98528248D01*
X204255302Y-98517042D01*
X204637916Y-98517042D01*
X204704955Y-98536727D01*
X204725596Y-98553360D01*
X210792755Y-104620520D01*
X210792757Y-104620521D01*
X210792761Y-104620524D01*
X210916840Y-104692160D01*
X210929687Y-104699577D01*
X211082414Y-104740501D01*
X211082416Y-104740501D01*
X211248125Y-104740501D01*
X211248141Y-104740500D01*
X222290331Y-104740500D01*
X222290347Y-104740501D01*
X222297943Y-104740501D01*
X222456054Y-104740501D01*
X222456057Y-104740501D01*
X222608785Y-104699577D01*
X222658904Y-104670639D01*
X222745716Y-104620520D01*
X222857520Y-104508716D01*
X222857520Y-104508714D01*
X222867728Y-104498507D01*
X222867730Y-104498504D01*
X223411535Y-103954698D01*
X223472856Y-103921215D01*
X223485311Y-103919163D01*
X223572255Y-103909368D01*
X223742522Y-103849789D01*
X223895262Y-103753816D01*
X224022816Y-103626262D01*
X224118789Y-103473522D01*
X224178368Y-103303255D01*
X224178606Y-103301145D01*
X224198565Y-103124003D01*
X224198565Y-103123996D01*
X224178369Y-102944750D01*
X224178368Y-102944745D01*
X224124242Y-102790062D01*
X224118789Y-102774478D01*
X224102267Y-102748184D01*
X224071989Y-102699996D01*
X226284435Y-102699996D01*
X226284435Y-102700003D01*
X226304630Y-102879249D01*
X226304631Y-102879254D01*
X226364211Y-103049523D01*
X226457974Y-103198745D01*
X226460184Y-103202262D01*
X226587738Y-103329816D01*
X226619285Y-103349638D01*
X226726980Y-103417308D01*
X226740478Y-103425789D01*
X226859984Y-103467606D01*
X226910745Y-103485368D01*
X226910750Y-103485369D01*
X227089996Y-103505565D01*
X227090000Y-103505565D01*
X227090004Y-103505565D01*
X227269249Y-103485369D01*
X227269252Y-103485368D01*
X227269255Y-103485368D01*
X227439522Y-103425789D01*
X227592262Y-103329816D01*
X227592267Y-103329810D01*
X227595097Y-103327555D01*
X227597275Y-103326665D01*
X227598158Y-103326111D01*
X227598255Y-103326265D01*
X227659783Y-103301145D01*
X227672412Y-103300500D01*
X231761734Y-103300500D01*
X231761750Y-103300501D01*
X231769346Y-103300501D01*
X231927457Y-103300501D01*
X231927460Y-103300501D01*
X232080188Y-103259577D01*
X232130307Y-103230639D01*
X232217119Y-103180520D01*
X232328923Y-103068716D01*
X232328923Y-103068714D01*
X232339131Y-103058507D01*
X232339133Y-103058504D01*
X232995117Y-102402519D01*
X233056438Y-102369036D01*
X233126130Y-102374020D01*
X233182062Y-102415891D01*
X233267876Y-102530523D01*
X233267879Y-102530526D01*
X233383088Y-102616772D01*
X233383095Y-102616776D01*
X233517941Y-102667070D01*
X233517940Y-102667070D01*
X233524868Y-102667814D01*
X233577551Y-102673479D01*
X234673296Y-102673478D01*
X234732907Y-102667070D01*
X234867755Y-102616775D01*
X234982970Y-102530525D01*
X235026470Y-102472415D01*
X235082403Y-102430546D01*
X235152095Y-102425562D01*
X235213418Y-102459047D01*
X235225002Y-102472417D01*
X235268233Y-102530166D01*
X235268236Y-102530169D01*
X235383330Y-102616329D01*
X235383337Y-102616333D01*
X235518044Y-102666575D01*
X235518051Y-102666577D01*
X235577579Y-102672978D01*
X235577596Y-102672979D01*
X235875424Y-102672979D01*
X236375424Y-102672979D01*
X236673252Y-102672979D01*
X236673268Y-102672978D01*
X236732796Y-102666577D01*
X236732803Y-102666575D01*
X236867510Y-102616333D01*
X236867517Y-102616329D01*
X236982611Y-102530169D01*
X236982614Y-102530166D01*
X237068774Y-102415072D01*
X237068778Y-102415065D01*
X237119020Y-102280358D01*
X237119022Y-102280351D01*
X237125423Y-102220823D01*
X237125424Y-102220806D01*
X237125424Y-100672979D01*
X236375424Y-100672979D01*
X236375424Y-102672979D01*
X235875424Y-102672979D01*
X235875424Y-100172979D01*
X236375424Y-100172979D01*
X237125424Y-100172979D01*
X237125424Y-98625151D01*
X237125423Y-98625134D01*
X237119022Y-98565606D01*
X237119020Y-98565599D01*
X237068778Y-98430892D01*
X237068774Y-98430885D01*
X236982614Y-98315791D01*
X236982611Y-98315788D01*
X236867517Y-98229628D01*
X236867510Y-98229624D01*
X236732803Y-98179382D01*
X236732796Y-98179380D01*
X236673268Y-98172979D01*
X236375424Y-98172979D01*
X236375424Y-100172979D01*
X235875424Y-100172979D01*
X235875424Y-98172979D01*
X235577579Y-98172979D01*
X235518051Y-98179380D01*
X235518044Y-98179382D01*
X235383337Y-98229624D01*
X235383330Y-98229628D01*
X235268236Y-98315788D01*
X235225002Y-98373541D01*
X235169068Y-98415411D01*
X235099376Y-98420395D01*
X235038053Y-98386909D01*
X235026470Y-98373541D01*
X234982970Y-98315433D01*
X234976696Y-98309159D01*
X234978604Y-98307250D01*
X234945104Y-98262491D01*
X234938069Y-98205282D01*
X234940988Y-98179380D01*
X234952269Y-98079254D01*
X234955565Y-98050002D01*
X234955565Y-98049996D01*
X234935369Y-97870750D01*
X234935368Y-97870745D01*
X234901077Y-97772748D01*
X234875789Y-97700478D01*
X234862748Y-97679724D01*
X234784312Y-97554894D01*
X234779816Y-97547738D01*
X234652262Y-97420184D01*
X234499523Y-97324211D01*
X234329254Y-97264631D01*
X234329249Y-97264630D01*
X234150004Y-97244435D01*
X234149996Y-97244435D01*
X233970750Y-97264630D01*
X233970745Y-97264631D01*
X233800476Y-97324211D01*
X233647737Y-97420184D01*
X233520184Y-97547737D01*
X233424211Y-97700476D01*
X233364631Y-97870745D01*
X233364630Y-97870750D01*
X233344435Y-98049996D01*
X233344435Y-98050003D01*
X233358107Y-98171350D01*
X233346052Y-98240172D01*
X233309199Y-98284499D01*
X233267881Y-98315429D01*
X233267875Y-98315436D01*
X233181630Y-98430643D01*
X233181626Y-98430650D01*
X233131332Y-98565496D01*
X233124925Y-98625095D01*
X233124924Y-98625114D01*
X233124924Y-100522881D01*
X233105239Y-100589920D01*
X233088605Y-100610562D01*
X231635987Y-102063181D01*
X231574664Y-102096666D01*
X231548306Y-102099500D01*
X227672412Y-102099500D01*
X227605373Y-102079815D01*
X227595097Y-102072445D01*
X227592263Y-102070185D01*
X227592262Y-102070184D01*
X227535496Y-102034515D01*
X227439523Y-101974211D01*
X227269254Y-101914631D01*
X227269249Y-101914630D01*
X227090004Y-101894435D01*
X227089996Y-101894435D01*
X226910750Y-101914630D01*
X226910745Y-101914631D01*
X226740476Y-101974211D01*
X226587737Y-102070184D01*
X226460184Y-102197737D01*
X226364211Y-102350476D01*
X226304631Y-102520745D01*
X226304630Y-102520750D01*
X226284435Y-102699996D01*
X224071989Y-102699996D01*
X224040064Y-102649188D01*
X224022816Y-102621738D01*
X223895262Y-102494184D01*
X223742523Y-102398211D01*
X223572254Y-102338631D01*
X223572249Y-102338630D01*
X223393004Y-102318435D01*
X223392996Y-102318435D01*
X223213750Y-102338630D01*
X223213745Y-102338631D01*
X223043476Y-102398211D01*
X222890737Y-102494184D01*
X222763184Y-102621737D01*
X222667210Y-102774478D01*
X222607630Y-102944750D01*
X222597837Y-103031668D01*
X222570770Y-103096082D01*
X222562298Y-103105465D01*
X222164584Y-103503181D01*
X222103261Y-103536666D01*
X222076903Y-103539500D01*
X216700020Y-103539500D01*
X216632981Y-103519815D01*
X216587226Y-103467011D01*
X216577282Y-103397853D01*
X216606307Y-103334297D01*
X216612339Y-103327819D01*
X216639658Y-103300500D01*
X216702324Y-103237834D01*
X216735414Y-103180520D01*
X216764789Y-103129641D01*
X216781378Y-103100907D01*
X216781377Y-103100907D01*
X216781380Y-103100904D01*
X216782265Y-103097604D01*
X216796861Y-103043130D01*
X216822305Y-102948176D01*
X216822305Y-102790062D01*
X216822305Y-102782467D01*
X216822304Y-102782449D01*
X216822304Y-102609499D01*
X216841989Y-102542460D01*
X216894793Y-102496705D01*
X216946304Y-102485499D01*
X218272871Y-102485499D01*
X218272872Y-102485499D01*
X218332483Y-102479091D01*
X218467331Y-102428796D01*
X218582546Y-102342546D01*
X218640456Y-102265188D01*
X218696389Y-102223318D01*
X218739722Y-102215500D01*
X221005331Y-102215500D01*
X221005347Y-102215501D01*
X221012943Y-102215501D01*
X221171054Y-102215501D01*
X221171057Y-102215501D01*
X221323785Y-102174577D01*
X221373904Y-102145639D01*
X221460716Y-102095520D01*
X221572520Y-101983716D01*
X221572520Y-101983714D01*
X221582728Y-101973507D01*
X221582730Y-101973504D01*
X224138506Y-99417728D01*
X224138511Y-99417724D01*
X224148714Y-99407520D01*
X224148716Y-99407520D01*
X224260520Y-99295716D01*
X224315344Y-99200758D01*
X224339577Y-99158785D01*
X224380500Y-99006057D01*
X224380500Y-98847943D01*
X224380500Y-95755096D01*
X224400185Y-95688057D01*
X224416814Y-95667419D01*
X225443535Y-94640698D01*
X225504856Y-94607215D01*
X225517311Y-94605163D01*
X225604255Y-94595368D01*
X225774522Y-94535789D01*
X225927262Y-94439816D01*
X226054816Y-94312262D01*
X226150789Y-94159522D01*
X226210368Y-93989255D01*
X226211886Y-93975789D01*
X226230565Y-93810002D01*
X226230565Y-93809998D01*
X226221322Y-93727970D01*
X226220306Y-93718954D01*
X226232360Y-93650134D01*
X226255845Y-93617389D01*
X226294520Y-93578716D01*
X226294520Y-93578715D01*
X226304722Y-93568514D01*
X226304729Y-93568504D01*
X228958506Y-90914728D01*
X228958511Y-90914724D01*
X228968714Y-90904520D01*
X228968716Y-90904520D01*
X229080520Y-90792716D01*
X229144985Y-90681058D01*
X229159577Y-90655785D01*
X229166201Y-90631061D01*
X229202562Y-90571405D01*
X229265408Y-90540874D01*
X229334784Y-90549166D01*
X229351947Y-90558162D01*
X229357761Y-90561815D01*
X229357763Y-90561817D01*
X229510503Y-90657790D01*
X229629812Y-90699538D01*
X229680770Y-90717369D01*
X229680775Y-90717370D01*
X229860021Y-90737566D01*
X229860025Y-90737566D01*
X229860029Y-90737566D01*
X230039274Y-90717370D01*
X230039277Y-90717369D01*
X230039280Y-90717369D01*
X230209547Y-90657790D01*
X230362287Y-90561817D01*
X230489841Y-90434263D01*
X230585814Y-90281523D01*
X230645393Y-90111256D01*
X230656630Y-90011523D01*
X230665590Y-89932004D01*
X230665590Y-89931998D01*
X230654215Y-89831045D01*
X230666269Y-89762223D01*
X230689751Y-89729483D01*
X230889369Y-89529865D01*
X230950690Y-89496382D01*
X231020382Y-89501366D01*
X231076315Y-89543238D01*
X231082042Y-89551577D01*
X231107604Y-89592260D01*
X231109867Y-89595097D01*
X231110757Y-89597278D01*
X231111311Y-89598159D01*
X231111156Y-89598255D01*
X231136277Y-89659783D01*
X231136922Y-89672412D01*
X231136922Y-90484438D01*
X231136921Y-90484456D01*
X231136921Y-90650162D01*
X231136920Y-90650162D01*
X231160340Y-90737566D01*
X231177845Y-90802893D01*
X231200963Y-90842934D01*
X231206347Y-90852258D01*
X231206348Y-90852262D01*
X231206349Y-90852262D01*
X231242415Y-90914732D01*
X231256901Y-90939822D01*
X231256903Y-90939825D01*
X231375771Y-91058693D01*
X231375777Y-91058698D01*
X233348188Y-93031109D01*
X233348198Y-93031120D01*
X233464334Y-93147256D01*
X233476769Y-93154435D01*
X233523135Y-93181204D01*
X233601264Y-93226312D01*
X233753992Y-93267235D01*
X237118323Y-93267235D01*
X237185362Y-93286920D01*
X237195638Y-93294290D01*
X237198471Y-93296549D01*
X237198473Y-93296551D01*
X237351213Y-93392524D01*
X237521480Y-93452103D01*
X237539381Y-93454119D01*
X237603794Y-93481184D01*
X237643351Y-93538777D01*
X237649500Y-93577340D01*
X237649500Y-99383330D01*
X237649499Y-99383348D01*
X237649499Y-99549054D01*
X237649498Y-99549054D01*
X237649499Y-99549057D01*
X237690423Y-99701785D01*
X237690424Y-99701787D01*
X237690423Y-99701787D01*
X237701370Y-99720746D01*
X237701371Y-99720748D01*
X237769475Y-99838709D01*
X237769481Y-99838717D01*
X237888349Y-99957585D01*
X237888355Y-99957590D01*
X238718118Y-100787353D01*
X238718128Y-100787364D01*
X238722458Y-100791694D01*
X238722459Y-100791695D01*
X238834263Y-100903499D01*
X238907012Y-100945500D01*
X238971194Y-100982556D01*
X239123922Y-101023480D01*
X239123925Y-101023480D01*
X239289632Y-101023480D01*
X239289648Y-101023479D01*
X243375925Y-101023479D01*
X243442964Y-101043164D01*
X243488719Y-101095968D01*
X243499925Y-101147479D01*
X243499925Y-102220855D01*
X243506332Y-102280462D01*
X243556626Y-102415307D01*
X243556630Y-102415314D01*
X243642876Y-102530523D01*
X243642879Y-102530526D01*
X243758088Y-102616772D01*
X243758095Y-102616776D01*
X243892941Y-102667070D01*
X243892940Y-102667070D01*
X243899868Y-102667814D01*
X243952551Y-102673479D01*
X245048296Y-102673478D01*
X245107907Y-102667070D01*
X245242755Y-102616775D01*
X245357970Y-102530525D01*
X245401470Y-102472415D01*
X245457403Y-102430546D01*
X245527095Y-102425562D01*
X245588418Y-102459047D01*
X245600002Y-102472417D01*
X245643233Y-102530166D01*
X245643236Y-102530169D01*
X245758330Y-102616329D01*
X245758337Y-102616333D01*
X245893044Y-102666575D01*
X245893051Y-102666577D01*
X245952579Y-102672978D01*
X245952596Y-102672979D01*
X246250424Y-102672979D01*
X246750424Y-102672979D01*
X247048252Y-102672979D01*
X247048268Y-102672978D01*
X247107796Y-102666577D01*
X247107803Y-102666575D01*
X247242510Y-102616333D01*
X247242517Y-102616329D01*
X247357611Y-102530169D01*
X247357614Y-102530166D01*
X247443774Y-102415072D01*
X247443778Y-102415065D01*
X247494020Y-102280358D01*
X247494022Y-102280351D01*
X247500423Y-102220823D01*
X247500424Y-102220806D01*
X247500424Y-100672979D01*
X246750424Y-100672979D01*
X246750424Y-102672979D01*
X246250424Y-102672979D01*
X246250424Y-100172979D01*
X246750424Y-100172979D01*
X247500424Y-100172979D01*
X247500424Y-99566927D01*
X255088099Y-99566927D01*
X255088099Y-99566942D01*
X255107392Y-99861298D01*
X255107393Y-99861308D01*
X255107394Y-99861315D01*
X255158024Y-100115854D01*
X255164946Y-100150651D01*
X255164949Y-100150665D01*
X255259777Y-100430015D01*
X255390253Y-100694595D01*
X255390257Y-100694602D01*
X255554153Y-100939890D01*
X255748669Y-101161693D01*
X255883868Y-101280259D01*
X255970471Y-101356208D01*
X256215763Y-101520107D01*
X256480351Y-101650587D01*
X256759706Y-101745416D01*
X257049048Y-101802969D01*
X257077316Y-101804821D01*
X257343421Y-101822264D01*
X257343428Y-101822264D01*
X257343435Y-101822264D01*
X257579103Y-101806816D01*
X257637808Y-101802969D01*
X257927150Y-101745416D01*
X258206505Y-101650587D01*
X258471093Y-101520107D01*
X258716385Y-101356208D01*
X258938186Y-101161693D01*
X259132701Y-100939892D01*
X259296600Y-100694600D01*
X259427080Y-100430012D01*
X259521909Y-100150657D01*
X259579462Y-99861315D01*
X259588046Y-99730348D01*
X259598757Y-99566942D01*
X259598757Y-99566927D01*
X259579463Y-99272571D01*
X259579462Y-99272555D01*
X259521909Y-98983213D01*
X259427080Y-98703858D01*
X259296600Y-98439271D01*
X259291001Y-98430892D01*
X259215192Y-98317435D01*
X259132701Y-98193978D01*
X259058229Y-98109059D01*
X258938186Y-97972176D01*
X258716383Y-97777660D01*
X258471095Y-97613764D01*
X258471088Y-97613760D01*
X258206508Y-97483284D01*
X257927158Y-97388456D01*
X257927152Y-97388454D01*
X257927150Y-97388454D01*
X257637808Y-97330901D01*
X257637801Y-97330900D01*
X257637791Y-97330899D01*
X257343435Y-97311606D01*
X257343421Y-97311606D01*
X257049064Y-97330899D01*
X257049052Y-97330900D01*
X257049048Y-97330901D01*
X257049040Y-97330902D01*
X257049037Y-97330903D01*
X256759711Y-97388453D01*
X256759697Y-97388456D01*
X256480347Y-97483284D01*
X256215762Y-97613763D01*
X255970469Y-97777663D01*
X255748669Y-97972176D01*
X255554156Y-98193976D01*
X255390256Y-98439269D01*
X255259777Y-98703854D01*
X255164949Y-98983204D01*
X255164946Y-98983218D01*
X255107396Y-99272544D01*
X255107392Y-99272571D01*
X255088099Y-99566927D01*
X247500424Y-99566927D01*
X247500424Y-98625151D01*
X247500423Y-98625134D01*
X247494022Y-98565606D01*
X247494020Y-98565599D01*
X247443778Y-98430892D01*
X247443774Y-98430885D01*
X247357614Y-98315791D01*
X247357611Y-98315788D01*
X247242517Y-98229628D01*
X247242510Y-98229624D01*
X247107803Y-98179382D01*
X247107796Y-98179380D01*
X247048268Y-98172979D01*
X246750424Y-98172979D01*
X246750424Y-100172979D01*
X246250424Y-100172979D01*
X246250424Y-98172979D01*
X245952579Y-98172979D01*
X245893051Y-98179380D01*
X245893044Y-98179382D01*
X245758337Y-98229624D01*
X245758330Y-98229628D01*
X245643236Y-98315788D01*
X245600002Y-98373541D01*
X245544068Y-98415411D01*
X245474376Y-98420395D01*
X245413053Y-98386909D01*
X245401470Y-98373541D01*
X245373679Y-98336418D01*
X245357970Y-98315433D01*
X245357968Y-98315432D01*
X245357968Y-98315431D01*
X245242759Y-98229185D01*
X245242752Y-98229181D01*
X245107906Y-98178887D01*
X245107907Y-98178887D01*
X245048307Y-98172480D01*
X245048305Y-98172479D01*
X245048297Y-98172479D01*
X245048288Y-98172479D01*
X243952553Y-98172479D01*
X243952547Y-98172480D01*
X243892940Y-98178887D01*
X243758095Y-98229181D01*
X243758088Y-98229185D01*
X243642879Y-98315431D01*
X243642876Y-98315434D01*
X243556630Y-98430643D01*
X243556626Y-98430650D01*
X243506332Y-98565496D01*
X243499925Y-98625095D01*
X243499924Y-98625114D01*
X243499924Y-99698479D01*
X243480239Y-99765518D01*
X243427435Y-99811273D01*
X243375924Y-99822479D01*
X239503076Y-99822479D01*
X239436037Y-99802794D01*
X239415395Y-99786160D01*
X238886819Y-99257584D01*
X238853334Y-99196261D01*
X238850500Y-99169903D01*
X238850500Y-93840764D01*
X238870185Y-93773725D01*
X238922989Y-93727970D01*
X238992147Y-93718026D01*
X239015456Y-93723723D01*
X239088740Y-93749367D01*
X239088750Y-93749369D01*
X239267996Y-93769565D01*
X239268000Y-93769565D01*
X239268004Y-93769565D01*
X239447249Y-93749369D01*
X239447252Y-93749368D01*
X239447255Y-93749368D01*
X239617522Y-93689789D01*
X239770262Y-93593816D01*
X239897816Y-93466262D01*
X239993789Y-93313522D01*
X240053368Y-93143255D01*
X240053369Y-93143249D01*
X240073565Y-92964003D01*
X240073565Y-92963996D01*
X240053369Y-92784750D01*
X240053368Y-92784745D01*
X240039645Y-92745527D01*
X239993789Y-92614478D01*
X239897816Y-92461738D01*
X239770262Y-92334184D01*
X239677857Y-92276122D01*
X239617521Y-92238210D01*
X239447249Y-92178630D01*
X239360330Y-92168837D01*
X239295916Y-92141770D01*
X239286533Y-92133298D01*
X238897416Y-91744181D01*
X238863931Y-91682858D01*
X238868915Y-91613166D01*
X238910787Y-91557233D01*
X238976251Y-91532816D01*
X238985097Y-91532500D01*
X240375331Y-91532500D01*
X240375347Y-91532501D01*
X240382943Y-91532501D01*
X240541054Y-91532501D01*
X240541057Y-91532501D01*
X240693785Y-91491577D01*
X240778376Y-91442738D01*
X240828364Y-91413877D01*
X240876474Y-91398046D01*
X240971255Y-91387368D01*
X241141522Y-91327789D01*
X241294262Y-91231816D01*
X241421816Y-91104262D01*
X241517789Y-90951522D01*
X241577368Y-90781255D01*
X241577369Y-90781249D01*
X241597565Y-90602003D01*
X241597565Y-90601996D01*
X241577369Y-90422750D01*
X241577368Y-90422745D01*
X241532731Y-90295181D01*
X241517789Y-90252478D01*
X241504785Y-90231783D01*
X241465509Y-90169275D01*
X241421816Y-90099738D01*
X241294262Y-89972184D01*
X241230316Y-89932004D01*
X241141523Y-89876211D01*
X240971254Y-89816631D01*
X240971249Y-89816630D01*
X240792004Y-89796435D01*
X240791996Y-89796435D01*
X240612750Y-89816630D01*
X240612745Y-89816631D01*
X240442476Y-89876211D01*
X240289737Y-89972184D01*
X240162184Y-90099737D01*
X240066207Y-90252483D01*
X240063188Y-90258753D01*
X240060989Y-90257694D01*
X240026907Y-90305223D01*
X239961956Y-90330977D01*
X239950577Y-90331500D01*
X236266097Y-90331500D01*
X236199058Y-90311815D01*
X236178416Y-90295181D01*
X235467133Y-89583898D01*
X235433648Y-89522575D01*
X235438632Y-89452883D01*
X235480504Y-89396950D01*
X235545968Y-89372533D01*
X235568698Y-89372997D01*
X235745793Y-89392951D01*
X235745796Y-89392951D01*
X235745800Y-89392951D01*
X235925045Y-89372755D01*
X235925048Y-89372754D01*
X235925051Y-89372754D01*
X235925052Y-89372753D01*
X235925055Y-89372753D01*
X235978778Y-89353954D01*
X236095318Y-89313175D01*
X236095322Y-89313172D01*
X236098441Y-89312081D01*
X236168220Y-89308518D01*
X236205367Y-89324127D01*
X236252835Y-89353954D01*
X236340945Y-89409318D01*
X236511215Y-89468898D01*
X236511220Y-89468899D01*
X236690466Y-89489095D01*
X236690470Y-89489095D01*
X236690474Y-89489095D01*
X236869719Y-89468899D01*
X236869721Y-89468898D01*
X236869725Y-89468898D01*
X236869728Y-89468896D01*
X236869732Y-89468896D01*
X237046565Y-89407019D01*
X237047049Y-89408404D01*
X237108145Y-89398336D01*
X237158994Y-89416417D01*
X237260111Y-89479954D01*
X237430381Y-89539534D01*
X237430386Y-89539535D01*
X237609632Y-89559731D01*
X237609636Y-89559731D01*
X237609640Y-89559731D01*
X237788885Y-89539535D01*
X237788887Y-89539534D01*
X237788891Y-89539534D01*
X237788894Y-89539532D01*
X237788898Y-89539532D01*
X237839936Y-89521672D01*
X237959158Y-89479955D01*
X237959167Y-89479948D01*
X237965435Y-89476932D01*
X237966763Y-89479690D01*
X238020866Y-89464331D01*
X238085727Y-89483333D01*
X238156475Y-89527788D01*
X238326745Y-89587368D01*
X238326750Y-89587369D01*
X238505996Y-89607565D01*
X238506000Y-89607565D01*
X238506004Y-89607565D01*
X238685249Y-89587369D01*
X238685252Y-89587368D01*
X238685255Y-89587368D01*
X238855522Y-89527789D01*
X239008262Y-89431816D01*
X239135816Y-89304262D01*
X239231789Y-89151522D01*
X239291368Y-88981255D01*
X239293327Y-88963867D01*
X239311565Y-88802003D01*
X239311565Y-88801996D01*
X239291369Y-88622750D01*
X239291368Y-88622745D01*
X239244051Y-88487522D01*
X239231789Y-88452478D01*
X239213079Y-88422702D01*
X239152832Y-88326819D01*
X239135816Y-88299738D01*
X239008262Y-88172184D01*
X238953859Y-88138000D01*
X238855521Y-88076210D01*
X238685249Y-88016630D01*
X238598331Y-88006837D01*
X238533917Y-87979770D01*
X238524534Y-87971298D01*
X236391590Y-85838355D01*
X236391588Y-85838352D01*
X236280035Y-85726799D01*
X236246550Y-85665476D01*
X236244496Y-85625232D01*
X236244850Y-85622093D01*
X236247565Y-85598000D01*
X236247270Y-85595386D01*
X236247565Y-85593704D01*
X236247565Y-85591037D01*
X236248032Y-85591037D01*
X236259322Y-85526567D01*
X236306669Y-85475185D01*
X236370490Y-85457500D01*
X237788217Y-85457500D01*
X237855256Y-85477185D01*
X237875898Y-85493819D01*
X238288181Y-85906102D01*
X238321666Y-85967425D01*
X238324500Y-85993783D01*
X238324500Y-86111016D01*
X238324499Y-86111034D01*
X238324499Y-86276740D01*
X238324498Y-86276740D01*
X238365423Y-86429472D01*
X238380462Y-86455518D01*
X238380463Y-86455523D01*
X238380465Y-86455523D01*
X238444479Y-86566400D01*
X238444481Y-86566403D01*
X238563349Y-86685271D01*
X238563354Y-86685275D01*
X239734598Y-87856520D01*
X239734600Y-87856521D01*
X239734604Y-87856524D01*
X239871523Y-87935573D01*
X239871526Y-87935575D01*
X239871530Y-87935577D01*
X240024257Y-87976501D01*
X240024259Y-87976501D01*
X240189968Y-87976501D01*
X240189984Y-87976500D01*
X246849831Y-87976500D01*
X246849847Y-87976501D01*
X246857443Y-87976501D01*
X247015554Y-87976501D01*
X247015557Y-87976501D01*
X247168285Y-87935577D01*
X247248094Y-87889499D01*
X247305216Y-87856520D01*
X247417020Y-87744716D01*
X247417020Y-87744714D01*
X247427224Y-87734511D01*
X247427228Y-87734506D01*
X253324916Y-81836818D01*
X253386239Y-81803333D01*
X253412597Y-81800499D01*
X253640971Y-81800499D01*
X253708010Y-81820184D01*
X253753765Y-81872988D01*
X253763709Y-81942146D01*
X253757153Y-81967831D01*
X253744349Y-82002160D01*
X253744348Y-82002164D01*
X253744348Y-82002166D01*
X253737939Y-82061776D01*
X253737939Y-82061783D01*
X253737939Y-82061784D01*
X253737939Y-82728484D01*
X253718254Y-82795523D01*
X253701620Y-82816165D01*
X252967307Y-83550478D01*
X252967304Y-83550482D01*
X252893383Y-83661112D01*
X252893378Y-83661122D01*
X252842459Y-83784051D01*
X252842457Y-83784057D01*
X252816611Y-83913992D01*
X252816612Y-83913993D01*
X252816500Y-83914555D01*
X252816500Y-85640719D01*
X252797494Y-85706690D01*
X252766209Y-85756479D01*
X252706633Y-85926737D01*
X252706630Y-85926750D01*
X252686435Y-86105996D01*
X252686435Y-86106003D01*
X252706630Y-86285249D01*
X252706631Y-86285254D01*
X252766211Y-86455523D01*
X252835882Y-86566403D01*
X252862184Y-86608262D01*
X252989738Y-86735816D01*
X253062444Y-86781500D01*
X253119151Y-86817132D01*
X253142478Y-86831789D01*
X253223598Y-86860174D01*
X253312745Y-86891368D01*
X253312750Y-86891369D01*
X253491996Y-86911565D01*
X253492000Y-86911565D01*
X253492003Y-86911565D01*
X253581510Y-86901479D01*
X253671255Y-86891368D01*
X253671256Y-86891367D01*
X253673524Y-86891112D01*
X253742346Y-86903166D01*
X253788380Y-86945588D01*
X253789327Y-86944880D01*
X253793143Y-86949978D01*
X253793726Y-86950515D01*
X253794313Y-86951541D01*
X253880891Y-87067193D01*
X253880894Y-87067196D01*
X253996103Y-87153442D01*
X253996110Y-87153446D01*
X254130956Y-87203740D01*
X254130955Y-87203740D01*
X254137883Y-87204484D01*
X254190566Y-87210149D01*
X255936311Y-87210148D01*
X255995922Y-87203740D01*
X256130770Y-87153445D01*
X256245985Y-87067195D01*
X256250042Y-87061776D01*
X257387939Y-87061776D01*
X257387939Y-87061783D01*
X257387939Y-87061784D01*
X257387939Y-87757519D01*
X257387940Y-87757525D01*
X257394347Y-87817132D01*
X257444641Y-87951977D01*
X257444645Y-87951984D01*
X257530891Y-88067193D01*
X257530894Y-88067196D01*
X257646103Y-88153442D01*
X257646110Y-88153446D01*
X257780956Y-88203740D01*
X257780955Y-88203740D01*
X257787883Y-88204484D01*
X257840566Y-88210149D01*
X259786311Y-88210148D01*
X259845922Y-88203740D01*
X259980770Y-88153445D01*
X260095985Y-88067195D01*
X260182235Y-87951980D01*
X260232530Y-87817132D01*
X260238939Y-87757522D01*
X260238938Y-87061777D01*
X260232530Y-87002166D01*
X260230823Y-86997590D01*
X260182236Y-86867320D01*
X260182232Y-86867313D01*
X260095986Y-86752104D01*
X260095983Y-86752101D01*
X259980774Y-86665855D01*
X259980767Y-86665851D01*
X259845921Y-86615557D01*
X259845922Y-86615557D01*
X259786322Y-86609150D01*
X259786320Y-86609149D01*
X259786312Y-86609149D01*
X259786303Y-86609149D01*
X257840568Y-86609149D01*
X257840562Y-86609150D01*
X257780955Y-86615557D01*
X257646110Y-86665851D01*
X257646103Y-86665855D01*
X257530894Y-86752101D01*
X257530891Y-86752104D01*
X257444645Y-86867313D01*
X257444641Y-86867320D01*
X257394349Y-87002162D01*
X257394348Y-87002166D01*
X257387939Y-87061776D01*
X256250042Y-87061776D01*
X256332235Y-86951980D01*
X256382530Y-86817132D01*
X256388939Y-86757522D01*
X256388938Y-86061777D01*
X256382530Y-86002166D01*
X256379403Y-85993783D01*
X256332236Y-85867320D01*
X256332232Y-85867313D01*
X256250020Y-85757493D01*
X257388439Y-85757493D01*
X257394840Y-85817021D01*
X257394842Y-85817028D01*
X257445084Y-85951735D01*
X257445088Y-85951742D01*
X257531248Y-86066836D01*
X257531251Y-86066839D01*
X257646345Y-86152999D01*
X257646352Y-86153003D01*
X257781059Y-86203245D01*
X257781066Y-86203247D01*
X257840594Y-86209648D01*
X257840611Y-86209649D01*
X258563439Y-86209649D01*
X259063439Y-86209649D01*
X259786267Y-86209649D01*
X259786283Y-86209648D01*
X259845811Y-86203247D01*
X259845818Y-86203245D01*
X259980525Y-86153003D01*
X259980532Y-86152999D01*
X260095626Y-86066839D01*
X260095629Y-86066836D01*
X260181789Y-85951742D01*
X260181793Y-85951735D01*
X260232035Y-85817028D01*
X260232037Y-85817021D01*
X260238438Y-85757493D01*
X260238439Y-85757476D01*
X260238439Y-85659649D01*
X259063439Y-85659649D01*
X259063439Y-86209649D01*
X258563439Y-86209649D01*
X258563439Y-85659649D01*
X257388439Y-85659649D01*
X257388439Y-85757493D01*
X256250020Y-85757493D01*
X256245986Y-85752104D01*
X256245983Y-85752101D01*
X256130774Y-85665855D01*
X256130767Y-85665851D01*
X255995921Y-85615557D01*
X255995922Y-85615557D01*
X255936322Y-85609150D01*
X255936320Y-85609149D01*
X255936312Y-85609149D01*
X255936304Y-85609149D01*
X254291500Y-85609149D01*
X254224461Y-85589464D01*
X254178706Y-85536660D01*
X254167500Y-85485149D01*
X254167500Y-85334148D01*
X254187185Y-85267109D01*
X254239989Y-85221354D01*
X254291495Y-85210148D01*
X255936311Y-85210148D01*
X255995922Y-85203740D01*
X256130770Y-85153445D01*
X256245985Y-85067195D01*
X256250021Y-85061804D01*
X257388439Y-85061804D01*
X257388439Y-85159649D01*
X258563439Y-85159649D01*
X259063439Y-85159649D01*
X260238439Y-85159649D01*
X260238439Y-85061821D01*
X260238438Y-85061804D01*
X260232037Y-85002276D01*
X260232035Y-85002269D01*
X260181793Y-84867562D01*
X260181789Y-84867555D01*
X260095629Y-84752461D01*
X260095626Y-84752458D01*
X259980532Y-84666298D01*
X259980525Y-84666294D01*
X259845818Y-84616052D01*
X259845811Y-84616050D01*
X259786283Y-84609649D01*
X259063439Y-84609649D01*
X259063439Y-85159649D01*
X258563439Y-85159649D01*
X258563439Y-84609649D01*
X257840594Y-84609649D01*
X257781066Y-84616050D01*
X257781059Y-84616052D01*
X257646352Y-84666294D01*
X257646345Y-84666298D01*
X257531251Y-84752458D01*
X257531248Y-84752461D01*
X257445088Y-84867555D01*
X257445084Y-84867562D01*
X257394842Y-85002269D01*
X257394840Y-85002276D01*
X257388439Y-85061804D01*
X256250021Y-85061804D01*
X256332235Y-84951980D01*
X256382530Y-84817132D01*
X256388939Y-84757522D01*
X256388938Y-84061777D01*
X256382816Y-84004829D01*
X256395222Y-83936072D01*
X256418422Y-83903899D01*
X256546945Y-83775377D01*
X256546950Y-83775373D01*
X256557153Y-83765169D01*
X256557155Y-83765169D01*
X256668959Y-83653365D01*
X256728358Y-83550482D01*
X256748016Y-83516434D01*
X256788939Y-83363707D01*
X256788939Y-83205592D01*
X256788939Y-81877792D01*
X256808624Y-81810753D01*
X256861428Y-81764998D01*
X256930586Y-81755054D01*
X256994142Y-81784079D01*
X257000620Y-81790111D01*
X257677910Y-82467401D01*
X257711395Y-82528724D01*
X257706411Y-82598416D01*
X257664539Y-82654349D01*
X257649665Y-82663909D01*
X257646110Y-82665850D01*
X257530894Y-82752101D01*
X257530891Y-82752104D01*
X257444645Y-82867313D01*
X257444641Y-82867320D01*
X257400571Y-82985480D01*
X257394348Y-83002166D01*
X257387939Y-83061776D01*
X257387939Y-83061783D01*
X257387939Y-83061784D01*
X257387939Y-83757519D01*
X257387940Y-83757525D01*
X257394347Y-83817132D01*
X257444641Y-83951977D01*
X257444645Y-83951984D01*
X257530891Y-84067193D01*
X257530894Y-84067196D01*
X257646103Y-84153442D01*
X257646110Y-84153446D01*
X257780956Y-84203740D01*
X257780955Y-84203740D01*
X257787883Y-84204484D01*
X257840566Y-84210149D01*
X259786311Y-84210148D01*
X259845922Y-84203740D01*
X259980770Y-84153445D01*
X260095985Y-84067195D01*
X260182235Y-83951980D01*
X260232530Y-83817132D01*
X260238939Y-83757522D01*
X260238938Y-83061777D01*
X260232530Y-83002166D01*
X260219273Y-82966623D01*
X260182236Y-82867320D01*
X260182232Y-82867313D01*
X260095986Y-82752104D01*
X260095983Y-82752101D01*
X259980774Y-82665855D01*
X259980767Y-82665851D01*
X259845921Y-82615557D01*
X259845922Y-82615557D01*
X259786322Y-82609150D01*
X259786320Y-82609149D01*
X259786312Y-82609149D01*
X259786304Y-82609149D01*
X259491540Y-82609149D01*
X259424501Y-82589464D01*
X259378746Y-82536660D01*
X259376138Y-82529407D01*
X259376124Y-82529414D01*
X259373016Y-82521910D01*
X259367290Y-82511993D01*
X259334110Y-82454523D01*
X259293959Y-82384979D01*
X259182155Y-82273175D01*
X259182154Y-82273174D01*
X259177824Y-82268844D01*
X259177813Y-82268834D01*
X254697334Y-77788355D01*
X254697332Y-77788352D01*
X254578461Y-77669481D01*
X254578460Y-77669480D01*
X254491648Y-77619360D01*
X254491648Y-77619359D01*
X254491644Y-77619358D01*
X254441529Y-77590423D01*
X254288801Y-77549499D01*
X254130687Y-77549499D01*
X254123091Y-77549499D01*
X254123075Y-77549500D01*
X252919313Y-77549500D01*
X252761198Y-77549500D01*
X252608471Y-77590423D01*
X252608470Y-77590423D01*
X252608468Y-77590424D01*
X252608465Y-77590425D01*
X252558352Y-77619359D01*
X252558351Y-77619360D01*
X252539574Y-77630201D01*
X252471541Y-77669479D01*
X252471538Y-77669481D01*
X252044481Y-78096538D01*
X252044477Y-78096543D01*
X251996295Y-78179999D01*
X251996295Y-78180000D01*
X251965423Y-78233470D01*
X251965423Y-78233471D01*
X251924499Y-78386199D01*
X251924499Y-78386201D01*
X251924499Y-78554302D01*
X251924500Y-78554315D01*
X251924500Y-80217903D01*
X251904815Y-80284942D01*
X251888181Y-80305584D01*
X245854584Y-86339181D01*
X245793261Y-86372666D01*
X245766903Y-86375500D01*
X242973118Y-86375500D01*
X242906079Y-86355815D01*
X242860324Y-86303011D01*
X242850380Y-86233853D01*
X242879405Y-86170297D01*
X242898807Y-86152234D01*
X242960572Y-86105996D01*
X242982546Y-86089546D01*
X243068796Y-85974331D01*
X243119091Y-85839483D01*
X243125500Y-85779873D01*
X243125499Y-82184128D01*
X243119091Y-82124517D01*
X243114108Y-82111158D01*
X243068797Y-81989671D01*
X243068793Y-81989664D01*
X242982547Y-81874455D01*
X242982544Y-81874452D01*
X242867335Y-81788206D01*
X242867328Y-81788202D01*
X242732482Y-81737908D01*
X242732483Y-81737908D01*
X242672883Y-81731501D01*
X242672881Y-81731500D01*
X242672873Y-81731500D01*
X242672865Y-81731500D01*
X242025097Y-81731500D01*
X241958058Y-81711815D01*
X241937416Y-81695181D01*
X241746301Y-81504066D01*
X241712816Y-81442743D01*
X241710762Y-81402504D01*
X241724565Y-81280000D01*
X241719816Y-81237853D01*
X241704369Y-81100750D01*
X241704368Y-81100745D01*
X241644788Y-80930476D01*
X241601976Y-80862342D01*
X241548816Y-80777738D01*
X241421262Y-80650184D01*
X241352553Y-80607011D01*
X241268523Y-80554211D01*
X241098254Y-80494631D01*
X241098249Y-80494630D01*
X240919004Y-80474435D01*
X240918996Y-80474435D01*
X240739750Y-80494630D01*
X240739745Y-80494631D01*
X240569476Y-80554211D01*
X240416736Y-80650185D01*
X240413903Y-80652445D01*
X240411724Y-80653334D01*
X240410842Y-80653889D01*
X240410744Y-80653734D01*
X240349217Y-80678855D01*
X240336588Y-80679500D01*
X238588815Y-80679500D01*
X238521776Y-80659815D01*
X238476021Y-80607011D01*
X238466077Y-80537853D01*
X238495102Y-80474297D01*
X238553880Y-80436523D01*
X238575562Y-80432210D01*
X238632483Y-80426091D01*
X238758057Y-80379255D01*
X238767331Y-80375796D01*
X238882546Y-80289546D01*
X238968796Y-80174331D01*
X239019091Y-80039483D01*
X239025500Y-79979873D01*
X239025499Y-76484128D01*
X239019091Y-76424517D01*
X239014591Y-76412453D01*
X238968797Y-76289671D01*
X238968796Y-76289669D01*
X238893522Y-76189116D01*
X238883512Y-76175745D01*
X238859096Y-76110282D01*
X238873947Y-76042009D01*
X238923352Y-75992603D01*
X238982780Y-75977435D01*
X243267220Y-75977435D01*
X243334259Y-75997120D01*
G37*
%TD.AperFunction*%
%TA.AperFunction,Conductor*%
G36*
X189945125Y-75997120D02*
G01*
X189990880Y-76049924D01*
X190001374Y-76114690D01*
X190000302Y-76124660D01*
X189999500Y-76132123D01*
X189999500Y-79627870D01*
X189999501Y-79627876D01*
X190005908Y-79687483D01*
X190056202Y-79822328D01*
X190056206Y-79822335D01*
X190142452Y-79937544D01*
X190142455Y-79937547D01*
X190257664Y-80023793D01*
X190257671Y-80023797D01*
X190392517Y-80074091D01*
X190392516Y-80074091D01*
X190399444Y-80074835D01*
X190452127Y-80080500D01*
X192047872Y-80080499D01*
X192107483Y-80074091D01*
X192242331Y-80023796D01*
X192357546Y-79937546D01*
X192443796Y-79822331D01*
X192494091Y-79687483D01*
X192500500Y-79627873D01*
X192500499Y-76132128D01*
X192500498Y-76132126D01*
X192500498Y-76132112D01*
X192498625Y-76114691D01*
X192511030Y-76045931D01*
X192558640Y-75994794D01*
X192621914Y-75977435D01*
X196578086Y-75977435D01*
X196645125Y-75997120D01*
X196690880Y-76049924D01*
X196701374Y-76114690D01*
X196700302Y-76124660D01*
X196699500Y-76132123D01*
X196699500Y-79285931D01*
X196679815Y-79352970D01*
X196627011Y-79398725D01*
X196589384Y-79409151D01*
X196540750Y-79414630D01*
X196370478Y-79474210D01*
X196217736Y-79570185D01*
X196214903Y-79572445D01*
X196212724Y-79573334D01*
X196211842Y-79573889D01*
X196211744Y-79573734D01*
X196150217Y-79598855D01*
X196137588Y-79599500D01*
X193700983Y-79599500D01*
X193700967Y-79599499D01*
X193693371Y-79599499D01*
X193535257Y-79599499D01*
X193429354Y-79627876D01*
X193382524Y-79640424D01*
X193382523Y-79640425D01*
X193347380Y-79660716D01*
X193347378Y-79660717D01*
X193245604Y-79719475D01*
X193245596Y-79719481D01*
X193186573Y-79778505D01*
X193133794Y-79831284D01*
X193133792Y-79831286D01*
X191461013Y-81504066D01*
X189800898Y-83164181D01*
X189739575Y-83197666D01*
X189713217Y-83200500D01*
X187413454Y-83200500D01*
X187413438Y-83200499D01*
X187405842Y-83200499D01*
X187247728Y-83200499D01*
X187140372Y-83229265D01*
X187094995Y-83241424D01*
X187094994Y-83241425D01*
X187044881Y-83270359D01*
X187044880Y-83270360D01*
X187038451Y-83274072D01*
X186958070Y-83320479D01*
X186958067Y-83320481D01*
X186898549Y-83380000D01*
X186846265Y-83432284D01*
X186846263Y-83432286D01*
X186513380Y-83765170D01*
X186206369Y-84072181D01*
X186145046Y-84105666D01*
X186118688Y-84108500D01*
X184155626Y-84108500D01*
X184088587Y-84088815D01*
X184067945Y-84072181D01*
X183870119Y-83874355D01*
X183870117Y-83874352D01*
X183751246Y-83755481D01*
X183751245Y-83755480D01*
X183647780Y-83695745D01*
X183647779Y-83695744D01*
X183614312Y-83676422D01*
X183557173Y-83661112D01*
X183461586Y-83635499D01*
X183303472Y-83635499D01*
X183295876Y-83635499D01*
X183295860Y-83635500D01*
X182687519Y-83635500D01*
X182620480Y-83615815D01*
X182574725Y-83563011D01*
X182570477Y-83552455D01*
X182569786Y-83550479D01*
X182555789Y-83510478D01*
X182459816Y-83357738D01*
X182332262Y-83230184D01*
X182300375Y-83210148D01*
X182179523Y-83134211D01*
X182009254Y-83074631D01*
X182009249Y-83074630D01*
X181830004Y-83054435D01*
X181829996Y-83054435D01*
X181650750Y-83074630D01*
X181650745Y-83074631D01*
X181480476Y-83134211D01*
X181327737Y-83230184D01*
X181200184Y-83357737D01*
X181104211Y-83510476D01*
X181044631Y-83680745D01*
X181044630Y-83680750D01*
X181024435Y-83859996D01*
X181024435Y-83860003D01*
X181044630Y-84039249D01*
X181044631Y-84039254D01*
X181104211Y-84209523D01*
X181158675Y-84296201D01*
X181200184Y-84362262D01*
X181327738Y-84489816D01*
X181353350Y-84505909D01*
X181477721Y-84584057D01*
X181480478Y-84585789D01*
X181548666Y-84609649D01*
X181650745Y-84645368D01*
X181650750Y-84645369D01*
X181821063Y-84664558D01*
X181885477Y-84691624D01*
X181894861Y-84700097D01*
X181911284Y-84716520D01*
X181982557Y-84757669D01*
X182048215Y-84795577D01*
X182200942Y-84836500D01*
X182200943Y-84836500D01*
X182217678Y-84836500D01*
X182284717Y-84856185D01*
X182330472Y-84908989D01*
X182340898Y-84946617D01*
X182348630Y-85015249D01*
X182408210Y-85185521D01*
X182477765Y-85296216D01*
X182504184Y-85338262D01*
X182631738Y-85465816D01*
X182784478Y-85561789D01*
X182954745Y-85621368D01*
X183041669Y-85631161D01*
X183106080Y-85658226D01*
X183115465Y-85666700D01*
X183157139Y-85708374D01*
X183157149Y-85708385D01*
X183161479Y-85712715D01*
X183161480Y-85712716D01*
X183273284Y-85824520D01*
X183273286Y-85824521D01*
X183273290Y-85824524D01*
X183347404Y-85867313D01*
X183410216Y-85903577D01*
X183510769Y-85930520D01*
X183562942Y-85944500D01*
X183562943Y-85944500D01*
X186476331Y-85944500D01*
X186476347Y-85944501D01*
X186483943Y-85944501D01*
X186642054Y-85944501D01*
X186642057Y-85944501D01*
X186794785Y-85903577D01*
X186880554Y-85854058D01*
X186905396Y-85839716D01*
X186931709Y-85824524D01*
X186931708Y-85824524D01*
X186931716Y-85824520D01*
X187043520Y-85712716D01*
X187043520Y-85712714D01*
X187053724Y-85702511D01*
X187053728Y-85702506D01*
X187328390Y-85427844D01*
X192600000Y-85427844D01*
X192606401Y-85487372D01*
X192606403Y-85487379D01*
X192656645Y-85622086D01*
X192656649Y-85622093D01*
X192742809Y-85737187D01*
X192742812Y-85737190D01*
X192857906Y-85823350D01*
X192857913Y-85823354D01*
X192992620Y-85873596D01*
X192992627Y-85873598D01*
X193052155Y-85879999D01*
X193052172Y-85880000D01*
X193350000Y-85880000D01*
X193350000Y-83880000D01*
X192600000Y-83880000D01*
X192600000Y-85427844D01*
X187328390Y-85427844D01*
X187464506Y-85291728D01*
X187464511Y-85291724D01*
X187474714Y-85281520D01*
X187474716Y-85281520D01*
X187586520Y-85169716D01*
X187645251Y-85067990D01*
X187665577Y-85032785D01*
X187702924Y-84893404D01*
X187739288Y-84833746D01*
X187802135Y-84803217D01*
X187822698Y-84801500D01*
X190092331Y-84801500D01*
X190092347Y-84801501D01*
X190099943Y-84801501D01*
X190258054Y-84801501D01*
X190258057Y-84801501D01*
X190410785Y-84760577D01*
X190472480Y-84724957D01*
X190547716Y-84681520D01*
X190659520Y-84569716D01*
X190659520Y-84569714D01*
X190669724Y-84559511D01*
X190669727Y-84559506D01*
X192388320Y-82840914D01*
X192449642Y-82807430D01*
X192519334Y-82812414D01*
X192575267Y-82854286D01*
X192599684Y-82919750D01*
X192600000Y-82928596D01*
X192600000Y-83380000D01*
X193726000Y-83380000D01*
X193793039Y-83399685D01*
X193838794Y-83452489D01*
X193850000Y-83504000D01*
X193850000Y-85880000D01*
X194147828Y-85880000D01*
X194147844Y-85879999D01*
X194207372Y-85873598D01*
X194207379Y-85873596D01*
X194342086Y-85823354D01*
X194342093Y-85823350D01*
X194457187Y-85737190D01*
X194457188Y-85737189D01*
X194500420Y-85679439D01*
X194556353Y-85637567D01*
X194626045Y-85632583D01*
X194687368Y-85666068D01*
X194698953Y-85679437D01*
X194716219Y-85702501D01*
X194742187Y-85737190D01*
X194742455Y-85737547D01*
X194857666Y-85823794D01*
X194857667Y-85823795D01*
X194857668Y-85823795D01*
X194857669Y-85823796D01*
X194859613Y-85824521D01*
X194870919Y-85828738D01*
X194926853Y-85870609D01*
X194949202Y-85920720D01*
X194950457Y-85927031D01*
X194950459Y-85927036D01*
X195001378Y-86049965D01*
X195001383Y-86049975D01*
X195075304Y-86160605D01*
X195075307Y-86160609D01*
X203305305Y-94390606D01*
X203399394Y-94484695D01*
X203399397Y-94484697D01*
X203399398Y-94484698D01*
X203510020Y-94558613D01*
X203510024Y-94558615D01*
X203510031Y-94558620D01*
X203544012Y-94572695D01*
X203544013Y-94572696D01*
X203579466Y-94587381D01*
X203632964Y-94609541D01*
X203763464Y-94635499D01*
X203763468Y-94635500D01*
X203763469Y-94635500D01*
X204254720Y-94635500D01*
X204320693Y-94654507D01*
X204370475Y-94685788D01*
X204540745Y-94745368D01*
X204540750Y-94745369D01*
X204719996Y-94765565D01*
X204720000Y-94765565D01*
X204720004Y-94765565D01*
X204899249Y-94745369D01*
X204899252Y-94745368D01*
X204899255Y-94745368D01*
X205069522Y-94685789D01*
X205222262Y-94589816D01*
X205349816Y-94462262D01*
X205445789Y-94309522D01*
X205505368Y-94139255D01*
X205515491Y-94049411D01*
X205525565Y-93960003D01*
X205525565Y-93959996D01*
X205505369Y-93780750D01*
X205505368Y-93780745D01*
X205494388Y-93749367D01*
X205445789Y-93610478D01*
X205419412Y-93568500D01*
X205364548Y-93481184D01*
X205349816Y-93457738D01*
X205222262Y-93330184D01*
X205195745Y-93313522D01*
X205069523Y-93234211D01*
X204899254Y-93174631D01*
X204899249Y-93174630D01*
X204720004Y-93154435D01*
X204719996Y-93154435D01*
X204540750Y-93174630D01*
X204540745Y-93174631D01*
X204370475Y-93234211D01*
X204320693Y-93265493D01*
X204254720Y-93284500D01*
X204161163Y-93284500D01*
X204094124Y-93264815D01*
X204073482Y-93248181D01*
X201866131Y-91040830D01*
X201832646Y-90979507D01*
X201837630Y-90909815D01*
X201879502Y-90853882D01*
X201944966Y-90829465D01*
X201953812Y-90829149D01*
X202041871Y-90829149D01*
X202041872Y-90829149D01*
X202101483Y-90822741D01*
X202236331Y-90772446D01*
X202300688Y-90724267D01*
X202366153Y-90699850D01*
X202434426Y-90714701D01*
X202449308Y-90724266D01*
X202475021Y-90743514D01*
X202513668Y-90772445D01*
X202513671Y-90772447D01*
X202537271Y-90781249D01*
X202648517Y-90822741D01*
X202708127Y-90829150D01*
X203311872Y-90829149D01*
X203371483Y-90822741D01*
X203506331Y-90772446D01*
X203570688Y-90724267D01*
X203636153Y-90699850D01*
X203704426Y-90714701D01*
X203719308Y-90724266D01*
X203745021Y-90743514D01*
X203783668Y-90772445D01*
X203783671Y-90772447D01*
X203925785Y-90825452D01*
X203925216Y-90826976D01*
X203976136Y-90855371D01*
X206735139Y-93614374D01*
X206735149Y-93614385D01*
X206739479Y-93618715D01*
X206739480Y-93618716D01*
X206851284Y-93730520D01*
X206924336Y-93772696D01*
X206988215Y-93809577D01*
X207140943Y-93850501D01*
X207140946Y-93850501D01*
X207306653Y-93850501D01*
X207306669Y-93850500D01*
X211442588Y-93850500D01*
X211509627Y-93870185D01*
X211519903Y-93877555D01*
X211522736Y-93879814D01*
X211522738Y-93879816D01*
X211636270Y-93951152D01*
X211650343Y-93959996D01*
X211675478Y-93975789D01*
X211713959Y-93989254D01*
X211845745Y-94035368D01*
X211845750Y-94035369D01*
X212024996Y-94055565D01*
X212025000Y-94055565D01*
X212025004Y-94055565D01*
X212186617Y-94037356D01*
X212255439Y-94049411D01*
X212306818Y-94096760D01*
X212324500Y-94160576D01*
X212324500Y-94412869D01*
X212324501Y-94412876D01*
X212330908Y-94472483D01*
X212373763Y-94587381D01*
X212378747Y-94657073D01*
X212373763Y-94674047D01*
X212331403Y-94787620D01*
X212331401Y-94787627D01*
X212325000Y-94847155D01*
X212325000Y-95682844D01*
X212331401Y-95742372D01*
X212331403Y-95742380D01*
X212374029Y-95856667D01*
X212379013Y-95926359D01*
X212374029Y-95943333D01*
X212331403Y-96057619D01*
X212331401Y-96057627D01*
X212325000Y-96117155D01*
X212325000Y-96952841D01*
X212325467Y-96957178D01*
X212313063Y-97025938D01*
X212265453Y-97077076D01*
X212206862Y-97093149D01*
X212206919Y-97093655D01*
X212203698Y-97094017D01*
X212202178Y-97094435D01*
X212199996Y-97094435D01*
X212020750Y-97114630D01*
X212020745Y-97114631D01*
X211850476Y-97174211D01*
X211697737Y-97270184D01*
X211570184Y-97397737D01*
X211474211Y-97550476D01*
X211414631Y-97720745D01*
X211414630Y-97720750D01*
X211394435Y-97899996D01*
X211394435Y-97900003D01*
X211414630Y-98079249D01*
X211414631Y-98079254D01*
X211474211Y-98249523D01*
X211528811Y-98336418D01*
X211570184Y-98402262D01*
X211697738Y-98529816D01*
X211768061Y-98574003D01*
X211849462Y-98625151D01*
X211850478Y-98625789D01*
X211894069Y-98641042D01*
X212020745Y-98685368D01*
X212020750Y-98685369D01*
X212199996Y-98705565D01*
X212200500Y-98705565D01*
X212200813Y-98705657D01*
X212206919Y-98706345D01*
X212206798Y-98707414D01*
X212267539Y-98725250D01*
X212313294Y-98778054D01*
X212324500Y-98829565D01*
X212324500Y-99492870D01*
X212324501Y-99492876D01*
X212330908Y-99552483D01*
X212373496Y-99666667D01*
X212378480Y-99736359D01*
X212373496Y-99753333D01*
X212330908Y-99867516D01*
X212324501Y-99927116D01*
X212324500Y-99927135D01*
X212324500Y-100003060D01*
X212304815Y-100070099D01*
X212252011Y-100115854D01*
X212182853Y-100125798D01*
X212119297Y-100096773D01*
X212112819Y-100090741D01*
X212092262Y-100070184D01*
X211939523Y-99974211D01*
X211769254Y-99914631D01*
X211769249Y-99914630D01*
X211590004Y-99894435D01*
X211589996Y-99894435D01*
X211410750Y-99914630D01*
X211410745Y-99914631D01*
X211240476Y-99974211D01*
X211087737Y-100070184D01*
X210960184Y-100197737D01*
X210864211Y-100350476D01*
X210804631Y-100520745D01*
X210804630Y-100520750D01*
X210784435Y-100699996D01*
X210784435Y-100700003D01*
X210804630Y-100879249D01*
X210804631Y-100879254D01*
X210864211Y-101049523D01*
X210960184Y-101202262D01*
X211038181Y-101280259D01*
X211071666Y-101341582D01*
X211074500Y-101367940D01*
X211074500Y-101914016D01*
X211074499Y-101914034D01*
X211074499Y-102079740D01*
X211074498Y-102079740D01*
X211115423Y-102232472D01*
X211115424Y-102232473D01*
X211137939Y-102271470D01*
X211183554Y-102350478D01*
X211194481Y-102369403D01*
X211313349Y-102488271D01*
X211313355Y-102488276D01*
X212152898Y-103327819D01*
X212186383Y-103389142D01*
X212181399Y-103458834D01*
X212139527Y-103514767D01*
X212074063Y-103539184D01*
X212065217Y-103539500D01*
X211461569Y-103539500D01*
X211394530Y-103519815D01*
X211373888Y-103503181D01*
X205425603Y-97554897D01*
X205425601Y-97554894D01*
X205306730Y-97436023D01*
X205306722Y-97436017D01*
X205192840Y-97370268D01*
X205192839Y-97370267D01*
X205176643Y-97360917D01*
X205169798Y-97356965D01*
X205017070Y-97316041D01*
X204858956Y-97316041D01*
X204851360Y-97316041D01*
X204851344Y-97316042D01*
X202262102Y-97316042D01*
X202109374Y-97356965D01*
X202086334Y-97370268D01*
X202086333Y-97370268D01*
X201972447Y-97436019D01*
X201972442Y-97436023D01*
X201860729Y-97547737D01*
X201860640Y-97547826D01*
X201860638Y-97547828D01*
X201728742Y-97679724D01*
X201667419Y-97713208D01*
X201641061Y-97716042D01*
X200592830Y-97716042D01*
X200592824Y-97716043D01*
X200533217Y-97722450D01*
X200398372Y-97772744D01*
X200398365Y-97772748D01*
X200283156Y-97858994D01*
X200235266Y-97922966D01*
X200179331Y-97964837D01*
X200109640Y-97969820D01*
X200048317Y-97936334D01*
X200036734Y-97922965D01*
X199988847Y-97858997D01*
X199988844Y-97858994D01*
X199873635Y-97772748D01*
X199873628Y-97772744D01*
X199738782Y-97722450D01*
X199738783Y-97722450D01*
X199679183Y-97716043D01*
X199679181Y-97716042D01*
X199679173Y-97716042D01*
X199679164Y-97716042D01*
X198592829Y-97716042D01*
X198592823Y-97716043D01*
X198533216Y-97722450D01*
X198398371Y-97772744D01*
X198398364Y-97772748D01*
X198283155Y-97858994D01*
X198283152Y-97858997D01*
X198196906Y-97974206D01*
X198196902Y-97974213D01*
X198146608Y-98109059D01*
X198140201Y-98168658D01*
X198140200Y-98168677D01*
X198140200Y-99852212D01*
X198120515Y-99919251D01*
X198103881Y-99939893D01*
X196468593Y-101575181D01*
X196407270Y-101608666D01*
X196380912Y-101611500D01*
X182298080Y-101611500D01*
X182153092Y-101640340D01*
X182153082Y-101640343D01*
X182016509Y-101696913D01*
X182016504Y-101696916D01*
X181994088Y-101711893D01*
X181994089Y-101711894D01*
X181893579Y-101779051D01*
X181047937Y-102624693D01*
X181011876Y-102647362D01*
X181012756Y-102649188D01*
X181006478Y-102652211D01*
X180853737Y-102748184D01*
X180726182Y-102875739D01*
X180662921Y-102976419D01*
X180610587Y-103022709D01*
X180541533Y-103033357D01*
X180477685Y-103004982D01*
X180439313Y-102946592D01*
X180433928Y-102910446D01*
X180433928Y-80542827D01*
X180433929Y-80542824D01*
X180433928Y-80479635D01*
X180433987Y-80476935D01*
X182328175Y-80476935D01*
X182347169Y-80790958D01*
X182347169Y-80790963D01*
X182347170Y-80790964D01*
X182403879Y-81100413D01*
X182403880Y-81100417D01*
X182403881Y-81100421D01*
X182497467Y-81400751D01*
X182497471Y-81400762D01*
X182497472Y-81400765D01*
X182497474Y-81400770D01*
X182626591Y-81687656D01*
X182773093Y-81930000D01*
X182789352Y-81956895D01*
X182983370Y-82204540D01*
X183205822Y-82426992D01*
X183453467Y-82621010D01*
X183453472Y-82621013D01*
X183453476Y-82621016D01*
X183722707Y-82783772D01*
X184009593Y-82912889D01*
X184009603Y-82912892D01*
X184009611Y-82912895D01*
X184182192Y-82966673D01*
X184309950Y-83006484D01*
X184619399Y-83063193D01*
X184933428Y-83082188D01*
X185247457Y-83063193D01*
X185556906Y-83006484D01*
X185857263Y-82912889D01*
X186144149Y-82783772D01*
X186413380Y-82621016D01*
X186440845Y-82599499D01*
X186521053Y-82536660D01*
X186661030Y-82426995D01*
X186883488Y-82204537D01*
X187051015Y-81990704D01*
X187077503Y-81956895D01*
X187077503Y-81956893D01*
X187077509Y-81956887D01*
X187240265Y-81687656D01*
X187369382Y-81400770D01*
X187462977Y-81100413D01*
X187519686Y-80790964D01*
X187538681Y-80476935D01*
X187519686Y-80162906D01*
X187462977Y-79853457D01*
X187421227Y-79719475D01*
X187369388Y-79553118D01*
X187369384Y-79553107D01*
X187369382Y-79553100D01*
X187240265Y-79266214D01*
X187077509Y-78996983D01*
X187077506Y-78996979D01*
X187077503Y-78996974D01*
X186883485Y-78749329D01*
X186661033Y-78526877D01*
X186413388Y-78332859D01*
X186383482Y-78314780D01*
X186144149Y-78170098D01*
X185857263Y-78040981D01*
X185857258Y-78040979D01*
X185857255Y-78040978D01*
X185857244Y-78040974D01*
X185556914Y-77947388D01*
X185556910Y-77947387D01*
X185556906Y-77947386D01*
X185247457Y-77890677D01*
X185247456Y-77890676D01*
X185247451Y-77890676D01*
X184933428Y-77871682D01*
X184619404Y-77890676D01*
X184589714Y-77896117D01*
X184309950Y-77947386D01*
X184309947Y-77947386D01*
X184309941Y-77947388D01*
X184009611Y-78040974D01*
X184009600Y-78040978D01*
X184009594Y-78040980D01*
X184009593Y-78040981D01*
X183928716Y-78077381D01*
X183736152Y-78164047D01*
X183722707Y-78170098D01*
X183652490Y-78212546D01*
X183453467Y-78332859D01*
X183205822Y-78526877D01*
X182983370Y-78749329D01*
X182789352Y-78996974D01*
X182683045Y-79172827D01*
X182647045Y-79232380D01*
X182626590Y-79266216D01*
X182626589Y-79266218D01*
X182497471Y-79553107D01*
X182497467Y-79553118D01*
X182403881Y-79853448D01*
X182403879Y-79853454D01*
X182403879Y-79853457D01*
X182360849Y-80088265D01*
X182347169Y-80162911D01*
X182328175Y-80476935D01*
X180433987Y-80476935D01*
X180434046Y-80474227D01*
X180435692Y-80436523D01*
X180450812Y-80090155D01*
X180451750Y-80079426D01*
X180501576Y-79700950D01*
X180503447Y-79690339D01*
X180586072Y-79317631D01*
X180588859Y-79307228D01*
X180703653Y-78943145D01*
X180707336Y-78933025D01*
X180853420Y-78580344D01*
X180857979Y-78570566D01*
X181034240Y-78231970D01*
X181039635Y-78222625D01*
X181244743Y-77900667D01*
X181250933Y-77891828D01*
X181483313Y-77588982D01*
X181490251Y-77580714D01*
X181748143Y-77299275D01*
X181755771Y-77291647D01*
X182037209Y-77033755D01*
X182045478Y-77026817D01*
X182348322Y-76794437D01*
X182357162Y-76788247D01*
X182679119Y-76583138D01*
X182688464Y-76577743D01*
X183027061Y-76401481D01*
X183036839Y-76396922D01*
X183389519Y-76250838D01*
X183399639Y-76247155D01*
X183763717Y-76132363D01*
X183774131Y-76129572D01*
X184146832Y-76046948D01*
X184157443Y-76045077D01*
X184535920Y-75995251D01*
X184546650Y-75994312D01*
X184930563Y-75977552D01*
X184935969Y-75977435D01*
X184999317Y-75977436D01*
X184999321Y-75977435D01*
X189878086Y-75977435D01*
X189945125Y-75997120D01*
G37*
%TD.AperFunction*%
%TA.AperFunction,Conductor*%
G36*
X219753404Y-91291086D02*
G01*
X219793011Y-91304946D01*
X219920694Y-91349625D01*
X219920700Y-91349626D01*
X219920702Y-91349627D01*
X219920703Y-91349627D01*
X219920707Y-91349628D01*
X220099953Y-91369824D01*
X220099957Y-91369824D01*
X220099961Y-91369824D01*
X220279205Y-91349628D01*
X220279205Y-91349627D01*
X220279212Y-91349627D01*
X220331914Y-91331185D01*
X220373638Y-91329055D01*
X220373638Y-91325000D01*
X225501000Y-91325000D01*
X225568039Y-91344685D01*
X225613794Y-91397489D01*
X225625000Y-91449000D01*
X225625000Y-91604500D01*
X225605315Y-91671539D01*
X225552511Y-91717294D01*
X225501000Y-91728500D01*
X224061943Y-91728500D01*
X223909213Y-91769423D01*
X223871528Y-91791182D01*
X223871527Y-91791181D01*
X223841729Y-91808386D01*
X223779728Y-91825000D01*
X222965000Y-91825000D01*
X222965000Y-92543538D01*
X222976186Y-92564024D01*
X222971202Y-92633716D01*
X222942701Y-92678063D01*
X222757101Y-92863662D01*
X222695778Y-92897147D01*
X222626086Y-92892163D01*
X222570153Y-92850291D01*
X222552378Y-92816935D01*
X222541114Y-92784745D01*
X222495789Y-92655212D01*
X222484006Y-92636459D01*
X222465000Y-92570487D01*
X222465000Y-91825000D01*
X220425000Y-91825000D01*
X220425000Y-92072844D01*
X220431401Y-92132372D01*
X220431403Y-92132379D01*
X220484746Y-92275399D01*
X220482805Y-92276122D01*
X220495159Y-92332908D01*
X220470743Y-92398373D01*
X220433501Y-92429015D01*
X220434438Y-92430506D01*
X220275801Y-92530184D01*
X220148246Y-92657739D01*
X220090589Y-92749500D01*
X220038254Y-92795790D01*
X219969201Y-92806438D01*
X219905353Y-92778063D01*
X219878209Y-92745527D01*
X219840077Y-92679481D01*
X219840076Y-92679480D01*
X219827523Y-92657738D01*
X219804752Y-92618296D01*
X219692948Y-92506492D01*
X219692947Y-92506491D01*
X219688617Y-92502161D01*
X219688606Y-92502151D01*
X219270676Y-92084221D01*
X219237191Y-92022898D01*
X219242175Y-91953206D01*
X219270676Y-91908859D01*
X219354818Y-91824717D01*
X219450791Y-91671977D01*
X219510370Y-91501710D01*
X219514002Y-91469472D01*
X219541067Y-91405061D01*
X219549531Y-91395685D01*
X219624771Y-91320445D01*
X219686092Y-91286962D01*
X219753404Y-91291086D01*
G37*
%TD.AperFunction*%
%TA.AperFunction,Conductor*%
G36*
X208784841Y-90714389D02*
G01*
X208799727Y-90723955D01*
X208863910Y-90772002D01*
X208863913Y-90772004D01*
X208998620Y-90822246D01*
X208998627Y-90822248D01*
X209058155Y-90828649D01*
X209058172Y-90828650D01*
X209212054Y-90828650D01*
X209279093Y-90848335D01*
X209324848Y-90901139D01*
X209334792Y-90970297D01*
X209317047Y-91018623D01*
X209265614Y-91100476D01*
X209206033Y-91270750D01*
X209198301Y-91339383D01*
X209171235Y-91403797D01*
X209113640Y-91443352D01*
X209075081Y-91449500D01*
X208017156Y-91449500D01*
X207950117Y-91429815D01*
X207929475Y-91413181D01*
X207886819Y-91370525D01*
X207853334Y-91309202D01*
X207850500Y-91282844D01*
X207850500Y-91037554D01*
X207867113Y-90975554D01*
X207915844Y-90891149D01*
X207966411Y-90842934D01*
X208023231Y-90829149D01*
X208391871Y-90829149D01*
X208391872Y-90829149D01*
X208451483Y-90822741D01*
X208586331Y-90772446D01*
X208651106Y-90723955D01*
X208716568Y-90699538D01*
X208784841Y-90714389D01*
G37*
%TD.AperFunction*%
%TA.AperFunction,Conductor*%
G36*
X227042643Y-89359105D02*
G01*
X227098576Y-89400977D01*
X227122993Y-89466441D01*
X227122529Y-89489170D01*
X227103057Y-89661996D01*
X227103057Y-89662003D01*
X227123252Y-89841249D01*
X227123253Y-89841254D01*
X227182833Y-90011523D01*
X227278807Y-90164263D01*
X227281067Y-90167097D01*
X227281956Y-90169275D01*
X227282511Y-90170158D01*
X227282356Y-90170255D01*
X227307477Y-90231783D01*
X227308122Y-90244412D01*
X227308122Y-90248857D01*
X227288437Y-90315896D01*
X227271803Y-90336538D01*
X226527833Y-91080507D01*
X226466510Y-91113992D01*
X226396818Y-91109008D01*
X226340885Y-91067136D01*
X226319472Y-91021328D01*
X226318595Y-91017616D01*
X226268354Y-90882913D01*
X226268350Y-90882906D01*
X226182190Y-90767812D01*
X226182187Y-90767809D01*
X226067093Y-90681649D01*
X226067086Y-90681645D01*
X225925108Y-90628691D01*
X225925793Y-90626852D01*
X225874063Y-90597390D01*
X225841682Y-90535477D01*
X225847914Y-90465885D01*
X225875617Y-90423616D01*
X226911630Y-89387604D01*
X226972951Y-89354121D01*
X227042643Y-89359105D01*
G37*
%TD.AperFunction*%
%TA.AperFunction,Conductor*%
G36*
X201473354Y-75997120D02*
G01*
X201519109Y-76049924D01*
X201529053Y-76119082D01*
X201500028Y-76182638D01*
X201441250Y-76220412D01*
X201419571Y-76224724D01*
X201368627Y-76230201D01*
X201368620Y-76230203D01*
X201233913Y-76280445D01*
X201233906Y-76280449D01*
X201118812Y-76366609D01*
X201118809Y-76366612D01*
X201032649Y-76481706D01*
X201032645Y-76481713D01*
X200982403Y-76616420D01*
X200982401Y-76616427D01*
X200976000Y-76675955D01*
X200976000Y-77102450D01*
X201856000Y-77102450D01*
X201923039Y-77122135D01*
X201968794Y-77174939D01*
X201980000Y-77226450D01*
X201980000Y-78481100D01*
X202031828Y-78481100D01*
X202031844Y-78481099D01*
X202091372Y-78474698D01*
X202091379Y-78474696D01*
X202226086Y-78424454D01*
X202226089Y-78424452D01*
X202290271Y-78376406D01*
X202355736Y-78351988D01*
X202424009Y-78366839D01*
X202438894Y-78376406D01*
X202503664Y-78424893D01*
X202503671Y-78424897D01*
X202536966Y-78437315D01*
X202638517Y-78475191D01*
X202698127Y-78481600D01*
X203301872Y-78481599D01*
X203361483Y-78475191D01*
X203496331Y-78424896D01*
X203560688Y-78376717D01*
X203626153Y-78352300D01*
X203694426Y-78367151D01*
X203709308Y-78376716D01*
X203773076Y-78424452D01*
X203773668Y-78424895D01*
X203773671Y-78424897D01*
X203806966Y-78437315D01*
X203908517Y-78475191D01*
X203968127Y-78481600D01*
X204571872Y-78481599D01*
X204631483Y-78475191D01*
X204766331Y-78424896D01*
X204830688Y-78376717D01*
X204896153Y-78352300D01*
X204964426Y-78367151D01*
X204979308Y-78376716D01*
X205043076Y-78424452D01*
X205043668Y-78424895D01*
X205043671Y-78424897D01*
X205076966Y-78437315D01*
X205178517Y-78475191D01*
X205238127Y-78481600D01*
X205841872Y-78481599D01*
X205901483Y-78475191D01*
X206036331Y-78424896D01*
X206101106Y-78376405D01*
X206166568Y-78351988D01*
X206234841Y-78366839D01*
X206249727Y-78376405D01*
X206313910Y-78424452D01*
X206313913Y-78424454D01*
X206448620Y-78474696D01*
X206448627Y-78474698D01*
X206508155Y-78481099D01*
X206508172Y-78481100D01*
X206560000Y-78481100D01*
X207060000Y-78481100D01*
X207111828Y-78481100D01*
X207111844Y-78481099D01*
X207171372Y-78474698D01*
X207171379Y-78474696D01*
X207306086Y-78424454D01*
X207306093Y-78424450D01*
X207370689Y-78376094D01*
X207436153Y-78351676D01*
X207504426Y-78366527D01*
X207519311Y-78376094D01*
X207583906Y-78424450D01*
X207583913Y-78424454D01*
X207718620Y-78474696D01*
X207718627Y-78474698D01*
X207778155Y-78481099D01*
X207778172Y-78481100D01*
X207830000Y-78481100D01*
X207830000Y-77602450D01*
X207060000Y-77602450D01*
X207060000Y-78481100D01*
X206560000Y-78481100D01*
X206560000Y-77697240D01*
X206579685Y-77630201D01*
X206596319Y-77609559D01*
X206632456Y-77573422D01*
X206679816Y-77526062D01*
X206775789Y-77373322D01*
X206835368Y-77203055D01*
X206835369Y-77203049D01*
X206836327Y-77198854D01*
X206870437Y-77137877D01*
X206932099Y-77105021D01*
X206957217Y-77102450D01*
X208206000Y-77102450D01*
X208273039Y-77122135D01*
X208318794Y-77174939D01*
X208330000Y-77226450D01*
X208330000Y-78481100D01*
X208381828Y-78481100D01*
X208381844Y-78481099D01*
X208441372Y-78474698D01*
X208441379Y-78474696D01*
X208576086Y-78424454D01*
X208576089Y-78424452D01*
X208601555Y-78405389D01*
X208667019Y-78380971D01*
X208735292Y-78395822D01*
X208784698Y-78445227D01*
X208790420Y-78457185D01*
X208813940Y-78497922D01*
X208813941Y-78497924D01*
X208869475Y-78594113D01*
X208869481Y-78594121D01*
X208988349Y-78712989D01*
X208988355Y-78712994D01*
X209508380Y-79233019D01*
X209541865Y-79294342D01*
X209536881Y-79364034D01*
X209495009Y-79419967D01*
X209434583Y-79443920D01*
X209260505Y-79463533D01*
X209260501Y-79463534D01*
X209090232Y-79523114D01*
X208937493Y-79619087D01*
X208809940Y-79746640D01*
X208713967Y-79899379D01*
X208654387Y-80069648D01*
X208654386Y-80069653D01*
X208634191Y-80248899D01*
X208634191Y-80248906D01*
X208654387Y-80428155D01*
X208675518Y-80488545D01*
X208679079Y-80558324D01*
X208663470Y-80595470D01*
X208603032Y-80691656D01*
X208543456Y-80861914D01*
X208543453Y-80861927D01*
X208523258Y-81041173D01*
X208523258Y-81041180D01*
X208543453Y-81220426D01*
X208543455Y-81220434D01*
X208575302Y-81311449D01*
X208578863Y-81381228D01*
X208544134Y-81441855D01*
X208482140Y-81474082D01*
X208445004Y-81475692D01*
X208381844Y-81468900D01*
X208330000Y-81468900D01*
X208330000Y-82347550D01*
X209234791Y-82347550D01*
X209301830Y-82367235D01*
X209347585Y-82420039D01*
X209358791Y-82471550D01*
X209358791Y-82723550D01*
X209339106Y-82790589D01*
X209286302Y-82836344D01*
X209234791Y-82847550D01*
X206828500Y-82847550D01*
X206761461Y-82827865D01*
X206715706Y-82775061D01*
X206704500Y-82723550D01*
X206704500Y-82471550D01*
X206724185Y-82404511D01*
X206776989Y-82358756D01*
X206828500Y-82347550D01*
X207830000Y-82347550D01*
X207830000Y-81468900D01*
X207778155Y-81468900D01*
X207718627Y-81475301D01*
X207718620Y-81475303D01*
X207583913Y-81525545D01*
X207583906Y-81525549D01*
X207519311Y-81573906D01*
X207453847Y-81598324D01*
X207385574Y-81583473D01*
X207370689Y-81573906D01*
X207306093Y-81525549D01*
X207306086Y-81525545D01*
X207171133Y-81475211D01*
X207115199Y-81433340D01*
X207091246Y-81372912D01*
X207085369Y-81320752D01*
X207085368Y-81320747D01*
X207085368Y-81320745D01*
X207025789Y-81150478D01*
X206929816Y-80997738D01*
X206802262Y-80870184D01*
X206738017Y-80829816D01*
X206649523Y-80774211D01*
X206479254Y-80714631D01*
X206479249Y-80714630D01*
X206300004Y-80694435D01*
X206299996Y-80694435D01*
X206120750Y-80714630D01*
X206120745Y-80714631D01*
X205950476Y-80774211D01*
X205797737Y-80870184D01*
X205665260Y-81002662D01*
X205663734Y-81001136D01*
X205615022Y-81035312D01*
X205545210Y-81038146D01*
X205487609Y-81005531D01*
X205402262Y-80920184D01*
X205249523Y-80824211D01*
X205079254Y-80764631D01*
X205079249Y-80764630D01*
X204900004Y-80744435D01*
X204899996Y-80744435D01*
X204720750Y-80764630D01*
X204720745Y-80764631D01*
X204550476Y-80824211D01*
X204397737Y-80920184D01*
X204270184Y-81047737D01*
X204174211Y-81200476D01*
X204114632Y-81370742D01*
X204114235Y-81372486D01*
X204113668Y-81373499D01*
X204112332Y-81377318D01*
X204111663Y-81377084D01*
X204080129Y-81433466D01*
X204018470Y-81466327D01*
X203993342Y-81468900D01*
X203968155Y-81468900D01*
X203908627Y-81475301D01*
X203908620Y-81475303D01*
X203773913Y-81525545D01*
X203773906Y-81525549D01*
X203709726Y-81573594D01*
X203644261Y-81598011D01*
X203575989Y-81583159D01*
X203561105Y-81573594D01*
X203496330Y-81525103D01*
X203496328Y-81525102D01*
X203361486Y-81474810D01*
X203361485Y-81474809D01*
X203361483Y-81474809D01*
X203301873Y-81468400D01*
X203301863Y-81468400D01*
X202698129Y-81468400D01*
X202698123Y-81468401D01*
X202638516Y-81474808D01*
X202503671Y-81525102D01*
X202503668Y-81525104D01*
X202439311Y-81573282D01*
X202373846Y-81597699D01*
X202305573Y-81582847D01*
X202290689Y-81573282D01*
X202226331Y-81525104D01*
X202226328Y-81525102D01*
X202091486Y-81474810D01*
X202091485Y-81474809D01*
X202091483Y-81474809D01*
X202031873Y-81468400D01*
X202031863Y-81468400D01*
X201428129Y-81468400D01*
X201428123Y-81468401D01*
X201368516Y-81474808D01*
X201233671Y-81525102D01*
X201233664Y-81525106D01*
X201118455Y-81611352D01*
X201118452Y-81611355D01*
X201032206Y-81726564D01*
X201032202Y-81726571D01*
X200981910Y-81861413D01*
X200981909Y-81861417D01*
X200979232Y-81886307D01*
X200952495Y-81950856D01*
X200895103Y-81990704D01*
X200855944Y-81997050D01*
X199870943Y-81997050D01*
X199718216Y-82037973D01*
X199718209Y-82037976D01*
X199581290Y-82117025D01*
X199581282Y-82117031D01*
X199469481Y-82228832D01*
X199469475Y-82228840D01*
X199390426Y-82365759D01*
X199390423Y-82365766D01*
X199349500Y-82518493D01*
X199349500Y-86423330D01*
X199349499Y-86423348D01*
X199349499Y-86589054D01*
X199349498Y-86589054D01*
X199388823Y-86735816D01*
X199390423Y-86741785D01*
X199413353Y-86781500D01*
X199462901Y-86867320D01*
X199469479Y-86878714D01*
X199469481Y-86878717D01*
X199588349Y-86997585D01*
X199588355Y-86997590D01*
X201128830Y-88538065D01*
X201162315Y-88599388D01*
X201157331Y-88669080D01*
X201133350Y-88706396D01*
X201133767Y-88706708D01*
X201129417Y-88712518D01*
X201128837Y-88713421D01*
X201128455Y-88713802D01*
X201118731Y-88726792D01*
X201062796Y-88768661D01*
X201005584Y-88775697D01*
X200950003Y-88769435D01*
X200949996Y-88769435D01*
X200770750Y-88789630D01*
X200770745Y-88789631D01*
X200600476Y-88849211D01*
X200447737Y-88945184D01*
X200320182Y-89072739D01*
X200240012Y-89200329D01*
X200187678Y-89246619D01*
X200118624Y-89257267D01*
X200054776Y-89228892D01*
X200047338Y-89222037D01*
X196574021Y-85748720D01*
X196540536Y-85687397D01*
X196545519Y-85617709D01*
X196594091Y-85487483D01*
X196600500Y-85427873D01*
X196600499Y-81832128D01*
X196594091Y-81772517D01*
X196577955Y-81729255D01*
X196543797Y-81637671D01*
X196543793Y-81637664D01*
X196457547Y-81522455D01*
X196457544Y-81522452D01*
X196342335Y-81436206D01*
X196342328Y-81436202D01*
X196207482Y-81385908D01*
X196207483Y-81385908D01*
X196147883Y-81379501D01*
X196147881Y-81379500D01*
X196147873Y-81379500D01*
X196147865Y-81379500D01*
X196105646Y-81379500D01*
X196038607Y-81359815D01*
X195992852Y-81307011D01*
X195982908Y-81237853D01*
X196000652Y-81189528D01*
X196025789Y-81149522D01*
X196047360Y-81087875D01*
X196085368Y-80979255D01*
X196087748Y-80958125D01*
X196114814Y-80893713D01*
X196172408Y-80854157D01*
X196242245Y-80852018D01*
X196276940Y-80867015D01*
X196304667Y-80884437D01*
X196370475Y-80925788D01*
X196540745Y-80985368D01*
X196540750Y-80985369D01*
X196719996Y-81005565D01*
X196720000Y-81005565D01*
X196720004Y-81005565D01*
X196899249Y-80985369D01*
X196899252Y-80985368D01*
X196899255Y-80985368D01*
X197069522Y-80925789D01*
X197222262Y-80829816D01*
X197349816Y-80702262D01*
X197445789Y-80549522D01*
X197505368Y-80379255D01*
X197505913Y-80374424D01*
X197526345Y-80193080D01*
X197528835Y-80193360D01*
X197545250Y-80137460D01*
X197598054Y-80091705D01*
X197649565Y-80080499D01*
X198747871Y-80080499D01*
X198747872Y-80080499D01*
X198807483Y-80074091D01*
X198942331Y-80023796D01*
X199057546Y-79937546D01*
X199143796Y-79822331D01*
X199194091Y-79687483D01*
X199200500Y-79627873D01*
X199200500Y-78028944D01*
X200976000Y-78028944D01*
X200982401Y-78088472D01*
X200982403Y-78088479D01*
X201032645Y-78223186D01*
X201032649Y-78223193D01*
X201118809Y-78338287D01*
X201118812Y-78338290D01*
X201233906Y-78424450D01*
X201233913Y-78424454D01*
X201368620Y-78474696D01*
X201368627Y-78474698D01*
X201428155Y-78481099D01*
X201428172Y-78481100D01*
X201480000Y-78481100D01*
X201480000Y-77602450D01*
X200976000Y-77602450D01*
X200976000Y-78028944D01*
X199200500Y-78028944D01*
X199200499Y-76132128D01*
X199200498Y-76132126D01*
X199200498Y-76132112D01*
X199198625Y-76114691D01*
X199211030Y-76045931D01*
X199258640Y-75994794D01*
X199321914Y-75977435D01*
X201406315Y-75977435D01*
X201473354Y-75997120D01*
G37*
%TD.AperFunction*%
%TA.AperFunction,Conductor*%
G36*
X229797941Y-88710185D02*
G01*
X229843696Y-88762989D01*
X229853640Y-88832147D01*
X229824615Y-88895703D01*
X229818583Y-88902181D01*
X229643578Y-89077185D01*
X229582255Y-89110670D01*
X229512563Y-89105686D01*
X229456630Y-89063814D01*
X229450903Y-89055476D01*
X229410186Y-88990677D01*
X229356816Y-88905738D01*
X229353259Y-88902181D01*
X229319774Y-88840858D01*
X229324758Y-88771166D01*
X229366630Y-88715233D01*
X229432094Y-88690816D01*
X229440940Y-88690500D01*
X229730902Y-88690500D01*
X229797941Y-88710185D01*
G37*
%TD.AperFunction*%
%TA.AperFunction,Conductor*%
G36*
X200922983Y-83217735D02*
G01*
X200968738Y-83270539D01*
X200979234Y-83308798D01*
X200981908Y-83333683D01*
X201032202Y-83468528D01*
X201036452Y-83476310D01*
X201033327Y-83478015D01*
X201051802Y-83527593D01*
X201044297Y-83579732D01*
X200992403Y-83718867D01*
X200992401Y-83718877D01*
X200986000Y-83778405D01*
X200986000Y-84204900D01*
X201866000Y-84204900D01*
X201933039Y-84224585D01*
X201978794Y-84277389D01*
X201990000Y-84328900D01*
X201990000Y-85583550D01*
X202041828Y-85583550D01*
X202041844Y-85583549D01*
X202101372Y-85577148D01*
X202101379Y-85577146D01*
X202236086Y-85526904D01*
X202236089Y-85526902D01*
X202300271Y-85478856D01*
X202365736Y-85454438D01*
X202434009Y-85469289D01*
X202448894Y-85478856D01*
X202513664Y-85527343D01*
X202513671Y-85527347D01*
X202538641Y-85536660D01*
X202648517Y-85577641D01*
X202708127Y-85584050D01*
X203311872Y-85584049D01*
X203371483Y-85577641D01*
X203506331Y-85527346D01*
X203570688Y-85479167D01*
X203636153Y-85454750D01*
X203704426Y-85469601D01*
X203719308Y-85479166D01*
X203783665Y-85527343D01*
X203783668Y-85527345D01*
X203783671Y-85527347D01*
X203808641Y-85536660D01*
X203918517Y-85577641D01*
X203978127Y-85584050D01*
X204581872Y-85584049D01*
X204641483Y-85577641D01*
X204776331Y-85527346D01*
X204840688Y-85479167D01*
X204906153Y-85454750D01*
X204974426Y-85469601D01*
X204989308Y-85479166D01*
X205053665Y-85527343D01*
X205053668Y-85527345D01*
X205053671Y-85527347D01*
X205078641Y-85536660D01*
X205188517Y-85577641D01*
X205248127Y-85584050D01*
X205851872Y-85584049D01*
X205911483Y-85577641D01*
X206046331Y-85527346D01*
X206110688Y-85479167D01*
X206176153Y-85454750D01*
X206244426Y-85469601D01*
X206259308Y-85479166D01*
X206323665Y-85527343D01*
X206323668Y-85527345D01*
X206323671Y-85527347D01*
X206348641Y-85536660D01*
X206458517Y-85577641D01*
X206518127Y-85584050D01*
X207121872Y-85584049D01*
X207163778Y-85579544D01*
X207232537Y-85591951D01*
X207283674Y-85639561D01*
X207296807Y-85670740D01*
X207298499Y-85677054D01*
X207298499Y-85677057D01*
X207311828Y-85726799D01*
X207339423Y-85829787D01*
X207345156Y-85839716D01*
X207345158Y-85839718D01*
X207418477Y-85966712D01*
X207418481Y-85966717D01*
X207537349Y-86085585D01*
X207537355Y-86085590D01*
X207669139Y-86217374D01*
X207669149Y-86217385D01*
X207673479Y-86221715D01*
X207673480Y-86221716D01*
X207785284Y-86333520D01*
X207785286Y-86333521D01*
X207785290Y-86333524D01*
X207853087Y-86372666D01*
X207922216Y-86412577D01*
X208034019Y-86442534D01*
X208074942Y-86453500D01*
X208074943Y-86453500D01*
X211724645Y-86453500D01*
X211724661Y-86453501D01*
X211897901Y-86453501D01*
X211964940Y-86473186D01*
X212010695Y-86525990D01*
X212020639Y-86595148D01*
X211991614Y-86658704D01*
X211985582Y-86665182D01*
X211242715Y-87408048D01*
X211242713Y-87408050D01*
X211222356Y-87443311D01*
X211213751Y-87458216D01*
X211183083Y-87511334D01*
X211163658Y-87544979D01*
X211122732Y-87697711D01*
X211121672Y-87705769D01*
X211119753Y-87705516D01*
X211103048Y-87762409D01*
X211050244Y-87808164D01*
X210981086Y-87818108D01*
X210917530Y-87789083D01*
X210893740Y-87761343D01*
X210814817Y-87635739D01*
X210687262Y-87508184D01*
X210534523Y-87412211D01*
X210364254Y-87352631D01*
X210364249Y-87352630D01*
X210185004Y-87332435D01*
X210184996Y-87332435D01*
X210005750Y-87352630D01*
X210005745Y-87352631D01*
X209835476Y-87412211D01*
X209682736Y-87508185D01*
X209679903Y-87510445D01*
X209677724Y-87511334D01*
X209676842Y-87511889D01*
X209676744Y-87511734D01*
X209615217Y-87536855D01*
X209602588Y-87537500D01*
X207350669Y-87537500D01*
X207350653Y-87537499D01*
X207343057Y-87537499D01*
X207184943Y-87537499D01*
X207077587Y-87566265D01*
X207032210Y-87578424D01*
X207032209Y-87578425D01*
X206982096Y-87607359D01*
X206982095Y-87607360D01*
X206938689Y-87632420D01*
X206895285Y-87657479D01*
X206895282Y-87657481D01*
X206789583Y-87763181D01*
X206728260Y-87796666D01*
X206701902Y-87799500D01*
X203747247Y-87799500D01*
X203680208Y-87779815D01*
X203642253Y-87741472D01*
X203589477Y-87657480D01*
X203575816Y-87635738D01*
X203448262Y-87508184D01*
X203295523Y-87412211D01*
X203125254Y-87352631D01*
X203125249Y-87352630D01*
X202946004Y-87332435D01*
X202945996Y-87332435D01*
X202766750Y-87352630D01*
X202766745Y-87352631D01*
X202596476Y-87412211D01*
X202443737Y-87508184D01*
X202316184Y-87635737D01*
X202316179Y-87635743D01*
X202247949Y-87744331D01*
X202195615Y-87790622D01*
X202126561Y-87801270D01*
X202062713Y-87772895D01*
X202055275Y-87766040D01*
X200586819Y-86297584D01*
X200553334Y-86236261D01*
X200550500Y-86209903D01*
X200550500Y-85131394D01*
X200986000Y-85131394D01*
X200992401Y-85190922D01*
X200992403Y-85190929D01*
X201042645Y-85325636D01*
X201042649Y-85325643D01*
X201128809Y-85440737D01*
X201128812Y-85440740D01*
X201243906Y-85526900D01*
X201243913Y-85526904D01*
X201378620Y-85577146D01*
X201378627Y-85577148D01*
X201438155Y-85583549D01*
X201438172Y-85583550D01*
X201490000Y-85583550D01*
X201490000Y-84704900D01*
X200986000Y-84704900D01*
X200986000Y-85131394D01*
X200550500Y-85131394D01*
X200550500Y-83322050D01*
X200570185Y-83255011D01*
X200622989Y-83209256D01*
X200674500Y-83198050D01*
X200855944Y-83198050D01*
X200922983Y-83217735D01*
G37*
%TD.AperFunction*%
%TA.AperFunction,Conductor*%
G36*
X241212368Y-86018068D02*
G01*
X241223953Y-86031437D01*
X241254251Y-86071909D01*
X241267187Y-86089190D01*
X241267455Y-86089547D01*
X241351193Y-86152234D01*
X241393064Y-86208168D01*
X241398048Y-86277859D01*
X241364562Y-86339182D01*
X241303239Y-86372666D01*
X241276882Y-86375500D01*
X240972284Y-86375500D01*
X240905245Y-86355815D01*
X240859490Y-86303011D01*
X240849546Y-86233853D01*
X240878571Y-86170297D01*
X240897973Y-86152234D01*
X240982187Y-86089190D01*
X240982188Y-86089189D01*
X241025420Y-86031439D01*
X241081353Y-85989567D01*
X241151045Y-85984583D01*
X241212368Y-86018068D01*
G37*
%TD.AperFunction*%
%TA.AperFunction,Conductor*%
G36*
X226506071Y-82104172D02*
G01*
X226619256Y-82134500D01*
X226619257Y-82134500D01*
X230938588Y-82134500D01*
X231005627Y-82154185D01*
X231015903Y-82161555D01*
X231018736Y-82163814D01*
X231018738Y-82163816D01*
X231122223Y-82228840D01*
X231154684Y-82249237D01*
X231171478Y-82259789D01*
X231321046Y-82312125D01*
X231341745Y-82319368D01*
X231341750Y-82319369D01*
X231520996Y-82339565D01*
X231521000Y-82339565D01*
X231521004Y-82339565D01*
X231700249Y-82319369D01*
X231700252Y-82319368D01*
X231700255Y-82319368D01*
X231870522Y-82259789D01*
X232022000Y-82164609D01*
X232089237Y-82145609D01*
X232156072Y-82165977D01*
X232175653Y-82181922D01*
X234779550Y-84785819D01*
X234813035Y-84847142D01*
X234808051Y-84916834D01*
X234766179Y-84972767D01*
X234700715Y-84997184D01*
X234691869Y-84997500D01*
X232357941Y-84997500D01*
X232290902Y-84977815D01*
X232270260Y-84961182D01*
X232218067Y-84908989D01*
X232150262Y-84841184D01*
X232087107Y-84801501D01*
X231997523Y-84745211D01*
X231827254Y-84685631D01*
X231827249Y-84685630D01*
X231648004Y-84665435D01*
X231647996Y-84665435D01*
X231468750Y-84685630D01*
X231468745Y-84685631D01*
X231298476Y-84745211D01*
X231145737Y-84841184D01*
X231018184Y-84968737D01*
X230922211Y-85121476D01*
X230862631Y-85291745D01*
X230862630Y-85291750D01*
X230842435Y-85470996D01*
X230842435Y-85475500D01*
X230822750Y-85542539D01*
X230769946Y-85588294D01*
X230718435Y-85599500D01*
X226474500Y-85599500D01*
X226407461Y-85579815D01*
X226361706Y-85527011D01*
X226350500Y-85475500D01*
X226350499Y-84952129D01*
X226350498Y-84952123D01*
X226350483Y-84951984D01*
X226344091Y-84892517D01*
X226343010Y-84889620D01*
X226293796Y-84757669D01*
X226293793Y-84757664D01*
X226207547Y-84642455D01*
X226207544Y-84642452D01*
X226092335Y-84556206D01*
X226092328Y-84556202D01*
X225957482Y-84505908D01*
X225957483Y-84505908D01*
X225897883Y-84499501D01*
X225897881Y-84499500D01*
X225897873Y-84499500D01*
X225897865Y-84499500D01*
X225350098Y-84499500D01*
X225283059Y-84479815D01*
X225262417Y-84463181D01*
X224838485Y-84039249D01*
X224410915Y-83611679D01*
X224377431Y-83550358D01*
X224382415Y-83480667D01*
X224424287Y-83424733D01*
X224489751Y-83400316D01*
X224498597Y-83400000D01*
X224557828Y-83400000D01*
X224557844Y-83399999D01*
X224617372Y-83393598D01*
X224686666Y-83367753D01*
X224756358Y-83362769D01*
X224773334Y-83367753D01*
X224842628Y-83393598D01*
X224842627Y-83393598D01*
X224902155Y-83399999D01*
X224902172Y-83400000D01*
X225150000Y-83400000D01*
X225650000Y-83400000D01*
X225897828Y-83400000D01*
X225897844Y-83399999D01*
X225957372Y-83393598D01*
X225957379Y-83393596D01*
X226092086Y-83343354D01*
X226092093Y-83343350D01*
X226207187Y-83257190D01*
X226207190Y-83257187D01*
X226293350Y-83142093D01*
X226293354Y-83142086D01*
X226343596Y-83007379D01*
X226343598Y-83007372D01*
X226349999Y-82947844D01*
X226350000Y-82947827D01*
X226350000Y-82700000D01*
X225650000Y-82700000D01*
X225650000Y-83400000D01*
X225150000Y-83400000D01*
X225150000Y-82700000D01*
X223518201Y-82700000D01*
X223456203Y-82683388D01*
X223431905Y-82669360D01*
X223431905Y-82669359D01*
X223431900Y-82669358D01*
X223381785Y-82640423D01*
X223229057Y-82599499D01*
X223070943Y-82599499D01*
X223063347Y-82599499D01*
X223063331Y-82599500D01*
X221374500Y-82599500D01*
X221307461Y-82579815D01*
X221261706Y-82527011D01*
X221250500Y-82475500D01*
X221250500Y-82379164D01*
X221270185Y-82312125D01*
X221322989Y-82266370D01*
X221360612Y-82255944D01*
X221429255Y-82248211D01*
X221429259Y-82248209D01*
X221429262Y-82248209D01*
X221547149Y-82206959D01*
X221588104Y-82200000D01*
X226350000Y-82200000D01*
X226359956Y-82190043D01*
X226369685Y-82156913D01*
X226422489Y-82111158D01*
X226491647Y-82101214D01*
X226506071Y-82104172D01*
G37*
%TD.AperFunction*%
%TA.AperFunction,Conductor*%
G36*
X239110900Y-81900185D02*
G01*
X239156655Y-81952989D01*
X239166599Y-82022147D01*
X239160043Y-82047833D01*
X239131403Y-82124620D01*
X239131401Y-82124627D01*
X239125000Y-82184155D01*
X239125000Y-83732000D01*
X240251000Y-83732000D01*
X240318039Y-83751685D01*
X240363794Y-83804489D01*
X240375000Y-83856000D01*
X240375000Y-84108000D01*
X240355315Y-84175039D01*
X240302511Y-84220794D01*
X240251000Y-84232000D01*
X239125000Y-84232000D01*
X239089298Y-84267702D01*
X239027974Y-84301186D01*
X238958283Y-84296201D01*
X238913936Y-84267701D01*
X238741590Y-84095355D01*
X238741588Y-84095352D01*
X238622717Y-83976481D01*
X238622716Y-83976480D01*
X238526522Y-83920943D01*
X238526521Y-83920942D01*
X238485783Y-83897422D01*
X238429881Y-83882443D01*
X238333057Y-83856499D01*
X238174943Y-83856499D01*
X238167347Y-83856499D01*
X238167331Y-83856500D01*
X236165751Y-83856500D01*
X236098712Y-83836815D01*
X236078070Y-83820181D01*
X234507126Y-82249237D01*
X234473641Y-82187914D01*
X234478625Y-82118222D01*
X234520497Y-82062289D01*
X234553852Y-82044514D01*
X234664522Y-82005789D01*
X234817262Y-81909816D01*
X234817267Y-81909810D01*
X234820097Y-81907555D01*
X234822275Y-81906665D01*
X234823158Y-81906111D01*
X234823255Y-81906265D01*
X234884783Y-81881145D01*
X234897412Y-81880500D01*
X239043861Y-81880500D01*
X239110900Y-81900185D01*
G37*
%TD.AperFunction*%
%TA.AperFunction,Conductor*%
G36*
X204217539Y-82367235D02*
G01*
X204263294Y-82420039D01*
X204274500Y-82471550D01*
X204274500Y-82723550D01*
X204254815Y-82790589D01*
X204202011Y-82836344D01*
X204150500Y-82847550D01*
X204144000Y-82847550D01*
X204076961Y-82827865D01*
X204031206Y-82775061D01*
X204020000Y-82723550D01*
X204020000Y-82471550D01*
X204039685Y-82404511D01*
X204092489Y-82358756D01*
X204144000Y-82347550D01*
X204150500Y-82347550D01*
X204217539Y-82367235D01*
G37*
%TD.AperFunction*%
%TA.AperFunction,Conductor*%
G36*
X236634259Y-75997120D02*
G01*
X236680014Y-76049924D01*
X236689958Y-76119082D01*
X236666487Y-76175745D01*
X236656478Y-76189116D01*
X236581203Y-76289669D01*
X236581202Y-76289671D01*
X236530908Y-76424517D01*
X236524501Y-76484116D01*
X236524501Y-76484123D01*
X236524500Y-76484135D01*
X236524500Y-79979870D01*
X236524501Y-79979876D01*
X236530908Y-80039483D01*
X236581202Y-80174328D01*
X236581206Y-80174335D01*
X236667452Y-80289544D01*
X236667455Y-80289547D01*
X236782664Y-80375793D01*
X236782671Y-80375797D01*
X236917517Y-80426091D01*
X236917516Y-80426091D01*
X236974438Y-80432211D01*
X237038989Y-80458949D01*
X237078837Y-80516341D01*
X237081331Y-80586166D01*
X237045679Y-80646255D01*
X236983199Y-80677530D01*
X236961183Y-80679500D01*
X234897412Y-80679500D01*
X234830373Y-80659815D01*
X234820097Y-80652445D01*
X234817263Y-80650185D01*
X234817262Y-80650184D01*
X234748553Y-80607011D01*
X234664523Y-80554211D01*
X234494254Y-80494631D01*
X234494249Y-80494630D01*
X234315004Y-80474435D01*
X234314996Y-80474435D01*
X234135750Y-80494630D01*
X234135745Y-80494631D01*
X233965476Y-80554211D01*
X233812737Y-80650184D01*
X233685184Y-80777737D01*
X233589210Y-80930478D01*
X233550486Y-81041148D01*
X233509764Y-81097924D01*
X233444812Y-81123672D01*
X233376250Y-81110216D01*
X233345763Y-81087875D01*
X233016028Y-80758140D01*
X233016026Y-80758137D01*
X232897156Y-80639267D01*
X232897154Y-80639265D01*
X232893686Y-80637262D01*
X232868009Y-80617559D01*
X232375034Y-80124584D01*
X232341549Y-80063261D01*
X232338715Y-80036903D01*
X232338715Y-79807631D01*
X232338715Y-79807629D01*
X232318054Y-79730520D01*
X232297792Y-79654901D01*
X232297790Y-79654897D01*
X232260045Y-79589521D01*
X232218737Y-79517973D01*
X232218736Y-79517972D01*
X232218735Y-79517970D01*
X232106931Y-79406166D01*
X232106930Y-79406165D01*
X232102600Y-79401835D01*
X232102589Y-79401825D01*
X231396619Y-78695855D01*
X231396617Y-78695852D01*
X231277746Y-78576981D01*
X231277745Y-78576980D01*
X231159852Y-78508915D01*
X231140814Y-78497923D01*
X230988086Y-78456999D01*
X230829972Y-78456999D01*
X230822376Y-78456999D01*
X230822360Y-78457000D01*
X229238670Y-78457000D01*
X229171631Y-78437315D01*
X229133676Y-78398972D01*
X229103218Y-78350499D01*
X229059551Y-78281003D01*
X228931997Y-78153449D01*
X228841432Y-78096543D01*
X228779258Y-78057476D01*
X228608989Y-77997896D01*
X228608984Y-77997895D01*
X228429739Y-77977700D01*
X228429731Y-77977700D01*
X228250485Y-77997895D01*
X228250480Y-77997896D01*
X228080211Y-78057476D01*
X227927472Y-78153449D01*
X227799919Y-78281002D01*
X227703946Y-78433741D01*
X227644366Y-78604010D01*
X227644365Y-78604015D01*
X227637564Y-78664383D01*
X227610498Y-78728797D01*
X227552903Y-78768353D01*
X227514344Y-78774500D01*
X227196860Y-78774500D01*
X227129821Y-78754815D01*
X227084066Y-78702011D01*
X227074122Y-78632853D01*
X227091866Y-78584528D01*
X227139376Y-78508916D01*
X227173554Y-78454522D01*
X227233133Y-78284255D01*
X227233134Y-78284249D01*
X227253330Y-78105003D01*
X227253330Y-78104996D01*
X227233134Y-77925750D01*
X227233133Y-77925745D01*
X227214262Y-77871816D01*
X227173554Y-77755478D01*
X227077581Y-77602738D01*
X227077579Y-77602736D01*
X227077578Y-77602734D01*
X227075315Y-77599896D01*
X227074424Y-77597715D01*
X227073876Y-77596842D01*
X227074029Y-77596745D01*
X227048909Y-77535209D01*
X227048265Y-77522587D01*
X227048265Y-76868710D01*
X227048265Y-76868708D01*
X227027945Y-76792873D01*
X227007342Y-76715980D01*
X226953447Y-76622632D01*
X226940347Y-76599942D01*
X226928287Y-76579052D01*
X226928283Y-76579047D01*
X226912748Y-76563512D01*
X226879263Y-76502189D01*
X226877209Y-76461948D01*
X226895565Y-76299029D01*
X226895565Y-76299022D01*
X226874867Y-76115318D01*
X226886922Y-76046496D01*
X226934271Y-75995117D01*
X226998087Y-75977435D01*
X236567220Y-75977435D01*
X236634259Y-75997120D01*
G37*
%TD.AperFunction*%
%TA.AperFunction,Conductor*%
G36*
X227145099Y-79995185D02*
G01*
X227190854Y-80047989D01*
X227200798Y-80117147D01*
X227171773Y-80180703D01*
X227165741Y-80187181D01*
X227118184Y-80234737D01*
X227022211Y-80387476D01*
X226962631Y-80557745D01*
X226962630Y-80557750D01*
X226942435Y-80736996D01*
X226942435Y-80737004D01*
X226943987Y-80750779D01*
X226931932Y-80819601D01*
X226884583Y-80870980D01*
X226816973Y-80888604D01*
X226788674Y-80884437D01*
X226723657Y-80867016D01*
X226706214Y-80862342D01*
X226548100Y-80862342D01*
X226540504Y-80862342D01*
X226540488Y-80862343D01*
X226474000Y-80862343D01*
X226406961Y-80842658D01*
X226361206Y-80789854D01*
X226350000Y-80738343D01*
X226350000Y-80650000D01*
X223934000Y-80650000D01*
X223866961Y-80630315D01*
X223821206Y-80577511D01*
X223810000Y-80526000D01*
X223810000Y-80374500D01*
X223829685Y-80307461D01*
X223882489Y-80261706D01*
X223934000Y-80250500D01*
X223982785Y-80250500D01*
X223982801Y-80250501D01*
X223990397Y-80250501D01*
X224148508Y-80250501D01*
X224148511Y-80250501D01*
X224301239Y-80209577D01*
X224369469Y-80170184D01*
X224375653Y-80166614D01*
X224437654Y-80150000D01*
X226350000Y-80150000D01*
X226350000Y-80099500D01*
X226369685Y-80032461D01*
X226422489Y-79986706D01*
X226474000Y-79975500D01*
X227078060Y-79975500D01*
X227145099Y-79995185D01*
G37*
%TD.AperFunction*%
%TA.AperFunction,Conductor*%
G36*
X230786109Y-79791961D02*
G01*
X230816596Y-79814302D01*
X231101396Y-80099102D01*
X231134881Y-80160425D01*
X231137715Y-80186783D01*
X231137715Y-80250330D01*
X231137714Y-80250348D01*
X231137714Y-80253275D01*
X231137514Y-80253954D01*
X231136957Y-80264024D01*
X231136956Y-80264033D01*
X231134630Y-80263774D01*
X231118029Y-80320314D01*
X231065225Y-80366069D01*
X231045820Y-80373046D01*
X231040696Y-80374419D01*
X231040684Y-80374424D01*
X231008741Y-80392866D01*
X230980991Y-80408887D01*
X230918994Y-80425500D01*
X230498440Y-80425500D01*
X230431401Y-80405815D01*
X230385646Y-80353011D01*
X230375702Y-80283853D01*
X230404727Y-80220297D01*
X230410759Y-80213819D01*
X230437397Y-80187181D01*
X230464816Y-80159762D01*
X230560789Y-80007022D01*
X230611875Y-79861025D01*
X230652594Y-79804253D01*
X230717547Y-79778505D01*
X230786109Y-79791961D01*
G37*
%TD.AperFunction*%
%TA.AperFunction,Conductor*%
G36*
X216078335Y-76870185D02*
G01*
X216124090Y-76922989D01*
X216134034Y-76992147D01*
X216131973Y-77003014D01*
X216130908Y-77007518D01*
X216124501Y-77067116D01*
X216124500Y-77067135D01*
X216124500Y-77902870D01*
X216124501Y-77902876D01*
X216130908Y-77962483D01*
X216173763Y-78077381D01*
X216178747Y-78147073D01*
X216173763Y-78164047D01*
X216131403Y-78277620D01*
X216131401Y-78277627D01*
X216125000Y-78337155D01*
X216125000Y-79172844D01*
X216131401Y-79232372D01*
X216131403Y-79232380D01*
X216174029Y-79346667D01*
X216179013Y-79416359D01*
X216174029Y-79433333D01*
X216131403Y-79547619D01*
X216131401Y-79547627D01*
X216125000Y-79607155D01*
X216125000Y-79751179D01*
X216105315Y-79818218D01*
X216052511Y-79863973D01*
X216014884Y-79874399D01*
X215924077Y-79884630D01*
X215924073Y-79884631D01*
X215753805Y-79944211D01*
X215704010Y-79975500D01*
X215697046Y-79979876D01*
X215696062Y-79980494D01*
X215630090Y-79999500D01*
X215233073Y-79999500D01*
X215074959Y-79999500D01*
X215074957Y-79999500D01*
X215066903Y-80000561D01*
X215066502Y-79997517D01*
X215011192Y-79996177D01*
X214953347Y-79956989D01*
X214925871Y-79892749D01*
X214925000Y-79878081D01*
X214925000Y-79607172D01*
X214924999Y-79607155D01*
X214918598Y-79547627D01*
X214918597Y-79547623D01*
X214875969Y-79433334D01*
X214870985Y-79363643D01*
X214875969Y-79346666D01*
X214918597Y-79232376D01*
X214918598Y-79232372D01*
X214924999Y-79172844D01*
X214925000Y-79172827D01*
X214925000Y-78337172D01*
X214924999Y-78337155D01*
X214918598Y-78277627D01*
X214918597Y-78277623D01*
X214876236Y-78164049D01*
X214871252Y-78094357D01*
X214876232Y-78077391D01*
X214919091Y-77962483D01*
X214925500Y-77902873D01*
X214925499Y-77085097D01*
X214945183Y-77018059D01*
X214961819Y-76997416D01*
X215072419Y-76886818D01*
X215133742Y-76853334D01*
X215160099Y-76850500D01*
X216011296Y-76850500D01*
X216078335Y-76870185D01*
G37*
%TD.AperFunction*%
%TD*%
M02*
