%TF.GenerationSoftware,KiCad,Pcbnew,8.0.4*%
%TF.CreationDate,2025-03-13T09:59:00-07:00*%
%TF.ProjectId,keyboard_board,6b657962-6f61-4726-945f-626f6172642e,rev?*%
%TF.SameCoordinates,Original*%
%TF.FileFunction,Soldermask,Bot*%
%TF.FilePolarity,Negative*%
%FSLAX46Y46*%
G04 Gerber Fmt 4.6, Leading zero omitted, Abs format (unit mm)*
G04 Created by KiCad (PCBNEW 8.0.4) date 2025-03-13 09:59:00*
%MOMM*%
%LPD*%
G01*
G04 APERTURE LIST*
G04 Aperture macros list*
%AMRoundRect*
0 Rectangle with rounded corners*
0 $1 Rounding radius*
0 $2 $3 $4 $5 $6 $7 $8 $9 X,Y pos of 4 corners*
0 Add a 4 corners polygon primitive as box body*
4,1,4,$2,$3,$4,$5,$6,$7,$8,$9,$2,$3,0*
0 Add four circle primitives for the rounded corners*
1,1,$1+$1,$2,$3*
1,1,$1+$1,$4,$5*
1,1,$1+$1,$6,$7*
1,1,$1+$1,$8,$9*
0 Add four rect primitives between the rounded corners*
20,1,$1+$1,$2,$3,$4,$5,0*
20,1,$1+$1,$4,$5,$6,$7,0*
20,1,$1+$1,$6,$7,$8,$9,0*
20,1,$1+$1,$8,$9,$2,$3,0*%
G04 Aperture macros list end*
%ADD10C,0.010000*%
%ADD11O,2.004000X1.304000*%
%ADD12O,1.654000X1.254000*%
%ADD13RoundRect,0.340800X-0.511200X0.511200X-0.511200X-0.511200X0.511200X-0.511200X0.511200X0.511200X0*%
%ADD14RoundRect,0.102000X-0.150000X-0.550000X0.150000X-0.550000X0.150000X0.550000X-0.150000X0.550000X0*%
G04 APERTURE END LIST*
D10*
%TO.C,U1*%
X182506000Y-86970000D02*
X182505000Y-87017000D01*
X182501000Y-87064000D01*
X182495000Y-87111000D01*
X182486000Y-87157000D01*
X182475000Y-87203000D01*
X182462000Y-87248000D01*
X182446000Y-87293000D01*
X182428000Y-87336000D01*
X182408000Y-87379000D01*
X182385000Y-87420000D01*
X182361000Y-87460000D01*
X182334000Y-87499000D01*
X182305000Y-87536000D01*
X182275000Y-87572000D01*
X182242000Y-87606000D01*
X182208000Y-87639000D01*
X182172000Y-87669000D01*
X182135000Y-87698000D01*
X182096000Y-87725000D01*
X182056000Y-87749000D01*
X182015000Y-87772000D01*
X181972000Y-87792000D01*
X181929000Y-87810000D01*
X181884000Y-87826000D01*
X181839000Y-87839000D01*
X181793000Y-87850000D01*
X181747000Y-87859000D01*
X181700000Y-87865000D01*
X181653000Y-87869000D01*
X181606000Y-87870000D01*
X181559000Y-87869000D01*
X181512000Y-87865000D01*
X181465000Y-87859000D01*
X181419000Y-87850000D01*
X181373000Y-87839000D01*
X181328000Y-87826000D01*
X181283000Y-87810000D01*
X181240000Y-87792000D01*
X181197000Y-87772000D01*
X181156000Y-87749000D01*
X181116000Y-87725000D01*
X181077000Y-87698000D01*
X181040000Y-87669000D01*
X181004000Y-87639000D01*
X180970000Y-87606000D01*
X180937000Y-87572000D01*
X180907000Y-87536000D01*
X180878000Y-87499000D01*
X180851000Y-87460000D01*
X180827000Y-87420000D01*
X180804000Y-87379000D01*
X180784000Y-87336000D01*
X180766000Y-87293000D01*
X180750000Y-87248000D01*
X180737000Y-87203000D01*
X180726000Y-87157000D01*
X180717000Y-87111000D01*
X180711000Y-87064000D01*
X180707000Y-87017000D01*
X180706000Y-86970000D01*
X180706000Y-84470000D01*
X182506000Y-84470000D01*
X182506000Y-86970000D01*
G36*
X182506000Y-86970000D02*
G01*
X182505000Y-87017000D01*
X182501000Y-87064000D01*
X182495000Y-87111000D01*
X182486000Y-87157000D01*
X182475000Y-87203000D01*
X182462000Y-87248000D01*
X182446000Y-87293000D01*
X182428000Y-87336000D01*
X182408000Y-87379000D01*
X182385000Y-87420000D01*
X182361000Y-87460000D01*
X182334000Y-87499000D01*
X182305000Y-87536000D01*
X182275000Y-87572000D01*
X182242000Y-87606000D01*
X182208000Y-87639000D01*
X182172000Y-87669000D01*
X182135000Y-87698000D01*
X182096000Y-87725000D01*
X182056000Y-87749000D01*
X182015000Y-87772000D01*
X181972000Y-87792000D01*
X181929000Y-87810000D01*
X181884000Y-87826000D01*
X181839000Y-87839000D01*
X181793000Y-87850000D01*
X181747000Y-87859000D01*
X181700000Y-87865000D01*
X181653000Y-87869000D01*
X181606000Y-87870000D01*
X181559000Y-87869000D01*
X181512000Y-87865000D01*
X181465000Y-87859000D01*
X181419000Y-87850000D01*
X181373000Y-87839000D01*
X181328000Y-87826000D01*
X181283000Y-87810000D01*
X181240000Y-87792000D01*
X181197000Y-87772000D01*
X181156000Y-87749000D01*
X181116000Y-87725000D01*
X181077000Y-87698000D01*
X181040000Y-87669000D01*
X181004000Y-87639000D01*
X180970000Y-87606000D01*
X180937000Y-87572000D01*
X180907000Y-87536000D01*
X180878000Y-87499000D01*
X180851000Y-87460000D01*
X180827000Y-87420000D01*
X180804000Y-87379000D01*
X180784000Y-87336000D01*
X180766000Y-87293000D01*
X180750000Y-87248000D01*
X180737000Y-87203000D01*
X180726000Y-87157000D01*
X180717000Y-87111000D01*
X180711000Y-87064000D01*
X180707000Y-87017000D01*
X180706000Y-86970000D01*
X180706000Y-84470000D01*
X182506000Y-84470000D01*
X182506000Y-86970000D01*
G37*
X181653000Y-103851000D02*
X181700000Y-103855000D01*
X181747000Y-103861000D01*
X181793000Y-103870000D01*
X181839000Y-103881000D01*
X181884000Y-103894000D01*
X181929000Y-103910000D01*
X181972000Y-103928000D01*
X182015000Y-103948000D01*
X182056000Y-103971000D01*
X182096000Y-103995000D01*
X182135000Y-104022000D01*
X182172000Y-104051000D01*
X182208000Y-104081000D01*
X182242000Y-104114000D01*
X182275000Y-104148000D01*
X182305000Y-104184000D01*
X182334000Y-104221000D01*
X182361000Y-104260000D01*
X182385000Y-104300000D01*
X182408000Y-104341000D01*
X182428000Y-104384000D01*
X182446000Y-104427000D01*
X182462000Y-104472000D01*
X182475000Y-104517000D01*
X182486000Y-104563000D01*
X182495000Y-104609000D01*
X182501000Y-104656000D01*
X182505000Y-104703000D01*
X182506000Y-104750000D01*
X182506000Y-107250000D01*
X180706000Y-107250000D01*
X180706000Y-104750000D01*
X180707000Y-104703000D01*
X180711000Y-104656000D01*
X180717000Y-104609000D01*
X180726000Y-104563000D01*
X180737000Y-104517000D01*
X180750000Y-104472000D01*
X180766000Y-104427000D01*
X180784000Y-104384000D01*
X180804000Y-104341000D01*
X180827000Y-104300000D01*
X180851000Y-104260000D01*
X180878000Y-104221000D01*
X180907000Y-104184000D01*
X180937000Y-104148000D01*
X180970000Y-104114000D01*
X181004000Y-104081000D01*
X181040000Y-104051000D01*
X181077000Y-104022000D01*
X181116000Y-103995000D01*
X181156000Y-103971000D01*
X181197000Y-103948000D01*
X181240000Y-103928000D01*
X181283000Y-103910000D01*
X181328000Y-103894000D01*
X181373000Y-103881000D01*
X181419000Y-103870000D01*
X181465000Y-103861000D01*
X181512000Y-103855000D01*
X181559000Y-103851000D01*
X181606000Y-103850000D01*
X181653000Y-103851000D01*
G36*
X181653000Y-103851000D02*
G01*
X181700000Y-103855000D01*
X181747000Y-103861000D01*
X181793000Y-103870000D01*
X181839000Y-103881000D01*
X181884000Y-103894000D01*
X181929000Y-103910000D01*
X181972000Y-103928000D01*
X182015000Y-103948000D01*
X182056000Y-103971000D01*
X182096000Y-103995000D01*
X182135000Y-104022000D01*
X182172000Y-104051000D01*
X182208000Y-104081000D01*
X182242000Y-104114000D01*
X182275000Y-104148000D01*
X182305000Y-104184000D01*
X182334000Y-104221000D01*
X182361000Y-104260000D01*
X182385000Y-104300000D01*
X182408000Y-104341000D01*
X182428000Y-104384000D01*
X182446000Y-104427000D01*
X182462000Y-104472000D01*
X182475000Y-104517000D01*
X182486000Y-104563000D01*
X182495000Y-104609000D01*
X182501000Y-104656000D01*
X182505000Y-104703000D01*
X182506000Y-104750000D01*
X182506000Y-107250000D01*
X180706000Y-107250000D01*
X180706000Y-104750000D01*
X180707000Y-104703000D01*
X180711000Y-104656000D01*
X180717000Y-104609000D01*
X180726000Y-104563000D01*
X180737000Y-104517000D01*
X180750000Y-104472000D01*
X180766000Y-104427000D01*
X180784000Y-104384000D01*
X180804000Y-104341000D01*
X180827000Y-104300000D01*
X180851000Y-104260000D01*
X180878000Y-104221000D01*
X180907000Y-104184000D01*
X180937000Y-104148000D01*
X180970000Y-104114000D01*
X181004000Y-104081000D01*
X181040000Y-104051000D01*
X181077000Y-104022000D01*
X181116000Y-103995000D01*
X181156000Y-103971000D01*
X181197000Y-103948000D01*
X181240000Y-103928000D01*
X181283000Y-103910000D01*
X181328000Y-103894000D01*
X181373000Y-103881000D01*
X181419000Y-103870000D01*
X181465000Y-103861000D01*
X181512000Y-103855000D01*
X181559000Y-103851000D01*
X181606000Y-103850000D01*
X181653000Y-103851000D01*
G37*
X185046000Y-86970000D02*
X185045000Y-87017000D01*
X185041000Y-87064000D01*
X185035000Y-87111000D01*
X185026000Y-87157000D01*
X185015000Y-87203000D01*
X185002000Y-87248000D01*
X184986000Y-87293000D01*
X184968000Y-87336000D01*
X184948000Y-87379000D01*
X184925000Y-87420000D01*
X184901000Y-87460000D01*
X184874000Y-87499000D01*
X184845000Y-87536000D01*
X184815000Y-87572000D01*
X184782000Y-87606000D01*
X184748000Y-87639000D01*
X184712000Y-87669000D01*
X184675000Y-87698000D01*
X184636000Y-87725000D01*
X184596000Y-87749000D01*
X184555000Y-87772000D01*
X184512000Y-87792000D01*
X184469000Y-87810000D01*
X184424000Y-87826000D01*
X184379000Y-87839000D01*
X184333000Y-87850000D01*
X184287000Y-87859000D01*
X184240000Y-87865000D01*
X184193000Y-87869000D01*
X184146000Y-87870000D01*
X184099000Y-87869000D01*
X184052000Y-87865000D01*
X184005000Y-87859000D01*
X183959000Y-87850000D01*
X183913000Y-87839000D01*
X183868000Y-87826000D01*
X183823000Y-87810000D01*
X183780000Y-87792000D01*
X183737000Y-87772000D01*
X183696000Y-87749000D01*
X183656000Y-87725000D01*
X183617000Y-87698000D01*
X183580000Y-87669000D01*
X183544000Y-87639000D01*
X183510000Y-87606000D01*
X183477000Y-87572000D01*
X183447000Y-87536000D01*
X183418000Y-87499000D01*
X183391000Y-87460000D01*
X183367000Y-87420000D01*
X183344000Y-87379000D01*
X183324000Y-87336000D01*
X183306000Y-87293000D01*
X183290000Y-87248000D01*
X183277000Y-87203000D01*
X183266000Y-87157000D01*
X183257000Y-87111000D01*
X183251000Y-87064000D01*
X183247000Y-87017000D01*
X183246000Y-86970000D01*
X183246000Y-84470000D01*
X185046000Y-84470000D01*
X185046000Y-86970000D01*
G36*
X185046000Y-86970000D02*
G01*
X185045000Y-87017000D01*
X185041000Y-87064000D01*
X185035000Y-87111000D01*
X185026000Y-87157000D01*
X185015000Y-87203000D01*
X185002000Y-87248000D01*
X184986000Y-87293000D01*
X184968000Y-87336000D01*
X184948000Y-87379000D01*
X184925000Y-87420000D01*
X184901000Y-87460000D01*
X184874000Y-87499000D01*
X184845000Y-87536000D01*
X184815000Y-87572000D01*
X184782000Y-87606000D01*
X184748000Y-87639000D01*
X184712000Y-87669000D01*
X184675000Y-87698000D01*
X184636000Y-87725000D01*
X184596000Y-87749000D01*
X184555000Y-87772000D01*
X184512000Y-87792000D01*
X184469000Y-87810000D01*
X184424000Y-87826000D01*
X184379000Y-87839000D01*
X184333000Y-87850000D01*
X184287000Y-87859000D01*
X184240000Y-87865000D01*
X184193000Y-87869000D01*
X184146000Y-87870000D01*
X184099000Y-87869000D01*
X184052000Y-87865000D01*
X184005000Y-87859000D01*
X183959000Y-87850000D01*
X183913000Y-87839000D01*
X183868000Y-87826000D01*
X183823000Y-87810000D01*
X183780000Y-87792000D01*
X183737000Y-87772000D01*
X183696000Y-87749000D01*
X183656000Y-87725000D01*
X183617000Y-87698000D01*
X183580000Y-87669000D01*
X183544000Y-87639000D01*
X183510000Y-87606000D01*
X183477000Y-87572000D01*
X183447000Y-87536000D01*
X183418000Y-87499000D01*
X183391000Y-87460000D01*
X183367000Y-87420000D01*
X183344000Y-87379000D01*
X183324000Y-87336000D01*
X183306000Y-87293000D01*
X183290000Y-87248000D01*
X183277000Y-87203000D01*
X183266000Y-87157000D01*
X183257000Y-87111000D01*
X183251000Y-87064000D01*
X183247000Y-87017000D01*
X183246000Y-86970000D01*
X183246000Y-84470000D01*
X185046000Y-84470000D01*
X185046000Y-86970000D01*
G37*
X184193000Y-103851000D02*
X184240000Y-103855000D01*
X184287000Y-103861000D01*
X184333000Y-103870000D01*
X184379000Y-103881000D01*
X184424000Y-103894000D01*
X184469000Y-103910000D01*
X184512000Y-103928000D01*
X184555000Y-103948000D01*
X184596000Y-103971000D01*
X184636000Y-103995000D01*
X184675000Y-104022000D01*
X184712000Y-104051000D01*
X184748000Y-104081000D01*
X184782000Y-104114000D01*
X184815000Y-104148000D01*
X184845000Y-104184000D01*
X184874000Y-104221000D01*
X184901000Y-104260000D01*
X184925000Y-104300000D01*
X184948000Y-104341000D01*
X184968000Y-104384000D01*
X184986000Y-104427000D01*
X185002000Y-104472000D01*
X185015000Y-104517000D01*
X185026000Y-104563000D01*
X185035000Y-104609000D01*
X185041000Y-104656000D01*
X185045000Y-104703000D01*
X185046000Y-104750000D01*
X185046000Y-107250000D01*
X183246000Y-107250000D01*
X183246000Y-104750000D01*
X183247000Y-104703000D01*
X183251000Y-104656000D01*
X183257000Y-104609000D01*
X183266000Y-104563000D01*
X183277000Y-104517000D01*
X183290000Y-104472000D01*
X183306000Y-104427000D01*
X183324000Y-104384000D01*
X183344000Y-104341000D01*
X183367000Y-104300000D01*
X183391000Y-104260000D01*
X183418000Y-104221000D01*
X183447000Y-104184000D01*
X183477000Y-104148000D01*
X183510000Y-104114000D01*
X183544000Y-104081000D01*
X183580000Y-104051000D01*
X183617000Y-104022000D01*
X183656000Y-103995000D01*
X183696000Y-103971000D01*
X183737000Y-103948000D01*
X183780000Y-103928000D01*
X183823000Y-103910000D01*
X183868000Y-103894000D01*
X183913000Y-103881000D01*
X183959000Y-103870000D01*
X184005000Y-103861000D01*
X184052000Y-103855000D01*
X184099000Y-103851000D01*
X184146000Y-103850000D01*
X184193000Y-103851000D01*
G36*
X184193000Y-103851000D02*
G01*
X184240000Y-103855000D01*
X184287000Y-103861000D01*
X184333000Y-103870000D01*
X184379000Y-103881000D01*
X184424000Y-103894000D01*
X184469000Y-103910000D01*
X184512000Y-103928000D01*
X184555000Y-103948000D01*
X184596000Y-103971000D01*
X184636000Y-103995000D01*
X184675000Y-104022000D01*
X184712000Y-104051000D01*
X184748000Y-104081000D01*
X184782000Y-104114000D01*
X184815000Y-104148000D01*
X184845000Y-104184000D01*
X184874000Y-104221000D01*
X184901000Y-104260000D01*
X184925000Y-104300000D01*
X184948000Y-104341000D01*
X184968000Y-104384000D01*
X184986000Y-104427000D01*
X185002000Y-104472000D01*
X185015000Y-104517000D01*
X185026000Y-104563000D01*
X185035000Y-104609000D01*
X185041000Y-104656000D01*
X185045000Y-104703000D01*
X185046000Y-104750000D01*
X185046000Y-107250000D01*
X183246000Y-107250000D01*
X183246000Y-104750000D01*
X183247000Y-104703000D01*
X183251000Y-104656000D01*
X183257000Y-104609000D01*
X183266000Y-104563000D01*
X183277000Y-104517000D01*
X183290000Y-104472000D01*
X183306000Y-104427000D01*
X183324000Y-104384000D01*
X183344000Y-104341000D01*
X183367000Y-104300000D01*
X183391000Y-104260000D01*
X183418000Y-104221000D01*
X183447000Y-104184000D01*
X183477000Y-104148000D01*
X183510000Y-104114000D01*
X183544000Y-104081000D01*
X183580000Y-104051000D01*
X183617000Y-104022000D01*
X183656000Y-103995000D01*
X183696000Y-103971000D01*
X183737000Y-103948000D01*
X183780000Y-103928000D01*
X183823000Y-103910000D01*
X183868000Y-103894000D01*
X183913000Y-103881000D01*
X183959000Y-103870000D01*
X184005000Y-103861000D01*
X184052000Y-103855000D01*
X184099000Y-103851000D01*
X184146000Y-103850000D01*
X184193000Y-103851000D01*
G37*
X190126000Y-86970000D02*
X190125000Y-87017000D01*
X190121000Y-87064000D01*
X190115000Y-87111000D01*
X190106000Y-87157000D01*
X190095000Y-87203000D01*
X190082000Y-87248000D01*
X190066000Y-87293000D01*
X190048000Y-87336000D01*
X190028000Y-87379000D01*
X190005000Y-87420000D01*
X189981000Y-87460000D01*
X189954000Y-87499000D01*
X189925000Y-87536000D01*
X189895000Y-87572000D01*
X189862000Y-87606000D01*
X189828000Y-87639000D01*
X189792000Y-87669000D01*
X189755000Y-87698000D01*
X189716000Y-87725000D01*
X189676000Y-87749000D01*
X189635000Y-87772000D01*
X189592000Y-87792000D01*
X189549000Y-87810000D01*
X189504000Y-87826000D01*
X189459000Y-87839000D01*
X189413000Y-87850000D01*
X189367000Y-87859000D01*
X189320000Y-87865000D01*
X189273000Y-87869000D01*
X189226000Y-87870000D01*
X189179000Y-87869000D01*
X189132000Y-87865000D01*
X189085000Y-87859000D01*
X189039000Y-87850000D01*
X188993000Y-87839000D01*
X188948000Y-87826000D01*
X188903000Y-87810000D01*
X188860000Y-87792000D01*
X188817000Y-87772000D01*
X188776000Y-87749000D01*
X188736000Y-87725000D01*
X188697000Y-87698000D01*
X188660000Y-87669000D01*
X188624000Y-87639000D01*
X188590000Y-87606000D01*
X188557000Y-87572000D01*
X188527000Y-87536000D01*
X188498000Y-87499000D01*
X188471000Y-87460000D01*
X188447000Y-87420000D01*
X188424000Y-87379000D01*
X188404000Y-87336000D01*
X188386000Y-87293000D01*
X188370000Y-87248000D01*
X188357000Y-87203000D01*
X188346000Y-87157000D01*
X188337000Y-87111000D01*
X188331000Y-87064000D01*
X188327000Y-87017000D01*
X188326000Y-86970000D01*
X188326000Y-84470000D01*
X190126000Y-84470000D01*
X190126000Y-86970000D01*
G36*
X190126000Y-86970000D02*
G01*
X190125000Y-87017000D01*
X190121000Y-87064000D01*
X190115000Y-87111000D01*
X190106000Y-87157000D01*
X190095000Y-87203000D01*
X190082000Y-87248000D01*
X190066000Y-87293000D01*
X190048000Y-87336000D01*
X190028000Y-87379000D01*
X190005000Y-87420000D01*
X189981000Y-87460000D01*
X189954000Y-87499000D01*
X189925000Y-87536000D01*
X189895000Y-87572000D01*
X189862000Y-87606000D01*
X189828000Y-87639000D01*
X189792000Y-87669000D01*
X189755000Y-87698000D01*
X189716000Y-87725000D01*
X189676000Y-87749000D01*
X189635000Y-87772000D01*
X189592000Y-87792000D01*
X189549000Y-87810000D01*
X189504000Y-87826000D01*
X189459000Y-87839000D01*
X189413000Y-87850000D01*
X189367000Y-87859000D01*
X189320000Y-87865000D01*
X189273000Y-87869000D01*
X189226000Y-87870000D01*
X189179000Y-87869000D01*
X189132000Y-87865000D01*
X189085000Y-87859000D01*
X189039000Y-87850000D01*
X188993000Y-87839000D01*
X188948000Y-87826000D01*
X188903000Y-87810000D01*
X188860000Y-87792000D01*
X188817000Y-87772000D01*
X188776000Y-87749000D01*
X188736000Y-87725000D01*
X188697000Y-87698000D01*
X188660000Y-87669000D01*
X188624000Y-87639000D01*
X188590000Y-87606000D01*
X188557000Y-87572000D01*
X188527000Y-87536000D01*
X188498000Y-87499000D01*
X188471000Y-87460000D01*
X188447000Y-87420000D01*
X188424000Y-87379000D01*
X188404000Y-87336000D01*
X188386000Y-87293000D01*
X188370000Y-87248000D01*
X188357000Y-87203000D01*
X188346000Y-87157000D01*
X188337000Y-87111000D01*
X188331000Y-87064000D01*
X188327000Y-87017000D01*
X188326000Y-86970000D01*
X188326000Y-84470000D01*
X190126000Y-84470000D01*
X190126000Y-86970000D01*
G37*
X189273000Y-103851000D02*
X189320000Y-103855000D01*
X189367000Y-103861000D01*
X189413000Y-103870000D01*
X189459000Y-103881000D01*
X189504000Y-103894000D01*
X189549000Y-103910000D01*
X189592000Y-103928000D01*
X189635000Y-103948000D01*
X189676000Y-103971000D01*
X189716000Y-103995000D01*
X189755000Y-104022000D01*
X189792000Y-104051000D01*
X189828000Y-104081000D01*
X189862000Y-104114000D01*
X189895000Y-104148000D01*
X189925000Y-104184000D01*
X189954000Y-104221000D01*
X189981000Y-104260000D01*
X190005000Y-104300000D01*
X190028000Y-104341000D01*
X190048000Y-104384000D01*
X190066000Y-104427000D01*
X190082000Y-104472000D01*
X190095000Y-104517000D01*
X190106000Y-104563000D01*
X190115000Y-104609000D01*
X190121000Y-104656000D01*
X190125000Y-104703000D01*
X190126000Y-104750000D01*
X190126000Y-107250000D01*
X188326000Y-107250000D01*
X188326000Y-104750000D01*
X188327000Y-104703000D01*
X188331000Y-104656000D01*
X188337000Y-104609000D01*
X188346000Y-104563000D01*
X188357000Y-104517000D01*
X188370000Y-104472000D01*
X188386000Y-104427000D01*
X188404000Y-104384000D01*
X188424000Y-104341000D01*
X188447000Y-104300000D01*
X188471000Y-104260000D01*
X188498000Y-104221000D01*
X188527000Y-104184000D01*
X188557000Y-104148000D01*
X188590000Y-104114000D01*
X188624000Y-104081000D01*
X188660000Y-104051000D01*
X188697000Y-104022000D01*
X188736000Y-103995000D01*
X188776000Y-103971000D01*
X188817000Y-103948000D01*
X188860000Y-103928000D01*
X188903000Y-103910000D01*
X188948000Y-103894000D01*
X188993000Y-103881000D01*
X189039000Y-103870000D01*
X189085000Y-103861000D01*
X189132000Y-103855000D01*
X189179000Y-103851000D01*
X189226000Y-103850000D01*
X189273000Y-103851000D01*
G36*
X189273000Y-103851000D02*
G01*
X189320000Y-103855000D01*
X189367000Y-103861000D01*
X189413000Y-103870000D01*
X189459000Y-103881000D01*
X189504000Y-103894000D01*
X189549000Y-103910000D01*
X189592000Y-103928000D01*
X189635000Y-103948000D01*
X189676000Y-103971000D01*
X189716000Y-103995000D01*
X189755000Y-104022000D01*
X189792000Y-104051000D01*
X189828000Y-104081000D01*
X189862000Y-104114000D01*
X189895000Y-104148000D01*
X189925000Y-104184000D01*
X189954000Y-104221000D01*
X189981000Y-104260000D01*
X190005000Y-104300000D01*
X190028000Y-104341000D01*
X190048000Y-104384000D01*
X190066000Y-104427000D01*
X190082000Y-104472000D01*
X190095000Y-104517000D01*
X190106000Y-104563000D01*
X190115000Y-104609000D01*
X190121000Y-104656000D01*
X190125000Y-104703000D01*
X190126000Y-104750000D01*
X190126000Y-107250000D01*
X188326000Y-107250000D01*
X188326000Y-104750000D01*
X188327000Y-104703000D01*
X188331000Y-104656000D01*
X188337000Y-104609000D01*
X188346000Y-104563000D01*
X188357000Y-104517000D01*
X188370000Y-104472000D01*
X188386000Y-104427000D01*
X188404000Y-104384000D01*
X188424000Y-104341000D01*
X188447000Y-104300000D01*
X188471000Y-104260000D01*
X188498000Y-104221000D01*
X188527000Y-104184000D01*
X188557000Y-104148000D01*
X188590000Y-104114000D01*
X188624000Y-104081000D01*
X188660000Y-104051000D01*
X188697000Y-104022000D01*
X188736000Y-103995000D01*
X188776000Y-103971000D01*
X188817000Y-103948000D01*
X188860000Y-103928000D01*
X188903000Y-103910000D01*
X188948000Y-103894000D01*
X188993000Y-103881000D01*
X189039000Y-103870000D01*
X189085000Y-103861000D01*
X189132000Y-103855000D01*
X189179000Y-103851000D01*
X189226000Y-103850000D01*
X189273000Y-103851000D01*
G37*
X192666000Y-86970000D02*
X192665000Y-87017000D01*
X192661000Y-87064000D01*
X192655000Y-87111000D01*
X192646000Y-87157000D01*
X192635000Y-87203000D01*
X192622000Y-87248000D01*
X192606000Y-87293000D01*
X192588000Y-87336000D01*
X192568000Y-87379000D01*
X192545000Y-87420000D01*
X192521000Y-87460000D01*
X192494000Y-87499000D01*
X192465000Y-87536000D01*
X192435000Y-87572000D01*
X192402000Y-87606000D01*
X192368000Y-87639000D01*
X192332000Y-87669000D01*
X192295000Y-87698000D01*
X192256000Y-87725000D01*
X192216000Y-87749000D01*
X192175000Y-87772000D01*
X192132000Y-87792000D01*
X192089000Y-87810000D01*
X192044000Y-87826000D01*
X191999000Y-87839000D01*
X191953000Y-87850000D01*
X191907000Y-87859000D01*
X191860000Y-87865000D01*
X191813000Y-87869000D01*
X191766000Y-87870000D01*
X191719000Y-87869000D01*
X191672000Y-87865000D01*
X191625000Y-87859000D01*
X191579000Y-87850000D01*
X191533000Y-87839000D01*
X191488000Y-87826000D01*
X191443000Y-87810000D01*
X191400000Y-87792000D01*
X191357000Y-87772000D01*
X191316000Y-87749000D01*
X191276000Y-87725000D01*
X191237000Y-87698000D01*
X191200000Y-87669000D01*
X191164000Y-87639000D01*
X191130000Y-87606000D01*
X191097000Y-87572000D01*
X191067000Y-87536000D01*
X191038000Y-87499000D01*
X191011000Y-87460000D01*
X190987000Y-87420000D01*
X190964000Y-87379000D01*
X190944000Y-87336000D01*
X190926000Y-87293000D01*
X190910000Y-87248000D01*
X190897000Y-87203000D01*
X190886000Y-87157000D01*
X190877000Y-87111000D01*
X190871000Y-87064000D01*
X190867000Y-87017000D01*
X190866000Y-86970000D01*
X190866000Y-84470000D01*
X192666000Y-84470000D01*
X192666000Y-86970000D01*
G36*
X192666000Y-86970000D02*
G01*
X192665000Y-87017000D01*
X192661000Y-87064000D01*
X192655000Y-87111000D01*
X192646000Y-87157000D01*
X192635000Y-87203000D01*
X192622000Y-87248000D01*
X192606000Y-87293000D01*
X192588000Y-87336000D01*
X192568000Y-87379000D01*
X192545000Y-87420000D01*
X192521000Y-87460000D01*
X192494000Y-87499000D01*
X192465000Y-87536000D01*
X192435000Y-87572000D01*
X192402000Y-87606000D01*
X192368000Y-87639000D01*
X192332000Y-87669000D01*
X192295000Y-87698000D01*
X192256000Y-87725000D01*
X192216000Y-87749000D01*
X192175000Y-87772000D01*
X192132000Y-87792000D01*
X192089000Y-87810000D01*
X192044000Y-87826000D01*
X191999000Y-87839000D01*
X191953000Y-87850000D01*
X191907000Y-87859000D01*
X191860000Y-87865000D01*
X191813000Y-87869000D01*
X191766000Y-87870000D01*
X191719000Y-87869000D01*
X191672000Y-87865000D01*
X191625000Y-87859000D01*
X191579000Y-87850000D01*
X191533000Y-87839000D01*
X191488000Y-87826000D01*
X191443000Y-87810000D01*
X191400000Y-87792000D01*
X191357000Y-87772000D01*
X191316000Y-87749000D01*
X191276000Y-87725000D01*
X191237000Y-87698000D01*
X191200000Y-87669000D01*
X191164000Y-87639000D01*
X191130000Y-87606000D01*
X191097000Y-87572000D01*
X191067000Y-87536000D01*
X191038000Y-87499000D01*
X191011000Y-87460000D01*
X190987000Y-87420000D01*
X190964000Y-87379000D01*
X190944000Y-87336000D01*
X190926000Y-87293000D01*
X190910000Y-87248000D01*
X190897000Y-87203000D01*
X190886000Y-87157000D01*
X190877000Y-87111000D01*
X190871000Y-87064000D01*
X190867000Y-87017000D01*
X190866000Y-86970000D01*
X190866000Y-84470000D01*
X192666000Y-84470000D01*
X192666000Y-86970000D01*
G37*
X191813000Y-103851000D02*
X191860000Y-103855000D01*
X191907000Y-103861000D01*
X191953000Y-103870000D01*
X191999000Y-103881000D01*
X192044000Y-103894000D01*
X192089000Y-103910000D01*
X192132000Y-103928000D01*
X192175000Y-103948000D01*
X192216000Y-103971000D01*
X192256000Y-103995000D01*
X192295000Y-104022000D01*
X192332000Y-104051000D01*
X192368000Y-104081000D01*
X192402000Y-104114000D01*
X192435000Y-104148000D01*
X192465000Y-104184000D01*
X192494000Y-104221000D01*
X192521000Y-104260000D01*
X192545000Y-104300000D01*
X192568000Y-104341000D01*
X192588000Y-104384000D01*
X192606000Y-104427000D01*
X192622000Y-104472000D01*
X192635000Y-104517000D01*
X192646000Y-104563000D01*
X192655000Y-104609000D01*
X192661000Y-104656000D01*
X192665000Y-104703000D01*
X192666000Y-104750000D01*
X192666000Y-107250000D01*
X190866000Y-107250000D01*
X190866000Y-104750000D01*
X190867000Y-104703000D01*
X190871000Y-104656000D01*
X190877000Y-104609000D01*
X190886000Y-104563000D01*
X190897000Y-104517000D01*
X190910000Y-104472000D01*
X190926000Y-104427000D01*
X190944000Y-104384000D01*
X190964000Y-104341000D01*
X190987000Y-104300000D01*
X191011000Y-104260000D01*
X191038000Y-104221000D01*
X191067000Y-104184000D01*
X191097000Y-104148000D01*
X191130000Y-104114000D01*
X191164000Y-104081000D01*
X191200000Y-104051000D01*
X191237000Y-104022000D01*
X191276000Y-103995000D01*
X191316000Y-103971000D01*
X191357000Y-103948000D01*
X191400000Y-103928000D01*
X191443000Y-103910000D01*
X191488000Y-103894000D01*
X191533000Y-103881000D01*
X191579000Y-103870000D01*
X191625000Y-103861000D01*
X191672000Y-103855000D01*
X191719000Y-103851000D01*
X191766000Y-103850000D01*
X191813000Y-103851000D01*
G36*
X191813000Y-103851000D02*
G01*
X191860000Y-103855000D01*
X191907000Y-103861000D01*
X191953000Y-103870000D01*
X191999000Y-103881000D01*
X192044000Y-103894000D01*
X192089000Y-103910000D01*
X192132000Y-103928000D01*
X192175000Y-103948000D01*
X192216000Y-103971000D01*
X192256000Y-103995000D01*
X192295000Y-104022000D01*
X192332000Y-104051000D01*
X192368000Y-104081000D01*
X192402000Y-104114000D01*
X192435000Y-104148000D01*
X192465000Y-104184000D01*
X192494000Y-104221000D01*
X192521000Y-104260000D01*
X192545000Y-104300000D01*
X192568000Y-104341000D01*
X192588000Y-104384000D01*
X192606000Y-104427000D01*
X192622000Y-104472000D01*
X192635000Y-104517000D01*
X192646000Y-104563000D01*
X192655000Y-104609000D01*
X192661000Y-104656000D01*
X192665000Y-104703000D01*
X192666000Y-104750000D01*
X192666000Y-107250000D01*
X190866000Y-107250000D01*
X190866000Y-104750000D01*
X190867000Y-104703000D01*
X190871000Y-104656000D01*
X190877000Y-104609000D01*
X190886000Y-104563000D01*
X190897000Y-104517000D01*
X190910000Y-104472000D01*
X190926000Y-104427000D01*
X190944000Y-104384000D01*
X190964000Y-104341000D01*
X190987000Y-104300000D01*
X191011000Y-104260000D01*
X191038000Y-104221000D01*
X191067000Y-104184000D01*
X191097000Y-104148000D01*
X191130000Y-104114000D01*
X191164000Y-104081000D01*
X191200000Y-104051000D01*
X191237000Y-104022000D01*
X191276000Y-103995000D01*
X191316000Y-103971000D01*
X191357000Y-103948000D01*
X191400000Y-103928000D01*
X191443000Y-103910000D01*
X191488000Y-103894000D01*
X191533000Y-103881000D01*
X191579000Y-103870000D01*
X191625000Y-103861000D01*
X191672000Y-103855000D01*
X191719000Y-103851000D01*
X191766000Y-103850000D01*
X191813000Y-103851000D01*
G37*
X195206000Y-86970000D02*
X195205000Y-87017000D01*
X195201000Y-87064000D01*
X195195000Y-87111000D01*
X195186000Y-87157000D01*
X195175000Y-87203000D01*
X195162000Y-87248000D01*
X195146000Y-87293000D01*
X195128000Y-87336000D01*
X195108000Y-87379000D01*
X195085000Y-87420000D01*
X195061000Y-87460000D01*
X195034000Y-87499000D01*
X195005000Y-87536000D01*
X194975000Y-87572000D01*
X194942000Y-87606000D01*
X194908000Y-87639000D01*
X194872000Y-87669000D01*
X194835000Y-87698000D01*
X194796000Y-87725000D01*
X194756000Y-87749000D01*
X194715000Y-87772000D01*
X194672000Y-87792000D01*
X194629000Y-87810000D01*
X194584000Y-87826000D01*
X194539000Y-87839000D01*
X194493000Y-87850000D01*
X194447000Y-87859000D01*
X194400000Y-87865000D01*
X194353000Y-87869000D01*
X194306000Y-87870000D01*
X194259000Y-87869000D01*
X194212000Y-87865000D01*
X194165000Y-87859000D01*
X194119000Y-87850000D01*
X194073000Y-87839000D01*
X194028000Y-87826000D01*
X193983000Y-87810000D01*
X193940000Y-87792000D01*
X193897000Y-87772000D01*
X193856000Y-87749000D01*
X193816000Y-87725000D01*
X193777000Y-87698000D01*
X193740000Y-87669000D01*
X193704000Y-87639000D01*
X193670000Y-87606000D01*
X193637000Y-87572000D01*
X193607000Y-87536000D01*
X193578000Y-87499000D01*
X193551000Y-87460000D01*
X193527000Y-87420000D01*
X193504000Y-87379000D01*
X193484000Y-87336000D01*
X193466000Y-87293000D01*
X193450000Y-87248000D01*
X193437000Y-87203000D01*
X193426000Y-87157000D01*
X193417000Y-87111000D01*
X193411000Y-87064000D01*
X193407000Y-87017000D01*
X193406000Y-86970000D01*
X193406000Y-84470000D01*
X195206000Y-84470000D01*
X195206000Y-86970000D01*
G36*
X195206000Y-86970000D02*
G01*
X195205000Y-87017000D01*
X195201000Y-87064000D01*
X195195000Y-87111000D01*
X195186000Y-87157000D01*
X195175000Y-87203000D01*
X195162000Y-87248000D01*
X195146000Y-87293000D01*
X195128000Y-87336000D01*
X195108000Y-87379000D01*
X195085000Y-87420000D01*
X195061000Y-87460000D01*
X195034000Y-87499000D01*
X195005000Y-87536000D01*
X194975000Y-87572000D01*
X194942000Y-87606000D01*
X194908000Y-87639000D01*
X194872000Y-87669000D01*
X194835000Y-87698000D01*
X194796000Y-87725000D01*
X194756000Y-87749000D01*
X194715000Y-87772000D01*
X194672000Y-87792000D01*
X194629000Y-87810000D01*
X194584000Y-87826000D01*
X194539000Y-87839000D01*
X194493000Y-87850000D01*
X194447000Y-87859000D01*
X194400000Y-87865000D01*
X194353000Y-87869000D01*
X194306000Y-87870000D01*
X194259000Y-87869000D01*
X194212000Y-87865000D01*
X194165000Y-87859000D01*
X194119000Y-87850000D01*
X194073000Y-87839000D01*
X194028000Y-87826000D01*
X193983000Y-87810000D01*
X193940000Y-87792000D01*
X193897000Y-87772000D01*
X193856000Y-87749000D01*
X193816000Y-87725000D01*
X193777000Y-87698000D01*
X193740000Y-87669000D01*
X193704000Y-87639000D01*
X193670000Y-87606000D01*
X193637000Y-87572000D01*
X193607000Y-87536000D01*
X193578000Y-87499000D01*
X193551000Y-87460000D01*
X193527000Y-87420000D01*
X193504000Y-87379000D01*
X193484000Y-87336000D01*
X193466000Y-87293000D01*
X193450000Y-87248000D01*
X193437000Y-87203000D01*
X193426000Y-87157000D01*
X193417000Y-87111000D01*
X193411000Y-87064000D01*
X193407000Y-87017000D01*
X193406000Y-86970000D01*
X193406000Y-84470000D01*
X195206000Y-84470000D01*
X195206000Y-86970000D01*
G37*
X194353000Y-103851000D02*
X194400000Y-103855000D01*
X194447000Y-103861000D01*
X194493000Y-103870000D01*
X194539000Y-103881000D01*
X194584000Y-103894000D01*
X194629000Y-103910000D01*
X194672000Y-103928000D01*
X194715000Y-103948000D01*
X194756000Y-103971000D01*
X194796000Y-103995000D01*
X194835000Y-104022000D01*
X194872000Y-104051000D01*
X194908000Y-104081000D01*
X194942000Y-104114000D01*
X194975000Y-104148000D01*
X195005000Y-104184000D01*
X195034000Y-104221000D01*
X195061000Y-104260000D01*
X195085000Y-104300000D01*
X195108000Y-104341000D01*
X195128000Y-104384000D01*
X195146000Y-104427000D01*
X195162000Y-104472000D01*
X195175000Y-104517000D01*
X195186000Y-104563000D01*
X195195000Y-104609000D01*
X195201000Y-104656000D01*
X195205000Y-104703000D01*
X195206000Y-104750000D01*
X195206000Y-107250000D01*
X193406000Y-107250000D01*
X193406000Y-104750000D01*
X193407000Y-104703000D01*
X193411000Y-104656000D01*
X193417000Y-104609000D01*
X193426000Y-104563000D01*
X193437000Y-104517000D01*
X193450000Y-104472000D01*
X193466000Y-104427000D01*
X193484000Y-104384000D01*
X193504000Y-104341000D01*
X193527000Y-104300000D01*
X193551000Y-104260000D01*
X193578000Y-104221000D01*
X193607000Y-104184000D01*
X193637000Y-104148000D01*
X193670000Y-104114000D01*
X193704000Y-104081000D01*
X193740000Y-104051000D01*
X193777000Y-104022000D01*
X193816000Y-103995000D01*
X193856000Y-103971000D01*
X193897000Y-103948000D01*
X193940000Y-103928000D01*
X193983000Y-103910000D01*
X194028000Y-103894000D01*
X194073000Y-103881000D01*
X194119000Y-103870000D01*
X194165000Y-103861000D01*
X194212000Y-103855000D01*
X194259000Y-103851000D01*
X194306000Y-103850000D01*
X194353000Y-103851000D01*
G36*
X194353000Y-103851000D02*
G01*
X194400000Y-103855000D01*
X194447000Y-103861000D01*
X194493000Y-103870000D01*
X194539000Y-103881000D01*
X194584000Y-103894000D01*
X194629000Y-103910000D01*
X194672000Y-103928000D01*
X194715000Y-103948000D01*
X194756000Y-103971000D01*
X194796000Y-103995000D01*
X194835000Y-104022000D01*
X194872000Y-104051000D01*
X194908000Y-104081000D01*
X194942000Y-104114000D01*
X194975000Y-104148000D01*
X195005000Y-104184000D01*
X195034000Y-104221000D01*
X195061000Y-104260000D01*
X195085000Y-104300000D01*
X195108000Y-104341000D01*
X195128000Y-104384000D01*
X195146000Y-104427000D01*
X195162000Y-104472000D01*
X195175000Y-104517000D01*
X195186000Y-104563000D01*
X195195000Y-104609000D01*
X195201000Y-104656000D01*
X195205000Y-104703000D01*
X195206000Y-104750000D01*
X195206000Y-107250000D01*
X193406000Y-107250000D01*
X193406000Y-104750000D01*
X193407000Y-104703000D01*
X193411000Y-104656000D01*
X193417000Y-104609000D01*
X193426000Y-104563000D01*
X193437000Y-104517000D01*
X193450000Y-104472000D01*
X193466000Y-104427000D01*
X193484000Y-104384000D01*
X193504000Y-104341000D01*
X193527000Y-104300000D01*
X193551000Y-104260000D01*
X193578000Y-104221000D01*
X193607000Y-104184000D01*
X193637000Y-104148000D01*
X193670000Y-104114000D01*
X193704000Y-104081000D01*
X193740000Y-104051000D01*
X193777000Y-104022000D01*
X193816000Y-103995000D01*
X193856000Y-103971000D01*
X193897000Y-103948000D01*
X193940000Y-103928000D01*
X193983000Y-103910000D01*
X194028000Y-103894000D01*
X194073000Y-103881000D01*
X194119000Y-103870000D01*
X194165000Y-103861000D01*
X194212000Y-103855000D01*
X194259000Y-103851000D01*
X194306000Y-103850000D01*
X194353000Y-103851000D01*
G37*
X197746000Y-86970000D02*
X197745000Y-87017000D01*
X197741000Y-87064000D01*
X197735000Y-87111000D01*
X197726000Y-87157000D01*
X197715000Y-87203000D01*
X197702000Y-87248000D01*
X197686000Y-87293000D01*
X197668000Y-87336000D01*
X197648000Y-87379000D01*
X197625000Y-87420000D01*
X197601000Y-87460000D01*
X197574000Y-87499000D01*
X197545000Y-87536000D01*
X197515000Y-87572000D01*
X197482000Y-87606000D01*
X197448000Y-87639000D01*
X197412000Y-87669000D01*
X197375000Y-87698000D01*
X197336000Y-87725000D01*
X197296000Y-87749000D01*
X197255000Y-87772000D01*
X197212000Y-87792000D01*
X197169000Y-87810000D01*
X197124000Y-87826000D01*
X197079000Y-87839000D01*
X197033000Y-87850000D01*
X196987000Y-87859000D01*
X196940000Y-87865000D01*
X196893000Y-87869000D01*
X196846000Y-87870000D01*
X196799000Y-87869000D01*
X196752000Y-87865000D01*
X196705000Y-87859000D01*
X196659000Y-87850000D01*
X196613000Y-87839000D01*
X196568000Y-87826000D01*
X196523000Y-87810000D01*
X196480000Y-87792000D01*
X196437000Y-87772000D01*
X196396000Y-87749000D01*
X196356000Y-87725000D01*
X196317000Y-87698000D01*
X196280000Y-87669000D01*
X196244000Y-87639000D01*
X196210000Y-87606000D01*
X196177000Y-87572000D01*
X196147000Y-87536000D01*
X196118000Y-87499000D01*
X196091000Y-87460000D01*
X196067000Y-87420000D01*
X196044000Y-87379000D01*
X196024000Y-87336000D01*
X196006000Y-87293000D01*
X195990000Y-87248000D01*
X195977000Y-87203000D01*
X195966000Y-87157000D01*
X195957000Y-87111000D01*
X195951000Y-87064000D01*
X195947000Y-87017000D01*
X195946000Y-86970000D01*
X195946000Y-84470000D01*
X197746000Y-84470000D01*
X197746000Y-86970000D01*
G36*
X197746000Y-86970000D02*
G01*
X197745000Y-87017000D01*
X197741000Y-87064000D01*
X197735000Y-87111000D01*
X197726000Y-87157000D01*
X197715000Y-87203000D01*
X197702000Y-87248000D01*
X197686000Y-87293000D01*
X197668000Y-87336000D01*
X197648000Y-87379000D01*
X197625000Y-87420000D01*
X197601000Y-87460000D01*
X197574000Y-87499000D01*
X197545000Y-87536000D01*
X197515000Y-87572000D01*
X197482000Y-87606000D01*
X197448000Y-87639000D01*
X197412000Y-87669000D01*
X197375000Y-87698000D01*
X197336000Y-87725000D01*
X197296000Y-87749000D01*
X197255000Y-87772000D01*
X197212000Y-87792000D01*
X197169000Y-87810000D01*
X197124000Y-87826000D01*
X197079000Y-87839000D01*
X197033000Y-87850000D01*
X196987000Y-87859000D01*
X196940000Y-87865000D01*
X196893000Y-87869000D01*
X196846000Y-87870000D01*
X196799000Y-87869000D01*
X196752000Y-87865000D01*
X196705000Y-87859000D01*
X196659000Y-87850000D01*
X196613000Y-87839000D01*
X196568000Y-87826000D01*
X196523000Y-87810000D01*
X196480000Y-87792000D01*
X196437000Y-87772000D01*
X196396000Y-87749000D01*
X196356000Y-87725000D01*
X196317000Y-87698000D01*
X196280000Y-87669000D01*
X196244000Y-87639000D01*
X196210000Y-87606000D01*
X196177000Y-87572000D01*
X196147000Y-87536000D01*
X196118000Y-87499000D01*
X196091000Y-87460000D01*
X196067000Y-87420000D01*
X196044000Y-87379000D01*
X196024000Y-87336000D01*
X196006000Y-87293000D01*
X195990000Y-87248000D01*
X195977000Y-87203000D01*
X195966000Y-87157000D01*
X195957000Y-87111000D01*
X195951000Y-87064000D01*
X195947000Y-87017000D01*
X195946000Y-86970000D01*
X195946000Y-84470000D01*
X197746000Y-84470000D01*
X197746000Y-86970000D01*
G37*
X196893000Y-103851000D02*
X196940000Y-103855000D01*
X196987000Y-103861000D01*
X197033000Y-103870000D01*
X197079000Y-103881000D01*
X197124000Y-103894000D01*
X197169000Y-103910000D01*
X197212000Y-103928000D01*
X197255000Y-103948000D01*
X197296000Y-103971000D01*
X197336000Y-103995000D01*
X197375000Y-104022000D01*
X197412000Y-104051000D01*
X197448000Y-104081000D01*
X197482000Y-104114000D01*
X197515000Y-104148000D01*
X197545000Y-104184000D01*
X197574000Y-104221000D01*
X197601000Y-104260000D01*
X197625000Y-104300000D01*
X197648000Y-104341000D01*
X197668000Y-104384000D01*
X197686000Y-104427000D01*
X197702000Y-104472000D01*
X197715000Y-104517000D01*
X197726000Y-104563000D01*
X197735000Y-104609000D01*
X197741000Y-104656000D01*
X197745000Y-104703000D01*
X197746000Y-104750000D01*
X197746000Y-107250000D01*
X195946000Y-107250000D01*
X195946000Y-104750000D01*
X195947000Y-104703000D01*
X195951000Y-104656000D01*
X195957000Y-104609000D01*
X195966000Y-104563000D01*
X195977000Y-104517000D01*
X195990000Y-104472000D01*
X196006000Y-104427000D01*
X196024000Y-104384000D01*
X196044000Y-104341000D01*
X196067000Y-104300000D01*
X196091000Y-104260000D01*
X196118000Y-104221000D01*
X196147000Y-104184000D01*
X196177000Y-104148000D01*
X196210000Y-104114000D01*
X196244000Y-104081000D01*
X196280000Y-104051000D01*
X196317000Y-104022000D01*
X196356000Y-103995000D01*
X196396000Y-103971000D01*
X196437000Y-103948000D01*
X196480000Y-103928000D01*
X196523000Y-103910000D01*
X196568000Y-103894000D01*
X196613000Y-103881000D01*
X196659000Y-103870000D01*
X196705000Y-103861000D01*
X196752000Y-103855000D01*
X196799000Y-103851000D01*
X196846000Y-103850000D01*
X196893000Y-103851000D01*
G36*
X196893000Y-103851000D02*
G01*
X196940000Y-103855000D01*
X196987000Y-103861000D01*
X197033000Y-103870000D01*
X197079000Y-103881000D01*
X197124000Y-103894000D01*
X197169000Y-103910000D01*
X197212000Y-103928000D01*
X197255000Y-103948000D01*
X197296000Y-103971000D01*
X197336000Y-103995000D01*
X197375000Y-104022000D01*
X197412000Y-104051000D01*
X197448000Y-104081000D01*
X197482000Y-104114000D01*
X197515000Y-104148000D01*
X197545000Y-104184000D01*
X197574000Y-104221000D01*
X197601000Y-104260000D01*
X197625000Y-104300000D01*
X197648000Y-104341000D01*
X197668000Y-104384000D01*
X197686000Y-104427000D01*
X197702000Y-104472000D01*
X197715000Y-104517000D01*
X197726000Y-104563000D01*
X197735000Y-104609000D01*
X197741000Y-104656000D01*
X197745000Y-104703000D01*
X197746000Y-104750000D01*
X197746000Y-107250000D01*
X195946000Y-107250000D01*
X195946000Y-104750000D01*
X195947000Y-104703000D01*
X195951000Y-104656000D01*
X195957000Y-104609000D01*
X195966000Y-104563000D01*
X195977000Y-104517000D01*
X195990000Y-104472000D01*
X196006000Y-104427000D01*
X196024000Y-104384000D01*
X196044000Y-104341000D01*
X196067000Y-104300000D01*
X196091000Y-104260000D01*
X196118000Y-104221000D01*
X196147000Y-104184000D01*
X196177000Y-104148000D01*
X196210000Y-104114000D01*
X196244000Y-104081000D01*
X196280000Y-104051000D01*
X196317000Y-104022000D01*
X196356000Y-103995000D01*
X196396000Y-103971000D01*
X196437000Y-103948000D01*
X196480000Y-103928000D01*
X196523000Y-103910000D01*
X196568000Y-103894000D01*
X196613000Y-103881000D01*
X196659000Y-103870000D01*
X196705000Y-103861000D01*
X196752000Y-103855000D01*
X196799000Y-103851000D01*
X196846000Y-103850000D01*
X196893000Y-103851000D01*
G37*
X202826000Y-86970000D02*
X202825000Y-87017000D01*
X202821000Y-87064000D01*
X202815000Y-87111000D01*
X202806000Y-87157000D01*
X202795000Y-87203000D01*
X202782000Y-87248000D01*
X202766000Y-87293000D01*
X202748000Y-87336000D01*
X202728000Y-87379000D01*
X202705000Y-87420000D01*
X202681000Y-87460000D01*
X202654000Y-87499000D01*
X202625000Y-87536000D01*
X202595000Y-87572000D01*
X202562000Y-87606000D01*
X202528000Y-87639000D01*
X202492000Y-87669000D01*
X202455000Y-87698000D01*
X202416000Y-87725000D01*
X202376000Y-87749000D01*
X202335000Y-87772000D01*
X202292000Y-87792000D01*
X202249000Y-87810000D01*
X202204000Y-87826000D01*
X202159000Y-87839000D01*
X202113000Y-87850000D01*
X202067000Y-87859000D01*
X202020000Y-87865000D01*
X201973000Y-87869000D01*
X201926000Y-87870000D01*
X201879000Y-87869000D01*
X201832000Y-87865000D01*
X201785000Y-87859000D01*
X201739000Y-87850000D01*
X201693000Y-87839000D01*
X201648000Y-87826000D01*
X201603000Y-87810000D01*
X201560000Y-87792000D01*
X201517000Y-87772000D01*
X201476000Y-87749000D01*
X201436000Y-87725000D01*
X201397000Y-87698000D01*
X201360000Y-87669000D01*
X201324000Y-87639000D01*
X201290000Y-87606000D01*
X201257000Y-87572000D01*
X201227000Y-87536000D01*
X201198000Y-87499000D01*
X201171000Y-87460000D01*
X201147000Y-87420000D01*
X201124000Y-87379000D01*
X201104000Y-87336000D01*
X201086000Y-87293000D01*
X201070000Y-87248000D01*
X201057000Y-87203000D01*
X201046000Y-87157000D01*
X201037000Y-87111000D01*
X201031000Y-87064000D01*
X201027000Y-87017000D01*
X201026000Y-86970000D01*
X201026000Y-84470000D01*
X202826000Y-84470000D01*
X202826000Y-86970000D01*
G36*
X202826000Y-86970000D02*
G01*
X202825000Y-87017000D01*
X202821000Y-87064000D01*
X202815000Y-87111000D01*
X202806000Y-87157000D01*
X202795000Y-87203000D01*
X202782000Y-87248000D01*
X202766000Y-87293000D01*
X202748000Y-87336000D01*
X202728000Y-87379000D01*
X202705000Y-87420000D01*
X202681000Y-87460000D01*
X202654000Y-87499000D01*
X202625000Y-87536000D01*
X202595000Y-87572000D01*
X202562000Y-87606000D01*
X202528000Y-87639000D01*
X202492000Y-87669000D01*
X202455000Y-87698000D01*
X202416000Y-87725000D01*
X202376000Y-87749000D01*
X202335000Y-87772000D01*
X202292000Y-87792000D01*
X202249000Y-87810000D01*
X202204000Y-87826000D01*
X202159000Y-87839000D01*
X202113000Y-87850000D01*
X202067000Y-87859000D01*
X202020000Y-87865000D01*
X201973000Y-87869000D01*
X201926000Y-87870000D01*
X201879000Y-87869000D01*
X201832000Y-87865000D01*
X201785000Y-87859000D01*
X201739000Y-87850000D01*
X201693000Y-87839000D01*
X201648000Y-87826000D01*
X201603000Y-87810000D01*
X201560000Y-87792000D01*
X201517000Y-87772000D01*
X201476000Y-87749000D01*
X201436000Y-87725000D01*
X201397000Y-87698000D01*
X201360000Y-87669000D01*
X201324000Y-87639000D01*
X201290000Y-87606000D01*
X201257000Y-87572000D01*
X201227000Y-87536000D01*
X201198000Y-87499000D01*
X201171000Y-87460000D01*
X201147000Y-87420000D01*
X201124000Y-87379000D01*
X201104000Y-87336000D01*
X201086000Y-87293000D01*
X201070000Y-87248000D01*
X201057000Y-87203000D01*
X201046000Y-87157000D01*
X201037000Y-87111000D01*
X201031000Y-87064000D01*
X201027000Y-87017000D01*
X201026000Y-86970000D01*
X201026000Y-84470000D01*
X202826000Y-84470000D01*
X202826000Y-86970000D01*
G37*
X201973000Y-103851000D02*
X202020000Y-103855000D01*
X202067000Y-103861000D01*
X202113000Y-103870000D01*
X202159000Y-103881000D01*
X202204000Y-103894000D01*
X202249000Y-103910000D01*
X202292000Y-103928000D01*
X202335000Y-103948000D01*
X202376000Y-103971000D01*
X202416000Y-103995000D01*
X202455000Y-104022000D01*
X202492000Y-104051000D01*
X202528000Y-104081000D01*
X202562000Y-104114000D01*
X202595000Y-104148000D01*
X202625000Y-104184000D01*
X202654000Y-104221000D01*
X202681000Y-104260000D01*
X202705000Y-104300000D01*
X202728000Y-104341000D01*
X202748000Y-104384000D01*
X202766000Y-104427000D01*
X202782000Y-104472000D01*
X202795000Y-104517000D01*
X202806000Y-104563000D01*
X202815000Y-104609000D01*
X202821000Y-104656000D01*
X202825000Y-104703000D01*
X202826000Y-104750000D01*
X202826000Y-107250000D01*
X201026000Y-107250000D01*
X201026000Y-104750000D01*
X201027000Y-104703000D01*
X201031000Y-104656000D01*
X201037000Y-104609000D01*
X201046000Y-104563000D01*
X201057000Y-104517000D01*
X201070000Y-104472000D01*
X201086000Y-104427000D01*
X201104000Y-104384000D01*
X201124000Y-104341000D01*
X201147000Y-104300000D01*
X201171000Y-104260000D01*
X201198000Y-104221000D01*
X201227000Y-104184000D01*
X201257000Y-104148000D01*
X201290000Y-104114000D01*
X201324000Y-104081000D01*
X201360000Y-104051000D01*
X201397000Y-104022000D01*
X201436000Y-103995000D01*
X201476000Y-103971000D01*
X201517000Y-103948000D01*
X201560000Y-103928000D01*
X201603000Y-103910000D01*
X201648000Y-103894000D01*
X201693000Y-103881000D01*
X201739000Y-103870000D01*
X201785000Y-103861000D01*
X201832000Y-103855000D01*
X201879000Y-103851000D01*
X201926000Y-103850000D01*
X201973000Y-103851000D01*
G36*
X201973000Y-103851000D02*
G01*
X202020000Y-103855000D01*
X202067000Y-103861000D01*
X202113000Y-103870000D01*
X202159000Y-103881000D01*
X202204000Y-103894000D01*
X202249000Y-103910000D01*
X202292000Y-103928000D01*
X202335000Y-103948000D01*
X202376000Y-103971000D01*
X202416000Y-103995000D01*
X202455000Y-104022000D01*
X202492000Y-104051000D01*
X202528000Y-104081000D01*
X202562000Y-104114000D01*
X202595000Y-104148000D01*
X202625000Y-104184000D01*
X202654000Y-104221000D01*
X202681000Y-104260000D01*
X202705000Y-104300000D01*
X202728000Y-104341000D01*
X202748000Y-104384000D01*
X202766000Y-104427000D01*
X202782000Y-104472000D01*
X202795000Y-104517000D01*
X202806000Y-104563000D01*
X202815000Y-104609000D01*
X202821000Y-104656000D01*
X202825000Y-104703000D01*
X202826000Y-104750000D01*
X202826000Y-107250000D01*
X201026000Y-107250000D01*
X201026000Y-104750000D01*
X201027000Y-104703000D01*
X201031000Y-104656000D01*
X201037000Y-104609000D01*
X201046000Y-104563000D01*
X201057000Y-104517000D01*
X201070000Y-104472000D01*
X201086000Y-104427000D01*
X201104000Y-104384000D01*
X201124000Y-104341000D01*
X201147000Y-104300000D01*
X201171000Y-104260000D01*
X201198000Y-104221000D01*
X201227000Y-104184000D01*
X201257000Y-104148000D01*
X201290000Y-104114000D01*
X201324000Y-104081000D01*
X201360000Y-104051000D01*
X201397000Y-104022000D01*
X201436000Y-103995000D01*
X201476000Y-103971000D01*
X201517000Y-103948000D01*
X201560000Y-103928000D01*
X201603000Y-103910000D01*
X201648000Y-103894000D01*
X201693000Y-103881000D01*
X201739000Y-103870000D01*
X201785000Y-103861000D01*
X201832000Y-103855000D01*
X201879000Y-103851000D01*
X201926000Y-103850000D01*
X201973000Y-103851000D01*
G37*
X205366000Y-86970000D02*
X205365000Y-87017000D01*
X205361000Y-87064000D01*
X205355000Y-87111000D01*
X205346000Y-87157000D01*
X205335000Y-87203000D01*
X205322000Y-87248000D01*
X205306000Y-87293000D01*
X205288000Y-87336000D01*
X205268000Y-87379000D01*
X205245000Y-87420000D01*
X205221000Y-87460000D01*
X205194000Y-87499000D01*
X205165000Y-87536000D01*
X205135000Y-87572000D01*
X205102000Y-87606000D01*
X205068000Y-87639000D01*
X205032000Y-87669000D01*
X204995000Y-87698000D01*
X204956000Y-87725000D01*
X204916000Y-87749000D01*
X204875000Y-87772000D01*
X204832000Y-87792000D01*
X204789000Y-87810000D01*
X204744000Y-87826000D01*
X204699000Y-87839000D01*
X204653000Y-87850000D01*
X204607000Y-87859000D01*
X204560000Y-87865000D01*
X204513000Y-87869000D01*
X204466000Y-87870000D01*
X204419000Y-87869000D01*
X204372000Y-87865000D01*
X204325000Y-87859000D01*
X204279000Y-87850000D01*
X204233000Y-87839000D01*
X204188000Y-87826000D01*
X204143000Y-87810000D01*
X204100000Y-87792000D01*
X204057000Y-87772000D01*
X204016000Y-87749000D01*
X203976000Y-87725000D01*
X203937000Y-87698000D01*
X203900000Y-87669000D01*
X203864000Y-87639000D01*
X203830000Y-87606000D01*
X203797000Y-87572000D01*
X203767000Y-87536000D01*
X203738000Y-87499000D01*
X203711000Y-87460000D01*
X203687000Y-87420000D01*
X203664000Y-87379000D01*
X203644000Y-87336000D01*
X203626000Y-87293000D01*
X203610000Y-87248000D01*
X203597000Y-87203000D01*
X203586000Y-87157000D01*
X203577000Y-87111000D01*
X203571000Y-87064000D01*
X203567000Y-87017000D01*
X203566000Y-86970000D01*
X203566000Y-84470000D01*
X205366000Y-84470000D01*
X205366000Y-86970000D01*
G36*
X205366000Y-86970000D02*
G01*
X205365000Y-87017000D01*
X205361000Y-87064000D01*
X205355000Y-87111000D01*
X205346000Y-87157000D01*
X205335000Y-87203000D01*
X205322000Y-87248000D01*
X205306000Y-87293000D01*
X205288000Y-87336000D01*
X205268000Y-87379000D01*
X205245000Y-87420000D01*
X205221000Y-87460000D01*
X205194000Y-87499000D01*
X205165000Y-87536000D01*
X205135000Y-87572000D01*
X205102000Y-87606000D01*
X205068000Y-87639000D01*
X205032000Y-87669000D01*
X204995000Y-87698000D01*
X204956000Y-87725000D01*
X204916000Y-87749000D01*
X204875000Y-87772000D01*
X204832000Y-87792000D01*
X204789000Y-87810000D01*
X204744000Y-87826000D01*
X204699000Y-87839000D01*
X204653000Y-87850000D01*
X204607000Y-87859000D01*
X204560000Y-87865000D01*
X204513000Y-87869000D01*
X204466000Y-87870000D01*
X204419000Y-87869000D01*
X204372000Y-87865000D01*
X204325000Y-87859000D01*
X204279000Y-87850000D01*
X204233000Y-87839000D01*
X204188000Y-87826000D01*
X204143000Y-87810000D01*
X204100000Y-87792000D01*
X204057000Y-87772000D01*
X204016000Y-87749000D01*
X203976000Y-87725000D01*
X203937000Y-87698000D01*
X203900000Y-87669000D01*
X203864000Y-87639000D01*
X203830000Y-87606000D01*
X203797000Y-87572000D01*
X203767000Y-87536000D01*
X203738000Y-87499000D01*
X203711000Y-87460000D01*
X203687000Y-87420000D01*
X203664000Y-87379000D01*
X203644000Y-87336000D01*
X203626000Y-87293000D01*
X203610000Y-87248000D01*
X203597000Y-87203000D01*
X203586000Y-87157000D01*
X203577000Y-87111000D01*
X203571000Y-87064000D01*
X203567000Y-87017000D01*
X203566000Y-86970000D01*
X203566000Y-84470000D01*
X205366000Y-84470000D01*
X205366000Y-86970000D01*
G37*
X204513000Y-103851000D02*
X204560000Y-103855000D01*
X204607000Y-103861000D01*
X204653000Y-103870000D01*
X204699000Y-103881000D01*
X204744000Y-103894000D01*
X204789000Y-103910000D01*
X204832000Y-103928000D01*
X204875000Y-103948000D01*
X204916000Y-103971000D01*
X204956000Y-103995000D01*
X204995000Y-104022000D01*
X205032000Y-104051000D01*
X205068000Y-104081000D01*
X205102000Y-104114000D01*
X205135000Y-104148000D01*
X205165000Y-104184000D01*
X205194000Y-104221000D01*
X205221000Y-104260000D01*
X205245000Y-104300000D01*
X205268000Y-104341000D01*
X205288000Y-104384000D01*
X205306000Y-104427000D01*
X205322000Y-104472000D01*
X205335000Y-104517000D01*
X205346000Y-104563000D01*
X205355000Y-104609000D01*
X205361000Y-104656000D01*
X205365000Y-104703000D01*
X205366000Y-104750000D01*
X205366000Y-107250000D01*
X203566000Y-107250000D01*
X203566000Y-104750000D01*
X203567000Y-104703000D01*
X203571000Y-104656000D01*
X203577000Y-104609000D01*
X203586000Y-104563000D01*
X203597000Y-104517000D01*
X203610000Y-104472000D01*
X203626000Y-104427000D01*
X203644000Y-104384000D01*
X203664000Y-104341000D01*
X203687000Y-104300000D01*
X203711000Y-104260000D01*
X203738000Y-104221000D01*
X203767000Y-104184000D01*
X203797000Y-104148000D01*
X203830000Y-104114000D01*
X203864000Y-104081000D01*
X203900000Y-104051000D01*
X203937000Y-104022000D01*
X203976000Y-103995000D01*
X204016000Y-103971000D01*
X204057000Y-103948000D01*
X204100000Y-103928000D01*
X204143000Y-103910000D01*
X204188000Y-103894000D01*
X204233000Y-103881000D01*
X204279000Y-103870000D01*
X204325000Y-103861000D01*
X204372000Y-103855000D01*
X204419000Y-103851000D01*
X204466000Y-103850000D01*
X204513000Y-103851000D01*
G36*
X204513000Y-103851000D02*
G01*
X204560000Y-103855000D01*
X204607000Y-103861000D01*
X204653000Y-103870000D01*
X204699000Y-103881000D01*
X204744000Y-103894000D01*
X204789000Y-103910000D01*
X204832000Y-103928000D01*
X204875000Y-103948000D01*
X204916000Y-103971000D01*
X204956000Y-103995000D01*
X204995000Y-104022000D01*
X205032000Y-104051000D01*
X205068000Y-104081000D01*
X205102000Y-104114000D01*
X205135000Y-104148000D01*
X205165000Y-104184000D01*
X205194000Y-104221000D01*
X205221000Y-104260000D01*
X205245000Y-104300000D01*
X205268000Y-104341000D01*
X205288000Y-104384000D01*
X205306000Y-104427000D01*
X205322000Y-104472000D01*
X205335000Y-104517000D01*
X205346000Y-104563000D01*
X205355000Y-104609000D01*
X205361000Y-104656000D01*
X205365000Y-104703000D01*
X205366000Y-104750000D01*
X205366000Y-107250000D01*
X203566000Y-107250000D01*
X203566000Y-104750000D01*
X203567000Y-104703000D01*
X203571000Y-104656000D01*
X203577000Y-104609000D01*
X203586000Y-104563000D01*
X203597000Y-104517000D01*
X203610000Y-104472000D01*
X203626000Y-104427000D01*
X203644000Y-104384000D01*
X203664000Y-104341000D01*
X203687000Y-104300000D01*
X203711000Y-104260000D01*
X203738000Y-104221000D01*
X203767000Y-104184000D01*
X203797000Y-104148000D01*
X203830000Y-104114000D01*
X203864000Y-104081000D01*
X203900000Y-104051000D01*
X203937000Y-104022000D01*
X203976000Y-103995000D01*
X204016000Y-103971000D01*
X204057000Y-103948000D01*
X204100000Y-103928000D01*
X204143000Y-103910000D01*
X204188000Y-103894000D01*
X204233000Y-103881000D01*
X204279000Y-103870000D01*
X204325000Y-103861000D01*
X204372000Y-103855000D01*
X204419000Y-103851000D01*
X204466000Y-103850000D01*
X204513000Y-103851000D01*
G37*
X207906000Y-86970000D02*
X207905000Y-87017000D01*
X207901000Y-87064000D01*
X207895000Y-87111000D01*
X207886000Y-87157000D01*
X207875000Y-87203000D01*
X207862000Y-87248000D01*
X207846000Y-87293000D01*
X207828000Y-87336000D01*
X207808000Y-87379000D01*
X207785000Y-87420000D01*
X207761000Y-87460000D01*
X207734000Y-87499000D01*
X207705000Y-87536000D01*
X207675000Y-87572000D01*
X207642000Y-87606000D01*
X207608000Y-87639000D01*
X207572000Y-87669000D01*
X207535000Y-87698000D01*
X207496000Y-87725000D01*
X207456000Y-87749000D01*
X207415000Y-87772000D01*
X207372000Y-87792000D01*
X207329000Y-87810000D01*
X207284000Y-87826000D01*
X207239000Y-87839000D01*
X207193000Y-87850000D01*
X207147000Y-87859000D01*
X207100000Y-87865000D01*
X207053000Y-87869000D01*
X207006000Y-87870000D01*
X206959000Y-87869000D01*
X206912000Y-87865000D01*
X206865000Y-87859000D01*
X206819000Y-87850000D01*
X206773000Y-87839000D01*
X206728000Y-87826000D01*
X206683000Y-87810000D01*
X206640000Y-87792000D01*
X206597000Y-87772000D01*
X206556000Y-87749000D01*
X206516000Y-87725000D01*
X206477000Y-87698000D01*
X206440000Y-87669000D01*
X206404000Y-87639000D01*
X206370000Y-87606000D01*
X206337000Y-87572000D01*
X206307000Y-87536000D01*
X206278000Y-87499000D01*
X206251000Y-87460000D01*
X206227000Y-87420000D01*
X206204000Y-87379000D01*
X206184000Y-87336000D01*
X206166000Y-87293000D01*
X206150000Y-87248000D01*
X206137000Y-87203000D01*
X206126000Y-87157000D01*
X206117000Y-87111000D01*
X206111000Y-87064000D01*
X206107000Y-87017000D01*
X206106000Y-86970000D01*
X206106000Y-84470000D01*
X207906000Y-84470000D01*
X207906000Y-86970000D01*
G36*
X207906000Y-86970000D02*
G01*
X207905000Y-87017000D01*
X207901000Y-87064000D01*
X207895000Y-87111000D01*
X207886000Y-87157000D01*
X207875000Y-87203000D01*
X207862000Y-87248000D01*
X207846000Y-87293000D01*
X207828000Y-87336000D01*
X207808000Y-87379000D01*
X207785000Y-87420000D01*
X207761000Y-87460000D01*
X207734000Y-87499000D01*
X207705000Y-87536000D01*
X207675000Y-87572000D01*
X207642000Y-87606000D01*
X207608000Y-87639000D01*
X207572000Y-87669000D01*
X207535000Y-87698000D01*
X207496000Y-87725000D01*
X207456000Y-87749000D01*
X207415000Y-87772000D01*
X207372000Y-87792000D01*
X207329000Y-87810000D01*
X207284000Y-87826000D01*
X207239000Y-87839000D01*
X207193000Y-87850000D01*
X207147000Y-87859000D01*
X207100000Y-87865000D01*
X207053000Y-87869000D01*
X207006000Y-87870000D01*
X206959000Y-87869000D01*
X206912000Y-87865000D01*
X206865000Y-87859000D01*
X206819000Y-87850000D01*
X206773000Y-87839000D01*
X206728000Y-87826000D01*
X206683000Y-87810000D01*
X206640000Y-87792000D01*
X206597000Y-87772000D01*
X206556000Y-87749000D01*
X206516000Y-87725000D01*
X206477000Y-87698000D01*
X206440000Y-87669000D01*
X206404000Y-87639000D01*
X206370000Y-87606000D01*
X206337000Y-87572000D01*
X206307000Y-87536000D01*
X206278000Y-87499000D01*
X206251000Y-87460000D01*
X206227000Y-87420000D01*
X206204000Y-87379000D01*
X206184000Y-87336000D01*
X206166000Y-87293000D01*
X206150000Y-87248000D01*
X206137000Y-87203000D01*
X206126000Y-87157000D01*
X206117000Y-87111000D01*
X206111000Y-87064000D01*
X206107000Y-87017000D01*
X206106000Y-86970000D01*
X206106000Y-84470000D01*
X207906000Y-84470000D01*
X207906000Y-86970000D01*
G37*
X207053000Y-103851000D02*
X207100000Y-103855000D01*
X207147000Y-103861000D01*
X207193000Y-103870000D01*
X207239000Y-103881000D01*
X207284000Y-103894000D01*
X207329000Y-103910000D01*
X207372000Y-103928000D01*
X207415000Y-103948000D01*
X207456000Y-103971000D01*
X207496000Y-103995000D01*
X207535000Y-104022000D01*
X207572000Y-104051000D01*
X207608000Y-104081000D01*
X207642000Y-104114000D01*
X207675000Y-104148000D01*
X207705000Y-104184000D01*
X207734000Y-104221000D01*
X207761000Y-104260000D01*
X207785000Y-104300000D01*
X207808000Y-104341000D01*
X207828000Y-104384000D01*
X207846000Y-104427000D01*
X207862000Y-104472000D01*
X207875000Y-104517000D01*
X207886000Y-104563000D01*
X207895000Y-104609000D01*
X207901000Y-104656000D01*
X207905000Y-104703000D01*
X207906000Y-104750000D01*
X207906000Y-107250000D01*
X206106000Y-107250000D01*
X206106000Y-104750000D01*
X206107000Y-104703000D01*
X206111000Y-104656000D01*
X206117000Y-104609000D01*
X206126000Y-104563000D01*
X206137000Y-104517000D01*
X206150000Y-104472000D01*
X206166000Y-104427000D01*
X206184000Y-104384000D01*
X206204000Y-104341000D01*
X206227000Y-104300000D01*
X206251000Y-104260000D01*
X206278000Y-104221000D01*
X206307000Y-104184000D01*
X206337000Y-104148000D01*
X206370000Y-104114000D01*
X206404000Y-104081000D01*
X206440000Y-104051000D01*
X206477000Y-104022000D01*
X206516000Y-103995000D01*
X206556000Y-103971000D01*
X206597000Y-103948000D01*
X206640000Y-103928000D01*
X206683000Y-103910000D01*
X206728000Y-103894000D01*
X206773000Y-103881000D01*
X206819000Y-103870000D01*
X206865000Y-103861000D01*
X206912000Y-103855000D01*
X206959000Y-103851000D01*
X207006000Y-103850000D01*
X207053000Y-103851000D01*
G36*
X207053000Y-103851000D02*
G01*
X207100000Y-103855000D01*
X207147000Y-103861000D01*
X207193000Y-103870000D01*
X207239000Y-103881000D01*
X207284000Y-103894000D01*
X207329000Y-103910000D01*
X207372000Y-103928000D01*
X207415000Y-103948000D01*
X207456000Y-103971000D01*
X207496000Y-103995000D01*
X207535000Y-104022000D01*
X207572000Y-104051000D01*
X207608000Y-104081000D01*
X207642000Y-104114000D01*
X207675000Y-104148000D01*
X207705000Y-104184000D01*
X207734000Y-104221000D01*
X207761000Y-104260000D01*
X207785000Y-104300000D01*
X207808000Y-104341000D01*
X207828000Y-104384000D01*
X207846000Y-104427000D01*
X207862000Y-104472000D01*
X207875000Y-104517000D01*
X207886000Y-104563000D01*
X207895000Y-104609000D01*
X207901000Y-104656000D01*
X207905000Y-104703000D01*
X207906000Y-104750000D01*
X207906000Y-107250000D01*
X206106000Y-107250000D01*
X206106000Y-104750000D01*
X206107000Y-104703000D01*
X206111000Y-104656000D01*
X206117000Y-104609000D01*
X206126000Y-104563000D01*
X206137000Y-104517000D01*
X206150000Y-104472000D01*
X206166000Y-104427000D01*
X206184000Y-104384000D01*
X206204000Y-104341000D01*
X206227000Y-104300000D01*
X206251000Y-104260000D01*
X206278000Y-104221000D01*
X206307000Y-104184000D01*
X206337000Y-104148000D01*
X206370000Y-104114000D01*
X206404000Y-104081000D01*
X206440000Y-104051000D01*
X206477000Y-104022000D01*
X206516000Y-103995000D01*
X206556000Y-103971000D01*
X206597000Y-103948000D01*
X206640000Y-103928000D01*
X206683000Y-103910000D01*
X206728000Y-103894000D01*
X206773000Y-103881000D01*
X206819000Y-103870000D01*
X206865000Y-103861000D01*
X206912000Y-103855000D01*
X206959000Y-103851000D01*
X207006000Y-103850000D01*
X207053000Y-103851000D01*
G37*
X210446000Y-86970000D02*
X210445000Y-87017000D01*
X210441000Y-87064000D01*
X210435000Y-87111000D01*
X210426000Y-87157000D01*
X210415000Y-87203000D01*
X210402000Y-87248000D01*
X210386000Y-87293000D01*
X210368000Y-87336000D01*
X210348000Y-87379000D01*
X210325000Y-87420000D01*
X210301000Y-87460000D01*
X210274000Y-87499000D01*
X210245000Y-87536000D01*
X210215000Y-87572000D01*
X210182000Y-87606000D01*
X210148000Y-87639000D01*
X210112000Y-87669000D01*
X210075000Y-87698000D01*
X210036000Y-87725000D01*
X209996000Y-87749000D01*
X209955000Y-87772000D01*
X209912000Y-87792000D01*
X209869000Y-87810000D01*
X209824000Y-87826000D01*
X209779000Y-87839000D01*
X209733000Y-87850000D01*
X209687000Y-87859000D01*
X209640000Y-87865000D01*
X209593000Y-87869000D01*
X209546000Y-87870000D01*
X209499000Y-87869000D01*
X209452000Y-87865000D01*
X209405000Y-87859000D01*
X209359000Y-87850000D01*
X209313000Y-87839000D01*
X209268000Y-87826000D01*
X209223000Y-87810000D01*
X209180000Y-87792000D01*
X209137000Y-87772000D01*
X209096000Y-87749000D01*
X209056000Y-87725000D01*
X209017000Y-87698000D01*
X208980000Y-87669000D01*
X208944000Y-87639000D01*
X208910000Y-87606000D01*
X208877000Y-87572000D01*
X208847000Y-87536000D01*
X208818000Y-87499000D01*
X208791000Y-87460000D01*
X208767000Y-87420000D01*
X208744000Y-87379000D01*
X208724000Y-87336000D01*
X208706000Y-87293000D01*
X208690000Y-87248000D01*
X208677000Y-87203000D01*
X208666000Y-87157000D01*
X208657000Y-87111000D01*
X208651000Y-87064000D01*
X208647000Y-87017000D01*
X208646000Y-86970000D01*
X208646000Y-84470000D01*
X210446000Y-84470000D01*
X210446000Y-86970000D01*
G36*
X210446000Y-86970000D02*
G01*
X210445000Y-87017000D01*
X210441000Y-87064000D01*
X210435000Y-87111000D01*
X210426000Y-87157000D01*
X210415000Y-87203000D01*
X210402000Y-87248000D01*
X210386000Y-87293000D01*
X210368000Y-87336000D01*
X210348000Y-87379000D01*
X210325000Y-87420000D01*
X210301000Y-87460000D01*
X210274000Y-87499000D01*
X210245000Y-87536000D01*
X210215000Y-87572000D01*
X210182000Y-87606000D01*
X210148000Y-87639000D01*
X210112000Y-87669000D01*
X210075000Y-87698000D01*
X210036000Y-87725000D01*
X209996000Y-87749000D01*
X209955000Y-87772000D01*
X209912000Y-87792000D01*
X209869000Y-87810000D01*
X209824000Y-87826000D01*
X209779000Y-87839000D01*
X209733000Y-87850000D01*
X209687000Y-87859000D01*
X209640000Y-87865000D01*
X209593000Y-87869000D01*
X209546000Y-87870000D01*
X209499000Y-87869000D01*
X209452000Y-87865000D01*
X209405000Y-87859000D01*
X209359000Y-87850000D01*
X209313000Y-87839000D01*
X209268000Y-87826000D01*
X209223000Y-87810000D01*
X209180000Y-87792000D01*
X209137000Y-87772000D01*
X209096000Y-87749000D01*
X209056000Y-87725000D01*
X209017000Y-87698000D01*
X208980000Y-87669000D01*
X208944000Y-87639000D01*
X208910000Y-87606000D01*
X208877000Y-87572000D01*
X208847000Y-87536000D01*
X208818000Y-87499000D01*
X208791000Y-87460000D01*
X208767000Y-87420000D01*
X208744000Y-87379000D01*
X208724000Y-87336000D01*
X208706000Y-87293000D01*
X208690000Y-87248000D01*
X208677000Y-87203000D01*
X208666000Y-87157000D01*
X208657000Y-87111000D01*
X208651000Y-87064000D01*
X208647000Y-87017000D01*
X208646000Y-86970000D01*
X208646000Y-84470000D01*
X210446000Y-84470000D01*
X210446000Y-86970000D01*
G37*
X209593000Y-103851000D02*
X209640000Y-103855000D01*
X209687000Y-103861000D01*
X209733000Y-103870000D01*
X209779000Y-103881000D01*
X209824000Y-103894000D01*
X209869000Y-103910000D01*
X209912000Y-103928000D01*
X209955000Y-103948000D01*
X209996000Y-103971000D01*
X210036000Y-103995000D01*
X210075000Y-104022000D01*
X210112000Y-104051000D01*
X210148000Y-104081000D01*
X210182000Y-104114000D01*
X210215000Y-104148000D01*
X210245000Y-104184000D01*
X210274000Y-104221000D01*
X210301000Y-104260000D01*
X210325000Y-104300000D01*
X210348000Y-104341000D01*
X210368000Y-104384000D01*
X210386000Y-104427000D01*
X210402000Y-104472000D01*
X210415000Y-104517000D01*
X210426000Y-104563000D01*
X210435000Y-104609000D01*
X210441000Y-104656000D01*
X210445000Y-104703000D01*
X210446000Y-104750000D01*
X210446000Y-107250000D01*
X208646000Y-107250000D01*
X208646000Y-104750000D01*
X208647000Y-104703000D01*
X208651000Y-104656000D01*
X208657000Y-104609000D01*
X208666000Y-104563000D01*
X208677000Y-104517000D01*
X208690000Y-104472000D01*
X208706000Y-104427000D01*
X208724000Y-104384000D01*
X208744000Y-104341000D01*
X208767000Y-104300000D01*
X208791000Y-104260000D01*
X208818000Y-104221000D01*
X208847000Y-104184000D01*
X208877000Y-104148000D01*
X208910000Y-104114000D01*
X208944000Y-104081000D01*
X208980000Y-104051000D01*
X209017000Y-104022000D01*
X209056000Y-103995000D01*
X209096000Y-103971000D01*
X209137000Y-103948000D01*
X209180000Y-103928000D01*
X209223000Y-103910000D01*
X209268000Y-103894000D01*
X209313000Y-103881000D01*
X209359000Y-103870000D01*
X209405000Y-103861000D01*
X209452000Y-103855000D01*
X209499000Y-103851000D01*
X209546000Y-103850000D01*
X209593000Y-103851000D01*
G36*
X209593000Y-103851000D02*
G01*
X209640000Y-103855000D01*
X209687000Y-103861000D01*
X209733000Y-103870000D01*
X209779000Y-103881000D01*
X209824000Y-103894000D01*
X209869000Y-103910000D01*
X209912000Y-103928000D01*
X209955000Y-103948000D01*
X209996000Y-103971000D01*
X210036000Y-103995000D01*
X210075000Y-104022000D01*
X210112000Y-104051000D01*
X210148000Y-104081000D01*
X210182000Y-104114000D01*
X210215000Y-104148000D01*
X210245000Y-104184000D01*
X210274000Y-104221000D01*
X210301000Y-104260000D01*
X210325000Y-104300000D01*
X210348000Y-104341000D01*
X210368000Y-104384000D01*
X210386000Y-104427000D01*
X210402000Y-104472000D01*
X210415000Y-104517000D01*
X210426000Y-104563000D01*
X210435000Y-104609000D01*
X210441000Y-104656000D01*
X210445000Y-104703000D01*
X210446000Y-104750000D01*
X210446000Y-107250000D01*
X208646000Y-107250000D01*
X208646000Y-104750000D01*
X208647000Y-104703000D01*
X208651000Y-104656000D01*
X208657000Y-104609000D01*
X208666000Y-104563000D01*
X208677000Y-104517000D01*
X208690000Y-104472000D01*
X208706000Y-104427000D01*
X208724000Y-104384000D01*
X208744000Y-104341000D01*
X208767000Y-104300000D01*
X208791000Y-104260000D01*
X208818000Y-104221000D01*
X208847000Y-104184000D01*
X208877000Y-104148000D01*
X208910000Y-104114000D01*
X208944000Y-104081000D01*
X208980000Y-104051000D01*
X209017000Y-104022000D01*
X209056000Y-103995000D01*
X209096000Y-103971000D01*
X209137000Y-103948000D01*
X209180000Y-103928000D01*
X209223000Y-103910000D01*
X209268000Y-103894000D01*
X209313000Y-103881000D01*
X209359000Y-103870000D01*
X209405000Y-103861000D01*
X209452000Y-103855000D01*
X209499000Y-103851000D01*
X209546000Y-103850000D01*
X209593000Y-103851000D01*
G37*
X215526000Y-86970000D02*
X215525000Y-87017000D01*
X215521000Y-87064000D01*
X215515000Y-87111000D01*
X215506000Y-87157000D01*
X215495000Y-87203000D01*
X215482000Y-87248000D01*
X215466000Y-87293000D01*
X215448000Y-87336000D01*
X215428000Y-87379000D01*
X215405000Y-87420000D01*
X215381000Y-87460000D01*
X215354000Y-87499000D01*
X215325000Y-87536000D01*
X215295000Y-87572000D01*
X215262000Y-87606000D01*
X215228000Y-87639000D01*
X215192000Y-87669000D01*
X215155000Y-87698000D01*
X215116000Y-87725000D01*
X215076000Y-87749000D01*
X215035000Y-87772000D01*
X214992000Y-87792000D01*
X214949000Y-87810000D01*
X214904000Y-87826000D01*
X214859000Y-87839000D01*
X214813000Y-87850000D01*
X214767000Y-87859000D01*
X214720000Y-87865000D01*
X214673000Y-87869000D01*
X214626000Y-87870000D01*
X214579000Y-87869000D01*
X214532000Y-87865000D01*
X214485000Y-87859000D01*
X214439000Y-87850000D01*
X214393000Y-87839000D01*
X214348000Y-87826000D01*
X214303000Y-87810000D01*
X214260000Y-87792000D01*
X214217000Y-87772000D01*
X214176000Y-87749000D01*
X214136000Y-87725000D01*
X214097000Y-87698000D01*
X214060000Y-87669000D01*
X214024000Y-87639000D01*
X213990000Y-87606000D01*
X213957000Y-87572000D01*
X213927000Y-87536000D01*
X213898000Y-87499000D01*
X213871000Y-87460000D01*
X213847000Y-87420000D01*
X213824000Y-87379000D01*
X213804000Y-87336000D01*
X213786000Y-87293000D01*
X213770000Y-87248000D01*
X213757000Y-87203000D01*
X213746000Y-87157000D01*
X213737000Y-87111000D01*
X213731000Y-87064000D01*
X213727000Y-87017000D01*
X213726000Y-86970000D01*
X213726000Y-84470000D01*
X215526000Y-84470000D01*
X215526000Y-86970000D01*
G36*
X215526000Y-86970000D02*
G01*
X215525000Y-87017000D01*
X215521000Y-87064000D01*
X215515000Y-87111000D01*
X215506000Y-87157000D01*
X215495000Y-87203000D01*
X215482000Y-87248000D01*
X215466000Y-87293000D01*
X215448000Y-87336000D01*
X215428000Y-87379000D01*
X215405000Y-87420000D01*
X215381000Y-87460000D01*
X215354000Y-87499000D01*
X215325000Y-87536000D01*
X215295000Y-87572000D01*
X215262000Y-87606000D01*
X215228000Y-87639000D01*
X215192000Y-87669000D01*
X215155000Y-87698000D01*
X215116000Y-87725000D01*
X215076000Y-87749000D01*
X215035000Y-87772000D01*
X214992000Y-87792000D01*
X214949000Y-87810000D01*
X214904000Y-87826000D01*
X214859000Y-87839000D01*
X214813000Y-87850000D01*
X214767000Y-87859000D01*
X214720000Y-87865000D01*
X214673000Y-87869000D01*
X214626000Y-87870000D01*
X214579000Y-87869000D01*
X214532000Y-87865000D01*
X214485000Y-87859000D01*
X214439000Y-87850000D01*
X214393000Y-87839000D01*
X214348000Y-87826000D01*
X214303000Y-87810000D01*
X214260000Y-87792000D01*
X214217000Y-87772000D01*
X214176000Y-87749000D01*
X214136000Y-87725000D01*
X214097000Y-87698000D01*
X214060000Y-87669000D01*
X214024000Y-87639000D01*
X213990000Y-87606000D01*
X213957000Y-87572000D01*
X213927000Y-87536000D01*
X213898000Y-87499000D01*
X213871000Y-87460000D01*
X213847000Y-87420000D01*
X213824000Y-87379000D01*
X213804000Y-87336000D01*
X213786000Y-87293000D01*
X213770000Y-87248000D01*
X213757000Y-87203000D01*
X213746000Y-87157000D01*
X213737000Y-87111000D01*
X213731000Y-87064000D01*
X213727000Y-87017000D01*
X213726000Y-86970000D01*
X213726000Y-84470000D01*
X215526000Y-84470000D01*
X215526000Y-86970000D01*
G37*
X214673000Y-103851000D02*
X214720000Y-103855000D01*
X214767000Y-103861000D01*
X214813000Y-103870000D01*
X214859000Y-103881000D01*
X214904000Y-103894000D01*
X214949000Y-103910000D01*
X214992000Y-103928000D01*
X215035000Y-103948000D01*
X215076000Y-103971000D01*
X215116000Y-103995000D01*
X215155000Y-104022000D01*
X215192000Y-104051000D01*
X215228000Y-104081000D01*
X215262000Y-104114000D01*
X215295000Y-104148000D01*
X215325000Y-104184000D01*
X215354000Y-104221000D01*
X215381000Y-104260000D01*
X215405000Y-104300000D01*
X215428000Y-104341000D01*
X215448000Y-104384000D01*
X215466000Y-104427000D01*
X215482000Y-104472000D01*
X215495000Y-104517000D01*
X215506000Y-104563000D01*
X215515000Y-104609000D01*
X215521000Y-104656000D01*
X215525000Y-104703000D01*
X215526000Y-104750000D01*
X215526000Y-107250000D01*
X213726000Y-107250000D01*
X213726000Y-104750000D01*
X213727000Y-104703000D01*
X213731000Y-104656000D01*
X213737000Y-104609000D01*
X213746000Y-104563000D01*
X213757000Y-104517000D01*
X213770000Y-104472000D01*
X213786000Y-104427000D01*
X213804000Y-104384000D01*
X213824000Y-104341000D01*
X213847000Y-104300000D01*
X213871000Y-104260000D01*
X213898000Y-104221000D01*
X213927000Y-104184000D01*
X213957000Y-104148000D01*
X213990000Y-104114000D01*
X214024000Y-104081000D01*
X214060000Y-104051000D01*
X214097000Y-104022000D01*
X214136000Y-103995000D01*
X214176000Y-103971000D01*
X214217000Y-103948000D01*
X214260000Y-103928000D01*
X214303000Y-103910000D01*
X214348000Y-103894000D01*
X214393000Y-103881000D01*
X214439000Y-103870000D01*
X214485000Y-103861000D01*
X214532000Y-103855000D01*
X214579000Y-103851000D01*
X214626000Y-103850000D01*
X214673000Y-103851000D01*
G36*
X214673000Y-103851000D02*
G01*
X214720000Y-103855000D01*
X214767000Y-103861000D01*
X214813000Y-103870000D01*
X214859000Y-103881000D01*
X214904000Y-103894000D01*
X214949000Y-103910000D01*
X214992000Y-103928000D01*
X215035000Y-103948000D01*
X215076000Y-103971000D01*
X215116000Y-103995000D01*
X215155000Y-104022000D01*
X215192000Y-104051000D01*
X215228000Y-104081000D01*
X215262000Y-104114000D01*
X215295000Y-104148000D01*
X215325000Y-104184000D01*
X215354000Y-104221000D01*
X215381000Y-104260000D01*
X215405000Y-104300000D01*
X215428000Y-104341000D01*
X215448000Y-104384000D01*
X215466000Y-104427000D01*
X215482000Y-104472000D01*
X215495000Y-104517000D01*
X215506000Y-104563000D01*
X215515000Y-104609000D01*
X215521000Y-104656000D01*
X215525000Y-104703000D01*
X215526000Y-104750000D01*
X215526000Y-107250000D01*
X213726000Y-107250000D01*
X213726000Y-104750000D01*
X213727000Y-104703000D01*
X213731000Y-104656000D01*
X213737000Y-104609000D01*
X213746000Y-104563000D01*
X213757000Y-104517000D01*
X213770000Y-104472000D01*
X213786000Y-104427000D01*
X213804000Y-104384000D01*
X213824000Y-104341000D01*
X213847000Y-104300000D01*
X213871000Y-104260000D01*
X213898000Y-104221000D01*
X213927000Y-104184000D01*
X213957000Y-104148000D01*
X213990000Y-104114000D01*
X214024000Y-104081000D01*
X214060000Y-104051000D01*
X214097000Y-104022000D01*
X214136000Y-103995000D01*
X214176000Y-103971000D01*
X214217000Y-103948000D01*
X214260000Y-103928000D01*
X214303000Y-103910000D01*
X214348000Y-103894000D01*
X214393000Y-103881000D01*
X214439000Y-103870000D01*
X214485000Y-103861000D01*
X214532000Y-103855000D01*
X214579000Y-103851000D01*
X214626000Y-103850000D01*
X214673000Y-103851000D01*
G37*
X218066000Y-86970000D02*
X218065000Y-87017000D01*
X218061000Y-87064000D01*
X218055000Y-87111000D01*
X218046000Y-87157000D01*
X218035000Y-87203000D01*
X218022000Y-87248000D01*
X218006000Y-87293000D01*
X217988000Y-87336000D01*
X217968000Y-87379000D01*
X217945000Y-87420000D01*
X217921000Y-87460000D01*
X217894000Y-87499000D01*
X217865000Y-87536000D01*
X217835000Y-87572000D01*
X217802000Y-87606000D01*
X217768000Y-87639000D01*
X217732000Y-87669000D01*
X217695000Y-87698000D01*
X217656000Y-87725000D01*
X217616000Y-87749000D01*
X217575000Y-87772000D01*
X217532000Y-87792000D01*
X217489000Y-87810000D01*
X217444000Y-87826000D01*
X217399000Y-87839000D01*
X217353000Y-87850000D01*
X217307000Y-87859000D01*
X217260000Y-87865000D01*
X217213000Y-87869000D01*
X217166000Y-87870000D01*
X217119000Y-87869000D01*
X217072000Y-87865000D01*
X217025000Y-87859000D01*
X216979000Y-87850000D01*
X216933000Y-87839000D01*
X216888000Y-87826000D01*
X216843000Y-87810000D01*
X216800000Y-87792000D01*
X216757000Y-87772000D01*
X216716000Y-87749000D01*
X216676000Y-87725000D01*
X216637000Y-87698000D01*
X216600000Y-87669000D01*
X216564000Y-87639000D01*
X216530000Y-87606000D01*
X216497000Y-87572000D01*
X216467000Y-87536000D01*
X216438000Y-87499000D01*
X216411000Y-87460000D01*
X216387000Y-87420000D01*
X216364000Y-87379000D01*
X216344000Y-87336000D01*
X216326000Y-87293000D01*
X216310000Y-87248000D01*
X216297000Y-87203000D01*
X216286000Y-87157000D01*
X216277000Y-87111000D01*
X216271000Y-87064000D01*
X216267000Y-87017000D01*
X216266000Y-86970000D01*
X216266000Y-84470000D01*
X218066000Y-84470000D01*
X218066000Y-86970000D01*
G36*
X218066000Y-86970000D02*
G01*
X218065000Y-87017000D01*
X218061000Y-87064000D01*
X218055000Y-87111000D01*
X218046000Y-87157000D01*
X218035000Y-87203000D01*
X218022000Y-87248000D01*
X218006000Y-87293000D01*
X217988000Y-87336000D01*
X217968000Y-87379000D01*
X217945000Y-87420000D01*
X217921000Y-87460000D01*
X217894000Y-87499000D01*
X217865000Y-87536000D01*
X217835000Y-87572000D01*
X217802000Y-87606000D01*
X217768000Y-87639000D01*
X217732000Y-87669000D01*
X217695000Y-87698000D01*
X217656000Y-87725000D01*
X217616000Y-87749000D01*
X217575000Y-87772000D01*
X217532000Y-87792000D01*
X217489000Y-87810000D01*
X217444000Y-87826000D01*
X217399000Y-87839000D01*
X217353000Y-87850000D01*
X217307000Y-87859000D01*
X217260000Y-87865000D01*
X217213000Y-87869000D01*
X217166000Y-87870000D01*
X217119000Y-87869000D01*
X217072000Y-87865000D01*
X217025000Y-87859000D01*
X216979000Y-87850000D01*
X216933000Y-87839000D01*
X216888000Y-87826000D01*
X216843000Y-87810000D01*
X216800000Y-87792000D01*
X216757000Y-87772000D01*
X216716000Y-87749000D01*
X216676000Y-87725000D01*
X216637000Y-87698000D01*
X216600000Y-87669000D01*
X216564000Y-87639000D01*
X216530000Y-87606000D01*
X216497000Y-87572000D01*
X216467000Y-87536000D01*
X216438000Y-87499000D01*
X216411000Y-87460000D01*
X216387000Y-87420000D01*
X216364000Y-87379000D01*
X216344000Y-87336000D01*
X216326000Y-87293000D01*
X216310000Y-87248000D01*
X216297000Y-87203000D01*
X216286000Y-87157000D01*
X216277000Y-87111000D01*
X216271000Y-87064000D01*
X216267000Y-87017000D01*
X216266000Y-86970000D01*
X216266000Y-84470000D01*
X218066000Y-84470000D01*
X218066000Y-86970000D01*
G37*
X217213000Y-103851000D02*
X217260000Y-103855000D01*
X217307000Y-103861000D01*
X217353000Y-103870000D01*
X217399000Y-103881000D01*
X217444000Y-103894000D01*
X217489000Y-103910000D01*
X217532000Y-103928000D01*
X217575000Y-103948000D01*
X217616000Y-103971000D01*
X217656000Y-103995000D01*
X217695000Y-104022000D01*
X217732000Y-104051000D01*
X217768000Y-104081000D01*
X217802000Y-104114000D01*
X217835000Y-104148000D01*
X217865000Y-104184000D01*
X217894000Y-104221000D01*
X217921000Y-104260000D01*
X217945000Y-104300000D01*
X217968000Y-104341000D01*
X217988000Y-104384000D01*
X218006000Y-104427000D01*
X218022000Y-104472000D01*
X218035000Y-104517000D01*
X218046000Y-104563000D01*
X218055000Y-104609000D01*
X218061000Y-104656000D01*
X218065000Y-104703000D01*
X218066000Y-104750000D01*
X218066000Y-107250000D01*
X216266000Y-107250000D01*
X216266000Y-104750000D01*
X216267000Y-104703000D01*
X216271000Y-104656000D01*
X216277000Y-104609000D01*
X216286000Y-104563000D01*
X216297000Y-104517000D01*
X216310000Y-104472000D01*
X216326000Y-104427000D01*
X216344000Y-104384000D01*
X216364000Y-104341000D01*
X216387000Y-104300000D01*
X216411000Y-104260000D01*
X216438000Y-104221000D01*
X216467000Y-104184000D01*
X216497000Y-104148000D01*
X216530000Y-104114000D01*
X216564000Y-104081000D01*
X216600000Y-104051000D01*
X216637000Y-104022000D01*
X216676000Y-103995000D01*
X216716000Y-103971000D01*
X216757000Y-103948000D01*
X216800000Y-103928000D01*
X216843000Y-103910000D01*
X216888000Y-103894000D01*
X216933000Y-103881000D01*
X216979000Y-103870000D01*
X217025000Y-103861000D01*
X217072000Y-103855000D01*
X217119000Y-103851000D01*
X217166000Y-103850000D01*
X217213000Y-103851000D01*
G36*
X217213000Y-103851000D02*
G01*
X217260000Y-103855000D01*
X217307000Y-103861000D01*
X217353000Y-103870000D01*
X217399000Y-103881000D01*
X217444000Y-103894000D01*
X217489000Y-103910000D01*
X217532000Y-103928000D01*
X217575000Y-103948000D01*
X217616000Y-103971000D01*
X217656000Y-103995000D01*
X217695000Y-104022000D01*
X217732000Y-104051000D01*
X217768000Y-104081000D01*
X217802000Y-104114000D01*
X217835000Y-104148000D01*
X217865000Y-104184000D01*
X217894000Y-104221000D01*
X217921000Y-104260000D01*
X217945000Y-104300000D01*
X217968000Y-104341000D01*
X217988000Y-104384000D01*
X218006000Y-104427000D01*
X218022000Y-104472000D01*
X218035000Y-104517000D01*
X218046000Y-104563000D01*
X218055000Y-104609000D01*
X218061000Y-104656000D01*
X218065000Y-104703000D01*
X218066000Y-104750000D01*
X218066000Y-107250000D01*
X216266000Y-107250000D01*
X216266000Y-104750000D01*
X216267000Y-104703000D01*
X216271000Y-104656000D01*
X216277000Y-104609000D01*
X216286000Y-104563000D01*
X216297000Y-104517000D01*
X216310000Y-104472000D01*
X216326000Y-104427000D01*
X216344000Y-104384000D01*
X216364000Y-104341000D01*
X216387000Y-104300000D01*
X216411000Y-104260000D01*
X216438000Y-104221000D01*
X216467000Y-104184000D01*
X216497000Y-104148000D01*
X216530000Y-104114000D01*
X216564000Y-104081000D01*
X216600000Y-104051000D01*
X216637000Y-104022000D01*
X216676000Y-103995000D01*
X216716000Y-103971000D01*
X216757000Y-103948000D01*
X216800000Y-103928000D01*
X216843000Y-103910000D01*
X216888000Y-103894000D01*
X216933000Y-103881000D01*
X216979000Y-103870000D01*
X217025000Y-103861000D01*
X217072000Y-103855000D01*
X217119000Y-103851000D01*
X217166000Y-103850000D01*
X217213000Y-103851000D01*
G37*
X220606000Y-86970000D02*
X220605000Y-87017000D01*
X220601000Y-87064000D01*
X220595000Y-87111000D01*
X220586000Y-87157000D01*
X220575000Y-87203000D01*
X220562000Y-87248000D01*
X220546000Y-87293000D01*
X220528000Y-87336000D01*
X220508000Y-87379000D01*
X220485000Y-87420000D01*
X220461000Y-87460000D01*
X220434000Y-87499000D01*
X220405000Y-87536000D01*
X220375000Y-87572000D01*
X220342000Y-87606000D01*
X220308000Y-87639000D01*
X220272000Y-87669000D01*
X220235000Y-87698000D01*
X220196000Y-87725000D01*
X220156000Y-87749000D01*
X220115000Y-87772000D01*
X220072000Y-87792000D01*
X220029000Y-87810000D01*
X219984000Y-87826000D01*
X219939000Y-87839000D01*
X219893000Y-87850000D01*
X219847000Y-87859000D01*
X219800000Y-87865000D01*
X219753000Y-87869000D01*
X219706000Y-87870000D01*
X219659000Y-87869000D01*
X219612000Y-87865000D01*
X219565000Y-87859000D01*
X219519000Y-87850000D01*
X219473000Y-87839000D01*
X219428000Y-87826000D01*
X219383000Y-87810000D01*
X219340000Y-87792000D01*
X219297000Y-87772000D01*
X219256000Y-87749000D01*
X219216000Y-87725000D01*
X219177000Y-87698000D01*
X219140000Y-87669000D01*
X219104000Y-87639000D01*
X219070000Y-87606000D01*
X219037000Y-87572000D01*
X219007000Y-87536000D01*
X218978000Y-87499000D01*
X218951000Y-87460000D01*
X218927000Y-87420000D01*
X218904000Y-87379000D01*
X218884000Y-87336000D01*
X218866000Y-87293000D01*
X218850000Y-87248000D01*
X218837000Y-87203000D01*
X218826000Y-87157000D01*
X218817000Y-87111000D01*
X218811000Y-87064000D01*
X218807000Y-87017000D01*
X218806000Y-86970000D01*
X218806000Y-84470000D01*
X220606000Y-84470000D01*
X220606000Y-86970000D01*
G36*
X220606000Y-86970000D02*
G01*
X220605000Y-87017000D01*
X220601000Y-87064000D01*
X220595000Y-87111000D01*
X220586000Y-87157000D01*
X220575000Y-87203000D01*
X220562000Y-87248000D01*
X220546000Y-87293000D01*
X220528000Y-87336000D01*
X220508000Y-87379000D01*
X220485000Y-87420000D01*
X220461000Y-87460000D01*
X220434000Y-87499000D01*
X220405000Y-87536000D01*
X220375000Y-87572000D01*
X220342000Y-87606000D01*
X220308000Y-87639000D01*
X220272000Y-87669000D01*
X220235000Y-87698000D01*
X220196000Y-87725000D01*
X220156000Y-87749000D01*
X220115000Y-87772000D01*
X220072000Y-87792000D01*
X220029000Y-87810000D01*
X219984000Y-87826000D01*
X219939000Y-87839000D01*
X219893000Y-87850000D01*
X219847000Y-87859000D01*
X219800000Y-87865000D01*
X219753000Y-87869000D01*
X219706000Y-87870000D01*
X219659000Y-87869000D01*
X219612000Y-87865000D01*
X219565000Y-87859000D01*
X219519000Y-87850000D01*
X219473000Y-87839000D01*
X219428000Y-87826000D01*
X219383000Y-87810000D01*
X219340000Y-87792000D01*
X219297000Y-87772000D01*
X219256000Y-87749000D01*
X219216000Y-87725000D01*
X219177000Y-87698000D01*
X219140000Y-87669000D01*
X219104000Y-87639000D01*
X219070000Y-87606000D01*
X219037000Y-87572000D01*
X219007000Y-87536000D01*
X218978000Y-87499000D01*
X218951000Y-87460000D01*
X218927000Y-87420000D01*
X218904000Y-87379000D01*
X218884000Y-87336000D01*
X218866000Y-87293000D01*
X218850000Y-87248000D01*
X218837000Y-87203000D01*
X218826000Y-87157000D01*
X218817000Y-87111000D01*
X218811000Y-87064000D01*
X218807000Y-87017000D01*
X218806000Y-86970000D01*
X218806000Y-84470000D01*
X220606000Y-84470000D01*
X220606000Y-86970000D01*
G37*
X219753000Y-103851000D02*
X219800000Y-103855000D01*
X219847000Y-103861000D01*
X219893000Y-103870000D01*
X219939000Y-103881000D01*
X219984000Y-103894000D01*
X220029000Y-103910000D01*
X220072000Y-103928000D01*
X220115000Y-103948000D01*
X220156000Y-103971000D01*
X220196000Y-103995000D01*
X220235000Y-104022000D01*
X220272000Y-104051000D01*
X220308000Y-104081000D01*
X220342000Y-104114000D01*
X220375000Y-104148000D01*
X220405000Y-104184000D01*
X220434000Y-104221000D01*
X220461000Y-104260000D01*
X220485000Y-104300000D01*
X220508000Y-104341000D01*
X220528000Y-104384000D01*
X220546000Y-104427000D01*
X220562000Y-104472000D01*
X220575000Y-104517000D01*
X220586000Y-104563000D01*
X220595000Y-104609000D01*
X220601000Y-104656000D01*
X220605000Y-104703000D01*
X220606000Y-104750000D01*
X220606000Y-107250000D01*
X218806000Y-107250000D01*
X218806000Y-104750000D01*
X218807000Y-104703000D01*
X218811000Y-104656000D01*
X218817000Y-104609000D01*
X218826000Y-104563000D01*
X218837000Y-104517000D01*
X218850000Y-104472000D01*
X218866000Y-104427000D01*
X218884000Y-104384000D01*
X218904000Y-104341000D01*
X218927000Y-104300000D01*
X218951000Y-104260000D01*
X218978000Y-104221000D01*
X219007000Y-104184000D01*
X219037000Y-104148000D01*
X219070000Y-104114000D01*
X219104000Y-104081000D01*
X219140000Y-104051000D01*
X219177000Y-104022000D01*
X219216000Y-103995000D01*
X219256000Y-103971000D01*
X219297000Y-103948000D01*
X219340000Y-103928000D01*
X219383000Y-103910000D01*
X219428000Y-103894000D01*
X219473000Y-103881000D01*
X219519000Y-103870000D01*
X219565000Y-103861000D01*
X219612000Y-103855000D01*
X219659000Y-103851000D01*
X219706000Y-103850000D01*
X219753000Y-103851000D01*
G36*
X219753000Y-103851000D02*
G01*
X219800000Y-103855000D01*
X219847000Y-103861000D01*
X219893000Y-103870000D01*
X219939000Y-103881000D01*
X219984000Y-103894000D01*
X220029000Y-103910000D01*
X220072000Y-103928000D01*
X220115000Y-103948000D01*
X220156000Y-103971000D01*
X220196000Y-103995000D01*
X220235000Y-104022000D01*
X220272000Y-104051000D01*
X220308000Y-104081000D01*
X220342000Y-104114000D01*
X220375000Y-104148000D01*
X220405000Y-104184000D01*
X220434000Y-104221000D01*
X220461000Y-104260000D01*
X220485000Y-104300000D01*
X220508000Y-104341000D01*
X220528000Y-104384000D01*
X220546000Y-104427000D01*
X220562000Y-104472000D01*
X220575000Y-104517000D01*
X220586000Y-104563000D01*
X220595000Y-104609000D01*
X220601000Y-104656000D01*
X220605000Y-104703000D01*
X220606000Y-104750000D01*
X220606000Y-107250000D01*
X218806000Y-107250000D01*
X218806000Y-104750000D01*
X218807000Y-104703000D01*
X218811000Y-104656000D01*
X218817000Y-104609000D01*
X218826000Y-104563000D01*
X218837000Y-104517000D01*
X218850000Y-104472000D01*
X218866000Y-104427000D01*
X218884000Y-104384000D01*
X218904000Y-104341000D01*
X218927000Y-104300000D01*
X218951000Y-104260000D01*
X218978000Y-104221000D01*
X219007000Y-104184000D01*
X219037000Y-104148000D01*
X219070000Y-104114000D01*
X219104000Y-104081000D01*
X219140000Y-104051000D01*
X219177000Y-104022000D01*
X219216000Y-103995000D01*
X219256000Y-103971000D01*
X219297000Y-103948000D01*
X219340000Y-103928000D01*
X219383000Y-103910000D01*
X219428000Y-103894000D01*
X219473000Y-103881000D01*
X219519000Y-103870000D01*
X219565000Y-103861000D01*
X219612000Y-103855000D01*
X219659000Y-103851000D01*
X219706000Y-103850000D01*
X219753000Y-103851000D01*
G37*
X223146000Y-86970000D02*
X223145000Y-87017000D01*
X223141000Y-87064000D01*
X223135000Y-87111000D01*
X223126000Y-87157000D01*
X223115000Y-87203000D01*
X223102000Y-87248000D01*
X223086000Y-87293000D01*
X223068000Y-87336000D01*
X223048000Y-87379000D01*
X223025000Y-87420000D01*
X223001000Y-87460000D01*
X222974000Y-87499000D01*
X222945000Y-87536000D01*
X222915000Y-87572000D01*
X222882000Y-87606000D01*
X222848000Y-87639000D01*
X222812000Y-87669000D01*
X222775000Y-87698000D01*
X222736000Y-87725000D01*
X222696000Y-87749000D01*
X222655000Y-87772000D01*
X222612000Y-87792000D01*
X222569000Y-87810000D01*
X222524000Y-87826000D01*
X222479000Y-87839000D01*
X222433000Y-87850000D01*
X222387000Y-87859000D01*
X222340000Y-87865000D01*
X222293000Y-87869000D01*
X222246000Y-87870000D01*
X222199000Y-87869000D01*
X222152000Y-87865000D01*
X222105000Y-87859000D01*
X222059000Y-87850000D01*
X222013000Y-87839000D01*
X221968000Y-87826000D01*
X221923000Y-87810000D01*
X221880000Y-87792000D01*
X221837000Y-87772000D01*
X221796000Y-87749000D01*
X221756000Y-87725000D01*
X221717000Y-87698000D01*
X221680000Y-87669000D01*
X221644000Y-87639000D01*
X221610000Y-87606000D01*
X221577000Y-87572000D01*
X221547000Y-87536000D01*
X221518000Y-87499000D01*
X221491000Y-87460000D01*
X221467000Y-87420000D01*
X221444000Y-87379000D01*
X221424000Y-87336000D01*
X221406000Y-87293000D01*
X221390000Y-87248000D01*
X221377000Y-87203000D01*
X221366000Y-87157000D01*
X221357000Y-87111000D01*
X221351000Y-87064000D01*
X221347000Y-87017000D01*
X221346000Y-86970000D01*
X221346000Y-84470000D01*
X223146000Y-84470000D01*
X223146000Y-86970000D01*
G36*
X223146000Y-86970000D02*
G01*
X223145000Y-87017000D01*
X223141000Y-87064000D01*
X223135000Y-87111000D01*
X223126000Y-87157000D01*
X223115000Y-87203000D01*
X223102000Y-87248000D01*
X223086000Y-87293000D01*
X223068000Y-87336000D01*
X223048000Y-87379000D01*
X223025000Y-87420000D01*
X223001000Y-87460000D01*
X222974000Y-87499000D01*
X222945000Y-87536000D01*
X222915000Y-87572000D01*
X222882000Y-87606000D01*
X222848000Y-87639000D01*
X222812000Y-87669000D01*
X222775000Y-87698000D01*
X222736000Y-87725000D01*
X222696000Y-87749000D01*
X222655000Y-87772000D01*
X222612000Y-87792000D01*
X222569000Y-87810000D01*
X222524000Y-87826000D01*
X222479000Y-87839000D01*
X222433000Y-87850000D01*
X222387000Y-87859000D01*
X222340000Y-87865000D01*
X222293000Y-87869000D01*
X222246000Y-87870000D01*
X222199000Y-87869000D01*
X222152000Y-87865000D01*
X222105000Y-87859000D01*
X222059000Y-87850000D01*
X222013000Y-87839000D01*
X221968000Y-87826000D01*
X221923000Y-87810000D01*
X221880000Y-87792000D01*
X221837000Y-87772000D01*
X221796000Y-87749000D01*
X221756000Y-87725000D01*
X221717000Y-87698000D01*
X221680000Y-87669000D01*
X221644000Y-87639000D01*
X221610000Y-87606000D01*
X221577000Y-87572000D01*
X221547000Y-87536000D01*
X221518000Y-87499000D01*
X221491000Y-87460000D01*
X221467000Y-87420000D01*
X221444000Y-87379000D01*
X221424000Y-87336000D01*
X221406000Y-87293000D01*
X221390000Y-87248000D01*
X221377000Y-87203000D01*
X221366000Y-87157000D01*
X221357000Y-87111000D01*
X221351000Y-87064000D01*
X221347000Y-87017000D01*
X221346000Y-86970000D01*
X221346000Y-84470000D01*
X223146000Y-84470000D01*
X223146000Y-86970000D01*
G37*
X222293000Y-103851000D02*
X222340000Y-103855000D01*
X222387000Y-103861000D01*
X222433000Y-103870000D01*
X222479000Y-103881000D01*
X222524000Y-103894000D01*
X222569000Y-103910000D01*
X222612000Y-103928000D01*
X222655000Y-103948000D01*
X222696000Y-103971000D01*
X222736000Y-103995000D01*
X222775000Y-104022000D01*
X222812000Y-104051000D01*
X222848000Y-104081000D01*
X222882000Y-104114000D01*
X222915000Y-104148000D01*
X222945000Y-104184000D01*
X222974000Y-104221000D01*
X223001000Y-104260000D01*
X223025000Y-104300000D01*
X223048000Y-104341000D01*
X223068000Y-104384000D01*
X223086000Y-104427000D01*
X223102000Y-104472000D01*
X223115000Y-104517000D01*
X223126000Y-104563000D01*
X223135000Y-104609000D01*
X223141000Y-104656000D01*
X223145000Y-104703000D01*
X223146000Y-104750000D01*
X223146000Y-107250000D01*
X221346000Y-107250000D01*
X221346000Y-104750000D01*
X221347000Y-104703000D01*
X221351000Y-104656000D01*
X221357000Y-104609000D01*
X221366000Y-104563000D01*
X221377000Y-104517000D01*
X221390000Y-104472000D01*
X221406000Y-104427000D01*
X221424000Y-104384000D01*
X221444000Y-104341000D01*
X221467000Y-104300000D01*
X221491000Y-104260000D01*
X221518000Y-104221000D01*
X221547000Y-104184000D01*
X221577000Y-104148000D01*
X221610000Y-104114000D01*
X221644000Y-104081000D01*
X221680000Y-104051000D01*
X221717000Y-104022000D01*
X221756000Y-103995000D01*
X221796000Y-103971000D01*
X221837000Y-103948000D01*
X221880000Y-103928000D01*
X221923000Y-103910000D01*
X221968000Y-103894000D01*
X222013000Y-103881000D01*
X222059000Y-103870000D01*
X222105000Y-103861000D01*
X222152000Y-103855000D01*
X222199000Y-103851000D01*
X222246000Y-103850000D01*
X222293000Y-103851000D01*
G36*
X222293000Y-103851000D02*
G01*
X222340000Y-103855000D01*
X222387000Y-103861000D01*
X222433000Y-103870000D01*
X222479000Y-103881000D01*
X222524000Y-103894000D01*
X222569000Y-103910000D01*
X222612000Y-103928000D01*
X222655000Y-103948000D01*
X222696000Y-103971000D01*
X222736000Y-103995000D01*
X222775000Y-104022000D01*
X222812000Y-104051000D01*
X222848000Y-104081000D01*
X222882000Y-104114000D01*
X222915000Y-104148000D01*
X222945000Y-104184000D01*
X222974000Y-104221000D01*
X223001000Y-104260000D01*
X223025000Y-104300000D01*
X223048000Y-104341000D01*
X223068000Y-104384000D01*
X223086000Y-104427000D01*
X223102000Y-104472000D01*
X223115000Y-104517000D01*
X223126000Y-104563000D01*
X223135000Y-104609000D01*
X223141000Y-104656000D01*
X223145000Y-104703000D01*
X223146000Y-104750000D01*
X223146000Y-107250000D01*
X221346000Y-107250000D01*
X221346000Y-104750000D01*
X221347000Y-104703000D01*
X221351000Y-104656000D01*
X221357000Y-104609000D01*
X221366000Y-104563000D01*
X221377000Y-104517000D01*
X221390000Y-104472000D01*
X221406000Y-104427000D01*
X221424000Y-104384000D01*
X221444000Y-104341000D01*
X221467000Y-104300000D01*
X221491000Y-104260000D01*
X221518000Y-104221000D01*
X221547000Y-104184000D01*
X221577000Y-104148000D01*
X221610000Y-104114000D01*
X221644000Y-104081000D01*
X221680000Y-104051000D01*
X221717000Y-104022000D01*
X221756000Y-103995000D01*
X221796000Y-103971000D01*
X221837000Y-103948000D01*
X221880000Y-103928000D01*
X221923000Y-103910000D01*
X221968000Y-103894000D01*
X222013000Y-103881000D01*
X222059000Y-103870000D01*
X222105000Y-103861000D01*
X222152000Y-103855000D01*
X222199000Y-103851000D01*
X222246000Y-103850000D01*
X222293000Y-103851000D01*
G37*
X228226000Y-86970000D02*
X228225000Y-87017000D01*
X228221000Y-87064000D01*
X228215000Y-87111000D01*
X228206000Y-87157000D01*
X228195000Y-87203000D01*
X228182000Y-87248000D01*
X228166000Y-87293000D01*
X228148000Y-87336000D01*
X228128000Y-87379000D01*
X228105000Y-87420000D01*
X228081000Y-87460000D01*
X228054000Y-87499000D01*
X228025000Y-87536000D01*
X227995000Y-87572000D01*
X227962000Y-87606000D01*
X227928000Y-87639000D01*
X227892000Y-87669000D01*
X227855000Y-87698000D01*
X227816000Y-87725000D01*
X227776000Y-87749000D01*
X227735000Y-87772000D01*
X227692000Y-87792000D01*
X227649000Y-87810000D01*
X227604000Y-87826000D01*
X227559000Y-87839000D01*
X227513000Y-87850000D01*
X227467000Y-87859000D01*
X227420000Y-87865000D01*
X227373000Y-87869000D01*
X227326000Y-87870000D01*
X227279000Y-87869000D01*
X227232000Y-87865000D01*
X227185000Y-87859000D01*
X227139000Y-87850000D01*
X227093000Y-87839000D01*
X227048000Y-87826000D01*
X227003000Y-87810000D01*
X226960000Y-87792000D01*
X226917000Y-87772000D01*
X226876000Y-87749000D01*
X226836000Y-87725000D01*
X226797000Y-87698000D01*
X226760000Y-87669000D01*
X226724000Y-87639000D01*
X226690000Y-87606000D01*
X226657000Y-87572000D01*
X226627000Y-87536000D01*
X226598000Y-87499000D01*
X226571000Y-87460000D01*
X226547000Y-87420000D01*
X226524000Y-87379000D01*
X226504000Y-87336000D01*
X226486000Y-87293000D01*
X226470000Y-87248000D01*
X226457000Y-87203000D01*
X226446000Y-87157000D01*
X226437000Y-87111000D01*
X226431000Y-87064000D01*
X226427000Y-87017000D01*
X226426000Y-86970000D01*
X226426000Y-84470000D01*
X228226000Y-84470000D01*
X228226000Y-86970000D01*
G36*
X228226000Y-86970000D02*
G01*
X228225000Y-87017000D01*
X228221000Y-87064000D01*
X228215000Y-87111000D01*
X228206000Y-87157000D01*
X228195000Y-87203000D01*
X228182000Y-87248000D01*
X228166000Y-87293000D01*
X228148000Y-87336000D01*
X228128000Y-87379000D01*
X228105000Y-87420000D01*
X228081000Y-87460000D01*
X228054000Y-87499000D01*
X228025000Y-87536000D01*
X227995000Y-87572000D01*
X227962000Y-87606000D01*
X227928000Y-87639000D01*
X227892000Y-87669000D01*
X227855000Y-87698000D01*
X227816000Y-87725000D01*
X227776000Y-87749000D01*
X227735000Y-87772000D01*
X227692000Y-87792000D01*
X227649000Y-87810000D01*
X227604000Y-87826000D01*
X227559000Y-87839000D01*
X227513000Y-87850000D01*
X227467000Y-87859000D01*
X227420000Y-87865000D01*
X227373000Y-87869000D01*
X227326000Y-87870000D01*
X227279000Y-87869000D01*
X227232000Y-87865000D01*
X227185000Y-87859000D01*
X227139000Y-87850000D01*
X227093000Y-87839000D01*
X227048000Y-87826000D01*
X227003000Y-87810000D01*
X226960000Y-87792000D01*
X226917000Y-87772000D01*
X226876000Y-87749000D01*
X226836000Y-87725000D01*
X226797000Y-87698000D01*
X226760000Y-87669000D01*
X226724000Y-87639000D01*
X226690000Y-87606000D01*
X226657000Y-87572000D01*
X226627000Y-87536000D01*
X226598000Y-87499000D01*
X226571000Y-87460000D01*
X226547000Y-87420000D01*
X226524000Y-87379000D01*
X226504000Y-87336000D01*
X226486000Y-87293000D01*
X226470000Y-87248000D01*
X226457000Y-87203000D01*
X226446000Y-87157000D01*
X226437000Y-87111000D01*
X226431000Y-87064000D01*
X226427000Y-87017000D01*
X226426000Y-86970000D01*
X226426000Y-84470000D01*
X228226000Y-84470000D01*
X228226000Y-86970000D01*
G37*
X227373000Y-103851000D02*
X227420000Y-103855000D01*
X227467000Y-103861000D01*
X227513000Y-103870000D01*
X227559000Y-103881000D01*
X227604000Y-103894000D01*
X227649000Y-103910000D01*
X227692000Y-103928000D01*
X227735000Y-103948000D01*
X227776000Y-103971000D01*
X227816000Y-103995000D01*
X227855000Y-104022000D01*
X227892000Y-104051000D01*
X227928000Y-104081000D01*
X227962000Y-104114000D01*
X227995000Y-104148000D01*
X228025000Y-104184000D01*
X228054000Y-104221000D01*
X228081000Y-104260000D01*
X228105000Y-104300000D01*
X228128000Y-104341000D01*
X228148000Y-104384000D01*
X228166000Y-104427000D01*
X228182000Y-104472000D01*
X228195000Y-104517000D01*
X228206000Y-104563000D01*
X228215000Y-104609000D01*
X228221000Y-104656000D01*
X228225000Y-104703000D01*
X228226000Y-104750000D01*
X228226000Y-107250000D01*
X226426000Y-107250000D01*
X226426000Y-104750000D01*
X226427000Y-104703000D01*
X226431000Y-104656000D01*
X226437000Y-104609000D01*
X226446000Y-104563000D01*
X226457000Y-104517000D01*
X226470000Y-104472000D01*
X226486000Y-104427000D01*
X226504000Y-104384000D01*
X226524000Y-104341000D01*
X226547000Y-104300000D01*
X226571000Y-104260000D01*
X226598000Y-104221000D01*
X226627000Y-104184000D01*
X226657000Y-104148000D01*
X226690000Y-104114000D01*
X226724000Y-104081000D01*
X226760000Y-104051000D01*
X226797000Y-104022000D01*
X226836000Y-103995000D01*
X226876000Y-103971000D01*
X226917000Y-103948000D01*
X226960000Y-103928000D01*
X227003000Y-103910000D01*
X227048000Y-103894000D01*
X227093000Y-103881000D01*
X227139000Y-103870000D01*
X227185000Y-103861000D01*
X227232000Y-103855000D01*
X227279000Y-103851000D01*
X227326000Y-103850000D01*
X227373000Y-103851000D01*
G36*
X227373000Y-103851000D02*
G01*
X227420000Y-103855000D01*
X227467000Y-103861000D01*
X227513000Y-103870000D01*
X227559000Y-103881000D01*
X227604000Y-103894000D01*
X227649000Y-103910000D01*
X227692000Y-103928000D01*
X227735000Y-103948000D01*
X227776000Y-103971000D01*
X227816000Y-103995000D01*
X227855000Y-104022000D01*
X227892000Y-104051000D01*
X227928000Y-104081000D01*
X227962000Y-104114000D01*
X227995000Y-104148000D01*
X228025000Y-104184000D01*
X228054000Y-104221000D01*
X228081000Y-104260000D01*
X228105000Y-104300000D01*
X228128000Y-104341000D01*
X228148000Y-104384000D01*
X228166000Y-104427000D01*
X228182000Y-104472000D01*
X228195000Y-104517000D01*
X228206000Y-104563000D01*
X228215000Y-104609000D01*
X228221000Y-104656000D01*
X228225000Y-104703000D01*
X228226000Y-104750000D01*
X228226000Y-107250000D01*
X226426000Y-107250000D01*
X226426000Y-104750000D01*
X226427000Y-104703000D01*
X226431000Y-104656000D01*
X226437000Y-104609000D01*
X226446000Y-104563000D01*
X226457000Y-104517000D01*
X226470000Y-104472000D01*
X226486000Y-104427000D01*
X226504000Y-104384000D01*
X226524000Y-104341000D01*
X226547000Y-104300000D01*
X226571000Y-104260000D01*
X226598000Y-104221000D01*
X226627000Y-104184000D01*
X226657000Y-104148000D01*
X226690000Y-104114000D01*
X226724000Y-104081000D01*
X226760000Y-104051000D01*
X226797000Y-104022000D01*
X226836000Y-103995000D01*
X226876000Y-103971000D01*
X226917000Y-103948000D01*
X226960000Y-103928000D01*
X227003000Y-103910000D01*
X227048000Y-103894000D01*
X227093000Y-103881000D01*
X227139000Y-103870000D01*
X227185000Y-103861000D01*
X227232000Y-103855000D01*
X227279000Y-103851000D01*
X227326000Y-103850000D01*
X227373000Y-103851000D01*
G37*
X230766000Y-86970000D02*
X230765000Y-87017000D01*
X230761000Y-87064000D01*
X230755000Y-87111000D01*
X230746000Y-87157000D01*
X230735000Y-87203000D01*
X230722000Y-87248000D01*
X230706000Y-87293000D01*
X230688000Y-87336000D01*
X230668000Y-87379000D01*
X230645000Y-87420000D01*
X230621000Y-87460000D01*
X230594000Y-87499000D01*
X230565000Y-87536000D01*
X230535000Y-87572000D01*
X230502000Y-87606000D01*
X230468000Y-87639000D01*
X230432000Y-87669000D01*
X230395000Y-87698000D01*
X230356000Y-87725000D01*
X230316000Y-87749000D01*
X230275000Y-87772000D01*
X230232000Y-87792000D01*
X230189000Y-87810000D01*
X230144000Y-87826000D01*
X230099000Y-87839000D01*
X230053000Y-87850000D01*
X230007000Y-87859000D01*
X229960000Y-87865000D01*
X229913000Y-87869000D01*
X229866000Y-87870000D01*
X229819000Y-87869000D01*
X229772000Y-87865000D01*
X229725000Y-87859000D01*
X229679000Y-87850000D01*
X229633000Y-87839000D01*
X229588000Y-87826000D01*
X229543000Y-87810000D01*
X229500000Y-87792000D01*
X229457000Y-87772000D01*
X229416000Y-87749000D01*
X229376000Y-87725000D01*
X229337000Y-87698000D01*
X229300000Y-87669000D01*
X229264000Y-87639000D01*
X229230000Y-87606000D01*
X229197000Y-87572000D01*
X229167000Y-87536000D01*
X229138000Y-87499000D01*
X229111000Y-87460000D01*
X229087000Y-87420000D01*
X229064000Y-87379000D01*
X229044000Y-87336000D01*
X229026000Y-87293000D01*
X229010000Y-87248000D01*
X228997000Y-87203000D01*
X228986000Y-87157000D01*
X228977000Y-87111000D01*
X228971000Y-87064000D01*
X228967000Y-87017000D01*
X228966000Y-86970000D01*
X228966000Y-84470000D01*
X230766000Y-84470000D01*
X230766000Y-86970000D01*
G36*
X230766000Y-86970000D02*
G01*
X230765000Y-87017000D01*
X230761000Y-87064000D01*
X230755000Y-87111000D01*
X230746000Y-87157000D01*
X230735000Y-87203000D01*
X230722000Y-87248000D01*
X230706000Y-87293000D01*
X230688000Y-87336000D01*
X230668000Y-87379000D01*
X230645000Y-87420000D01*
X230621000Y-87460000D01*
X230594000Y-87499000D01*
X230565000Y-87536000D01*
X230535000Y-87572000D01*
X230502000Y-87606000D01*
X230468000Y-87639000D01*
X230432000Y-87669000D01*
X230395000Y-87698000D01*
X230356000Y-87725000D01*
X230316000Y-87749000D01*
X230275000Y-87772000D01*
X230232000Y-87792000D01*
X230189000Y-87810000D01*
X230144000Y-87826000D01*
X230099000Y-87839000D01*
X230053000Y-87850000D01*
X230007000Y-87859000D01*
X229960000Y-87865000D01*
X229913000Y-87869000D01*
X229866000Y-87870000D01*
X229819000Y-87869000D01*
X229772000Y-87865000D01*
X229725000Y-87859000D01*
X229679000Y-87850000D01*
X229633000Y-87839000D01*
X229588000Y-87826000D01*
X229543000Y-87810000D01*
X229500000Y-87792000D01*
X229457000Y-87772000D01*
X229416000Y-87749000D01*
X229376000Y-87725000D01*
X229337000Y-87698000D01*
X229300000Y-87669000D01*
X229264000Y-87639000D01*
X229230000Y-87606000D01*
X229197000Y-87572000D01*
X229167000Y-87536000D01*
X229138000Y-87499000D01*
X229111000Y-87460000D01*
X229087000Y-87420000D01*
X229064000Y-87379000D01*
X229044000Y-87336000D01*
X229026000Y-87293000D01*
X229010000Y-87248000D01*
X228997000Y-87203000D01*
X228986000Y-87157000D01*
X228977000Y-87111000D01*
X228971000Y-87064000D01*
X228967000Y-87017000D01*
X228966000Y-86970000D01*
X228966000Y-84470000D01*
X230766000Y-84470000D01*
X230766000Y-86970000D01*
G37*
X229913000Y-103851000D02*
X229960000Y-103855000D01*
X230007000Y-103861000D01*
X230053000Y-103870000D01*
X230099000Y-103881000D01*
X230144000Y-103894000D01*
X230189000Y-103910000D01*
X230232000Y-103928000D01*
X230275000Y-103948000D01*
X230316000Y-103971000D01*
X230356000Y-103995000D01*
X230395000Y-104022000D01*
X230432000Y-104051000D01*
X230468000Y-104081000D01*
X230502000Y-104114000D01*
X230535000Y-104148000D01*
X230565000Y-104184000D01*
X230594000Y-104221000D01*
X230621000Y-104260000D01*
X230645000Y-104300000D01*
X230668000Y-104341000D01*
X230688000Y-104384000D01*
X230706000Y-104427000D01*
X230722000Y-104472000D01*
X230735000Y-104517000D01*
X230746000Y-104563000D01*
X230755000Y-104609000D01*
X230761000Y-104656000D01*
X230765000Y-104703000D01*
X230766000Y-104750000D01*
X230766000Y-107250000D01*
X228966000Y-107250000D01*
X228966000Y-104750000D01*
X228967000Y-104703000D01*
X228971000Y-104656000D01*
X228977000Y-104609000D01*
X228986000Y-104563000D01*
X228997000Y-104517000D01*
X229010000Y-104472000D01*
X229026000Y-104427000D01*
X229044000Y-104384000D01*
X229064000Y-104341000D01*
X229087000Y-104300000D01*
X229111000Y-104260000D01*
X229138000Y-104221000D01*
X229167000Y-104184000D01*
X229197000Y-104148000D01*
X229230000Y-104114000D01*
X229264000Y-104081000D01*
X229300000Y-104051000D01*
X229337000Y-104022000D01*
X229376000Y-103995000D01*
X229416000Y-103971000D01*
X229457000Y-103948000D01*
X229500000Y-103928000D01*
X229543000Y-103910000D01*
X229588000Y-103894000D01*
X229633000Y-103881000D01*
X229679000Y-103870000D01*
X229725000Y-103861000D01*
X229772000Y-103855000D01*
X229819000Y-103851000D01*
X229866000Y-103850000D01*
X229913000Y-103851000D01*
G36*
X229913000Y-103851000D02*
G01*
X229960000Y-103855000D01*
X230007000Y-103861000D01*
X230053000Y-103870000D01*
X230099000Y-103881000D01*
X230144000Y-103894000D01*
X230189000Y-103910000D01*
X230232000Y-103928000D01*
X230275000Y-103948000D01*
X230316000Y-103971000D01*
X230356000Y-103995000D01*
X230395000Y-104022000D01*
X230432000Y-104051000D01*
X230468000Y-104081000D01*
X230502000Y-104114000D01*
X230535000Y-104148000D01*
X230565000Y-104184000D01*
X230594000Y-104221000D01*
X230621000Y-104260000D01*
X230645000Y-104300000D01*
X230668000Y-104341000D01*
X230688000Y-104384000D01*
X230706000Y-104427000D01*
X230722000Y-104472000D01*
X230735000Y-104517000D01*
X230746000Y-104563000D01*
X230755000Y-104609000D01*
X230761000Y-104656000D01*
X230765000Y-104703000D01*
X230766000Y-104750000D01*
X230766000Y-107250000D01*
X228966000Y-107250000D01*
X228966000Y-104750000D01*
X228967000Y-104703000D01*
X228971000Y-104656000D01*
X228977000Y-104609000D01*
X228986000Y-104563000D01*
X228997000Y-104517000D01*
X229010000Y-104472000D01*
X229026000Y-104427000D01*
X229044000Y-104384000D01*
X229064000Y-104341000D01*
X229087000Y-104300000D01*
X229111000Y-104260000D01*
X229138000Y-104221000D01*
X229167000Y-104184000D01*
X229197000Y-104148000D01*
X229230000Y-104114000D01*
X229264000Y-104081000D01*
X229300000Y-104051000D01*
X229337000Y-104022000D01*
X229376000Y-103995000D01*
X229416000Y-103971000D01*
X229457000Y-103948000D01*
X229500000Y-103928000D01*
X229543000Y-103910000D01*
X229588000Y-103894000D01*
X229633000Y-103881000D01*
X229679000Y-103870000D01*
X229725000Y-103861000D01*
X229772000Y-103855000D01*
X229819000Y-103851000D01*
X229866000Y-103850000D01*
X229913000Y-103851000D01*
G37*
X232136000Y-94220000D02*
X229636000Y-94220000D01*
X229589000Y-94219000D01*
X229542000Y-94215000D01*
X229495000Y-94209000D01*
X229449000Y-94200000D01*
X229403000Y-94189000D01*
X229358000Y-94176000D01*
X229313000Y-94160000D01*
X229270000Y-94142000D01*
X229227000Y-94122000D01*
X229186000Y-94099000D01*
X229146000Y-94075000D01*
X229107000Y-94048000D01*
X229070000Y-94019000D01*
X229034000Y-93989000D01*
X229000000Y-93956000D01*
X228967000Y-93922000D01*
X228937000Y-93886000D01*
X228908000Y-93849000D01*
X228881000Y-93810000D01*
X228857000Y-93770000D01*
X228834000Y-93729000D01*
X228814000Y-93686000D01*
X228796000Y-93643000D01*
X228780000Y-93598000D01*
X228767000Y-93553000D01*
X228756000Y-93507000D01*
X228747000Y-93461000D01*
X228741000Y-93414000D01*
X228737000Y-93367000D01*
X228736000Y-93320000D01*
X228737000Y-93273000D01*
X228741000Y-93226000D01*
X228747000Y-93179000D01*
X228756000Y-93133000D01*
X228767000Y-93087000D01*
X228780000Y-93042000D01*
X228796000Y-92997000D01*
X228814000Y-92954000D01*
X228834000Y-92911000D01*
X228857000Y-92870000D01*
X228881000Y-92830000D01*
X228908000Y-92791000D01*
X228937000Y-92754000D01*
X228967000Y-92718000D01*
X229000000Y-92684000D01*
X229034000Y-92651000D01*
X229070000Y-92621000D01*
X229107000Y-92592000D01*
X229146000Y-92565000D01*
X229186000Y-92541000D01*
X229227000Y-92518000D01*
X229270000Y-92498000D01*
X229313000Y-92480000D01*
X229358000Y-92464000D01*
X229403000Y-92451000D01*
X229449000Y-92440000D01*
X229495000Y-92431000D01*
X229542000Y-92425000D01*
X229589000Y-92421000D01*
X229636000Y-92420000D01*
X232136000Y-92420000D01*
X232136000Y-94220000D01*
G36*
X232136000Y-94220000D02*
G01*
X229636000Y-94220000D01*
X229589000Y-94219000D01*
X229542000Y-94215000D01*
X229495000Y-94209000D01*
X229449000Y-94200000D01*
X229403000Y-94189000D01*
X229358000Y-94176000D01*
X229313000Y-94160000D01*
X229270000Y-94142000D01*
X229227000Y-94122000D01*
X229186000Y-94099000D01*
X229146000Y-94075000D01*
X229107000Y-94048000D01*
X229070000Y-94019000D01*
X229034000Y-93989000D01*
X229000000Y-93956000D01*
X228967000Y-93922000D01*
X228937000Y-93886000D01*
X228908000Y-93849000D01*
X228881000Y-93810000D01*
X228857000Y-93770000D01*
X228834000Y-93729000D01*
X228814000Y-93686000D01*
X228796000Y-93643000D01*
X228780000Y-93598000D01*
X228767000Y-93553000D01*
X228756000Y-93507000D01*
X228747000Y-93461000D01*
X228741000Y-93414000D01*
X228737000Y-93367000D01*
X228736000Y-93320000D01*
X228737000Y-93273000D01*
X228741000Y-93226000D01*
X228747000Y-93179000D01*
X228756000Y-93133000D01*
X228767000Y-93087000D01*
X228780000Y-93042000D01*
X228796000Y-92997000D01*
X228814000Y-92954000D01*
X228834000Y-92911000D01*
X228857000Y-92870000D01*
X228881000Y-92830000D01*
X228908000Y-92791000D01*
X228937000Y-92754000D01*
X228967000Y-92718000D01*
X229000000Y-92684000D01*
X229034000Y-92651000D01*
X229070000Y-92621000D01*
X229107000Y-92592000D01*
X229146000Y-92565000D01*
X229186000Y-92541000D01*
X229227000Y-92518000D01*
X229270000Y-92498000D01*
X229313000Y-92480000D01*
X229358000Y-92464000D01*
X229403000Y-92451000D01*
X229449000Y-92440000D01*
X229495000Y-92431000D01*
X229542000Y-92425000D01*
X229589000Y-92421000D01*
X229636000Y-92420000D01*
X232136000Y-92420000D01*
X232136000Y-94220000D01*
G37*
X232136000Y-99300000D02*
X229636000Y-99300000D01*
X229589000Y-99299000D01*
X229542000Y-99295000D01*
X229495000Y-99289000D01*
X229449000Y-99280000D01*
X229403000Y-99269000D01*
X229358000Y-99256000D01*
X229313000Y-99240000D01*
X229270000Y-99222000D01*
X229227000Y-99202000D01*
X229186000Y-99179000D01*
X229146000Y-99155000D01*
X229107000Y-99128000D01*
X229070000Y-99099000D01*
X229034000Y-99069000D01*
X229000000Y-99036000D01*
X228967000Y-99002000D01*
X228937000Y-98966000D01*
X228908000Y-98929000D01*
X228881000Y-98890000D01*
X228857000Y-98850000D01*
X228834000Y-98809000D01*
X228814000Y-98766000D01*
X228796000Y-98723000D01*
X228780000Y-98678000D01*
X228767000Y-98633000D01*
X228756000Y-98587000D01*
X228747000Y-98541000D01*
X228741000Y-98494000D01*
X228737000Y-98447000D01*
X228736000Y-98400000D01*
X228737000Y-98353000D01*
X228741000Y-98306000D01*
X228747000Y-98259000D01*
X228756000Y-98213000D01*
X228767000Y-98167000D01*
X228780000Y-98122000D01*
X228796000Y-98077000D01*
X228814000Y-98034000D01*
X228834000Y-97991000D01*
X228857000Y-97950000D01*
X228881000Y-97910000D01*
X228908000Y-97871000D01*
X228937000Y-97834000D01*
X228967000Y-97798000D01*
X229000000Y-97764000D01*
X229034000Y-97731000D01*
X229070000Y-97701000D01*
X229107000Y-97672000D01*
X229146000Y-97645000D01*
X229186000Y-97621000D01*
X229227000Y-97598000D01*
X229270000Y-97578000D01*
X229313000Y-97560000D01*
X229358000Y-97544000D01*
X229403000Y-97531000D01*
X229449000Y-97520000D01*
X229495000Y-97511000D01*
X229542000Y-97505000D01*
X229589000Y-97501000D01*
X229636000Y-97500000D01*
X232136000Y-97500000D01*
X232136000Y-99300000D01*
G36*
X232136000Y-99300000D02*
G01*
X229636000Y-99300000D01*
X229589000Y-99299000D01*
X229542000Y-99295000D01*
X229495000Y-99289000D01*
X229449000Y-99280000D01*
X229403000Y-99269000D01*
X229358000Y-99256000D01*
X229313000Y-99240000D01*
X229270000Y-99222000D01*
X229227000Y-99202000D01*
X229186000Y-99179000D01*
X229146000Y-99155000D01*
X229107000Y-99128000D01*
X229070000Y-99099000D01*
X229034000Y-99069000D01*
X229000000Y-99036000D01*
X228967000Y-99002000D01*
X228937000Y-98966000D01*
X228908000Y-98929000D01*
X228881000Y-98890000D01*
X228857000Y-98850000D01*
X228834000Y-98809000D01*
X228814000Y-98766000D01*
X228796000Y-98723000D01*
X228780000Y-98678000D01*
X228767000Y-98633000D01*
X228756000Y-98587000D01*
X228747000Y-98541000D01*
X228741000Y-98494000D01*
X228737000Y-98447000D01*
X228736000Y-98400000D01*
X228737000Y-98353000D01*
X228741000Y-98306000D01*
X228747000Y-98259000D01*
X228756000Y-98213000D01*
X228767000Y-98167000D01*
X228780000Y-98122000D01*
X228796000Y-98077000D01*
X228814000Y-98034000D01*
X228834000Y-97991000D01*
X228857000Y-97950000D01*
X228881000Y-97910000D01*
X228908000Y-97871000D01*
X228937000Y-97834000D01*
X228967000Y-97798000D01*
X229000000Y-97764000D01*
X229034000Y-97731000D01*
X229070000Y-97701000D01*
X229107000Y-97672000D01*
X229146000Y-97645000D01*
X229186000Y-97621000D01*
X229227000Y-97598000D01*
X229270000Y-97578000D01*
X229313000Y-97560000D01*
X229358000Y-97544000D01*
X229403000Y-97531000D01*
X229449000Y-97520000D01*
X229495000Y-97511000D01*
X229542000Y-97505000D01*
X229589000Y-97501000D01*
X229636000Y-97500000D01*
X232136000Y-97500000D01*
X232136000Y-99300000D01*
G37*
X187586000Y-87570000D02*
X187586000Y-87586000D01*
X187584000Y-87601000D01*
X187582000Y-87617000D01*
X187579000Y-87632000D01*
X187576000Y-87648000D01*
X187571000Y-87663000D01*
X187566000Y-87678000D01*
X187560000Y-87692000D01*
X187553000Y-87706000D01*
X187546000Y-87720000D01*
X187538000Y-87733000D01*
X187529000Y-87746000D01*
X187519000Y-87759000D01*
X187509000Y-87771000D01*
X187498000Y-87782000D01*
X187487000Y-87793000D01*
X187475000Y-87803000D01*
X187462000Y-87813000D01*
X187449000Y-87822000D01*
X187436000Y-87830000D01*
X187422000Y-87837000D01*
X187408000Y-87844000D01*
X187394000Y-87850000D01*
X187379000Y-87855000D01*
X187364000Y-87860000D01*
X187348000Y-87863000D01*
X187333000Y-87866000D01*
X187317000Y-87868000D01*
X187302000Y-87870000D01*
X187286000Y-87870000D01*
X186086000Y-87870000D01*
X186070000Y-87870000D01*
X186055000Y-87868000D01*
X186039000Y-87866000D01*
X186024000Y-87863000D01*
X186008000Y-87860000D01*
X185993000Y-87855000D01*
X185978000Y-87850000D01*
X185964000Y-87844000D01*
X185950000Y-87837000D01*
X185936000Y-87830000D01*
X185923000Y-87822000D01*
X185910000Y-87813000D01*
X185897000Y-87803000D01*
X185885000Y-87793000D01*
X185874000Y-87782000D01*
X185863000Y-87771000D01*
X185853000Y-87759000D01*
X185843000Y-87746000D01*
X185834000Y-87733000D01*
X185826000Y-87720000D01*
X185819000Y-87706000D01*
X185812000Y-87692000D01*
X185806000Y-87678000D01*
X185801000Y-87663000D01*
X185796000Y-87648000D01*
X185793000Y-87632000D01*
X185790000Y-87617000D01*
X185788000Y-87601000D01*
X185786000Y-87586000D01*
X185786000Y-87570000D01*
X185786000Y-84470000D01*
X187586000Y-84470000D01*
X187586000Y-87570000D01*
G36*
X187586000Y-87570000D02*
G01*
X187586000Y-87586000D01*
X187584000Y-87601000D01*
X187582000Y-87617000D01*
X187579000Y-87632000D01*
X187576000Y-87648000D01*
X187571000Y-87663000D01*
X187566000Y-87678000D01*
X187560000Y-87692000D01*
X187553000Y-87706000D01*
X187546000Y-87720000D01*
X187538000Y-87733000D01*
X187529000Y-87746000D01*
X187519000Y-87759000D01*
X187509000Y-87771000D01*
X187498000Y-87782000D01*
X187487000Y-87793000D01*
X187475000Y-87803000D01*
X187462000Y-87813000D01*
X187449000Y-87822000D01*
X187436000Y-87830000D01*
X187422000Y-87837000D01*
X187408000Y-87844000D01*
X187394000Y-87850000D01*
X187379000Y-87855000D01*
X187364000Y-87860000D01*
X187348000Y-87863000D01*
X187333000Y-87866000D01*
X187317000Y-87868000D01*
X187302000Y-87870000D01*
X187286000Y-87870000D01*
X186086000Y-87870000D01*
X186070000Y-87870000D01*
X186055000Y-87868000D01*
X186039000Y-87866000D01*
X186024000Y-87863000D01*
X186008000Y-87860000D01*
X185993000Y-87855000D01*
X185978000Y-87850000D01*
X185964000Y-87844000D01*
X185950000Y-87837000D01*
X185936000Y-87830000D01*
X185923000Y-87822000D01*
X185910000Y-87813000D01*
X185897000Y-87803000D01*
X185885000Y-87793000D01*
X185874000Y-87782000D01*
X185863000Y-87771000D01*
X185853000Y-87759000D01*
X185843000Y-87746000D01*
X185834000Y-87733000D01*
X185826000Y-87720000D01*
X185819000Y-87706000D01*
X185812000Y-87692000D01*
X185806000Y-87678000D01*
X185801000Y-87663000D01*
X185796000Y-87648000D01*
X185793000Y-87632000D01*
X185790000Y-87617000D01*
X185788000Y-87601000D01*
X185786000Y-87586000D01*
X185786000Y-87570000D01*
X185786000Y-84470000D01*
X187586000Y-84470000D01*
X187586000Y-87570000D01*
G37*
X187317000Y-103852000D02*
X187333000Y-103854000D01*
X187348000Y-103857000D01*
X187364000Y-103860000D01*
X187379000Y-103865000D01*
X187394000Y-103870000D01*
X187408000Y-103876000D01*
X187422000Y-103883000D01*
X187436000Y-103890000D01*
X187449000Y-103898000D01*
X187462000Y-103907000D01*
X187475000Y-103917000D01*
X187487000Y-103927000D01*
X187498000Y-103938000D01*
X187509000Y-103949000D01*
X187519000Y-103961000D01*
X187529000Y-103974000D01*
X187538000Y-103987000D01*
X187546000Y-104000000D01*
X187553000Y-104014000D01*
X187560000Y-104028000D01*
X187566000Y-104042000D01*
X187571000Y-104057000D01*
X187576000Y-104072000D01*
X187579000Y-104088000D01*
X187582000Y-104103000D01*
X187584000Y-104119000D01*
X187586000Y-104134000D01*
X187586000Y-104150000D01*
X187586000Y-107250000D01*
X185786000Y-107250000D01*
X185786000Y-104150000D01*
X185786000Y-104134000D01*
X185788000Y-104119000D01*
X185790000Y-104103000D01*
X185793000Y-104088000D01*
X185796000Y-104072000D01*
X185801000Y-104057000D01*
X185806000Y-104042000D01*
X185812000Y-104028000D01*
X185819000Y-104014000D01*
X185826000Y-104000000D01*
X185834000Y-103987000D01*
X185843000Y-103974000D01*
X185853000Y-103961000D01*
X185863000Y-103949000D01*
X185874000Y-103938000D01*
X185885000Y-103927000D01*
X185897000Y-103917000D01*
X185910000Y-103907000D01*
X185923000Y-103898000D01*
X185936000Y-103890000D01*
X185950000Y-103883000D01*
X185964000Y-103876000D01*
X185978000Y-103870000D01*
X185993000Y-103865000D01*
X186008000Y-103860000D01*
X186024000Y-103857000D01*
X186039000Y-103854000D01*
X186055000Y-103852000D01*
X186070000Y-103850000D01*
X186086000Y-103850000D01*
X187286000Y-103850000D01*
X187302000Y-103850000D01*
X187317000Y-103852000D01*
G36*
X187317000Y-103852000D02*
G01*
X187333000Y-103854000D01*
X187348000Y-103857000D01*
X187364000Y-103860000D01*
X187379000Y-103865000D01*
X187394000Y-103870000D01*
X187408000Y-103876000D01*
X187422000Y-103883000D01*
X187436000Y-103890000D01*
X187449000Y-103898000D01*
X187462000Y-103907000D01*
X187475000Y-103917000D01*
X187487000Y-103927000D01*
X187498000Y-103938000D01*
X187509000Y-103949000D01*
X187519000Y-103961000D01*
X187529000Y-103974000D01*
X187538000Y-103987000D01*
X187546000Y-104000000D01*
X187553000Y-104014000D01*
X187560000Y-104028000D01*
X187566000Y-104042000D01*
X187571000Y-104057000D01*
X187576000Y-104072000D01*
X187579000Y-104088000D01*
X187582000Y-104103000D01*
X187584000Y-104119000D01*
X187586000Y-104134000D01*
X187586000Y-104150000D01*
X187586000Y-107250000D01*
X185786000Y-107250000D01*
X185786000Y-104150000D01*
X185786000Y-104134000D01*
X185788000Y-104119000D01*
X185790000Y-104103000D01*
X185793000Y-104088000D01*
X185796000Y-104072000D01*
X185801000Y-104057000D01*
X185806000Y-104042000D01*
X185812000Y-104028000D01*
X185819000Y-104014000D01*
X185826000Y-104000000D01*
X185834000Y-103987000D01*
X185843000Y-103974000D01*
X185853000Y-103961000D01*
X185863000Y-103949000D01*
X185874000Y-103938000D01*
X185885000Y-103927000D01*
X185897000Y-103917000D01*
X185910000Y-103907000D01*
X185923000Y-103898000D01*
X185936000Y-103890000D01*
X185950000Y-103883000D01*
X185964000Y-103876000D01*
X185978000Y-103870000D01*
X185993000Y-103865000D01*
X186008000Y-103860000D01*
X186024000Y-103857000D01*
X186039000Y-103854000D01*
X186055000Y-103852000D01*
X186070000Y-103850000D01*
X186086000Y-103850000D01*
X187286000Y-103850000D01*
X187302000Y-103850000D01*
X187317000Y-103852000D01*
G37*
X200286000Y-87570000D02*
X200286000Y-87586000D01*
X200284000Y-87601000D01*
X200282000Y-87617000D01*
X200279000Y-87632000D01*
X200276000Y-87648000D01*
X200271000Y-87663000D01*
X200266000Y-87678000D01*
X200260000Y-87692000D01*
X200253000Y-87706000D01*
X200246000Y-87720000D01*
X200238000Y-87733000D01*
X200229000Y-87746000D01*
X200219000Y-87759000D01*
X200209000Y-87771000D01*
X200198000Y-87782000D01*
X200187000Y-87793000D01*
X200175000Y-87803000D01*
X200162000Y-87813000D01*
X200149000Y-87822000D01*
X200136000Y-87830000D01*
X200122000Y-87837000D01*
X200108000Y-87844000D01*
X200094000Y-87850000D01*
X200079000Y-87855000D01*
X200064000Y-87860000D01*
X200048000Y-87863000D01*
X200033000Y-87866000D01*
X200017000Y-87868000D01*
X200002000Y-87870000D01*
X199986000Y-87870000D01*
X198786000Y-87870000D01*
X198770000Y-87870000D01*
X198755000Y-87868000D01*
X198739000Y-87866000D01*
X198724000Y-87863000D01*
X198708000Y-87860000D01*
X198693000Y-87855000D01*
X198678000Y-87850000D01*
X198664000Y-87844000D01*
X198650000Y-87837000D01*
X198636000Y-87830000D01*
X198623000Y-87822000D01*
X198610000Y-87813000D01*
X198597000Y-87803000D01*
X198585000Y-87793000D01*
X198574000Y-87782000D01*
X198563000Y-87771000D01*
X198553000Y-87759000D01*
X198543000Y-87746000D01*
X198534000Y-87733000D01*
X198526000Y-87720000D01*
X198519000Y-87706000D01*
X198512000Y-87692000D01*
X198506000Y-87678000D01*
X198501000Y-87663000D01*
X198496000Y-87648000D01*
X198493000Y-87632000D01*
X198490000Y-87617000D01*
X198488000Y-87601000D01*
X198486000Y-87586000D01*
X198486000Y-87570000D01*
X198486000Y-84470000D01*
X200286000Y-84470000D01*
X200286000Y-87570000D01*
G36*
X200286000Y-87570000D02*
G01*
X200286000Y-87586000D01*
X200284000Y-87601000D01*
X200282000Y-87617000D01*
X200279000Y-87632000D01*
X200276000Y-87648000D01*
X200271000Y-87663000D01*
X200266000Y-87678000D01*
X200260000Y-87692000D01*
X200253000Y-87706000D01*
X200246000Y-87720000D01*
X200238000Y-87733000D01*
X200229000Y-87746000D01*
X200219000Y-87759000D01*
X200209000Y-87771000D01*
X200198000Y-87782000D01*
X200187000Y-87793000D01*
X200175000Y-87803000D01*
X200162000Y-87813000D01*
X200149000Y-87822000D01*
X200136000Y-87830000D01*
X200122000Y-87837000D01*
X200108000Y-87844000D01*
X200094000Y-87850000D01*
X200079000Y-87855000D01*
X200064000Y-87860000D01*
X200048000Y-87863000D01*
X200033000Y-87866000D01*
X200017000Y-87868000D01*
X200002000Y-87870000D01*
X199986000Y-87870000D01*
X198786000Y-87870000D01*
X198770000Y-87870000D01*
X198755000Y-87868000D01*
X198739000Y-87866000D01*
X198724000Y-87863000D01*
X198708000Y-87860000D01*
X198693000Y-87855000D01*
X198678000Y-87850000D01*
X198664000Y-87844000D01*
X198650000Y-87837000D01*
X198636000Y-87830000D01*
X198623000Y-87822000D01*
X198610000Y-87813000D01*
X198597000Y-87803000D01*
X198585000Y-87793000D01*
X198574000Y-87782000D01*
X198563000Y-87771000D01*
X198553000Y-87759000D01*
X198543000Y-87746000D01*
X198534000Y-87733000D01*
X198526000Y-87720000D01*
X198519000Y-87706000D01*
X198512000Y-87692000D01*
X198506000Y-87678000D01*
X198501000Y-87663000D01*
X198496000Y-87648000D01*
X198493000Y-87632000D01*
X198490000Y-87617000D01*
X198488000Y-87601000D01*
X198486000Y-87586000D01*
X198486000Y-87570000D01*
X198486000Y-84470000D01*
X200286000Y-84470000D01*
X200286000Y-87570000D01*
G37*
X200017000Y-103852000D02*
X200033000Y-103854000D01*
X200048000Y-103857000D01*
X200064000Y-103860000D01*
X200079000Y-103865000D01*
X200094000Y-103870000D01*
X200108000Y-103876000D01*
X200122000Y-103883000D01*
X200136000Y-103890000D01*
X200149000Y-103898000D01*
X200162000Y-103907000D01*
X200175000Y-103917000D01*
X200187000Y-103927000D01*
X200198000Y-103938000D01*
X200209000Y-103949000D01*
X200219000Y-103961000D01*
X200229000Y-103974000D01*
X200238000Y-103987000D01*
X200246000Y-104000000D01*
X200253000Y-104014000D01*
X200260000Y-104028000D01*
X200266000Y-104042000D01*
X200271000Y-104057000D01*
X200276000Y-104072000D01*
X200279000Y-104088000D01*
X200282000Y-104103000D01*
X200284000Y-104119000D01*
X200286000Y-104134000D01*
X200286000Y-104150000D01*
X200286000Y-107250000D01*
X198486000Y-107250000D01*
X198486000Y-104150000D01*
X198486000Y-104134000D01*
X198488000Y-104119000D01*
X198490000Y-104103000D01*
X198493000Y-104088000D01*
X198496000Y-104072000D01*
X198501000Y-104057000D01*
X198506000Y-104042000D01*
X198512000Y-104028000D01*
X198519000Y-104014000D01*
X198526000Y-104000000D01*
X198534000Y-103987000D01*
X198543000Y-103974000D01*
X198553000Y-103961000D01*
X198563000Y-103949000D01*
X198574000Y-103938000D01*
X198585000Y-103927000D01*
X198597000Y-103917000D01*
X198610000Y-103907000D01*
X198623000Y-103898000D01*
X198636000Y-103890000D01*
X198650000Y-103883000D01*
X198664000Y-103876000D01*
X198678000Y-103870000D01*
X198693000Y-103865000D01*
X198708000Y-103860000D01*
X198724000Y-103857000D01*
X198739000Y-103854000D01*
X198755000Y-103852000D01*
X198770000Y-103850000D01*
X198786000Y-103850000D01*
X199986000Y-103850000D01*
X200002000Y-103850000D01*
X200017000Y-103852000D01*
G36*
X200017000Y-103852000D02*
G01*
X200033000Y-103854000D01*
X200048000Y-103857000D01*
X200064000Y-103860000D01*
X200079000Y-103865000D01*
X200094000Y-103870000D01*
X200108000Y-103876000D01*
X200122000Y-103883000D01*
X200136000Y-103890000D01*
X200149000Y-103898000D01*
X200162000Y-103907000D01*
X200175000Y-103917000D01*
X200187000Y-103927000D01*
X200198000Y-103938000D01*
X200209000Y-103949000D01*
X200219000Y-103961000D01*
X200229000Y-103974000D01*
X200238000Y-103987000D01*
X200246000Y-104000000D01*
X200253000Y-104014000D01*
X200260000Y-104028000D01*
X200266000Y-104042000D01*
X200271000Y-104057000D01*
X200276000Y-104072000D01*
X200279000Y-104088000D01*
X200282000Y-104103000D01*
X200284000Y-104119000D01*
X200286000Y-104134000D01*
X200286000Y-104150000D01*
X200286000Y-107250000D01*
X198486000Y-107250000D01*
X198486000Y-104150000D01*
X198486000Y-104134000D01*
X198488000Y-104119000D01*
X198490000Y-104103000D01*
X198493000Y-104088000D01*
X198496000Y-104072000D01*
X198501000Y-104057000D01*
X198506000Y-104042000D01*
X198512000Y-104028000D01*
X198519000Y-104014000D01*
X198526000Y-104000000D01*
X198534000Y-103987000D01*
X198543000Y-103974000D01*
X198553000Y-103961000D01*
X198563000Y-103949000D01*
X198574000Y-103938000D01*
X198585000Y-103927000D01*
X198597000Y-103917000D01*
X198610000Y-103907000D01*
X198623000Y-103898000D01*
X198636000Y-103890000D01*
X198650000Y-103883000D01*
X198664000Y-103876000D01*
X198678000Y-103870000D01*
X198693000Y-103865000D01*
X198708000Y-103860000D01*
X198724000Y-103857000D01*
X198739000Y-103854000D01*
X198755000Y-103852000D01*
X198770000Y-103850000D01*
X198786000Y-103850000D01*
X199986000Y-103850000D01*
X200002000Y-103850000D01*
X200017000Y-103852000D01*
G37*
X212986000Y-87570000D02*
X212986000Y-87586000D01*
X212984000Y-87601000D01*
X212982000Y-87617000D01*
X212979000Y-87632000D01*
X212976000Y-87648000D01*
X212971000Y-87663000D01*
X212966000Y-87678000D01*
X212960000Y-87692000D01*
X212953000Y-87706000D01*
X212946000Y-87720000D01*
X212938000Y-87733000D01*
X212929000Y-87746000D01*
X212919000Y-87759000D01*
X212909000Y-87771000D01*
X212898000Y-87782000D01*
X212887000Y-87793000D01*
X212875000Y-87803000D01*
X212862000Y-87813000D01*
X212849000Y-87822000D01*
X212836000Y-87830000D01*
X212822000Y-87837000D01*
X212808000Y-87844000D01*
X212794000Y-87850000D01*
X212779000Y-87855000D01*
X212764000Y-87860000D01*
X212748000Y-87863000D01*
X212733000Y-87866000D01*
X212717000Y-87868000D01*
X212702000Y-87870000D01*
X212686000Y-87870000D01*
X211486000Y-87870000D01*
X211470000Y-87870000D01*
X211455000Y-87868000D01*
X211439000Y-87866000D01*
X211424000Y-87863000D01*
X211408000Y-87860000D01*
X211393000Y-87855000D01*
X211378000Y-87850000D01*
X211364000Y-87844000D01*
X211350000Y-87837000D01*
X211336000Y-87830000D01*
X211323000Y-87822000D01*
X211310000Y-87813000D01*
X211297000Y-87803000D01*
X211285000Y-87793000D01*
X211274000Y-87782000D01*
X211263000Y-87771000D01*
X211253000Y-87759000D01*
X211243000Y-87746000D01*
X211234000Y-87733000D01*
X211226000Y-87720000D01*
X211219000Y-87706000D01*
X211212000Y-87692000D01*
X211206000Y-87678000D01*
X211201000Y-87663000D01*
X211196000Y-87648000D01*
X211193000Y-87632000D01*
X211190000Y-87617000D01*
X211188000Y-87601000D01*
X211186000Y-87586000D01*
X211186000Y-87570000D01*
X211186000Y-84470000D01*
X212986000Y-84470000D01*
X212986000Y-87570000D01*
G36*
X212986000Y-87570000D02*
G01*
X212986000Y-87586000D01*
X212984000Y-87601000D01*
X212982000Y-87617000D01*
X212979000Y-87632000D01*
X212976000Y-87648000D01*
X212971000Y-87663000D01*
X212966000Y-87678000D01*
X212960000Y-87692000D01*
X212953000Y-87706000D01*
X212946000Y-87720000D01*
X212938000Y-87733000D01*
X212929000Y-87746000D01*
X212919000Y-87759000D01*
X212909000Y-87771000D01*
X212898000Y-87782000D01*
X212887000Y-87793000D01*
X212875000Y-87803000D01*
X212862000Y-87813000D01*
X212849000Y-87822000D01*
X212836000Y-87830000D01*
X212822000Y-87837000D01*
X212808000Y-87844000D01*
X212794000Y-87850000D01*
X212779000Y-87855000D01*
X212764000Y-87860000D01*
X212748000Y-87863000D01*
X212733000Y-87866000D01*
X212717000Y-87868000D01*
X212702000Y-87870000D01*
X212686000Y-87870000D01*
X211486000Y-87870000D01*
X211470000Y-87870000D01*
X211455000Y-87868000D01*
X211439000Y-87866000D01*
X211424000Y-87863000D01*
X211408000Y-87860000D01*
X211393000Y-87855000D01*
X211378000Y-87850000D01*
X211364000Y-87844000D01*
X211350000Y-87837000D01*
X211336000Y-87830000D01*
X211323000Y-87822000D01*
X211310000Y-87813000D01*
X211297000Y-87803000D01*
X211285000Y-87793000D01*
X211274000Y-87782000D01*
X211263000Y-87771000D01*
X211253000Y-87759000D01*
X211243000Y-87746000D01*
X211234000Y-87733000D01*
X211226000Y-87720000D01*
X211219000Y-87706000D01*
X211212000Y-87692000D01*
X211206000Y-87678000D01*
X211201000Y-87663000D01*
X211196000Y-87648000D01*
X211193000Y-87632000D01*
X211190000Y-87617000D01*
X211188000Y-87601000D01*
X211186000Y-87586000D01*
X211186000Y-87570000D01*
X211186000Y-84470000D01*
X212986000Y-84470000D01*
X212986000Y-87570000D01*
G37*
X212717000Y-103852000D02*
X212733000Y-103854000D01*
X212748000Y-103857000D01*
X212764000Y-103860000D01*
X212779000Y-103865000D01*
X212794000Y-103870000D01*
X212808000Y-103876000D01*
X212822000Y-103883000D01*
X212836000Y-103890000D01*
X212849000Y-103898000D01*
X212862000Y-103907000D01*
X212875000Y-103917000D01*
X212887000Y-103927000D01*
X212898000Y-103938000D01*
X212909000Y-103949000D01*
X212919000Y-103961000D01*
X212929000Y-103974000D01*
X212938000Y-103987000D01*
X212946000Y-104000000D01*
X212953000Y-104014000D01*
X212960000Y-104028000D01*
X212966000Y-104042000D01*
X212971000Y-104057000D01*
X212976000Y-104072000D01*
X212979000Y-104088000D01*
X212982000Y-104103000D01*
X212984000Y-104119000D01*
X212986000Y-104134000D01*
X212986000Y-104150000D01*
X212986000Y-107250000D01*
X211186000Y-107250000D01*
X211186000Y-104150000D01*
X211186000Y-104134000D01*
X211188000Y-104119000D01*
X211190000Y-104103000D01*
X211193000Y-104088000D01*
X211196000Y-104072000D01*
X211201000Y-104057000D01*
X211206000Y-104042000D01*
X211212000Y-104028000D01*
X211219000Y-104014000D01*
X211226000Y-104000000D01*
X211234000Y-103987000D01*
X211243000Y-103974000D01*
X211253000Y-103961000D01*
X211263000Y-103949000D01*
X211274000Y-103938000D01*
X211285000Y-103927000D01*
X211297000Y-103917000D01*
X211310000Y-103907000D01*
X211323000Y-103898000D01*
X211336000Y-103890000D01*
X211350000Y-103883000D01*
X211364000Y-103876000D01*
X211378000Y-103870000D01*
X211393000Y-103865000D01*
X211408000Y-103860000D01*
X211424000Y-103857000D01*
X211439000Y-103854000D01*
X211455000Y-103852000D01*
X211470000Y-103850000D01*
X211486000Y-103850000D01*
X212686000Y-103850000D01*
X212702000Y-103850000D01*
X212717000Y-103852000D01*
G36*
X212717000Y-103852000D02*
G01*
X212733000Y-103854000D01*
X212748000Y-103857000D01*
X212764000Y-103860000D01*
X212779000Y-103865000D01*
X212794000Y-103870000D01*
X212808000Y-103876000D01*
X212822000Y-103883000D01*
X212836000Y-103890000D01*
X212849000Y-103898000D01*
X212862000Y-103907000D01*
X212875000Y-103917000D01*
X212887000Y-103927000D01*
X212898000Y-103938000D01*
X212909000Y-103949000D01*
X212919000Y-103961000D01*
X212929000Y-103974000D01*
X212938000Y-103987000D01*
X212946000Y-104000000D01*
X212953000Y-104014000D01*
X212960000Y-104028000D01*
X212966000Y-104042000D01*
X212971000Y-104057000D01*
X212976000Y-104072000D01*
X212979000Y-104088000D01*
X212982000Y-104103000D01*
X212984000Y-104119000D01*
X212986000Y-104134000D01*
X212986000Y-104150000D01*
X212986000Y-107250000D01*
X211186000Y-107250000D01*
X211186000Y-104150000D01*
X211186000Y-104134000D01*
X211188000Y-104119000D01*
X211190000Y-104103000D01*
X211193000Y-104088000D01*
X211196000Y-104072000D01*
X211201000Y-104057000D01*
X211206000Y-104042000D01*
X211212000Y-104028000D01*
X211219000Y-104014000D01*
X211226000Y-104000000D01*
X211234000Y-103987000D01*
X211243000Y-103974000D01*
X211253000Y-103961000D01*
X211263000Y-103949000D01*
X211274000Y-103938000D01*
X211285000Y-103927000D01*
X211297000Y-103917000D01*
X211310000Y-103907000D01*
X211323000Y-103898000D01*
X211336000Y-103890000D01*
X211350000Y-103883000D01*
X211364000Y-103876000D01*
X211378000Y-103870000D01*
X211393000Y-103865000D01*
X211408000Y-103860000D01*
X211424000Y-103857000D01*
X211439000Y-103854000D01*
X211455000Y-103852000D01*
X211470000Y-103850000D01*
X211486000Y-103850000D01*
X212686000Y-103850000D01*
X212702000Y-103850000D01*
X212717000Y-103852000D01*
G37*
X225686000Y-87570000D02*
X225686000Y-87586000D01*
X225684000Y-87601000D01*
X225682000Y-87617000D01*
X225679000Y-87632000D01*
X225676000Y-87648000D01*
X225671000Y-87663000D01*
X225666000Y-87678000D01*
X225660000Y-87692000D01*
X225653000Y-87706000D01*
X225646000Y-87720000D01*
X225638000Y-87733000D01*
X225629000Y-87746000D01*
X225619000Y-87759000D01*
X225609000Y-87771000D01*
X225598000Y-87782000D01*
X225587000Y-87793000D01*
X225575000Y-87803000D01*
X225562000Y-87813000D01*
X225549000Y-87822000D01*
X225536000Y-87830000D01*
X225522000Y-87837000D01*
X225508000Y-87844000D01*
X225494000Y-87850000D01*
X225479000Y-87855000D01*
X225464000Y-87860000D01*
X225448000Y-87863000D01*
X225433000Y-87866000D01*
X225417000Y-87868000D01*
X225402000Y-87870000D01*
X225386000Y-87870000D01*
X224186000Y-87870000D01*
X224170000Y-87870000D01*
X224155000Y-87868000D01*
X224139000Y-87866000D01*
X224124000Y-87863000D01*
X224108000Y-87860000D01*
X224093000Y-87855000D01*
X224078000Y-87850000D01*
X224064000Y-87844000D01*
X224050000Y-87837000D01*
X224036000Y-87830000D01*
X224023000Y-87822000D01*
X224010000Y-87813000D01*
X223997000Y-87803000D01*
X223985000Y-87793000D01*
X223974000Y-87782000D01*
X223963000Y-87771000D01*
X223953000Y-87759000D01*
X223943000Y-87746000D01*
X223934000Y-87733000D01*
X223926000Y-87720000D01*
X223919000Y-87706000D01*
X223912000Y-87692000D01*
X223906000Y-87678000D01*
X223901000Y-87663000D01*
X223896000Y-87648000D01*
X223893000Y-87632000D01*
X223890000Y-87617000D01*
X223888000Y-87601000D01*
X223886000Y-87586000D01*
X223886000Y-87570000D01*
X223886000Y-84470000D01*
X225686000Y-84470000D01*
X225686000Y-87570000D01*
G36*
X225686000Y-87570000D02*
G01*
X225686000Y-87586000D01*
X225684000Y-87601000D01*
X225682000Y-87617000D01*
X225679000Y-87632000D01*
X225676000Y-87648000D01*
X225671000Y-87663000D01*
X225666000Y-87678000D01*
X225660000Y-87692000D01*
X225653000Y-87706000D01*
X225646000Y-87720000D01*
X225638000Y-87733000D01*
X225629000Y-87746000D01*
X225619000Y-87759000D01*
X225609000Y-87771000D01*
X225598000Y-87782000D01*
X225587000Y-87793000D01*
X225575000Y-87803000D01*
X225562000Y-87813000D01*
X225549000Y-87822000D01*
X225536000Y-87830000D01*
X225522000Y-87837000D01*
X225508000Y-87844000D01*
X225494000Y-87850000D01*
X225479000Y-87855000D01*
X225464000Y-87860000D01*
X225448000Y-87863000D01*
X225433000Y-87866000D01*
X225417000Y-87868000D01*
X225402000Y-87870000D01*
X225386000Y-87870000D01*
X224186000Y-87870000D01*
X224170000Y-87870000D01*
X224155000Y-87868000D01*
X224139000Y-87866000D01*
X224124000Y-87863000D01*
X224108000Y-87860000D01*
X224093000Y-87855000D01*
X224078000Y-87850000D01*
X224064000Y-87844000D01*
X224050000Y-87837000D01*
X224036000Y-87830000D01*
X224023000Y-87822000D01*
X224010000Y-87813000D01*
X223997000Y-87803000D01*
X223985000Y-87793000D01*
X223974000Y-87782000D01*
X223963000Y-87771000D01*
X223953000Y-87759000D01*
X223943000Y-87746000D01*
X223934000Y-87733000D01*
X223926000Y-87720000D01*
X223919000Y-87706000D01*
X223912000Y-87692000D01*
X223906000Y-87678000D01*
X223901000Y-87663000D01*
X223896000Y-87648000D01*
X223893000Y-87632000D01*
X223890000Y-87617000D01*
X223888000Y-87601000D01*
X223886000Y-87586000D01*
X223886000Y-87570000D01*
X223886000Y-84470000D01*
X225686000Y-84470000D01*
X225686000Y-87570000D01*
G37*
X225417000Y-103852000D02*
X225433000Y-103854000D01*
X225448000Y-103857000D01*
X225464000Y-103860000D01*
X225479000Y-103865000D01*
X225494000Y-103870000D01*
X225508000Y-103876000D01*
X225522000Y-103883000D01*
X225536000Y-103890000D01*
X225549000Y-103898000D01*
X225562000Y-103907000D01*
X225575000Y-103917000D01*
X225587000Y-103927000D01*
X225598000Y-103938000D01*
X225609000Y-103949000D01*
X225619000Y-103961000D01*
X225629000Y-103974000D01*
X225638000Y-103987000D01*
X225646000Y-104000000D01*
X225653000Y-104014000D01*
X225660000Y-104028000D01*
X225666000Y-104042000D01*
X225671000Y-104057000D01*
X225676000Y-104072000D01*
X225679000Y-104088000D01*
X225682000Y-104103000D01*
X225684000Y-104119000D01*
X225686000Y-104134000D01*
X225686000Y-104150000D01*
X225686000Y-107250000D01*
X223886000Y-107250000D01*
X223886000Y-104150000D01*
X223886000Y-104134000D01*
X223888000Y-104119000D01*
X223890000Y-104103000D01*
X223893000Y-104088000D01*
X223896000Y-104072000D01*
X223901000Y-104057000D01*
X223906000Y-104042000D01*
X223912000Y-104028000D01*
X223919000Y-104014000D01*
X223926000Y-104000000D01*
X223934000Y-103987000D01*
X223943000Y-103974000D01*
X223953000Y-103961000D01*
X223963000Y-103949000D01*
X223974000Y-103938000D01*
X223985000Y-103927000D01*
X223997000Y-103917000D01*
X224010000Y-103907000D01*
X224023000Y-103898000D01*
X224036000Y-103890000D01*
X224050000Y-103883000D01*
X224064000Y-103876000D01*
X224078000Y-103870000D01*
X224093000Y-103865000D01*
X224108000Y-103860000D01*
X224124000Y-103857000D01*
X224139000Y-103854000D01*
X224155000Y-103852000D01*
X224170000Y-103850000D01*
X224186000Y-103850000D01*
X225386000Y-103850000D01*
X225402000Y-103850000D01*
X225417000Y-103852000D01*
G36*
X225417000Y-103852000D02*
G01*
X225433000Y-103854000D01*
X225448000Y-103857000D01*
X225464000Y-103860000D01*
X225479000Y-103865000D01*
X225494000Y-103870000D01*
X225508000Y-103876000D01*
X225522000Y-103883000D01*
X225536000Y-103890000D01*
X225549000Y-103898000D01*
X225562000Y-103907000D01*
X225575000Y-103917000D01*
X225587000Y-103927000D01*
X225598000Y-103938000D01*
X225609000Y-103949000D01*
X225619000Y-103961000D01*
X225629000Y-103974000D01*
X225638000Y-103987000D01*
X225646000Y-104000000D01*
X225653000Y-104014000D01*
X225660000Y-104028000D01*
X225666000Y-104042000D01*
X225671000Y-104057000D01*
X225676000Y-104072000D01*
X225679000Y-104088000D01*
X225682000Y-104103000D01*
X225684000Y-104119000D01*
X225686000Y-104134000D01*
X225686000Y-104150000D01*
X225686000Y-107250000D01*
X223886000Y-107250000D01*
X223886000Y-104150000D01*
X223886000Y-104134000D01*
X223888000Y-104119000D01*
X223890000Y-104103000D01*
X223893000Y-104088000D01*
X223896000Y-104072000D01*
X223901000Y-104057000D01*
X223906000Y-104042000D01*
X223912000Y-104028000D01*
X223919000Y-104014000D01*
X223926000Y-104000000D01*
X223934000Y-103987000D01*
X223943000Y-103974000D01*
X223953000Y-103961000D01*
X223963000Y-103949000D01*
X223974000Y-103938000D01*
X223985000Y-103927000D01*
X223997000Y-103917000D01*
X224010000Y-103907000D01*
X224023000Y-103898000D01*
X224036000Y-103890000D01*
X224050000Y-103883000D01*
X224064000Y-103876000D01*
X224078000Y-103870000D01*
X224093000Y-103865000D01*
X224108000Y-103860000D01*
X224124000Y-103857000D01*
X224139000Y-103854000D01*
X224155000Y-103852000D01*
X224170000Y-103850000D01*
X224186000Y-103850000D01*
X225386000Y-103850000D01*
X225402000Y-103850000D01*
X225417000Y-103852000D01*
G37*
X232136000Y-96760000D02*
X229036000Y-96760000D01*
X229020000Y-96760000D01*
X229005000Y-96758000D01*
X228989000Y-96756000D01*
X228974000Y-96753000D01*
X228958000Y-96750000D01*
X228943000Y-96745000D01*
X228928000Y-96740000D01*
X228914000Y-96734000D01*
X228900000Y-96727000D01*
X228886000Y-96720000D01*
X228873000Y-96712000D01*
X228860000Y-96703000D01*
X228847000Y-96693000D01*
X228835000Y-96683000D01*
X228824000Y-96672000D01*
X228813000Y-96661000D01*
X228803000Y-96649000D01*
X228793000Y-96636000D01*
X228784000Y-96623000D01*
X228776000Y-96610000D01*
X228769000Y-96596000D01*
X228762000Y-96582000D01*
X228756000Y-96568000D01*
X228751000Y-96553000D01*
X228746000Y-96538000D01*
X228743000Y-96522000D01*
X228740000Y-96507000D01*
X228738000Y-96491000D01*
X228736000Y-96476000D01*
X228736000Y-96460000D01*
X228736000Y-95260000D01*
X228736000Y-95244000D01*
X228738000Y-95229000D01*
X228740000Y-95213000D01*
X228743000Y-95198000D01*
X228746000Y-95182000D01*
X228751000Y-95167000D01*
X228756000Y-95152000D01*
X228762000Y-95138000D01*
X228769000Y-95124000D01*
X228776000Y-95110000D01*
X228784000Y-95097000D01*
X228793000Y-95084000D01*
X228803000Y-95071000D01*
X228813000Y-95059000D01*
X228824000Y-95048000D01*
X228835000Y-95037000D01*
X228847000Y-95027000D01*
X228860000Y-95017000D01*
X228873000Y-95008000D01*
X228886000Y-95000000D01*
X228900000Y-94993000D01*
X228914000Y-94986000D01*
X228928000Y-94980000D01*
X228943000Y-94975000D01*
X228958000Y-94970000D01*
X228974000Y-94967000D01*
X228989000Y-94964000D01*
X229005000Y-94962000D01*
X229020000Y-94960000D01*
X229036000Y-94960000D01*
X232136000Y-94960000D01*
X232136000Y-96760000D01*
G36*
X232136000Y-96760000D02*
G01*
X229036000Y-96760000D01*
X229020000Y-96760000D01*
X229005000Y-96758000D01*
X228989000Y-96756000D01*
X228974000Y-96753000D01*
X228958000Y-96750000D01*
X228943000Y-96745000D01*
X228928000Y-96740000D01*
X228914000Y-96734000D01*
X228900000Y-96727000D01*
X228886000Y-96720000D01*
X228873000Y-96712000D01*
X228860000Y-96703000D01*
X228847000Y-96693000D01*
X228835000Y-96683000D01*
X228824000Y-96672000D01*
X228813000Y-96661000D01*
X228803000Y-96649000D01*
X228793000Y-96636000D01*
X228784000Y-96623000D01*
X228776000Y-96610000D01*
X228769000Y-96596000D01*
X228762000Y-96582000D01*
X228756000Y-96568000D01*
X228751000Y-96553000D01*
X228746000Y-96538000D01*
X228743000Y-96522000D01*
X228740000Y-96507000D01*
X228738000Y-96491000D01*
X228736000Y-96476000D01*
X228736000Y-96460000D01*
X228736000Y-95260000D01*
X228736000Y-95244000D01*
X228738000Y-95229000D01*
X228740000Y-95213000D01*
X228743000Y-95198000D01*
X228746000Y-95182000D01*
X228751000Y-95167000D01*
X228756000Y-95152000D01*
X228762000Y-95138000D01*
X228769000Y-95124000D01*
X228776000Y-95110000D01*
X228784000Y-95097000D01*
X228793000Y-95084000D01*
X228803000Y-95071000D01*
X228813000Y-95059000D01*
X228824000Y-95048000D01*
X228835000Y-95037000D01*
X228847000Y-95027000D01*
X228860000Y-95017000D01*
X228873000Y-95008000D01*
X228886000Y-95000000D01*
X228900000Y-94993000D01*
X228914000Y-94986000D01*
X228928000Y-94980000D01*
X228943000Y-94975000D01*
X228958000Y-94970000D01*
X228974000Y-94967000D01*
X228989000Y-94964000D01*
X229005000Y-94962000D01*
X229020000Y-94960000D01*
X229036000Y-94960000D01*
X232136000Y-94960000D01*
X232136000Y-96760000D01*
G37*
%TO.C,J3*%
X255448000Y-80700000D02*
X256248000Y-80700000D01*
X256248000Y-82500000D01*
X253948000Y-82500000D01*
X253948000Y-80350000D01*
X255448000Y-80350000D01*
X255448000Y-80700000D01*
G36*
X255448000Y-80700000D02*
G01*
X256248000Y-80700000D01*
X256248000Y-82500000D01*
X253948000Y-82500000D01*
X253948000Y-80350000D01*
X255448000Y-80350000D01*
X255448000Y-80700000D01*
G37*
X225748000Y-82500000D02*
X223448000Y-82500000D01*
X223448000Y-80700000D01*
X224248000Y-80700000D01*
X224248000Y-80350000D01*
X225748000Y-80350000D01*
X225748000Y-82500000D01*
G36*
X225748000Y-82500000D02*
G01*
X223448000Y-82500000D01*
X223448000Y-80700000D01*
X224248000Y-80700000D01*
X224248000Y-80350000D01*
X225748000Y-80350000D01*
X225748000Y-82500000D01*
G37*
%TD*%
D11*
%TO.C,U1*%
X181736000Y-93135000D03*
X181736000Y-98585000D03*
D12*
X184766000Y-93435000D03*
X184766000Y-98285000D03*
D13*
X184736000Y-95860000D03*
X181436000Y-96860000D03*
X181436000Y-94860000D03*
X188236000Y-93360000D03*
X190736000Y-93360000D03*
X193236000Y-93360000D03*
%TD*%
D14*
%TO.C,J3*%
X252348000Y-82550000D03*
X251348000Y-82550000D03*
X250348000Y-82550000D03*
X249348000Y-82550000D03*
X248348000Y-82550000D03*
X247348000Y-82550000D03*
X246348000Y-82550000D03*
X245348000Y-82550000D03*
X244348000Y-82550000D03*
X243348000Y-82550000D03*
X242348000Y-82550000D03*
X241348000Y-82550000D03*
X240348000Y-82550000D03*
X239348000Y-82550000D03*
X238348000Y-82550000D03*
X237348000Y-82550000D03*
X236348000Y-82550000D03*
X235348000Y-82550000D03*
X234348000Y-82550000D03*
X233348000Y-82550000D03*
X232348000Y-82550000D03*
X231348000Y-82550000D03*
X230348000Y-82550000D03*
X229348000Y-82550000D03*
X228348000Y-82550000D03*
X227348000Y-82550000D03*
%TD*%
M02*
