M48
; DRILL file {KiCad 8.0.4} date 2025-03-13T09:58:56-0700
; FORMAT={-:-/ absolute / inch / decimal}
; #@! TF.CreationDate,2025-03-13T09:58:56-07:00
; #@! TF.GenerationSoftware,Kicad,Pcbnew,8.0.4
; #@! TF.FileFunction,Plated,1,2,PTH
FMAT,2
INCH
; #@! TA.AperFunction,Plated,PTH,ViaDrill
T1C0.0118
%
G90
G05
T1
X7.14Y-4.07
X7.1587Y-3.3016
X7.21Y-3.34
X7.3476Y-4.0787
X7.39Y-3.34
X7.5827Y-3.2669
X7.689Y-3.1811
X7.7449Y-3.1575
X7.8547Y-4.0787
X7.898Y-3.3012
X7.9114Y-3.5266
X7.99Y-3.47
X8.0598Y-3.6992
X8.0669Y-3.2106
X8.0988Y-3.6752
X8.1122Y-3.0324
X8.122Y-3.2087
X8.1845Y-3.5895
X8.2413Y-3.1906
X8.2457Y-3.1594
X8.2661Y-3.2133
X8.2674Y-3.6004
X8.275Y-3.47
X8.275Y-3.525
X8.2819Y-3.1195
X8.3002Y-3.4511
X8.3191Y-3.2171
X8.3232Y-4.0764
X8.3303Y-3.9646
X8.335Y-3.295
X8.335Y-3.1197
X8.3461Y-3.6031
X8.3463Y-3.6367
X8.3474Y-3.6713
X8.3543Y-3.8543
X8.3555Y-3.059
X8.3573Y-3.9851
X8.3583Y-3.5689
X8.3592Y-3.4745
X8.3593Y-3.5079
X8.3622Y-3.1886
X8.4126Y-4.0386
X8.4576Y-4.0271
X8.4624Y-3.2621
X8.4804Y-3.1969
X8.508Y-3.176
X8.5128Y-3.3022
X8.6112Y-3.6849
X8.6112Y-3.5138
X8.6112Y-3.5639
X8.6112Y-3.5954
X8.6126Y-3.1265
X8.6132Y-3.9331
X8.6144Y-3.1895
X8.615Y-3.7358
X8.6173Y-3.078
X8.6186Y-3.3056
X8.6339Y-3.7846
X8.6348Y-3.2343
X8.6402Y-3.476
X8.6415Y-3.1498
X8.6426Y-3.0304
X8.6458Y-3.1867
X8.6654Y-3.5655
X8.6672Y-3.8699
X8.6791Y-3.1496
X8.6839Y-3.715
X8.691Y-3.8492
X8.692Y-3.6677
X8.7106Y-3.2072
X8.7311Y-3.6616
X8.735Y-3.8447
X8.7831Y-3.5571
X8.795Y-4.06
X8.815Y-3.102
X8.8441Y-4.074
X8.8445Y-3.1129
X8.875Y-3.6933
X8.9012Y-3.0039
X8.9153Y-3.075
X8.925Y-3.235
X8.926Y-3.1839
X8.94Y-3.53
X8.9406Y-4.0433
X8.9665Y-3.1786
X8.9728Y-3.53
X8.9933Y-3.1017
X9.005Y-3.52
X9.0486Y-3.1361
X9.0496Y-3.5406
X9.09Y-3.145
X9.115Y-3.21
X9.12Y-3.365
X9.1235Y-3.5075
X9.1533Y-3.1592
X9.1571Y-3.7504
X9.2185Y-3.8602
X9.225Y-3.2
X9.2694Y-3.37
X9.2813Y-3.4877
X9.3185Y-3.4915
X9.328Y-3.62
X9.3547Y-3.4943
X9.3583Y-3.6483
X9.3618Y-3.6114
X9.39Y-3.4961
X9.42Y-3.66
X9.48Y-3.567
X9.485Y-3.2
X9.98Y-3.39
M30
