%TF.GenerationSoftware,KiCad,Pcbnew,8.0.4*%
%TF.CreationDate,2025-03-13T09:59:00-07:00*%
%TF.ProjectId,keyboard_board,6b657962-6f61-4726-945f-626f6172642e,rev?*%
%TF.SameCoordinates,Original*%
%TF.FileFunction,Legend,Bot*%
%TF.FilePolarity,Positive*%
%FSLAX46Y46*%
G04 Gerber Fmt 4.6, Leading zero omitted, Abs format (unit mm)*
G04 Created by KiCad (PCBNEW 8.0.4) date 2025-03-13 09:59:00*
%MOMM*%
%LPD*%
G01*
G04 APERTURE LIST*
%ADD10C,0.150000*%
%ADD11C,0.508000*%
%ADD12C,0.127000*%
%ADD13C,0.200000*%
G04 APERTURE END LIST*
D10*
X205765819Y-94973095D02*
X206575342Y-94973095D01*
X206575342Y-94973095D02*
X206670580Y-95020714D01*
X206670580Y-95020714D02*
X206718200Y-95068333D01*
X206718200Y-95068333D02*
X206765819Y-95163571D01*
X206765819Y-95163571D02*
X206765819Y-95354047D01*
X206765819Y-95354047D02*
X206718200Y-95449285D01*
X206718200Y-95449285D02*
X206670580Y-95496904D01*
X206670580Y-95496904D02*
X206575342Y-95544523D01*
X206575342Y-95544523D02*
X205765819Y-95544523D01*
X206765819Y-96544523D02*
X206765819Y-95973095D01*
X206765819Y-96258809D02*
X205765819Y-96258809D01*
X205765819Y-96258809D02*
X205908676Y-96163571D01*
X205908676Y-96163571D02*
X206003914Y-96068333D01*
X206003914Y-96068333D02*
X206051533Y-95973095D01*
X226528833Y-85872319D02*
X226528833Y-86586604D01*
X226528833Y-86586604D02*
X226576452Y-86729461D01*
X226576452Y-86729461D02*
X226671690Y-86824700D01*
X226671690Y-86824700D02*
X226814547Y-86872319D01*
X226814547Y-86872319D02*
X226909785Y-86872319D01*
X226147880Y-85872319D02*
X225528833Y-85872319D01*
X225528833Y-85872319D02*
X225862166Y-86253271D01*
X225862166Y-86253271D02*
X225719309Y-86253271D01*
X225719309Y-86253271D02*
X225624071Y-86300890D01*
X225624071Y-86300890D02*
X225576452Y-86348509D01*
X225576452Y-86348509D02*
X225528833Y-86443747D01*
X225528833Y-86443747D02*
X225528833Y-86681842D01*
X225528833Y-86681842D02*
X225576452Y-86777080D01*
X225576452Y-86777080D02*
X225624071Y-86824700D01*
X225624071Y-86824700D02*
X225719309Y-86872319D01*
X225719309Y-86872319D02*
X226005023Y-86872319D01*
X226005023Y-86872319D02*
X226100261Y-86824700D01*
X226100261Y-86824700D02*
X226147880Y-86777080D01*
D11*
%TO.C,J4*%
X195802001Y-99969142D02*
G75*
G02*
X195040001Y-99969142I-381000J0D01*
G01*
X195040001Y-99969142D02*
G75*
G02*
X195802001Y-99969142I381000J0D01*
G01*
D12*
%TO.C,U1*%
X178936000Y-91860000D02*
X180236000Y-91860000D01*
X178936000Y-99860000D02*
X178936000Y-91860000D01*
X180236000Y-85360000D02*
X180486000Y-85360000D01*
X180236000Y-91860000D02*
X180236000Y-85360000D01*
X180236000Y-99860000D02*
X178936000Y-99860000D01*
X180236000Y-106360000D02*
X180236000Y-99860000D01*
X180486000Y-106360000D02*
X180236000Y-106360000D01*
X230986000Y-85360000D02*
X231236000Y-85360000D01*
X230986000Y-106360000D02*
X231236000Y-106360000D01*
X231236000Y-85360000D02*
X231236000Y-92200000D01*
X231236000Y-99520000D02*
X231236000Y-106360000D01*
D13*
X181706000Y-83670000D02*
G75*
G02*
X181506000Y-83670000I-100000J0D01*
G01*
X181506000Y-83670000D02*
G75*
G02*
X181706000Y-83670000I100000J0D01*
G01*
%TO.C,J3*%
X227448000Y-83750000D02*
G75*
G02*
X227248000Y-83750000I-100000J0D01*
G01*
X227248000Y-83750000D02*
G75*
G02*
X227448000Y-83750000I100000J0D01*
G01*
D12*
X222948000Y-77400000D02*
X256748000Y-77400000D01*
X256748000Y-77400000D02*
X256748000Y-82100000D01*
X256748000Y-82100000D02*
X256468000Y-82100000D01*
X253734500Y-82100000D02*
X252811500Y-82100000D01*
X226884500Y-82100000D02*
X225961500Y-82100000D01*
X222948000Y-82100000D02*
X222948000Y-77400000D01*
X223228000Y-82100000D02*
X222948000Y-82100000D01*
%TD*%
M02*
