%TF.GenerationSoftware,KiCad,Pcbnew,8.0.4*%
%TF.CreationDate,2025-03-13T09:59:00-07:00*%
%TF.ProjectId,keyboard_board,6b657962-6f61-4726-945f-626f6172642e,rev?*%
%TF.SameCoordinates,Original*%
%TF.FileFunction,Copper,L2,Bot*%
%TF.FilePolarity,Positive*%
%FSLAX46Y46*%
G04 Gerber Fmt 4.6, Leading zero omitted, Abs format (unit mm)*
G04 Created by KiCad (PCBNEW 8.0.4) date 2025-03-13 09:59:00*
%MOMM*%
%LPD*%
G01*
G04 APERTURE LIST*
G04 Aperture macros list*
%AMRoundRect*
0 Rectangle with rounded corners*
0 $1 Rounding radius*
0 $2 $3 $4 $5 $6 $7 $8 $9 X,Y pos of 4 corners*
0 Add a 4 corners polygon primitive as box body*
4,1,4,$2,$3,$4,$5,$6,$7,$8,$9,$2,$3,0*
0 Add four circle primitives for the rounded corners*
1,1,$1+$1,$2,$3*
1,1,$1+$1,$4,$5*
1,1,$1+$1,$6,$7*
1,1,$1+$1,$8,$9*
0 Add four rect primitives between the rounded corners*
20,1,$1+$1,$2,$3,$4,$5,0*
20,1,$1+$1,$4,$5,$6,$7,0*
20,1,$1+$1,$6,$7,$8,$9,0*
20,1,$1+$1,$8,$9,$2,$3,0*%
%AMFreePoly0*
4,1,129,0.800119,0.804999,0.842119,0.803999,0.842356,0.803987,0.884356,0.800987,0.884724,0.800947,0.925724,0.794947,0.925841,0.794929,0.966841,0.787929,0.967185,0.787858,1.008185,0.777858,1.008437,0.777789,1.048437,0.765789,1.048652,0.765719,1.088652,0.751719,1.088940,0.751608,1.126940,0.735608,1.127140,0.735519,1.165140,0.717519,1.165378,0.717399,1.202378,0.697399,
1.202607,0.697266,1.238607,0.675266,1.238883,0.675085,1.272883,0.651085,1.273019,0.650985,1.306019,0.625985,1.306224,0.625821,1.338224,0.598821,1.338416,0.598651,1.369416,0.569651,1.369651,0.569416,1.398651,0.538416,1.398821,0.538224,1.425821,0.506224,1.425985,0.506019,1.450985,0.473019,1.451085,0.472883,1.475085,0.438883,1.475266,0.438607,1.497266,0.402607,
1.497399,0.402378,1.517399,0.365378,1.517519,0.365140,1.535519,0.327140,1.535608,0.326940,1.551608,0.288940,1.551719,0.288652,1.565719,0.248652,1.565789,0.248437,1.577789,0.208437,1.577858,0.208185,1.587858,0.167185,1.587929,0.166841,1.594929,0.125841,1.594947,0.125724,1.600947,0.084724,1.600987,0.084356,1.603987,0.042356,1.603999,0.042119,1.604999,0.000119,
1.604999,-0.000119,1.603999,-0.042119,1.603987,-0.042356,1.600987,-0.084356,1.600947,-0.084724,1.594947,-0.125724,1.594929,-0.125841,1.587929,-0.166841,1.587858,-0.167185,1.577858,-0.208185,1.577789,-0.208437,1.565789,-0.248437,1.565719,-0.248652,1.551719,-0.288652,1.551608,-0.288940,1.535608,-0.326940,1.535519,-0.327140,1.517519,-0.365140,1.517399,-0.365378,1.497399,-0.402378,
1.497266,-0.402607,1.475266,-0.438607,1.475085,-0.438883,1.451085,-0.472883,1.450985,-0.473019,1.425985,-0.506019,1.425821,-0.506224,1.398821,-0.538224,1.398651,-0.538416,1.369651,-0.569416,1.369416,-0.569651,1.338416,-0.598651,1.338224,-0.598821,1.306224,-0.625821,1.306019,-0.625985,1.273019,-0.650985,1.272883,-0.651085,1.238883,-0.675085,1.238607,-0.675266,1.202607,-0.697266,
1.202378,-0.697399,1.165378,-0.717399,1.165140,-0.717519,1.127140,-0.735519,1.126940,-0.735608,1.088940,-0.751608,1.088652,-0.751719,1.048652,-0.765719,1.048437,-0.765789,1.008437,-0.777789,1.008185,-0.777858,0.967185,-0.787858,0.966841,-0.787929,0.925841,-0.794929,0.925724,-0.794947,0.884724,-0.800947,0.884356,-0.800987,0.842356,-0.803987,0.842119,-0.803999,0.800119,-0.804999,
0.800000,-0.805000,-1.600000,-0.805000,-1.603536,-0.803536,-1.605000,-0.800000,-1.605000,0.800000,-1.603536,0.803536,-1.600000,0.805000,0.800000,0.805000,0.800119,0.804999,0.800119,0.804999,$1*%
%AMFreePoly1*
4,1,93,1.410453,0.804979,1.421453,0.803979,1.421498,0.803975,1.431498,0.802975,1.431894,0.802919,1.442894,0.800919,1.443437,0.800789,1.473437,0.791789,1.474031,0.791569,1.483031,0.787569,1.483236,0.787472,1.493236,0.782472,1.493428,0.782371,1.511428,0.772371,1.511774,0.772160,1.520774,0.766160,1.521293,0.765763,1.529155,0.758883,1.537000,0.753000,1.537763,0.752293,
1.544543,0.744543,1.552293,0.737763,1.553000,0.737000,1.558883,0.729155,1.565763,0.721293,1.566160,0.720774,1.572160,0.711774,1.572371,0.711428,1.582371,0.693428,1.582472,0.693236,1.587472,0.683236,1.587569,0.683031,1.591569,0.674031,1.591789,0.673437,1.600789,0.643437,1.600919,0.642894,1.602919,0.631894,1.602975,0.631498,1.603975,0.621498,1.603979,0.621453,
1.604979,0.610453,1.605000,0.610000,1.605000,-0.610000,1.604979,-0.610453,1.603979,-0.621453,1.603975,-0.621498,1.602975,-0.631498,1.602919,-0.631894,1.600919,-0.642894,1.600789,-0.643437,1.591789,-0.673437,1.591569,-0.674031,1.587569,-0.683031,1.587472,-0.683236,1.582472,-0.693236,1.582371,-0.693428,1.572371,-0.711428,1.572160,-0.711774,1.566160,-0.720774,1.565763,-0.721293,
1.558883,-0.729155,1.553000,-0.737000,1.552293,-0.737763,1.544543,-0.744543,1.537763,-0.752293,1.537000,-0.753000,1.529155,-0.758883,1.521293,-0.765763,1.520774,-0.766160,1.511774,-0.772160,1.511428,-0.772371,1.493428,-0.782371,1.493236,-0.782472,1.483236,-0.787472,1.483031,-0.787569,1.474031,-0.791569,1.473437,-0.791789,1.443437,-0.800789,1.442894,-0.800919,1.431894,-0.802919,
1.431498,-0.802975,1.421498,-0.803975,1.421453,-0.803979,1.410453,-0.804979,1.410000,-0.805000,-1.600000,-0.805000,-1.603536,-0.803536,-1.605000,-0.800000,-1.605000,0.800000,-1.603536,0.803536,-1.600000,0.805000,1.410000,0.805000,1.410453,0.804979,1.410453,0.804979,$1*%
%AMFreePoly2*
4,1,129,1.603536,0.803536,1.605000,0.800000,1.605000,-0.800000,1.603536,-0.803536,1.600000,-0.805000,-0.800000,-0.805000,-0.800119,-0.804999,-0.842119,-0.803999,-0.842356,-0.803987,-0.884356,-0.800987,-0.884724,-0.800947,-0.925724,-0.794947,-0.925841,-0.794929,-0.966841,-0.787929,-0.967185,-0.787858,-1.008185,-0.777858,-1.008437,-0.777789,-1.048437,-0.765789,-1.048652,-0.765719,-1.088652,-0.751719,
-1.088940,-0.751608,-1.126940,-0.735608,-1.127140,-0.735519,-1.165140,-0.717519,-1.165378,-0.717399,-1.202378,-0.697399,-1.202607,-0.697266,-1.238607,-0.675266,-1.238883,-0.675085,-1.272883,-0.651085,-1.273019,-0.650985,-1.306019,-0.625985,-1.306224,-0.625821,-1.338224,-0.598821,-1.338416,-0.598651,-1.369416,-0.569651,-1.369651,-0.569416,-1.398651,-0.538416,-1.398821,-0.538224,-1.425821,-0.506224,
-1.425985,-0.506019,-1.450985,-0.473019,-1.451085,-0.472883,-1.475085,-0.438883,-1.475266,-0.438607,-1.497266,-0.402607,-1.497399,-0.402378,-1.517399,-0.365378,-1.517519,-0.365140,-1.535519,-0.327140,-1.535608,-0.326940,-1.551608,-0.288940,-1.551719,-0.288652,-1.565719,-0.248652,-1.565789,-0.248437,-1.577789,-0.208437,-1.577858,-0.208185,-1.587858,-0.167185,-1.587929,-0.166841,-1.594929,-0.125841,
-1.594947,-0.125724,-1.600947,-0.084724,-1.600987,-0.084356,-1.603987,-0.042356,-1.603999,-0.042119,-1.604999,-0.000119,-1.604999,0.000119,-1.603999,0.042119,-1.603987,0.042356,-1.600987,0.084356,-1.600947,0.084724,-1.594947,0.125724,-1.594929,0.125841,-1.587929,0.166841,-1.587858,0.167185,-1.577858,0.208185,-1.577789,0.208437,-1.565789,0.248437,-1.565719,0.248652,-1.551719,0.288652,
-1.551608,0.288940,-1.535608,0.326940,-1.535519,0.327140,-1.517519,0.365140,-1.517399,0.365378,-1.497399,0.402378,-1.497266,0.402607,-1.475266,0.438607,-1.475085,0.438883,-1.451085,0.472883,-1.450985,0.473019,-1.425985,0.506019,-1.425821,0.506224,-1.398821,0.538224,-1.398651,0.538416,-1.369651,0.569416,-1.369416,0.569651,-1.338416,0.598651,-1.338224,0.598821,-1.306224,0.625821,
-1.306019,0.625985,-1.273019,0.650985,-1.272883,0.651085,-1.238883,0.675085,-1.238607,0.675266,-1.202607,0.697266,-1.202378,0.697399,-1.165378,0.717399,-1.165140,0.717519,-1.127140,0.735519,-1.126940,0.735608,-1.088940,0.751608,-1.088652,0.751719,-1.048652,0.765719,-1.048437,0.765789,-1.008437,0.777789,-1.008185,0.777858,-0.967185,0.787858,-0.966841,0.787929,-0.925841,0.794929,
-0.925724,0.794947,-0.884724,0.800947,-0.884356,0.800987,-0.842356,0.803987,-0.842119,0.803999,-0.800119,0.804999,-0.800000,0.805000,1.600000,0.805000,1.603536,0.803536,1.603536,0.803536,$1*%
%AMFreePoly3*
4,1,93,1.603536,0.803536,1.605000,0.800000,1.605000,-0.800000,1.603536,-0.803536,1.600000,-0.805000,-1.410000,-0.805000,-1.410453,-0.804979,-1.421453,-0.803979,-1.421498,-0.803975,-1.431498,-0.802975,-1.431894,-0.802919,-1.442894,-0.800919,-1.443437,-0.800789,-1.473437,-0.791789,-1.474031,-0.791569,-1.483031,-0.787569,-1.483236,-0.787472,-1.493236,-0.782472,-1.493428,-0.782371,-1.511428,-0.772371,
-1.511774,-0.772160,-1.520774,-0.766160,-1.521293,-0.765763,-1.529155,-0.758883,-1.537000,-0.753000,-1.537763,-0.752293,-1.544543,-0.744543,-1.552293,-0.737763,-1.553000,-0.737000,-1.558883,-0.729155,-1.565763,-0.721293,-1.566160,-0.720774,-1.572160,-0.711774,-1.572371,-0.711428,-1.582371,-0.693428,-1.582472,-0.693236,-1.587472,-0.683236,-1.587569,-0.683031,-1.591569,-0.674031,-1.591789,-0.673437,
-1.600789,-0.643437,-1.600919,-0.642894,-1.602919,-0.631894,-1.602975,-0.631498,-1.603975,-0.621498,-1.603979,-0.621453,-1.604979,-0.610453,-1.605000,-0.610000,-1.605000,0.610000,-1.604979,0.610453,-1.603979,0.621453,-1.603975,0.621498,-1.602975,0.631498,-1.602919,0.631894,-1.600919,0.642894,-1.600789,0.643437,-1.591789,0.673437,-1.591569,0.674031,-1.587569,0.683031,-1.587472,0.683236,
-1.582472,0.693236,-1.582371,0.693428,-1.572371,0.711428,-1.572160,0.711774,-1.566160,0.720774,-1.565763,0.721293,-1.558883,0.729155,-1.553000,0.737000,-1.552293,0.737763,-1.544543,0.744543,-1.537763,0.752293,-1.537000,0.753000,-1.529155,0.758883,-1.521293,0.765763,-1.520774,0.766160,-1.511774,0.772160,-1.511428,0.772371,-1.493428,0.782371,-1.493236,0.782472,-1.483236,0.787472,
-1.483031,0.787569,-1.474031,0.791569,-1.473437,0.791789,-1.443437,0.800789,-1.442894,0.800919,-1.431894,0.802919,-1.431498,0.802975,-1.421498,0.803975,-1.421453,0.803979,-1.410453,0.804979,-1.410000,0.805000,1.600000,0.805000,1.603536,0.803536,1.603536,0.803536,$1*%
%AMFreePoly4*
4,1,129,0.803536,1.603536,0.805000,1.600000,0.805000,-0.800000,0.804999,-0.800119,0.803999,-0.842119,0.803987,-0.842356,0.800987,-0.884356,0.800947,-0.884724,0.794947,-0.925724,0.794929,-0.925841,0.787929,-0.966841,0.787858,-0.967185,0.777858,-1.008185,0.777789,-1.008437,0.765789,-1.048437,0.765719,-1.048652,0.751719,-1.088652,0.751608,-1.088940,0.735608,-1.126940,0.735519,-1.127140,
0.717519,-1.165140,0.717399,-1.165378,0.697399,-1.202378,0.697266,-1.202607,0.675266,-1.238607,0.675085,-1.238883,0.651085,-1.272883,0.650985,-1.273019,0.625985,-1.306019,0.625821,-1.306224,0.598821,-1.338224,0.598651,-1.338416,0.569651,-1.369416,0.569416,-1.369651,0.538416,-1.398651,0.538224,-1.398821,0.506224,-1.425821,0.506019,-1.425985,0.473019,-1.450985,0.472883,-1.451085,
0.438883,-1.475085,0.438607,-1.475266,0.402607,-1.497266,0.402378,-1.497399,0.365378,-1.517399,0.365140,-1.517519,0.327140,-1.535519,0.326940,-1.535608,0.288940,-1.551608,0.288652,-1.551719,0.248652,-1.565719,0.248437,-1.565789,0.208437,-1.577789,0.208185,-1.577858,0.167185,-1.587858,0.166841,-1.587929,0.125841,-1.594929,0.125724,-1.594947,0.084724,-1.600947,0.084356,-1.600987,
0.042356,-1.603987,0.042119,-1.603999,0.000119,-1.604999,-0.000119,-1.604999,-0.042119,-1.603999,-0.042356,-1.603987,-0.084356,-1.600987,-0.084724,-1.600947,-0.125724,-1.594947,-0.125841,-1.594929,-0.166841,-1.587929,-0.167185,-1.587858,-0.208185,-1.577858,-0.208437,-1.577789,-0.248437,-1.565789,-0.248652,-1.565719,-0.288652,-1.551719,-0.288940,-1.551608,-0.326940,-1.535608,-0.327140,-1.535519,
-0.365140,-1.517519,-0.365378,-1.517399,-0.402378,-1.497399,-0.402607,-1.497266,-0.438607,-1.475266,-0.438883,-1.475085,-0.472883,-1.451085,-0.473019,-1.450985,-0.506019,-1.425985,-0.506224,-1.425821,-0.538224,-1.398821,-0.538416,-1.398651,-0.569416,-1.369651,-0.569651,-1.369416,-0.598651,-1.338416,-0.598821,-1.338224,-0.625821,-1.306224,-0.625985,-1.306019,-0.650985,-1.273019,-0.651085,-1.272883,
-0.675085,-1.238883,-0.675266,-1.238607,-0.697266,-1.202607,-0.697399,-1.202378,-0.717399,-1.165378,-0.717519,-1.165140,-0.735519,-1.127140,-0.735608,-1.126940,-0.751608,-1.088940,-0.751719,-1.088652,-0.765719,-1.048652,-0.765789,-1.048437,-0.777789,-1.008437,-0.777858,-1.008185,-0.787858,-0.967185,-0.787929,-0.966841,-0.794929,-0.925841,-0.794947,-0.925724,-0.800947,-0.884724,-0.800987,-0.884356,
-0.803987,-0.842356,-0.803999,-0.842119,-0.804999,-0.800119,-0.805000,-0.800000,-0.805000,1.600000,-0.803536,1.603536,-0.800000,1.605000,0.800000,1.605000,0.803536,1.603536,0.803536,1.603536,$1*%
%AMFreePoly5*
4,1,93,0.803536,1.603536,0.805000,1.600000,0.805000,-1.410000,0.804979,-1.410453,0.803979,-1.421453,0.803975,-1.421498,0.802975,-1.431498,0.802919,-1.431894,0.800919,-1.442894,0.800789,-1.443437,0.791789,-1.473437,0.791569,-1.474031,0.787569,-1.483031,0.787472,-1.483236,0.782472,-1.493236,0.782371,-1.493428,0.772371,-1.511428,0.772160,-1.511774,0.766160,-1.520774,0.765763,-1.521293,
0.758883,-1.529155,0.753000,-1.537000,0.752293,-1.537763,0.744543,-1.544543,0.737763,-1.552293,0.737000,-1.553000,0.729155,-1.558883,0.721293,-1.565763,0.720774,-1.566160,0.711774,-1.572160,0.711428,-1.572371,0.693428,-1.582371,0.693236,-1.582472,0.683236,-1.587472,0.683031,-1.587569,0.674031,-1.591569,0.673437,-1.591789,0.643437,-1.600789,0.642894,-1.600919,0.631894,-1.602919,
0.631498,-1.602975,0.621498,-1.603975,0.621453,-1.603979,0.610453,-1.604979,0.610000,-1.605000,-0.610000,-1.605000,-0.610453,-1.604979,-0.621453,-1.603979,-0.621498,-1.603975,-0.631498,-1.602975,-0.631894,-1.602919,-0.642894,-1.600919,-0.643437,-1.600789,-0.673437,-1.591789,-0.674031,-1.591569,-0.683031,-1.587569,-0.683236,-1.587472,-0.693236,-1.582472,-0.693428,-1.582371,-0.711428,-1.572371,
-0.711774,-1.572160,-0.720774,-1.566160,-0.721293,-1.565763,-0.729155,-1.558883,-0.737000,-1.553000,-0.737763,-1.552293,-0.744543,-1.544543,-0.752293,-1.537763,-0.753000,-1.537000,-0.758883,-1.529155,-0.765763,-1.521293,-0.766160,-1.520774,-0.772160,-1.511774,-0.772371,-1.511428,-0.782371,-1.493428,-0.782472,-1.493236,-0.787472,-1.483236,-0.787569,-1.483031,-0.791569,-1.474031,-0.791789,-1.473437,
-0.800789,-1.443437,-0.800919,-1.442894,-0.802919,-1.431894,-0.802975,-1.431498,-0.803975,-1.421498,-0.803979,-1.421453,-0.804979,-1.410453,-0.805000,-1.410000,-0.805000,1.600000,-0.803536,1.603536,-0.800000,1.605000,0.800000,1.605000,0.803536,1.603536,0.803536,1.603536,$1*%
%AMFreePoly6*
4,1,17,0.253536,0.978536,0.255000,0.975000,0.255000,0.630000,1.050000,0.630000,1.053536,0.628536,1.055000,0.625000,1.055000,-0.975000,1.053536,-0.978536,1.050000,-0.980000,-1.050000,-0.980000,-1.053536,-0.978536,-1.055000,-0.975000,-1.055000,0.975000,-1.053536,0.978536,-1.050000,0.980000,0.250000,0.980000,0.253536,0.978536,0.253536,0.978536,$1*%
%AMFreePoly7*
4,1,17,1.053536,0.978536,1.055000,0.975000,1.055000,-0.975000,1.053536,-0.978536,1.050000,-0.980000,-1.050000,-0.980000,-1.053536,-0.978536,-1.055000,-0.975000,-1.055000,0.625000,-1.053536,0.628536,-1.050000,0.630000,-0.255000,0.630000,-0.255000,0.975000,-0.253536,0.978536,-0.250000,0.980000,1.050000,0.980000,1.053536,0.978536,1.053536,0.978536,$1*%
G04 Aperture macros list end*
%TA.AperFunction,SMDPad,CuDef*%
%ADD10FreePoly0,270.000000*%
%TD*%
%TA.AperFunction,SMDPad,CuDef*%
%ADD11FreePoly1,270.000000*%
%TD*%
%TA.AperFunction,SMDPad,CuDef*%
%ADD12FreePoly2,270.000000*%
%TD*%
%TA.AperFunction,SMDPad,CuDef*%
%ADD13FreePoly3,270.000000*%
%TD*%
%TA.AperFunction,SMDPad,CuDef*%
%ADD14O,1.800000X1.100000*%
%TD*%
%TA.AperFunction,SMDPad,CuDef*%
%ADD15O,1.450000X1.050000*%
%TD*%
%TA.AperFunction,SMDPad,CuDef*%
%ADD16FreePoly4,270.000000*%
%TD*%
%TA.AperFunction,SMDPad,CuDef*%
%ADD17FreePoly5,270.000000*%
%TD*%
%TA.AperFunction,SMDPad,CuDef*%
%ADD18RoundRect,0.300000X-0.450000X0.450000X-0.450000X-0.450000X0.450000X-0.450000X0.450000X0.450000X0*%
%TD*%
%TA.AperFunction,SMDPad,CuDef*%
%ADD19FreePoly6,0.000000*%
%TD*%
%TA.AperFunction,SMDPad,CuDef*%
%ADD20FreePoly7,0.000000*%
%TD*%
%TA.AperFunction,SMDPad,CuDef*%
%ADD21R,0.300000X1.100000*%
%TD*%
%TA.AperFunction,ViaPad*%
%ADD22C,0.600000*%
%TD*%
%TA.AperFunction,Conductor*%
%ADD23C,0.350000*%
%TD*%
%TA.AperFunction,Conductor*%
%ADD24C,0.200000*%
%TD*%
%TA.AperFunction,Conductor*%
%ADD25C,0.500000*%
%TD*%
G04 APERTURE END LIST*
D10*
%TO.P,U1,1,GP0*%
%TO.N,TP_TX*%
X181606000Y-86170000D03*
%TO.P,U1,2,GP1*%
%TO.N,TP_RX*%
X184146000Y-86170000D03*
D11*
%TO.P,U1,3,GND*%
%TO.N,GND*%
X186686000Y-86170000D03*
D10*
%TO.P,U1,4,GP2*%
%TO.N,Serial Out*%
X189226000Y-86170000D03*
%TO.P,U1,5,GP3*%
%TO.N,Paralell Latch*%
X191766000Y-86170000D03*
%TO.P,U1,6,GP4*%
%TO.N,Shift Clock*%
X194306000Y-86170000D03*
%TO.P,U1,7,GP5*%
%TO.N,Meta 29 (R Shift)*%
X196846000Y-86170000D03*
D11*
%TO.P,U1,8,GND__1*%
%TO.N,GND*%
X199386000Y-86170000D03*
D10*
%TO.P,U1,9,GP6*%
%TO.N,Meta 19 (R Option)*%
X201926000Y-86170000D03*
%TO.P,U1,10,GP7*%
%TO.N,Meta 15 (L Shift)*%
X204466000Y-86170000D03*
%TO.P,U1,11,GP8*%
%TO.N,Meta 13 (Ctrl)*%
X207006000Y-86170000D03*
%TO.P,U1,12,GP9*%
%TO.N,Meta 5 (Command)*%
X209546000Y-86170000D03*
D11*
%TO.P,U1,13,GND__2*%
%TO.N,GND*%
X212086000Y-86170000D03*
D10*
%TO.P,U1,14,GP10*%
%TO.N,Meta 3 (Option)*%
X214626000Y-86170000D03*
%TO.P,U1,15,GP11*%
%TO.N,Meta 1 (Fn)*%
X217166000Y-86170000D03*
%TO.P,U1,16,GP12*%
%TO.N,PowerSwitch*%
X219706000Y-86170000D03*
%TO.P,U1,17,GP13*%
%TO.N,Power LED V+*%
X222246000Y-86170000D03*
D11*
%TO.P,U1,18,GND__3*%
%TO.N,GND*%
X224786000Y-86170000D03*
D10*
%TO.P,U1,19,GP14*%
%TO.N,Caps LED V+*%
X227326000Y-86170000D03*
%TO.P,U1,20,GP15*%
%TO.N,MouseButton *%
X229866000Y-86170000D03*
D12*
%TO.P,U1,21,GP16*%
%TO.N,RGB*%
X229866000Y-105550000D03*
%TO.P,U1,22,GP17*%
%TO.N,LidSwitch*%
X227326000Y-105550000D03*
D13*
%TO.P,U1,23,GND__4*%
%TO.N,GND*%
X224786000Y-105550000D03*
D12*
%TO.P,U1,24,GP18*%
%TO.N,Row 7*%
X222246000Y-105550000D03*
%TO.P,U1,25,GP19*%
%TO.N,Row 9*%
X219706000Y-105550000D03*
%TO.P,U1,26,GP20*%
%TO.N,Row 11*%
X217166000Y-105550000D03*
%TO.P,U1,27,GP21*%
%TO.N,Row 17*%
X214626000Y-105550000D03*
D13*
%TO.P,U1,28,GND__5*%
%TO.N,GND*%
X212086000Y-105550000D03*
D12*
%TO.P,U1,29,GP22*%
%TO.N,Row 27*%
X209546000Y-105550000D03*
%TO.P,U1,30,~{RUN}*%
%TO.N,Net-(U1-~{RUN})*%
X207006000Y-105550000D03*
%TO.P,U1,31,GP26*%
%TO.N,Row 25*%
X204466000Y-105550000D03*
%TO.P,U1,32,GP27*%
%TO.N,Row 23*%
X201926000Y-105550000D03*
D13*
%TO.P,U1,33,AGND*%
%TO.N,GND*%
X199386000Y-105550000D03*
D12*
%TO.P,U1,34,GP28*%
%TO.N,Row 21*%
X196846000Y-105550000D03*
%TO.P,U1,35,ADC_VREF*%
%TO.N,unconnected-(U1-ADC_VREF-Pad35)*%
X194306000Y-105550000D03*
%TO.P,U1,36,3V3_OUT*%
%TO.N,+3.3V*%
X191766000Y-105550000D03*
%TO.P,U1,37,3V3_EN*%
%TO.N,unconnected-(U1-3V3_EN-Pad37)*%
X189226000Y-105550000D03*
D13*
%TO.P,U1,38,GND__6*%
%TO.N,GND*%
X186686000Y-105550000D03*
D12*
%TO.P,U1,39,VSYS*%
%TO.N,VSYS*%
X184146000Y-105550000D03*
%TO.P,U1,40,VBUS*%
%TO.N,VBUS*%
X181606000Y-105550000D03*
D14*
%TO.P,U1,A,USB_SHIELD*%
%TO.N,GND*%
X181736000Y-93135000D03*
%TO.P,U1,B,USB_SHIELD__1*%
X181736000Y-98585000D03*
D15*
%TO.P,U1,C,USB_SHIELD__2*%
X184766000Y-93435000D03*
%TO.P,U1,D,USB_SHIELD__3*%
X184766000Y-98285000D03*
D16*
%TO.P,U1,D1,SWCLK*%
%TO.N,unconnected-(U1-SWCLK-PadD1)*%
X230436000Y-93320000D03*
D17*
%TO.P,U1,D2,GND__7*%
%TO.N,GND*%
X230436000Y-95860000D03*
D16*
%TO.P,U1,D3,SWDIO*%
%TO.N,unconnected-(U1-SWDIO-PadD3)*%
X230436000Y-98400000D03*
D18*
%TO.P,U1,TP1,TP1_GND*%
%TO.N,unconnected-(U1-TP1_GND-PadTP1)*%
X184736000Y-95860000D03*
%TO.P,U1,TP2,TP2_USB_DM*%
%TO.N,unconnected-(U1-TP2_USB_DM-PadTP2)*%
X181436000Y-96860000D03*
%TO.P,U1,TP3,TP3_USB_DP*%
%TO.N,unconnected-(U1-TP3_USB_DP-PadTP3)*%
X181436000Y-94860000D03*
%TO.P,U1,TP4,TP4_GPIO23/SMPS_PS*%
%TO.N,unconnected-(U1-TP4_GPIO23{slash}SMPS_PS-PadTP4)*%
X188236000Y-93360000D03*
%TO.P,U1,TP5,TP5_GPIO25/LED*%
%TO.N,unconnected-(U1-TP5_GPIO25{slash}LED-PadTP5)*%
X190736000Y-93360000D03*
%TO.P,U1,TP6,TP6_BOOTSEL*%
%TO.N,unconnected-(U1-TP6_BOOTSEL-PadTP6)*%
X193236000Y-93360000D03*
%TD*%
D19*
%TO.P,J3,SH2*%
%TO.N,N/C*%
X255098000Y-81425000D03*
D20*
%TO.P,J3,SH1*%
X224598000Y-81425000D03*
D21*
%TO.P,J3,26,GP29*%
%TO.N,PowerSwitch*%
X252348000Y-82550000D03*
%TO.P,J3,25,GP28*%
%TO.N,LidSwitch*%
X251348000Y-82550000D03*
%TO.P,J3,24,GP27*%
%TO.N,MouseButton *%
X250348000Y-82550000D03*
%TO.P,J3,23,GP26*%
%TO.N,RGB*%
X249348000Y-82550000D03*
%TO.P,J3,22,GP24*%
%TO.N,Power LED V+*%
X248348000Y-82550000D03*
%TO.P,J3,21,GP23*%
%TO.N,Caps LED V+*%
X247348000Y-82550000D03*
%TO.P,J3,20,GP22*%
%TO.N,Row 7*%
X246348000Y-82550000D03*
%TO.P,J3,19,GP21*%
%TO.N,Row 9*%
X245348000Y-82550000D03*
%TO.P,J3,18,GP20*%
%TO.N,Row 11*%
X244348000Y-82550000D03*
%TO.P,J3,17,GP18*%
%TO.N,Row 17*%
X243348000Y-82550000D03*
%TO.P,J3,16,GP15*%
%TO.N,Row 27*%
X242348000Y-82550000D03*
%TO.P,J3,15,GP14*%
%TO.N,Row 25*%
X241348000Y-82550000D03*
%TO.P,J3,14,GP13*%
%TO.N,Row 23*%
X240348000Y-82550000D03*
%TO.P,J3,13,GP12*%
%TO.N,Row 21*%
X239348000Y-82550000D03*
%TO.P,J3,12,GP11*%
%TO.N,Meta 1 (Fn)*%
X238348000Y-82550000D03*
%TO.P,J3,11,GP10*%
%TO.N,Meta 3 (Option)*%
X237348000Y-82550000D03*
%TO.P,J3,10,GP9*%
%TO.N,Meta 5 (Command)*%
X236348000Y-82550000D03*
%TO.P,J3,9,GP8*%
%TO.N,Meta 13 (Ctrl)*%
X235348000Y-82550000D03*
%TO.P,J3,8,GP7*%
%TO.N,Meta 15 (L Shift)*%
X234348000Y-82550000D03*
%TO.P,J3,7,GP6*%
%TO.N,Meta 19 (R Option)*%
X233348000Y-82550000D03*
%TO.P,J3,6,GP5*%
%TO.N,Meta 29 (R Shift)*%
X232348000Y-82550000D03*
%TO.P,J3,5,GP4*%
%TO.N,Shift Clock*%
X231348000Y-82550000D03*
%TO.P,J3,4,GP3*%
%TO.N,Paralell Latch*%
X230348000Y-82550000D03*
%TO.P,J3,3,GP2*%
%TO.N,Serial Out*%
X229348000Y-82550000D03*
%TO.P,J3,2,GP1*%
%TO.N,TP_RX*%
X228348000Y-82550000D03*
%TO.P,J3,1,GP0*%
%TO.N,TP_TX*%
X227348000Y-82550000D03*
%TD*%
D22*
%TO.N,RGB*%
X223393000Y-103124000D03*
%TO.N,VBUS*%
X181356000Y-103378000D03*
%TO.N,+3.3V*%
X210185000Y-89535000D03*
X211709000Y-83693000D03*
%TO.N,Meta 3 (Option)*%
X231648000Y-85471000D03*
X228727000Y-89408000D03*
%TO.N,GND*%
X230886000Y-79883000D03*
X232494670Y-80244925D03*
X226695000Y-82169000D03*
X226719235Y-80869950D03*
%TO.N,TP_RX*%
X228429735Y-78783265D03*
%TO.N,Col 16*%
X211994963Y-92371433D03*
X218725002Y-91322455D03*
%TO.N,Col 26*%
X219461473Y-88290000D03*
X212324998Y-89100000D03*
%TO.N,GND*%
X227076000Y-89662000D03*
X192600000Y-82980000D03*
X232590000Y-95260000D03*
X186630000Y-103600000D03*
X224640000Y-103480000D03*
X187706000Y-84836000D03*
X211410000Y-103540000D03*
X210825002Y-87657998D03*
X205710000Y-93350000D03*
X207886500Y-91173500D03*
X212323234Y-88253234D03*
X199510000Y-103600000D03*
X200610000Y-83850000D03*
%TO.N,Caps LED V+*%
X236930000Y-91948000D03*
X218775000Y-99900000D03*
X212200000Y-97900000D03*
X227908622Y-89662000D03*
X229860025Y-89932001D03*
%TO.N,Meta 5 (Command)*%
X219300000Y-96130000D03*
%TO.N,Col 18*%
X218725002Y-90522452D03*
X211991403Y-91519344D03*
%TO.N,Col 30*%
X219325000Y-82150000D03*
X214944265Y-82856246D03*
%TO.N,Meta 13 (Ctrl)*%
X221770000Y-93004734D03*
X218820000Y-94890000D03*
%TO.N,Row 21*%
X235745796Y-88587386D03*
X211590000Y-100700000D03*
%TO.N,Meta 15 (L Shift)*%
X218724232Y-93597265D03*
X220778064Y-93160000D03*
%TO.N,Col 39*%
X219522534Y-76972154D03*
X206050000Y-77023800D03*
%TO.N,Meta 1 (Fn)*%
X225425000Y-93810000D03*
%TO.N,Col 14*%
X220099957Y-90564259D03*
X212025000Y-93250000D03*
%TO.N,Row 17*%
X220570000Y-94360000D03*
%TO.N,Col 28*%
X215402545Y-81200000D03*
X218807029Y-81013901D03*
%TO.N,Row 23*%
X236690470Y-88683530D03*
X212275000Y-101221511D03*
%TO.N,Row 11*%
X221870000Y-97656553D03*
%TO.N,Meta 29 (R Shift)*%
X218912152Y-83962991D03*
X216225000Y-83875000D03*
%TO.N,Col 34*%
X219495093Y-80004907D03*
X212399468Y-80990938D03*
X204900000Y-81550000D03*
X209439756Y-80248903D03*
%TO.N,Row 9*%
X220750337Y-97769663D03*
%TO.N,Row 7*%
X220146788Y-98294766D03*
%TO.N,Row 27*%
X214821804Y-102289217D03*
X238506000Y-88802000D03*
%TO.N,Row 25*%
X237609636Y-88754166D03*
X213681246Y-102581246D03*
%TO.N,Power LED V+*%
X212300000Y-90650000D03*
X240792000Y-90602000D03*
X223090000Y-90350000D03*
%TO.N,Col 32*%
X206300000Y-81500000D03*
X209328823Y-81041177D03*
X216103328Y-80670000D03*
X219603878Y-80942939D03*
%TO.N,Meta 19 (R Option)*%
X218725002Y-89250000D03*
X202946000Y-88138000D03*
X210185000Y-88138000D03*
%TO.N,+3.3V*%
X253492000Y-86106000D03*
X204720000Y-93960000D03*
X209991403Y-91450000D03*
%TO.N,TP_TX*%
X196720000Y-80200000D03*
X218759727Y-79413901D03*
X223901000Y-78790000D03*
X227748000Y-80737000D03*
X181830000Y-83860000D03*
%TO.N,TP_RX*%
X183134000Y-84836000D03*
X220449998Y-80000000D03*
X195300000Y-80800000D03*
X224650962Y-79068492D03*
%TO.N,Serial Out*%
X226090000Y-76299026D03*
X226447765Y-78105000D03*
X200950000Y-89575000D03*
%TO.N,Shift Clock*%
X231521000Y-81534000D03*
X209959291Y-81617090D03*
X210361047Y-79236451D03*
X221250000Y-81462843D03*
%TO.N,Paralell Latch*%
X218880000Y-78180000D03*
X211304345Y-81714333D03*
X229835000Y-79657500D03*
X211710000Y-79240000D03*
X212230121Y-77699026D03*
%TO.N,MouseButton *%
X231737422Y-89090000D03*
X237700735Y-92666735D03*
%TO.N,RGB*%
X239268000Y-92964000D03*
X237789787Y-91729153D03*
%TO.N,LidSwitch*%
X234150000Y-98050000D03*
X227090000Y-102700000D03*
%TO.N,Meta 3 (Option)*%
X235442000Y-85598000D03*
%TO.N,PowerSwitch*%
X234315000Y-81280000D03*
X240919000Y-81280000D03*
%TD*%
D23*
%TO.N,GND*%
X186480000Y-86062000D02*
X186480000Y-88470000D01*
X181530000Y-98585000D02*
X181530000Y-101920000D01*
X186480000Y-88470000D02*
X181530000Y-88470000D01*
X184260000Y-93135000D02*
X184560000Y-93435000D01*
X181530000Y-93135000D02*
X184260000Y-93135000D01*
X181530000Y-88470000D02*
X181530000Y-93135000D01*
X184560000Y-93435000D02*
X183405000Y-94590000D01*
X187706000Y-84836000D02*
X186480000Y-86062000D01*
X183405000Y-97130000D02*
X184560000Y-98285000D01*
X183405000Y-94590000D02*
X183405000Y-97130000D01*
X184560000Y-98285000D02*
X184260000Y-98585000D01*
X186480000Y-105400463D02*
X186480000Y-105550000D01*
X184260000Y-98585000D02*
X181530000Y-98585000D01*
X181530000Y-101920000D02*
X183150000Y-103540000D01*
X183150000Y-103540000D02*
X184619537Y-103540000D01*
X184619537Y-103540000D02*
X186480000Y-105400463D01*
D24*
%TO.N,TP_RX*%
X183134000Y-84836000D02*
X183940000Y-85642000D01*
X183940000Y-85642000D02*
X183940000Y-86170000D01*
D25*
%TO.N,VBUS*%
X181606000Y-105550000D02*
X181606000Y-103628000D01*
X181606000Y-103628000D02*
X181356000Y-103378000D01*
D24*
%TO.N,Row 23*%
X201720000Y-104330000D02*
X201926000Y-104124000D01*
X201926000Y-104124000D02*
X201926000Y-103763000D01*
X209048628Y-102890000D02*
X209988628Y-101950000D01*
X201926000Y-103763000D02*
X202799000Y-102890000D01*
X202799000Y-102890000D02*
X209048628Y-102890000D01*
X209988628Y-101950000D02*
X211546511Y-101950000D01*
X211546511Y-101950000D02*
X212275000Y-101221511D01*
%TO.N,RGB*%
X229660000Y-100711000D02*
X225806000Y-100711000D01*
X225806000Y-100711000D02*
X223393000Y-103124000D01*
%TO.N,Row 7*%
X246348000Y-85884000D02*
X242970000Y-89262000D01*
X233045000Y-99437843D02*
X232279843Y-100203000D01*
X239286314Y-90602000D02*
X237312000Y-90602000D01*
X240626314Y-89262000D02*
X239286314Y-90602000D01*
X242970000Y-89262000D02*
X240626314Y-89262000D01*
X246348000Y-82550000D02*
X246348000Y-85884000D01*
X232279843Y-100203000D02*
X223094978Y-100203000D01*
X237312000Y-90602000D02*
X236330000Y-91584000D01*
X236330000Y-94759000D02*
X233045000Y-98044000D01*
X236330000Y-91584000D02*
X236330000Y-94759000D01*
X233045000Y-98044000D02*
X233045000Y-99437843D01*
X223094978Y-100203000D02*
X222575000Y-100722978D01*
%TO.N,Row 9*%
X220750337Y-97769663D02*
X222675674Y-99695000D01*
X222675674Y-99695000D02*
X232029000Y-99695000D01*
X235930000Y-91418314D02*
X237146314Y-90202000D01*
X232645000Y-99079000D02*
X232645000Y-97878314D01*
X237146314Y-90202000D02*
X239120628Y-90202000D01*
X232029000Y-99695000D02*
X232645000Y-99079000D01*
X239120628Y-90202000D02*
X240460628Y-88862000D01*
X235930000Y-94593314D02*
X235930000Y-91418314D01*
X232645000Y-97878314D02*
X235930000Y-94593314D01*
X240460628Y-88862000D02*
X242804314Y-88862000D01*
X242804314Y-88862000D02*
X245348000Y-86318314D01*
X245348000Y-86318314D02*
X245348000Y-82550000D01*
%TO.N,Row 21*%
X211590000Y-100700000D02*
X211474000Y-100584000D01*
X196640000Y-102953000D02*
X196640000Y-105550000D01*
X211474000Y-100584000D02*
X199009000Y-100584000D01*
X199009000Y-100584000D02*
X196640000Y-102953000D01*
%TO.N,Meta 5 (Command)*%
X219138447Y-92597265D02*
X218310017Y-92597265D01*
X217057282Y-93850000D02*
X211776471Y-93850000D01*
X211776471Y-93850000D02*
X211391403Y-93464932D01*
X219945916Y-93404734D02*
X219138447Y-92597265D01*
X211391403Y-93464932D02*
X211391403Y-90531404D01*
X211074000Y-90214001D02*
X211074000Y-89408000D01*
X211391403Y-90531404D02*
X211074000Y-90214001D01*
X211074000Y-89408000D02*
X210404000Y-88738000D01*
X210404000Y-88738000D02*
X209936471Y-88738000D01*
X209936471Y-88738000D02*
X209340000Y-88141529D01*
X218310017Y-92597265D02*
X217057282Y-93850000D01*
X209340000Y-88141529D02*
X209340000Y-86170000D01*
%TO.N,Meta 19 (R Option)*%
X210304998Y-88257998D02*
X210812998Y-88257998D01*
X215625003Y-88884997D02*
X218359999Y-88884997D01*
X212900000Y-90684314D02*
X213017693Y-90802007D01*
X211724998Y-89169998D02*
X211724998Y-89677998D01*
X210185000Y-88138000D02*
X210304998Y-88257998D01*
X218359999Y-88884997D02*
X218725002Y-89250000D01*
X211724998Y-89677998D02*
X212097000Y-90050000D01*
X210812998Y-88257998D02*
X211724998Y-89169998D01*
X212097000Y-90050000D02*
X212548529Y-90050000D01*
X212548529Y-90050000D02*
X212900000Y-90401471D01*
X212900000Y-90401471D02*
X212900000Y-90684314D01*
X213017693Y-90802007D02*
X213707993Y-90802007D01*
X213707993Y-90802007D02*
X215625003Y-88884997D01*
%TO.N,+3.3V*%
X211709000Y-83693000D02*
X209178062Y-83693000D01*
X208431000Y-87909696D02*
X210056304Y-89535000D01*
X209178062Y-83693000D02*
X208431000Y-84440062D01*
X208431000Y-84440062D02*
X208431000Y-87909696D01*
X210056304Y-89535000D02*
X210185000Y-89535000D01*
%TO.N,Meta 13 (Ctrl)*%
X218833529Y-94876471D02*
X219275000Y-94876471D01*
X218972761Y-92997265D02*
X218475703Y-92997265D01*
X210757088Y-90462775D02*
X210418393Y-90462775D01*
X211610785Y-94250000D02*
X210991403Y-93630618D01*
X219324232Y-94827239D02*
X219324232Y-93348736D01*
X218475703Y-92997265D02*
X217222968Y-94250000D01*
X219275000Y-94876471D02*
X219324232Y-94827239D01*
X207245000Y-88373000D02*
X206800000Y-87928000D01*
X210991403Y-93630618D02*
X210991403Y-90697089D01*
X217222968Y-94250000D02*
X211610785Y-94250000D01*
X210991403Y-90697089D02*
X210757088Y-90462775D01*
X219324232Y-93348736D02*
X218972761Y-92997265D01*
X218820000Y-94890000D02*
X218833529Y-94876471D01*
X210418393Y-90462775D02*
X210405618Y-90450000D01*
X210405618Y-90450000D02*
X208744686Y-90450000D01*
X208744686Y-90450000D02*
X207245000Y-88950314D01*
X207245000Y-88950314D02*
X207245000Y-88373000D01*
X206800000Y-87928000D02*
X206800000Y-86170000D01*
%TO.N,Meta 15 (L Shift)*%
X218724232Y-93597265D02*
X217671497Y-94650000D01*
X211445099Y-94650000D02*
X210591403Y-93796304D01*
X208579000Y-90850000D02*
X204260000Y-86531000D01*
X210591403Y-93796304D02*
X210591403Y-91201471D01*
X210591403Y-91201471D02*
X210239932Y-90850000D01*
X217671497Y-94650000D02*
X211445099Y-94650000D01*
X210239932Y-90850000D02*
X208579000Y-90850000D01*
X204260000Y-86531000D02*
X204260000Y-86170000D01*
D23*
%TO.N,GND*%
X206502000Y-89789000D02*
X202118595Y-89789000D01*
X201229595Y-88900000D02*
X200406000Y-88900000D01*
X202118595Y-89789000D02*
X201229595Y-88900000D01*
X200406000Y-88900000D02*
X199180000Y-87674000D01*
X207886500Y-91173500D02*
X206502000Y-89789000D01*
X199180000Y-87674000D02*
X199180000Y-86170000D01*
X207886500Y-91173500D02*
X205710000Y-93350000D01*
D24*
%TO.N,Meta 29 (R Shift)*%
X196640000Y-86170000D02*
X196640000Y-85865062D01*
X196640000Y-85865062D02*
X199701062Y-82804000D01*
X199701062Y-82804000D02*
X210521000Y-82804000D01*
X214043490Y-82804000D02*
X215114490Y-83875000D01*
X210521000Y-82804000D02*
X214043490Y-82804000D01*
X215114490Y-83875000D02*
X216225000Y-83875000D01*
%TO.N,GND*%
X210825002Y-87657998D02*
X211727998Y-87657998D01*
X211727998Y-87657998D02*
X212323234Y-88253234D01*
D23*
%TO.N,+3.3V*%
X204720000Y-93960000D02*
X204785000Y-94025000D01*
X204785000Y-94025000D02*
X207416403Y-94025000D01*
X207416403Y-94025000D02*
X209991403Y-91450000D01*
D24*
%TO.N,TP_TX*%
X227348000Y-82550000D02*
X226898000Y-83000000D01*
X226392471Y-82715000D02*
X223418062Y-82715000D01*
X226898000Y-83000000D02*
X226677471Y-83000000D01*
X223012000Y-82308938D02*
X223012000Y-79679000D01*
X226677471Y-83000000D02*
X226392471Y-82715000D01*
X223418062Y-82715000D02*
X223012000Y-82308938D01*
X223012000Y-79679000D02*
X223901000Y-78790000D01*
%TO.N,MouseButton *%
X231260000Y-89090000D02*
X229660000Y-87490000D01*
X231737422Y-89090000D02*
X231260000Y-89090000D01*
X229660000Y-87490000D02*
X229660000Y-86170000D01*
%TO.N,Caps LED V+*%
X229660026Y-90132000D02*
X228212099Y-90132000D01*
X228212099Y-90132000D02*
X227908622Y-89828523D01*
X229860025Y-89932001D02*
X229660026Y-90132000D01*
X227908622Y-89828523D02*
X227908622Y-88118622D01*
%TO.N,PowerSwitch*%
X221508429Y-83750000D02*
X220305000Y-83750000D01*
X234061000Y-81534000D02*
X233172000Y-81534000D01*
X226401100Y-83855000D02*
X226239100Y-83693000D01*
X234315000Y-81280000D02*
X234061000Y-81534000D01*
X232248000Y-83855000D02*
X226401100Y-83855000D01*
X233172000Y-81534000D02*
X232898000Y-81808000D01*
X232898000Y-81808000D02*
X232898000Y-83205000D01*
X232898000Y-83205000D02*
X232248000Y-83855000D01*
X219500000Y-84555000D02*
X219500000Y-86170000D01*
X221565429Y-83693000D02*
X221508429Y-83750000D01*
X226239100Y-83693000D02*
X221565429Y-83693000D01*
X220305000Y-83750000D02*
X219500000Y-84555000D01*
%TO.N,Row 7*%
X222575000Y-100722978D02*
X222250000Y-101047978D01*
X222250000Y-101047978D02*
X222250000Y-105340000D01*
X222250000Y-105340000D02*
X222040000Y-105550000D01*
%TO.N,Row 17*%
X220570000Y-94360000D02*
X221380000Y-95170000D01*
X218700000Y-97440000D02*
X218700000Y-98976471D01*
X218700000Y-98976471D02*
X219375000Y-99651471D01*
X221380000Y-95170000D02*
X221380000Y-96742746D01*
X221380000Y-96742746D02*
X219397254Y-96742746D01*
X219397254Y-96742746D02*
X218700000Y-97440000D01*
X219375000Y-100148529D02*
X219023529Y-100500000D01*
X218016000Y-100500000D02*
X214420000Y-104096000D01*
X214420000Y-104096000D02*
X214420000Y-105550000D01*
X219375000Y-99651471D02*
X219375000Y-100148529D01*
X219023529Y-100500000D02*
X218016000Y-100500000D01*
%TO.N,Serial Out*%
X200950000Y-89575000D02*
X200409248Y-89575000D01*
X191030062Y-81869938D02*
X192348529Y-80551471D01*
X190146000Y-88646000D02*
X189020000Y-87520000D01*
X191030062Y-82781938D02*
X191030062Y-81869938D01*
X200409248Y-89575000D02*
X199480248Y-88646000D01*
X199480248Y-88646000D02*
X190146000Y-88646000D01*
X189020000Y-87520000D02*
X189020000Y-84792000D01*
X189020000Y-84792000D02*
X191030062Y-82781938D01*
X192348529Y-80551471D02*
X194700000Y-80551471D01*
X198952445Y-76299026D02*
X226090000Y-76299026D01*
X194700000Y-80551471D02*
X198952445Y-76299026D01*
%TO.N,Meta 19 (R Option)*%
X202946000Y-88138000D02*
X202438000Y-88138000D01*
X201720000Y-87420000D02*
X201720000Y-86170000D01*
X202438000Y-88138000D02*
X201720000Y-87420000D01*
%TO.N,Meta 3 (Option)*%
X218440000Y-87503000D02*
X218440000Y-84339368D01*
X218312152Y-84211520D02*
X218312152Y-83714462D01*
X222550000Y-81577058D02*
X222550000Y-79120000D01*
X218312152Y-83714462D02*
X218893700Y-83132914D01*
X214420000Y-87674000D02*
X214830997Y-88084997D01*
X217858003Y-88084997D02*
X218440000Y-87503000D01*
X237348000Y-78852000D02*
X237348000Y-82550000D01*
X214830997Y-88084997D02*
X217858003Y-88084997D01*
X218440000Y-84339368D02*
X218312152Y-84211520D01*
X218893700Y-83132914D02*
X218910785Y-83150000D01*
X214420000Y-86170000D02*
X214420000Y-87674000D01*
X218910785Y-83150000D02*
X219739215Y-83150000D01*
X224292753Y-77377247D02*
X226582068Y-77377247D01*
X219739215Y-83150000D02*
X219939214Y-82950000D01*
X219939214Y-82950000D02*
X221177058Y-82950000D01*
X221177058Y-82950000D02*
X222550000Y-81577058D01*
X222550000Y-79120000D02*
X224292753Y-77377247D01*
X226582068Y-77377247D02*
X226714821Y-77510000D01*
X226714821Y-77510000D02*
X236006000Y-77510000D01*
X236006000Y-77510000D02*
X237348000Y-78852000D01*
%TO.N,Row 11*%
X221870000Y-97656553D02*
X222551553Y-96975000D01*
X244348000Y-86752628D02*
X244348000Y-82550000D01*
X222551553Y-96975000D02*
X232844000Y-96975000D01*
X236980628Y-89802000D02*
X238954942Y-89802000D01*
X235530000Y-94289000D02*
X235530000Y-91252628D01*
X235530000Y-91252628D02*
X236980628Y-89802000D01*
X232844000Y-96975000D02*
X235530000Y-94289000D01*
X238954942Y-89802000D02*
X240294942Y-88462000D01*
X240294942Y-88462000D02*
X242638628Y-88462000D01*
X242638628Y-88462000D02*
X244348000Y-86752628D01*
%TO.N,RGB*%
X239268000Y-92964000D02*
X237780000Y-94452000D01*
X237780000Y-95268529D02*
X232337529Y-100711000D01*
X237780000Y-94452000D02*
X237780000Y-95268529D01*
X232337529Y-100711000D02*
X229660000Y-100711000D01*
X229660000Y-100711000D02*
X229660000Y-105550000D01*
D23*
%TO.N,+3.3V*%
X253492000Y-86106000D02*
X249874000Y-86106000D01*
X191560000Y-107165000D02*
X191560000Y-104350000D01*
X191560000Y-104350000D02*
X201950000Y-93960000D01*
X249874000Y-86106000D02*
X237255000Y-98725000D01*
X237255000Y-98725000D02*
X234995280Y-98725000D01*
X234995280Y-98725000D02*
X233208529Y-100511751D01*
X231193002Y-107750000D02*
X192145000Y-107750000D01*
X233208529Y-100511751D02*
X233208529Y-105734473D01*
X233208529Y-105734473D02*
X231193002Y-107750000D01*
X192145000Y-107750000D02*
X191560000Y-107165000D01*
X201950000Y-93960000D02*
X204720000Y-93960000D01*
%TO.N,GND*%
X199180000Y-86170000D02*
X199180000Y-86697000D01*
X199180000Y-86697000D02*
X197717003Y-88159997D01*
X197717003Y-88159997D02*
X193606460Y-88159997D01*
X193606460Y-88159997D02*
X193040000Y-87593537D01*
X193040000Y-87593537D02*
X193040000Y-83640000D01*
X193040000Y-83640000D02*
X192600000Y-83200000D01*
X192600000Y-83200000D02*
X192600000Y-82980000D01*
D24*
%TO.N,Meta 29 (R Shift)*%
X232348000Y-82550000D02*
X232348000Y-82950000D01*
X231898000Y-83400000D02*
X226511786Y-83400000D01*
X221634744Y-83058000D02*
X221342744Y-83350000D01*
X219491909Y-83962991D02*
X218912152Y-83962991D01*
X226226786Y-83115000D02*
X223252377Y-83115000D01*
X232348000Y-82950000D02*
X231898000Y-83400000D01*
X226511786Y-83400000D02*
X226226786Y-83115000D01*
X223252377Y-83115000D02*
X223195377Y-83058000D01*
X223195377Y-83058000D02*
X221634744Y-83058000D01*
X221342744Y-83350000D02*
X220104900Y-83350000D01*
X220104900Y-83350000D02*
X219491909Y-83962991D01*
%TO.N,Meta 1 (Fn)*%
X216960000Y-83740000D02*
X217912152Y-83740000D01*
X238348000Y-79286314D02*
X238348000Y-82550000D01*
X219773529Y-82550000D02*
X221011372Y-82550000D01*
X221011372Y-82550000D02*
X221850000Y-81711372D01*
X216960000Y-86170000D02*
X216960000Y-83740000D01*
X217912152Y-83740000D02*
X217912152Y-83548776D01*
X217912152Y-83548776D02*
X218146467Y-83314462D01*
X219076471Y-82750000D02*
X219573529Y-82750000D01*
X218146467Y-83314462D02*
X218860929Y-82600000D01*
X218926471Y-82600000D02*
X219076471Y-82750000D01*
X218860929Y-82600000D02*
X218926471Y-82600000D01*
X221850000Y-77970000D02*
X222842753Y-76977247D01*
X219573529Y-82750000D02*
X219773529Y-82550000D01*
X221850000Y-81711372D02*
X221850000Y-77970000D01*
X222842753Y-76977247D02*
X236038933Y-76977247D01*
X236038933Y-76977247D02*
X238348000Y-79286314D01*
%TO.N,GND*%
X224580000Y-86170000D02*
X224580000Y-87785000D01*
X224580000Y-87785000D02*
X226457000Y-89662000D01*
X226457000Y-89662000D02*
X227076000Y-89662000D01*
%TO.N,Caps LED V+*%
X227908622Y-89662000D02*
X227908622Y-88118622D01*
%TO.N,Row 17*%
X232695685Y-92205000D02*
X233813743Y-91086942D01*
X242472942Y-88062000D02*
X243348000Y-87186942D01*
X220720000Y-94510000D02*
X226662529Y-94510000D01*
X240129256Y-88062000D02*
X242472942Y-88062000D01*
X226662529Y-94510000D02*
X228967529Y-92205000D01*
X220570000Y-94360000D02*
X220720000Y-94510000D01*
X233813743Y-91086942D02*
X235130000Y-91086942D01*
X228967529Y-92205000D02*
X232695685Y-92205000D01*
X235130000Y-91086942D02*
X236814942Y-89402000D01*
X236814942Y-89402000D02*
X238789256Y-89402000D01*
X238789256Y-89402000D02*
X240129256Y-88062000D01*
X243348000Y-87186942D02*
X243348000Y-82550000D01*
%TO.N,Caps LED V+*%
X236930000Y-91948000D02*
X236930000Y-91740411D01*
X236930000Y-91740411D02*
X237668411Y-91002000D01*
X237668411Y-91002000D02*
X239452000Y-91002000D01*
X239452000Y-91002000D02*
X240792000Y-89662000D01*
X240792000Y-89662000D02*
X243355256Y-89662000D01*
X247348000Y-85669256D02*
X247348000Y-82550000D01*
X243355256Y-89662000D02*
X247348000Y-85669256D01*
%TO.N,RGB*%
X238072631Y-91729153D02*
X238399784Y-91402000D01*
X238399784Y-91402000D02*
X242746628Y-91402000D01*
X237789787Y-91729153D02*
X238072631Y-91729153D01*
X242746628Y-91402000D02*
X249348000Y-84800628D01*
X249348000Y-84800628D02*
X249348000Y-82550000D01*
%TO.N,Power LED V+*%
X240792000Y-90602000D02*
X240992000Y-90802000D01*
X240992000Y-90802000D02*
X242780942Y-90802000D01*
X242780942Y-90802000D02*
X248348000Y-85234942D01*
X248348000Y-85234942D02*
X248348000Y-82550000D01*
%TO.N,MouseButton *%
X237700735Y-92666735D02*
X238565470Y-91802000D01*
X238565470Y-91802000D02*
X242912314Y-91802000D01*
X242912314Y-91802000D02*
X250348000Y-84366314D01*
X250348000Y-84366314D02*
X250348000Y-82550000D01*
%TO.N,LidSwitch*%
X250190000Y-85090000D02*
X243078000Y-92202000D01*
X239014000Y-92202000D02*
X237120000Y-94096000D01*
X243078000Y-92202000D02*
X239014000Y-92202000D01*
X237120000Y-94096000D02*
X237120000Y-95080000D01*
X250698000Y-85090000D02*
X250190000Y-85090000D01*
X237120000Y-95080000D02*
X234150000Y-98050000D01*
X251348000Y-84440000D02*
X250698000Y-85090000D01*
X251348000Y-82550000D02*
X251348000Y-84440000D01*
%TO.N,Col 16*%
X218524999Y-91122452D02*
X218476473Y-91122452D01*
X215284606Y-90922452D02*
X214205051Y-92002007D01*
X212364389Y-92002007D02*
X211994963Y-92371433D01*
X218276473Y-90922452D02*
X215284606Y-90922452D01*
X218725002Y-91322455D02*
X218524999Y-91122452D01*
X214205051Y-92002007D02*
X212364389Y-92002007D01*
X218476473Y-91122452D02*
X218276473Y-90922452D01*
%TO.N,Meta 3 (Option)*%
X214420000Y-85605000D02*
X214600000Y-85425000D01*
%TO.N,Col 26*%
X219266476Y-88484997D02*
X212940001Y-88484997D01*
X212940001Y-88484997D02*
X212324998Y-89100000D01*
X219461473Y-88290000D02*
X219266476Y-88484997D01*
D23*
%TO.N,GND*%
X211880000Y-105550000D02*
X211880000Y-104010000D01*
X211880000Y-104010000D02*
X211410000Y-103540000D01*
D24*
X186480000Y-106020000D02*
X186480000Y-105550000D01*
X224640000Y-103480000D02*
X224580000Y-103540000D01*
X211880000Y-105550000D02*
X211880000Y-107165000D01*
X231990000Y-95860000D02*
X230230000Y-95860000D01*
X230230000Y-95860000D02*
X230140000Y-95860000D01*
D23*
X186480000Y-103750000D02*
X186630000Y-103600000D01*
X199180000Y-86170000D02*
X199180000Y-85280000D01*
D24*
X224580000Y-106230000D02*
X224580000Y-105550000D01*
X224580000Y-103540000D02*
X224580000Y-105550000D01*
D23*
X199180000Y-85280000D02*
X200610000Y-83850000D01*
X199180000Y-103930000D02*
X199510000Y-103600000D01*
D24*
X186520000Y-105510000D02*
X186480000Y-105550000D01*
X232590000Y-95260000D02*
X231990000Y-95860000D01*
X199180000Y-105550000D02*
X199180000Y-107165000D01*
D23*
X186480000Y-105550000D02*
X186480000Y-103750000D01*
X199180000Y-105550000D02*
X199180000Y-103930000D01*
D24*
X230140000Y-95860000D02*
X229990000Y-96010000D01*
%TO.N,Caps LED V+*%
X212200000Y-97900000D02*
X216750000Y-97900000D01*
X227120000Y-87330000D02*
X227120000Y-86170000D01*
X227908622Y-88118622D02*
X227120000Y-87330000D01*
X218800000Y-99925000D02*
X218775000Y-99900000D01*
X218800000Y-99950000D02*
X218800000Y-99925000D01*
X216750000Y-97900000D02*
X218800000Y-99950000D01*
%TO.N,Meta 5 (Command)*%
X219945916Y-95484084D02*
X219945916Y-93404734D01*
X219300000Y-96130000D02*
X219945916Y-95484084D01*
%TO.N,Col 18*%
X214039365Y-91602007D02*
X212074066Y-91602007D01*
X212074066Y-91602007D02*
X211991403Y-91519344D01*
X218725002Y-90522452D02*
X215118920Y-90522452D01*
X215118920Y-90522452D02*
X214039365Y-91602007D01*
%TO.N,Col 30*%
X215325000Y-82200000D02*
X214944265Y-82580735D01*
X219325000Y-82150000D02*
X219275000Y-82200000D01*
X219275000Y-82200000D02*
X215325000Y-82200000D01*
X214944265Y-82580735D02*
X214944265Y-82856246D01*
%TO.N,Col 39*%
X219249406Y-76699026D02*
X206374774Y-76699026D01*
X206374774Y-76699026D02*
X206050000Y-77023800D01*
X219522534Y-76972154D02*
X219249406Y-76699026D01*
%TO.N,Meta 1 (Fn)*%
X216960000Y-86170000D02*
X216960000Y-85865062D01*
%TO.N,Col 14*%
X219325002Y-91570984D02*
X218883451Y-92012535D01*
X218883451Y-92012535D02*
X214760209Y-92012535D01*
X214370737Y-92402007D02*
X212872993Y-92402007D01*
X212872993Y-92402007D02*
X212025000Y-93250000D01*
X220099957Y-90564259D02*
X219325002Y-91339214D01*
X214760209Y-92012535D02*
X214370737Y-92402007D01*
X219325002Y-91339214D02*
X219325002Y-91570984D01*
%TO.N,Col 28*%
X218550930Y-81270000D02*
X218807029Y-81013901D01*
X215402545Y-81200000D02*
X215472545Y-81270000D01*
X215472545Y-81270000D02*
X218550930Y-81270000D01*
%TO.N,Row 11*%
X219775000Y-99485785D02*
X219775000Y-100760686D01*
X219775000Y-100760686D02*
X216960000Y-103575686D01*
X219562940Y-97142746D02*
X219100000Y-97605686D01*
X221870000Y-97656553D02*
X221356193Y-97142746D01*
X216960000Y-103575686D02*
X216960000Y-105550000D01*
X219100000Y-97605686D02*
X219100000Y-98810785D01*
X219100000Y-98810785D02*
X219775000Y-99485785D01*
X221356193Y-97142746D02*
X219562940Y-97142746D01*
%TO.N,Col 34*%
X219486099Y-80013901D02*
X219495093Y-80004907D01*
X212538530Y-81130000D02*
X214624016Y-81130000D01*
X212399468Y-80990938D02*
X212538530Y-81130000D01*
X214624016Y-81130000D02*
X215684016Y-80070000D01*
X217569816Y-80013901D02*
X219486099Y-80013901D01*
X215684016Y-80070000D02*
X217513717Y-80070000D01*
X209413659Y-80275000D02*
X206175000Y-80275000D01*
X217513717Y-80070000D02*
X217569816Y-80013901D01*
X206175000Y-80275000D02*
X204900000Y-81550000D01*
X209439756Y-80248903D02*
X209413659Y-80275000D01*
%TO.N,Row 9*%
X219510000Y-101591372D02*
X219510000Y-105540000D01*
X219728626Y-97542746D02*
X219500000Y-97771372D01*
X220523420Y-97542746D02*
X219728626Y-97542746D01*
X219510000Y-105540000D02*
X219500000Y-105550000D01*
X220750337Y-97769663D02*
X220523420Y-97542746D01*
X219500000Y-97771372D02*
X219500000Y-98645099D01*
X220175000Y-99320099D02*
X220175000Y-100926372D01*
X220175000Y-100926372D02*
X219510000Y-101591372D01*
X219500000Y-98645099D02*
X220175000Y-99320099D01*
%TO.N,Row 7*%
X220146788Y-98294766D02*
X222575000Y-100722978D01*
%TO.N,Row 27*%
X209340000Y-103730000D02*
X209340000Y-105550000D01*
X214821804Y-102289217D02*
X213929775Y-103181246D01*
X213364090Y-103181246D02*
X212932844Y-102750000D01*
X210320000Y-102750000D02*
X209340000Y-103730000D01*
X213929775Y-103181246D02*
X213364090Y-103181246D01*
X212932844Y-102750000D02*
X210320000Y-102750000D01*
%TO.N,Row 25*%
X210154314Y-102350000D02*
X209214314Y-103290000D01*
X213098530Y-102350000D02*
X210154314Y-102350000D01*
X213681246Y-102581246D02*
X213329775Y-102581246D01*
X213329775Y-102581246D02*
X213098530Y-102350000D01*
X204545686Y-103290000D02*
X204260000Y-103575686D01*
X209214314Y-103290000D02*
X204545686Y-103290000D01*
X204260000Y-103575686D02*
X204260000Y-105550000D01*
%TO.N,Power LED V+*%
X222040000Y-87784997D02*
X220232105Y-89592892D01*
X221890000Y-90670000D02*
X222770000Y-90670000D01*
X220232105Y-89592892D02*
X220812892Y-89592892D01*
X218973531Y-89850000D02*
X218476473Y-89850000D01*
X219230639Y-89592892D02*
X218973531Y-89850000D01*
X213873679Y-91202007D02*
X212852007Y-91202007D01*
X222040000Y-86170000D02*
X222040000Y-87784997D01*
X215790689Y-89284997D02*
X213873679Y-91202007D01*
X222770000Y-90670000D02*
X223090000Y-90350000D01*
X220232105Y-89592892D02*
X219230639Y-89592892D01*
X217911470Y-89284997D02*
X215790689Y-89284997D01*
X212852007Y-91202007D02*
X212300000Y-90650000D01*
X220812892Y-89592892D02*
X221890000Y-90670000D01*
X218476473Y-89850000D02*
X217911470Y-89284997D01*
%TO.N,Col 32*%
X218558500Y-80413901D02*
X219055558Y-80413901D01*
X218302401Y-80670000D02*
X218558500Y-80413901D01*
X219407029Y-80942939D02*
X219603878Y-80942939D01*
X209328823Y-81041177D02*
X208962646Y-80675000D01*
X207525000Y-81500000D02*
X206300000Y-81500000D01*
X208962646Y-80675000D02*
X208350000Y-80675000D01*
X216103328Y-80670000D02*
X218302401Y-80670000D01*
X219407029Y-80765372D02*
X219407029Y-80942939D01*
X219055558Y-80413901D02*
X219407029Y-80765372D01*
X208350000Y-80675000D02*
X207525000Y-81500000D01*
%TO.N,TP_TX*%
X211617555Y-78299026D02*
X211554980Y-78236451D01*
X202467240Y-78236451D02*
X200371846Y-80331845D01*
X218759727Y-79413901D02*
X217244852Y-77899026D01*
X211554980Y-78236451D02*
X202467240Y-78236451D01*
X217244852Y-77899026D02*
X212878650Y-77899026D01*
X181400000Y-84290000D02*
X181400000Y-86170000D01*
X196740000Y-80200000D02*
X196720000Y-80200000D01*
X212878650Y-77899026D02*
X212478650Y-78299026D01*
X181830000Y-83860000D02*
X181400000Y-84290000D01*
X196851845Y-80331845D02*
X196720000Y-80200000D01*
X212478650Y-78299026D02*
X211617555Y-78299026D01*
X200371846Y-80331845D02*
X196851845Y-80331845D01*
%TO.N,TP_RX*%
X205280000Y-77580000D02*
X202558005Y-77580000D01*
X208860974Y-77099026D02*
X208336200Y-77623800D01*
X205323800Y-77623800D02*
X205280000Y-77580000D01*
X219550000Y-77690000D02*
X219432154Y-77572154D01*
X219274005Y-77572154D02*
X218800877Y-77099026D01*
X219550000Y-78950000D02*
X219550000Y-77690000D01*
X195300000Y-80771471D02*
X195300000Y-80800000D01*
X196501471Y-79570000D02*
X195300000Y-80771471D01*
X200206160Y-79931845D02*
X197340000Y-79931845D01*
X220060000Y-78950000D02*
X219550000Y-78950000D01*
X197340000Y-79931845D02*
X196978155Y-79570000D01*
X220449998Y-80000000D02*
X220060000Y-79610002D01*
X219432154Y-77572154D02*
X219274005Y-77572154D01*
X196978155Y-79570000D02*
X196501471Y-79570000D01*
X218800877Y-77099026D02*
X208860974Y-77099026D01*
X220060000Y-79610002D02*
X220060000Y-78950000D01*
X208336200Y-77623800D02*
X205323800Y-77623800D01*
X202558005Y-77580000D02*
X200206160Y-79931845D01*
%TO.N,Shift Clock*%
X210047498Y-79550000D02*
X202285062Y-79550000D01*
X210250000Y-81326381D02*
X209959291Y-81617090D01*
X210361047Y-79236451D02*
X210047498Y-79550000D01*
X209959291Y-81617090D02*
X210722201Y-82380000D01*
X195360000Y-81800000D02*
X194400000Y-82760000D01*
X194400000Y-85870000D02*
X194100000Y-86170000D01*
X218826471Y-81800000D02*
X219076471Y-81550000D01*
X194400000Y-82760000D02*
X194400000Y-85870000D01*
X210722201Y-82380000D02*
X214579314Y-82380000D01*
X200035062Y-81800000D02*
X195360000Y-81800000D01*
X202285062Y-79550000D02*
X200035062Y-81800000D01*
X215159314Y-81800000D02*
X218826471Y-81800000D01*
X210250000Y-79347498D02*
X210250000Y-81326381D01*
X221162843Y-81550000D02*
X221250000Y-81462843D01*
X214579314Y-82380000D02*
X215159314Y-81800000D01*
X210361047Y-79236451D02*
X210250000Y-79347498D01*
X219076471Y-81550000D02*
X221162843Y-81550000D01*
%TO.N,Paralell Latch*%
X210650000Y-80300000D02*
X210650000Y-81059988D01*
X210623125Y-78650000D02*
X210609576Y-78636451D01*
X218880000Y-78180000D02*
X218199026Y-77499026D01*
X210650000Y-81059988D02*
X211304345Y-81714333D01*
X194971471Y-81320000D02*
X192145686Y-81320000D01*
X212230121Y-77649879D02*
X212230121Y-77699026D01*
X211710000Y-79240000D02*
X211710000Y-79135686D01*
X212230121Y-77649879D02*
X212140242Y-77560000D01*
X210609576Y-78636451D02*
X208885020Y-78636451D01*
X208371471Y-79150000D02*
X202119376Y-79150000D01*
X218199026Y-77499026D02*
X212430121Y-77499026D01*
X199869376Y-81400000D02*
X195051471Y-81400000D01*
X202119376Y-79150000D02*
X199869376Y-81400000D01*
X208885020Y-78636451D02*
X208371471Y-79150000D01*
X212430121Y-77499026D02*
X212230121Y-77699026D01*
X192145686Y-81320000D02*
X191560000Y-81905686D01*
X195051471Y-81400000D02*
X194971471Y-81320000D01*
X211710000Y-79240000D02*
X210650000Y-80300000D01*
X211710000Y-79135686D02*
X211224314Y-78650000D01*
X191560000Y-81905686D02*
X191560000Y-86170000D01*
X211224314Y-78650000D02*
X210623125Y-78650000D01*
%TO.N,LidSwitch*%
X227090000Y-102700000D02*
X227120000Y-102730000D01*
X227120000Y-102730000D02*
X227120000Y-105550000D01*
%TO.N,Row 27*%
X239678000Y-87630000D02*
X241116000Y-87630000D01*
X238506000Y-88802000D02*
X239678000Y-87630000D01*
X241116000Y-87630000D02*
X242348000Y-86398000D01*
X242348000Y-86398000D02*
X242348000Y-82550000D01*
%TO.N,Row 25*%
X237609636Y-88754166D02*
X239133802Y-87230000D01*
X240950314Y-87230000D02*
X241348000Y-86832314D01*
X239133802Y-87230000D02*
X240950314Y-87230000D01*
X241348000Y-86832314D02*
X241348000Y-82550000D01*
%TO.N,Row 23*%
X238544000Y-86830000D02*
X239776000Y-86830000D01*
X236690470Y-88683530D02*
X238544000Y-86830000D01*
X239776000Y-86830000D02*
X240348000Y-86258000D01*
X240348000Y-86258000D02*
X240348000Y-82550000D01*
%TO.N,Row 21*%
X239348000Y-86280000D02*
X239198000Y-86430000D01*
X239348000Y-82550000D02*
X239348000Y-86280000D01*
X237903182Y-86430000D02*
X235745796Y-88587386D01*
X239198000Y-86430000D02*
X237903182Y-86430000D01*
%TO.N,Meta 19 (R Option)*%
X218725002Y-89250000D02*
X219085002Y-88890000D01*
X221164062Y-84201000D02*
X226181414Y-84201000D01*
X226235414Y-84255000D02*
X232864000Y-84255000D01*
X220910000Y-87690000D02*
X220910000Y-84455062D01*
X219085002Y-88890000D02*
X219710000Y-88890000D01*
X219710000Y-88890000D02*
X220910000Y-87690000D01*
X220910000Y-84455062D02*
X221164062Y-84201000D01*
X226181414Y-84201000D02*
X226235414Y-84255000D01*
X233348000Y-83771000D02*
X233348000Y-82550000D01*
X232864000Y-84255000D02*
X233348000Y-83771000D01*
%TO.N,TP_TX*%
X227748000Y-80737000D02*
X227348000Y-81137000D01*
X227348000Y-81137000D02*
X227348000Y-82550000D01*
%TO.N,GND*%
X226695000Y-80894185D02*
X226719235Y-80869950D01*
X226695000Y-82169000D02*
X226695000Y-80894185D01*
%TO.N,Shift Clock*%
X231348000Y-81707000D02*
X231348000Y-82550000D01*
X231521000Y-81534000D02*
X231348000Y-81707000D01*
D23*
%TO.N,GND*%
X232132745Y-79883000D02*
X230886000Y-79883000D01*
X232494670Y-80244925D02*
X232132745Y-79883000D01*
D24*
%TO.N,Paralell Latch*%
X230348000Y-81740979D02*
X230348000Y-82550000D01*
X229835000Y-81227979D02*
X230348000Y-81740979D01*
X229835000Y-79657500D02*
X229835000Y-81227979D01*
%TO.N,Serial Out*%
X226447765Y-78105000D02*
X228600000Y-78105000D01*
X228600000Y-78105000D02*
X229235000Y-78740000D01*
X229235000Y-78740000D02*
X229235000Y-82437000D01*
X229235000Y-82437000D02*
X229348000Y-82550000D01*
%TO.N,TP_RX*%
X228133765Y-79079235D02*
X224661705Y-79079235D01*
X224661705Y-79079235D02*
X224650962Y-79068492D01*
X228429735Y-78783265D02*
X228348000Y-78865000D01*
X228348000Y-78865000D02*
X228348000Y-82550000D01*
X228429735Y-78783265D02*
X228133765Y-79079235D01*
%TO.N,Meta 1 (Fn)*%
X225425000Y-93810000D02*
X226796843Y-93810000D01*
X228801843Y-91805000D02*
X232529999Y-91805000D01*
X234687058Y-90686942D02*
X235145796Y-90228204D01*
X235145796Y-90228204D02*
X235145796Y-88338857D01*
X226796843Y-93810000D02*
X228801843Y-91805000D01*
X233648057Y-90686942D02*
X234687058Y-90686942D01*
X232529999Y-91805000D02*
X233648057Y-90686942D01*
X235145796Y-88338857D02*
X238348000Y-85136653D01*
X238348000Y-85136653D02*
X238348000Y-82550000D01*
%TO.N,PowerSwitch*%
X252348000Y-82550000D02*
X252348000Y-82150000D01*
X252348000Y-82150000D02*
X251478000Y-81280000D01*
X251478000Y-81280000D02*
X240919000Y-81280000D01*
%TO.N,Meta 3 (Option)*%
X237348000Y-85359000D02*
X237348000Y-82550000D01*
X237109000Y-85598000D02*
X237348000Y-85359000D01*
X235442000Y-85598000D02*
X237109000Y-85598000D01*
X230936315Y-89332001D02*
X228802999Y-89332001D01*
X231294314Y-89690000D02*
X230936315Y-89332001D01*
X232109000Y-89690000D02*
X231294314Y-89690000D01*
X232537000Y-89262000D02*
X232109000Y-89690000D01*
X232537000Y-86360000D02*
X232537000Y-89262000D01*
X231648000Y-85471000D02*
X232537000Y-86360000D01*
X228802999Y-89332001D02*
X228727000Y-89408000D01*
%TO.N,Meta 15 (L Shift)*%
X234348000Y-83336686D02*
X234348000Y-82550000D01*
X232937000Y-89585314D02*
X232937000Y-84747686D01*
X226505051Y-92404734D02*
X228377785Y-90532000D01*
X220778064Y-93148141D02*
X221521471Y-92404734D01*
X232937000Y-84747686D02*
X234348000Y-83336686D01*
X228377785Y-90532000D02*
X231990314Y-90532000D01*
X231990314Y-90532000D02*
X232937000Y-89585314D01*
X221521471Y-92404734D02*
X226505051Y-92404734D01*
X220778064Y-93160000D02*
X220778064Y-93148141D01*
%TO.N,Meta 13 (Ctrl)*%
X235348000Y-82902372D02*
X235348000Y-82550000D01*
X233337000Y-89751000D02*
X233337000Y-84913372D01*
X228543471Y-90932000D02*
X232156000Y-90932000D01*
X226665471Y-92810000D02*
X228543471Y-90932000D01*
X232156000Y-90932000D02*
X233337000Y-89751000D01*
X221774734Y-92810000D02*
X226665471Y-92810000D01*
X233337000Y-84913372D02*
X235348000Y-82902372D01*
X221580000Y-93004734D02*
X221774734Y-92810000D01*
%TO.N,Meta 5 (Command)*%
X235416058Y-83400000D02*
X235798000Y-83400000D01*
X235798000Y-83400000D02*
X236348000Y-82850000D01*
X233737000Y-90032314D02*
X233737000Y-85079058D01*
X232664000Y-91105314D02*
X233737000Y-90032314D01*
X232364313Y-91405000D02*
X232369657Y-91399656D01*
X228636157Y-91405000D02*
X232364313Y-91405000D01*
X221028529Y-93970000D02*
X223180000Y-93970000D01*
X226831157Y-93210000D02*
X228636157Y-91405000D01*
X223531471Y-93210000D02*
X226831157Y-93210000D01*
X223180000Y-93561471D02*
X223531471Y-93210000D01*
X232369657Y-91399656D02*
X232664000Y-91105314D01*
X223180000Y-93970000D02*
X223180000Y-93561471D01*
X236348000Y-82850000D02*
X236348000Y-82550000D01*
X220301182Y-93760000D02*
X220818529Y-93760000D01*
X220818529Y-93760000D02*
X221028529Y-93970000D01*
X233737000Y-85079058D02*
X235416058Y-83400000D01*
X219945916Y-93404734D02*
X220301182Y-93760000D01*
%TD*%
%TA.AperFunction,Conductor*%
%TO.N,+3.3V*%
G36*
X257346127Y-75977553D02*
G01*
X257744620Y-75994953D01*
X257755362Y-75995893D01*
X258148143Y-76047606D01*
X258158770Y-76049479D01*
X258545550Y-76135228D01*
X258555988Y-76138025D01*
X258933812Y-76257155D01*
X258943954Y-76260846D01*
X259309965Y-76412455D01*
X259319763Y-76417025D01*
X259395657Y-76456533D01*
X259671154Y-76599948D01*
X259680501Y-76605345D01*
X259967587Y-76788240D01*
X260014614Y-76818200D01*
X260023475Y-76824404D01*
X260337777Y-77065578D01*
X260346051Y-77072522D01*
X260432140Y-77151408D01*
X260638111Y-77340147D01*
X260645761Y-77347796D01*
X260913401Y-77639877D01*
X260920354Y-77648164D01*
X261161506Y-77962440D01*
X261167711Y-77971301D01*
X261380562Y-78305411D01*
X261385971Y-78314780D01*
X261466502Y-78469480D01*
X261566170Y-78660943D01*
X261568890Y-78666167D01*
X261573461Y-78675971D01*
X261725058Y-79041961D01*
X261728758Y-79052126D01*
X261847880Y-79429934D01*
X261850680Y-79440383D01*
X261936422Y-79827145D01*
X261938300Y-79837798D01*
X261958588Y-79991896D01*
X261986718Y-80205569D01*
X261990007Y-80230547D01*
X261990950Y-80241324D01*
X262008382Y-80640613D01*
X262008500Y-80646021D01*
X262008500Y-103491413D01*
X262008227Y-103499642D01*
X261981971Y-103894390D01*
X261980783Y-103905142D01*
X261920125Y-104296739D01*
X261918004Y-104307347D01*
X261823447Y-104692160D01*
X261820410Y-104702542D01*
X261692677Y-105077646D01*
X261688747Y-105087725D01*
X261528800Y-105450286D01*
X261524006Y-105459983D01*
X261333076Y-105807211D01*
X261327455Y-105816454D01*
X261106984Y-106145727D01*
X261100579Y-106154444D01*
X260852261Y-106463235D01*
X260845121Y-106471362D01*
X260570815Y-106757355D01*
X260562994Y-106764827D01*
X260264817Y-107025818D01*
X260256373Y-107032581D01*
X259936596Y-107266580D01*
X259927596Y-107272582D01*
X259588627Y-107477830D01*
X259579139Y-107483024D01*
X259223564Y-107657952D01*
X259213658Y-107662299D01*
X258844200Y-107805567D01*
X258833953Y-107809034D01*
X258453419Y-107919556D01*
X258442909Y-107922117D01*
X258054194Y-107999051D01*
X258043501Y-108000687D01*
X257649542Y-108043452D01*
X257638747Y-108044149D01*
X257244254Y-108052382D01*
X257241667Y-108052409D01*
X257232876Y-108052409D01*
X257230052Y-108052377D01*
X257224642Y-108052253D01*
X257171286Y-108051038D01*
X257171285Y-108051038D01*
X257171282Y-108051038D01*
X257165322Y-108051685D01*
X257151943Y-108052409D01*
X192559866Y-108052409D01*
X192559581Y-108052427D01*
X192448478Y-108052427D01*
X192367145Y-108059962D01*
X192080158Y-108086553D01*
X192080151Y-108086554D01*
X191716529Y-108154524D01*
X191716528Y-108154525D01*
X191360751Y-108255750D01*
X191360743Y-108255752D01*
X191015811Y-108389377D01*
X190684696Y-108554252D01*
X190684680Y-108554261D01*
X190370190Y-108748984D01*
X190074985Y-108971910D01*
X189801619Y-109221115D01*
X189552421Y-109494472D01*
X189552414Y-109494481D01*
X189329500Y-109789665D01*
X189134767Y-110104170D01*
X189042309Y-110289851D01*
X188969884Y-110435299D01*
X188836258Y-110780228D01*
X188836256Y-110780234D01*
X188836254Y-110780240D01*
X188821270Y-110832904D01*
X188735028Y-111136015D01*
X188667058Y-111499626D01*
X188667057Y-111499633D01*
X188667056Y-111499634D01*
X188632928Y-111867959D01*
X188632928Y-116993971D01*
X188632788Y-116999872D01*
X188614645Y-117380718D01*
X188613523Y-117392464D01*
X188559684Y-117766918D01*
X188557451Y-117778505D01*
X188468260Y-118146159D01*
X188464935Y-118157482D01*
X188341204Y-118514978D01*
X188336818Y-118525933D01*
X188179661Y-118870057D01*
X188174254Y-118880545D01*
X187985098Y-119208173D01*
X187978718Y-119218100D01*
X187759281Y-119526255D01*
X187751987Y-119535531D01*
X187504243Y-119821444D01*
X187496100Y-119829984D01*
X187222307Y-120091044D01*
X187213389Y-120098771D01*
X186916005Y-120332637D01*
X186906393Y-120339482D01*
X186588157Y-120544001D01*
X186577937Y-120549902D01*
X186241672Y-120723258D01*
X186230938Y-120728160D01*
X185879724Y-120868765D01*
X185868573Y-120872624D01*
X185505590Y-120979205D01*
X185494122Y-120981987D01*
X185122656Y-121053581D01*
X185110976Y-121055260D01*
X184734368Y-121091223D01*
X184722581Y-121091785D01*
X184344281Y-121091785D01*
X184332494Y-121091223D01*
X183955885Y-121055260D01*
X183944205Y-121053581D01*
X183572739Y-120981988D01*
X183561271Y-120979206D01*
X183198288Y-120872625D01*
X183187137Y-120868765D01*
X182835923Y-120728159D01*
X182825189Y-120723258D01*
X182488932Y-120549906D01*
X182478713Y-120544006D01*
X182160462Y-120339479D01*
X182150849Y-120332634D01*
X181853471Y-120098774D01*
X181844553Y-120091046D01*
X181570761Y-119829986D01*
X181562618Y-119821446D01*
X181314873Y-119535533D01*
X181307579Y-119526257D01*
X181112469Y-119252264D01*
X181088138Y-119218097D01*
X181081762Y-119208175D01*
X180892603Y-118880543D01*
X180887196Y-118870055D01*
X180848905Y-118786209D01*
X180730034Y-118525918D01*
X180725662Y-118514996D01*
X180601921Y-118157470D01*
X180598603Y-118146174D01*
X180509408Y-117778505D01*
X180507175Y-117766919D01*
X180453336Y-117392465D01*
X180452214Y-117380718D01*
X180434067Y-116999773D01*
X180434000Y-116996927D01*
X182278099Y-116996927D01*
X182278099Y-116996942D01*
X182297392Y-117291298D01*
X182297393Y-117291308D01*
X182297394Y-117291315D01*
X182297396Y-117291325D01*
X182354946Y-117580651D01*
X182354949Y-117580665D01*
X182449777Y-117860015D01*
X182580253Y-118124595D01*
X182580257Y-118124602D01*
X182744153Y-118369890D01*
X182938669Y-118591693D01*
X183160471Y-118786208D01*
X183405763Y-118950107D01*
X183670351Y-119080587D01*
X183949706Y-119175416D01*
X184239048Y-119232969D01*
X184267316Y-119234821D01*
X184533421Y-119252264D01*
X184533428Y-119252264D01*
X184533435Y-119252264D01*
X184769103Y-119236816D01*
X184827808Y-119232969D01*
X185117150Y-119175416D01*
X185396505Y-119080587D01*
X185661093Y-118950107D01*
X185906385Y-118786208D01*
X186128186Y-118591693D01*
X186322701Y-118369892D01*
X186486600Y-118124600D01*
X186617080Y-117860012D01*
X186711909Y-117580657D01*
X186769462Y-117291315D01*
X186774536Y-117213908D01*
X186788757Y-116996942D01*
X186788757Y-116996927D01*
X186769463Y-116702571D01*
X186769462Y-116702555D01*
X186711909Y-116413213D01*
X186617080Y-116133858D01*
X186486600Y-115869271D01*
X186322701Y-115623978D01*
X186280083Y-115575382D01*
X186128186Y-115402176D01*
X185906383Y-115207660D01*
X185661095Y-115043764D01*
X185661088Y-115043760D01*
X185396508Y-114913284D01*
X185117158Y-114818456D01*
X185117152Y-114818454D01*
X185117150Y-114818454D01*
X184827808Y-114760901D01*
X184827801Y-114760900D01*
X184827791Y-114760899D01*
X184533435Y-114741606D01*
X184533421Y-114741606D01*
X184239064Y-114760899D01*
X184239052Y-114760900D01*
X184239048Y-114760901D01*
X184239040Y-114760902D01*
X184239037Y-114760903D01*
X183949711Y-114818453D01*
X183949697Y-114818456D01*
X183670347Y-114913284D01*
X183405762Y-115043763D01*
X183160469Y-115207663D01*
X182938669Y-115402176D01*
X182744156Y-115623976D01*
X182580256Y-115869269D01*
X182449777Y-116133854D01*
X182354949Y-116413204D01*
X182354946Y-116413218D01*
X182297396Y-116702544D01*
X182297392Y-116702571D01*
X182278099Y-116996927D01*
X180434000Y-116996927D01*
X180433928Y-116993905D01*
X180433928Y-107738611D01*
X180453613Y-107671572D01*
X180506417Y-107625817D01*
X180575575Y-107615873D01*
X180605385Y-107624052D01*
X180612533Y-107627013D01*
X180612537Y-107627014D01*
X180612548Y-107627019D01*
X180663584Y-107645024D01*
X180806000Y-107665500D01*
X180806003Y-107665500D01*
X182406002Y-107665500D01*
X182411796Y-107665189D01*
X182460041Y-107662603D01*
X182599452Y-107627019D01*
X182606523Y-107624090D01*
X182701364Y-107572303D01*
X182793017Y-107486972D01*
X182855494Y-107455700D01*
X182924964Y-107463169D01*
X182968266Y-107493236D01*
X183021737Y-107550670D01*
X183021740Y-107550673D01*
X183145474Y-107624089D01*
X183147545Y-107624947D01*
X183152548Y-107627019D01*
X183203584Y-107645024D01*
X183346000Y-107665500D01*
X183346003Y-107665500D01*
X184946002Y-107665500D01*
X184951796Y-107665189D01*
X185000041Y-107662603D01*
X185139452Y-107627019D01*
X185146523Y-107624090D01*
X185241364Y-107572303D01*
X185333017Y-107486972D01*
X185395494Y-107455700D01*
X185464964Y-107463169D01*
X185508266Y-107493236D01*
X185561737Y-107550670D01*
X185561740Y-107550673D01*
X185685474Y-107624089D01*
X185687545Y-107624947D01*
X185692548Y-107627019D01*
X185743584Y-107645024D01*
X185886000Y-107665500D01*
X185886003Y-107665500D01*
X187486002Y-107665500D01*
X187491796Y-107665189D01*
X187540041Y-107662603D01*
X187679452Y-107627019D01*
X187686523Y-107624090D01*
X187781364Y-107572303D01*
X187873017Y-107486972D01*
X187935494Y-107455700D01*
X188004964Y-107463169D01*
X188048266Y-107493236D01*
X188101737Y-107550670D01*
X188101740Y-107550673D01*
X188225474Y-107624089D01*
X188227545Y-107624947D01*
X188232548Y-107627019D01*
X188283584Y-107645024D01*
X188426000Y-107665500D01*
X188426003Y-107665500D01*
X190026002Y-107665500D01*
X190031796Y-107665189D01*
X190080041Y-107662603D01*
X190219452Y-107627019D01*
X190226523Y-107624090D01*
X190321364Y-107572303D01*
X190413379Y-107486635D01*
X190475856Y-107455363D01*
X190545326Y-107462832D01*
X190588627Y-107492898D01*
X190642045Y-107550274D01*
X190642051Y-107550278D01*
X190765672Y-107623629D01*
X190772732Y-107626554D01*
X190823728Y-107644544D01*
X190966001Y-107664999D01*
X190966003Y-107665000D01*
X191516000Y-107665000D01*
X191516000Y-103458889D01*
X191515999Y-103458889D01*
X191513348Y-103459342D01*
X191496083Y-103462599D01*
X191495449Y-103462730D01*
X191477971Y-103466666D01*
X191436963Y-103476667D01*
X191423919Y-103480035D01*
X191423359Y-103480187D01*
X191411008Y-103483722D01*
X191371097Y-103495695D01*
X191361100Y-103498806D01*
X191360713Y-103498931D01*
X191348827Y-103502927D01*
X191308837Y-103516923D01*
X191293668Y-103522508D01*
X191293017Y-103522760D01*
X191279197Y-103528338D01*
X191241098Y-103544379D01*
X191230897Y-103548809D01*
X191230404Y-103549029D01*
X191220589Y-103553549D01*
X191182514Y-103571585D01*
X191170633Y-103577406D01*
X191170107Y-103577672D01*
X191158057Y-103583977D01*
X191121109Y-103603950D01*
X191109909Y-103610190D01*
X191109420Y-103610471D01*
X191097442Y-103617566D01*
X191061467Y-103639550D01*
X191047298Y-103648534D01*
X191046819Y-103648850D01*
X191032980Y-103658280D01*
X190999038Y-103682240D01*
X190992025Y-103687279D01*
X190991744Y-103687484D01*
X190985022Y-103692489D01*
X190951998Y-103717508D01*
X190941524Y-103725663D01*
X190941058Y-103726035D01*
X190930905Y-103734378D01*
X190898856Y-103761419D01*
X190889280Y-103769707D01*
X190888924Y-103770023D01*
X190879176Y-103778907D01*
X190848175Y-103807908D01*
X190836064Y-103819621D01*
X190835621Y-103820064D01*
X190823908Y-103832175D01*
X190794907Y-103863176D01*
X190786023Y-103872924D01*
X190785707Y-103873280D01*
X190777419Y-103882856D01*
X190750378Y-103914905D01*
X190742035Y-103925058D01*
X190741663Y-103925524D01*
X190733508Y-103935998D01*
X190708489Y-103969022D01*
X190703520Y-103975697D01*
X190703279Y-103976025D01*
X190698240Y-103983038D01*
X190674280Y-104016980D01*
X190664850Y-104030819D01*
X190664534Y-104031298D01*
X190655562Y-104045449D01*
X190633570Y-104081434D01*
X190626483Y-104093398D01*
X190626196Y-104093900D01*
X190619968Y-104105077D01*
X190605366Y-104132090D01*
X190556169Y-104181704D01*
X190487960Y-104196843D01*
X190422393Y-104172703D01*
X190387199Y-104132085D01*
X190372474Y-104104842D01*
X190366233Y-104093642D01*
X190366093Y-104093398D01*
X190365960Y-104093166D01*
X190359541Y-104082329D01*
X190358864Y-104081186D01*
X190338108Y-104047223D01*
X190336867Y-104045192D01*
X190327892Y-104031038D01*
X190327748Y-104030819D01*
X190327518Y-104030468D01*
X190318142Y-104016712D01*
X190294151Y-103982724D01*
X190289204Y-103975840D01*
X190289099Y-103975697D01*
X190288942Y-103975482D01*
X190283901Y-103968711D01*
X190258901Y-103935711D01*
X190250700Y-103925178D01*
X190250372Y-103924768D01*
X190250366Y-103924760D01*
X190242023Y-103914606D01*
X190214971Y-103882544D01*
X190206676Y-103872960D01*
X190206337Y-103872578D01*
X190197455Y-103862831D01*
X190168450Y-103831827D01*
X190156740Y-103819721D01*
X190156278Y-103819259D01*
X190155774Y-103818771D01*
X190144168Y-103807545D01*
X190126109Y-103790651D01*
X190113168Y-103778544D01*
X190103421Y-103769662D01*
X190103039Y-103769323D01*
X190093455Y-103761028D01*
X190066532Y-103738312D01*
X190061431Y-103734008D01*
X190061428Y-103734005D01*
X190061393Y-103733976D01*
X190051239Y-103725633D01*
X190050826Y-103725303D01*
X190040326Y-103717128D01*
X190040289Y-103717099D01*
X190007289Y-103692099D01*
X190007265Y-103692081D01*
X190007216Y-103692044D01*
X190000602Y-103687120D01*
X190000552Y-103687083D01*
X190000518Y-103687058D01*
X190000246Y-103686859D01*
X190000159Y-103686795D01*
X189993275Y-103681848D01*
X189959287Y-103657857D01*
X189945531Y-103648481D01*
X189944987Y-103648124D01*
X189941300Y-103645786D01*
X189930808Y-103639133D01*
X189917650Y-103631092D01*
X189894813Y-103617135D01*
X189882850Y-103610049D01*
X189882357Y-103609766D01*
X189871129Y-103603510D01*
X189834158Y-103583526D01*
X189822970Y-103577672D01*
X189822102Y-103577218D01*
X189821628Y-103576978D01*
X189809679Y-103571124D01*
X189809669Y-103571119D01*
X189771673Y-103553121D01*
X189769420Y-103552083D01*
X189761761Y-103548556D01*
X189761361Y-103548377D01*
X189758692Y-103547218D01*
X189751064Y-103543905D01*
X189713066Y-103527906D01*
X189700612Y-103522879D01*
X189699111Y-103522273D01*
X189698534Y-103522050D01*
X189683296Y-103516441D01*
X189683290Y-103516439D01*
X189683255Y-103516426D01*
X189643359Y-103502462D01*
X189638162Y-103500715D01*
X189631461Y-103498462D01*
X189631030Y-103498323D01*
X189630984Y-103498308D01*
X189621136Y-103495243D01*
X189581085Y-103483228D01*
X189568703Y-103479685D01*
X189568223Y-103479554D01*
X189555165Y-103476184D01*
X189514185Y-103466188D01*
X189496674Y-103462245D01*
X189496008Y-103462107D01*
X189478726Y-103458847D01*
X189437841Y-103451867D01*
X189433294Y-103451111D01*
X189433065Y-103451074D01*
X189425705Y-103449941D01*
X189384624Y-103443928D01*
X189366072Y-103441564D01*
X189365343Y-103441485D01*
X189346740Y-103439811D01*
X189346730Y-103439810D01*
X189346727Y-103439810D01*
X189342534Y-103439510D01*
X189304680Y-103436806D01*
X189292174Y-103436069D01*
X189291641Y-103436045D01*
X189280325Y-103435647D01*
X189238242Y-103434645D01*
X189226252Y-103434503D01*
X189226238Y-103434503D01*
X189225762Y-103434503D01*
X189225748Y-103434503D01*
X189213757Y-103434645D01*
X189171674Y-103435647D01*
X189160358Y-103436045D01*
X189159825Y-103436069D01*
X189147319Y-103436806D01*
X189105259Y-103439811D01*
X189086656Y-103441485D01*
X189085927Y-103441564D01*
X189067375Y-103443928D01*
X189026294Y-103449941D01*
X189018934Y-103451074D01*
X189018705Y-103451111D01*
X189014158Y-103451867D01*
X188973273Y-103458847D01*
X188955991Y-103462107D01*
X188955325Y-103462245D01*
X188937814Y-103466188D01*
X188896834Y-103476184D01*
X188883776Y-103479554D01*
X188883296Y-103479685D01*
X188870914Y-103483228D01*
X188830863Y-103495243D01*
X188821015Y-103498308D01*
X188820539Y-103498462D01*
X188808640Y-103502462D01*
X188768744Y-103516426D01*
X188753460Y-103522052D01*
X188752886Y-103522274D01*
X188738933Y-103527906D01*
X188700935Y-103543905D01*
X188690698Y-103548351D01*
X188690670Y-103548363D01*
X188690639Y-103548377D01*
X188690239Y-103548556D01*
X188686963Y-103550064D01*
X188680326Y-103553121D01*
X188642330Y-103571119D01*
X188630396Y-103576966D01*
X188629880Y-103577227D01*
X188617841Y-103583526D01*
X188580870Y-103603510D01*
X188569642Y-103609766D01*
X188569149Y-103610049D01*
X188557186Y-103617135D01*
X188521216Y-103639118D01*
X188521201Y-103639127D01*
X188521192Y-103639133D01*
X188516816Y-103641907D01*
X188507012Y-103648124D01*
X188506468Y-103648481D01*
X188492712Y-103657857D01*
X188458724Y-103681848D01*
X188451840Y-103686795D01*
X188451397Y-103687120D01*
X188444783Y-103692044D01*
X188411673Y-103717128D01*
X188401173Y-103725303D01*
X188400760Y-103725633D01*
X188390606Y-103733976D01*
X188358544Y-103761028D01*
X188348960Y-103769323D01*
X188348578Y-103769662D01*
X188338831Y-103778544D01*
X188307827Y-103807549D01*
X188295721Y-103819259D01*
X188295259Y-103819721D01*
X188283549Y-103831827D01*
X188254544Y-103862831D01*
X188245662Y-103872578D01*
X188245323Y-103872960D01*
X188237028Y-103882544D01*
X188209976Y-103914606D01*
X188201633Y-103924760D01*
X188201303Y-103925173D01*
X188193109Y-103935697D01*
X188179331Y-103953884D01*
X188123157Y-103995433D01*
X188053438Y-104000017D01*
X187992309Y-103966179D01*
X187962908Y-103918371D01*
X187961722Y-103914828D01*
X187956610Y-103899560D01*
X187956170Y-103898372D01*
X187944070Y-103868636D01*
X187940070Y-103859636D01*
X187935271Y-103849163D01*
X187935077Y-103848752D01*
X187930077Y-103838462D01*
X187925077Y-103828462D01*
X187920321Y-103819189D01*
X187920119Y-103818805D01*
X187914629Y-103808651D01*
X187904629Y-103790651D01*
X187897582Y-103778545D01*
X187894453Y-103773169D01*
X187894443Y-103773152D01*
X187894431Y-103773132D01*
X187894010Y-103772441D01*
X187882922Y-103755052D01*
X187876922Y-103746052D01*
X187871890Y-103739016D01*
X187865609Y-103730233D01*
X187857638Y-103719086D01*
X187856843Y-103718048D01*
X187856089Y-103717128D01*
X187835950Y-103692538D01*
X187835944Y-103692531D01*
X187835935Y-103692520D01*
X187829181Y-103684802D01*
X187829180Y-103684802D01*
X187828811Y-103684380D01*
X187826932Y-103682181D01*
X187813678Y-103666303D01*
X187812263Y-103664777D01*
X187812254Y-103664767D01*
X187812230Y-103664744D01*
X187811826Y-103664351D01*
X187805239Y-103657413D01*
X187800679Y-103653522D01*
X187792716Y-103645786D01*
X187790179Y-103643249D01*
X187786586Y-103639550D01*
X187783268Y-103636135D01*
X187782042Y-103633811D01*
X187778940Y-103631096D01*
X187771654Y-103624180D01*
X187771233Y-103623746D01*
X187771230Y-103623743D01*
X187771225Y-103623738D01*
X187771222Y-103623736D01*
X187769711Y-103622334D01*
X187766268Y-103619460D01*
X187753781Y-103609036D01*
X187751638Y-103607205D01*
X187751197Y-103606819D01*
X187751198Y-103606819D01*
X187743480Y-103600065D01*
X187743468Y-103600055D01*
X187743466Y-103600053D01*
X187717955Y-103579159D01*
X187717231Y-103578605D01*
X187716914Y-103578362D01*
X187696620Y-103563849D01*
X187689963Y-103559088D01*
X187680944Y-103553075D01*
X187670986Y-103546725D01*
X187663559Y-103541990D01*
X187662868Y-103541569D01*
X187662861Y-103541565D01*
X187662830Y-103541546D01*
X187645361Y-103531378D01*
X187645349Y-103531371D01*
X187627349Y-103521371D01*
X187617195Y-103515881D01*
X187616811Y-103515679D01*
X187616778Y-103515662D01*
X187607551Y-103510929D01*
X187602555Y-103508431D01*
X187597538Y-103505923D01*
X187587248Y-103500923D01*
X187586837Y-103500729D01*
X187586825Y-103500723D01*
X187586807Y-103500715D01*
X187576406Y-103495949D01*
X187576388Y-103495941D01*
X187576364Y-103495930D01*
X187567364Y-103491930D01*
X187567363Y-103491929D01*
X187567355Y-103491926D01*
X187537609Y-103479822D01*
X187536456Y-103479395D01*
X187506112Y-103469236D01*
X187484218Y-103462668D01*
X187425662Y-103424550D01*
X187402808Y-103384852D01*
X187400410Y-103378000D01*
X187355789Y-103250478D01*
X187259816Y-103097738D01*
X187132262Y-102970184D01*
X187005381Y-102890459D01*
X186979523Y-102874211D01*
X186809254Y-102814631D01*
X186809249Y-102814630D01*
X186630004Y-102794435D01*
X186629996Y-102794435D01*
X186450750Y-102814630D01*
X186450745Y-102814631D01*
X186280476Y-102874211D01*
X186127737Y-102970184D01*
X186000184Y-103097737D01*
X185904210Y-103250478D01*
X185871521Y-103343900D01*
X185844632Y-103420745D01*
X185844631Y-103420747D01*
X185842333Y-103427317D01*
X185841042Y-103426865D01*
X185810635Y-103481223D01*
X185778061Y-103504174D01*
X185776126Y-103505113D01*
X185774445Y-103505931D01*
X185764448Y-103510929D01*
X185755221Y-103515662D01*
X185754771Y-103515899D01*
X185744645Y-103521374D01*
X185726638Y-103531378D01*
X185708058Y-103542194D01*
X185707770Y-103541699D01*
X185642301Y-103559159D01*
X185575774Y-103537806D01*
X185557717Y-103522879D01*
X185050146Y-103015307D01*
X185050142Y-103015304D01*
X184939512Y-102941383D01*
X184939502Y-102941378D01*
X184816573Y-102890459D01*
X184816565Y-102890457D01*
X184686072Y-102864500D01*
X184686068Y-102864500D01*
X183481163Y-102864500D01*
X183414124Y-102844815D01*
X183393482Y-102828181D01*
X182241819Y-101676518D01*
X182208334Y-101615195D01*
X182205500Y-101588837D01*
X182205500Y-99734074D01*
X182225185Y-99667035D01*
X182277989Y-99621280D01*
X182305302Y-99612458D01*
X182392420Y-99595130D01*
X182583598Y-99515941D01*
X182755655Y-99400977D01*
X182859814Y-99296817D01*
X182921135Y-99263334D01*
X182947494Y-99260500D01*
X184193469Y-99260500D01*
X184216639Y-99260500D01*
X184261043Y-99269332D01*
X184261046Y-99269323D01*
X184261137Y-99269350D01*
X184264088Y-99269937D01*
X184266873Y-99271091D01*
X184437995Y-99305129D01*
X184464992Y-99310499D01*
X184464996Y-99310500D01*
X184464997Y-99310500D01*
X185067004Y-99310500D01*
X185067005Y-99310499D01*
X185265127Y-99271091D01*
X185451756Y-99193786D01*
X185619718Y-99081558D01*
X185762558Y-98938718D01*
X185874786Y-98770756D01*
X185952091Y-98584127D01*
X185991500Y-98386003D01*
X185991500Y-98183997D01*
X185952091Y-97985873D01*
X185874786Y-97799244D01*
X185874784Y-97799241D01*
X185874782Y-97799237D01*
X185762558Y-97631281D01*
X185619718Y-97488441D01*
X185451762Y-97376217D01*
X185451752Y-97376212D01*
X185343313Y-97331295D01*
X185288910Y-97287454D01*
X185266845Y-97221160D01*
X185284124Y-97153460D01*
X185335262Y-97105850D01*
X185363183Y-97095841D01*
X185365249Y-97095368D01*
X185365255Y-97095368D01*
X185535522Y-97035789D01*
X185688262Y-96939816D01*
X185815816Y-96812262D01*
X185911789Y-96659522D01*
X185971368Y-96489255D01*
X185986500Y-96354954D01*
X185986500Y-95365046D01*
X185974884Y-95261947D01*
X185971369Y-95230750D01*
X185971368Y-95230745D01*
X185945919Y-95158017D01*
X185911789Y-95060478D01*
X185815816Y-94907738D01*
X185688262Y-94780184D01*
X185661145Y-94763145D01*
X185535523Y-94684211D01*
X185365246Y-94624628D01*
X185363170Y-94624155D01*
X185361964Y-94623480D01*
X185358682Y-94622332D01*
X185358883Y-94621757D01*
X185302193Y-94590045D01*
X185269337Y-94528383D01*
X185275033Y-94458746D01*
X185317475Y-94403243D01*
X185343310Y-94388706D01*
X185435629Y-94350466D01*
X185451749Y-94343789D01*
X185451749Y-94343788D01*
X185451756Y-94343786D01*
X185619718Y-94231558D01*
X185762558Y-94088718D01*
X185874786Y-93920756D01*
X185952091Y-93734127D01*
X185991500Y-93536003D01*
X185991500Y-93333997D01*
X185952091Y-93135873D01*
X185874786Y-92949244D01*
X185874784Y-92949241D01*
X185874782Y-92949237D01*
X185818523Y-92865039D01*
X186985500Y-92865039D01*
X186985500Y-93854960D01*
X187000630Y-93989249D01*
X187000631Y-93989254D01*
X187060211Y-94159523D01*
X187124885Y-94262450D01*
X187156184Y-94312262D01*
X187283738Y-94439816D01*
X187345120Y-94478385D01*
X187433966Y-94534211D01*
X187436478Y-94535789D01*
X187590918Y-94589830D01*
X187606745Y-94595368D01*
X187606750Y-94595369D01*
X187697246Y-94605565D01*
X187741040Y-94610499D01*
X187741043Y-94610500D01*
X187741046Y-94610500D01*
X188730957Y-94610500D01*
X188730958Y-94610499D01*
X188798104Y-94602934D01*
X188865249Y-94595369D01*
X188865252Y-94595368D01*
X188865255Y-94595368D01*
X189035522Y-94535789D01*
X189188262Y-94439816D01*
X189315816Y-94312262D01*
X189381007Y-94208510D01*
X189433341Y-94162221D01*
X189502394Y-94151573D01*
X189566243Y-94179948D01*
X189590992Y-94208509D01*
X189656184Y-94312262D01*
X189783738Y-94439816D01*
X189845120Y-94478385D01*
X189933966Y-94534211D01*
X189936478Y-94535789D01*
X190090918Y-94589830D01*
X190106745Y-94595368D01*
X190106750Y-94595369D01*
X190197246Y-94605565D01*
X190241040Y-94610499D01*
X190241043Y-94610500D01*
X190241046Y-94610500D01*
X191230957Y-94610500D01*
X191230958Y-94610499D01*
X191298104Y-94602934D01*
X191365249Y-94595369D01*
X191365252Y-94595368D01*
X191365255Y-94595368D01*
X191535522Y-94535789D01*
X191688262Y-94439816D01*
X191815816Y-94312262D01*
X191881007Y-94208510D01*
X191933341Y-94162221D01*
X192002394Y-94151573D01*
X192066243Y-94179948D01*
X192090992Y-94208509D01*
X192156184Y-94312262D01*
X192283738Y-94439816D01*
X192345120Y-94478385D01*
X192433966Y-94534211D01*
X192436478Y-94535789D01*
X192590918Y-94589830D01*
X192606745Y-94595368D01*
X192606750Y-94595369D01*
X192697246Y-94605565D01*
X192741040Y-94610499D01*
X192741043Y-94610500D01*
X192741046Y-94610500D01*
X193730957Y-94610500D01*
X193730958Y-94610499D01*
X193798104Y-94602934D01*
X193865249Y-94595369D01*
X193865252Y-94595368D01*
X193865255Y-94595368D01*
X194035522Y-94535789D01*
X194188262Y-94439816D01*
X194315816Y-94312262D01*
X194411789Y-94159522D01*
X194471368Y-93989255D01*
X194471419Y-93988808D01*
X194481011Y-93903669D01*
X194486500Y-93854954D01*
X194486500Y-92865046D01*
X194477062Y-92781281D01*
X194471369Y-92730750D01*
X194471368Y-92730745D01*
X194445822Y-92657738D01*
X194411789Y-92560478D01*
X194410092Y-92557778D01*
X194325519Y-92423181D01*
X194315816Y-92407738D01*
X194188262Y-92280184D01*
X194106089Y-92228551D01*
X194035523Y-92184211D01*
X193865254Y-92124631D01*
X193865249Y-92124630D01*
X193730960Y-92109500D01*
X193730954Y-92109500D01*
X192741046Y-92109500D01*
X192741039Y-92109500D01*
X192606750Y-92124630D01*
X192606745Y-92124631D01*
X192436476Y-92184211D01*
X192283737Y-92280184D01*
X192156184Y-92407737D01*
X192090994Y-92511487D01*
X192038659Y-92557778D01*
X191969605Y-92568426D01*
X191905757Y-92540051D01*
X191881006Y-92511487D01*
X191825519Y-92423181D01*
X191815816Y-92407738D01*
X191688262Y-92280184D01*
X191606089Y-92228551D01*
X191535523Y-92184211D01*
X191365254Y-92124631D01*
X191365249Y-92124630D01*
X191230960Y-92109500D01*
X191230954Y-92109500D01*
X190241046Y-92109500D01*
X190241039Y-92109500D01*
X190106750Y-92124630D01*
X190106745Y-92124631D01*
X189936476Y-92184211D01*
X189783737Y-92280184D01*
X189656184Y-92407737D01*
X189590994Y-92511487D01*
X189538659Y-92557778D01*
X189469605Y-92568426D01*
X189405757Y-92540051D01*
X189381006Y-92511487D01*
X189325519Y-92423181D01*
X189315816Y-92407738D01*
X189188262Y-92280184D01*
X189106089Y-92228551D01*
X189035523Y-92184211D01*
X188865254Y-92124631D01*
X188865249Y-92124630D01*
X188730960Y-92109500D01*
X188730954Y-92109500D01*
X187741046Y-92109500D01*
X187741039Y-92109500D01*
X187606750Y-92124630D01*
X187606745Y-92124631D01*
X187436476Y-92184211D01*
X187283737Y-92280184D01*
X187156184Y-92407737D01*
X187060211Y-92560476D01*
X187000631Y-92730745D01*
X187000630Y-92730750D01*
X186985500Y-92865039D01*
X185818523Y-92865039D01*
X185762558Y-92781281D01*
X185619718Y-92638441D01*
X185451762Y-92526217D01*
X185451752Y-92526212D01*
X185265127Y-92448909D01*
X185265119Y-92448907D01*
X185067007Y-92409500D01*
X185067003Y-92409500D01*
X184464997Y-92409500D01*
X184464992Y-92409500D01*
X184266880Y-92448907D01*
X184266873Y-92448909D01*
X184264088Y-92450062D01*
X184261137Y-92450649D01*
X184261046Y-92450677D01*
X184261043Y-92450667D01*
X184216639Y-92459500D01*
X182947494Y-92459500D01*
X182880455Y-92439815D01*
X182859817Y-92423185D01*
X182755655Y-92319023D01*
X182583598Y-92204059D01*
X182519240Y-92177401D01*
X182392420Y-92124870D01*
X182392412Y-92124868D01*
X182305309Y-92107542D01*
X182243398Y-92075157D01*
X182208824Y-92014442D01*
X182205500Y-91985925D01*
X182205500Y-89269500D01*
X182225185Y-89202461D01*
X182277989Y-89156706D01*
X182329500Y-89145500D01*
X186546533Y-89145500D01*
X186641946Y-89126520D01*
X186677036Y-89119540D01*
X186799969Y-89068620D01*
X186910606Y-88994695D01*
X187004695Y-88900606D01*
X187078620Y-88789969D01*
X187129540Y-88667036D01*
X187140598Y-88611447D01*
X187155500Y-88536533D01*
X187155500Y-88409500D01*
X187175185Y-88342461D01*
X187227989Y-88296706D01*
X187279500Y-88285500D01*
X187296007Y-88285500D01*
X187299331Y-88285424D01*
X187318878Y-88284982D01*
X187319783Y-88284941D01*
X187342671Y-88283383D01*
X187353671Y-88282383D01*
X187353789Y-88282371D01*
X187353808Y-88282370D01*
X187358059Y-88281964D01*
X187358092Y-88281960D01*
X187358204Y-88281950D01*
X187368294Y-88280941D01*
X187387983Y-88278582D01*
X187388777Y-88278471D01*
X187409216Y-88275185D01*
X187409219Y-88275184D01*
X187409228Y-88275183D01*
X187411974Y-88274683D01*
X187420216Y-88273185D01*
X187448119Y-88267294D01*
X187449203Y-88267033D01*
X187476127Y-88259759D01*
X187476144Y-88259753D01*
X187476151Y-88259752D01*
X187484711Y-88257183D01*
X187506127Y-88250759D01*
X187536440Y-88240610D01*
X187537628Y-88240170D01*
X187567364Y-88228070D01*
X187576364Y-88224070D01*
X187586837Y-88219271D01*
X187587248Y-88219077D01*
X187597538Y-88214077D01*
X187607538Y-88209077D01*
X187616811Y-88204321D01*
X187617195Y-88204119D01*
X187627349Y-88198629D01*
X187645349Y-88188629D01*
X187662868Y-88178431D01*
X187663559Y-88178010D01*
X187680948Y-88166922D01*
X187689948Y-88160922D01*
X187716914Y-88141638D01*
X187717952Y-88140843D01*
X187743480Y-88119935D01*
X187751198Y-88113181D01*
X187751197Y-88113179D01*
X187751646Y-88112787D01*
X187753828Y-88110922D01*
X187769707Y-88097669D01*
X187771233Y-88096254D01*
X187771654Y-88095820D01*
X187778939Y-88088904D01*
X187778996Y-88088854D01*
X187782880Y-88084263D01*
X187790257Y-88076670D01*
X187792670Y-88074257D01*
X187800253Y-88066889D01*
X187802468Y-88065721D01*
X187804904Y-88062939D01*
X187811820Y-88055654D01*
X187812254Y-88055233D01*
X187813669Y-88053707D01*
X187826922Y-88037828D01*
X187828787Y-88035646D01*
X187829179Y-88035197D01*
X187829181Y-88035198D01*
X187835935Y-88027480D01*
X187856843Y-88001952D01*
X187857638Y-88000914D01*
X187876922Y-87973948D01*
X187882922Y-87964948D01*
X187894010Y-87947559D01*
X187894431Y-87946868D01*
X187904629Y-87929349D01*
X187914629Y-87911349D01*
X187920119Y-87901195D01*
X187920321Y-87900811D01*
X187925077Y-87891538D01*
X187930077Y-87881538D01*
X187935077Y-87871248D01*
X187935271Y-87870837D01*
X187940070Y-87860364D01*
X187944070Y-87851364D01*
X187956170Y-87821628D01*
X187956610Y-87820440D01*
X187962908Y-87801628D01*
X188002857Y-87744307D01*
X188067455Y-87717682D01*
X188136192Y-87730209D01*
X188179331Y-87766115D01*
X188193099Y-87784289D01*
X188193128Y-87784326D01*
X188201303Y-87794826D01*
X188201633Y-87795239D01*
X188209976Y-87805393D01*
X188237028Y-87837455D01*
X188245323Y-87847039D01*
X188245662Y-87847421D01*
X188254544Y-87857168D01*
X188277343Y-87881538D01*
X188283545Y-87888168D01*
X188295255Y-87900274D01*
X188295726Y-87900745D01*
X188296226Y-87901228D01*
X188307827Y-87912450D01*
X188338831Y-87941455D01*
X188348578Y-87950337D01*
X188348960Y-87950676D01*
X188358544Y-87958971D01*
X188358569Y-87958992D01*
X188376312Y-87973963D01*
X188390606Y-87986023D01*
X188400760Y-87994366D01*
X188400768Y-87994372D01*
X188401178Y-87994700D01*
X188411711Y-88002901D01*
X188444711Y-88027901D01*
X188444752Y-88027932D01*
X188444783Y-88027955D01*
X188449572Y-88031520D01*
X188451482Y-88032942D01*
X188451754Y-88033141D01*
X188451840Y-88033204D01*
X188458724Y-88038151D01*
X188492712Y-88062142D01*
X188506468Y-88071518D01*
X188507012Y-88071875D01*
X188507038Y-88071892D01*
X188521192Y-88080867D01*
X188536955Y-88090500D01*
X188557186Y-88102864D01*
X188569149Y-88109950D01*
X188569642Y-88110233D01*
X188580870Y-88116489D01*
X188617841Y-88136473D01*
X188617871Y-88136489D01*
X188629898Y-88142782D01*
X188630372Y-88143022D01*
X188642321Y-88148876D01*
X188680321Y-88166876D01*
X188690239Y-88171444D01*
X188690639Y-88171623D01*
X188700956Y-88176103D01*
X188738956Y-88192103D01*
X188752889Y-88197727D01*
X188753466Y-88197950D01*
X188768704Y-88203559D01*
X188768744Y-88203573D01*
X188808640Y-88217537D01*
X188808668Y-88217546D01*
X188808704Y-88217559D01*
X188820539Y-88221538D01*
X188820970Y-88221677D01*
X188830873Y-88224759D01*
X188864715Y-88234911D01*
X188916766Y-88266001D01*
X189661139Y-89010374D01*
X189661149Y-89010385D01*
X189665479Y-89014715D01*
X189665480Y-89014716D01*
X189777284Y-89126520D01*
X189777286Y-89126521D01*
X189777290Y-89126524D01*
X189816593Y-89149215D01*
X189914216Y-89205577D01*
X190022849Y-89234685D01*
X190066942Y-89246500D01*
X190066943Y-89246500D01*
X199180151Y-89246500D01*
X199247190Y-89266185D01*
X199267832Y-89282819D01*
X199924387Y-89939374D01*
X199924397Y-89939385D01*
X199928727Y-89943715D01*
X199928728Y-89943716D01*
X200040532Y-90055520D01*
X200040534Y-90055521D01*
X200040538Y-90055524D01*
X200124310Y-90103889D01*
X200177464Y-90134577D01*
X200282376Y-90162688D01*
X200330190Y-90175500D01*
X200330191Y-90175500D01*
X200367588Y-90175500D01*
X200434627Y-90195185D01*
X200444903Y-90202555D01*
X200447736Y-90204814D01*
X200447738Y-90204816D01*
X200539543Y-90262501D01*
X200586197Y-90291816D01*
X200600478Y-90300789D01*
X200729175Y-90345822D01*
X200770745Y-90360368D01*
X200770750Y-90360369D01*
X200949996Y-90380565D01*
X200950000Y-90380565D01*
X200950004Y-90380565D01*
X201129249Y-90360369D01*
X201129252Y-90360368D01*
X201129255Y-90360368D01*
X201299522Y-90300789D01*
X201313803Y-90291816D01*
X201360457Y-90262501D01*
X201446433Y-90208478D01*
X201513668Y-90189478D01*
X201580503Y-90209845D01*
X201600080Y-90225786D01*
X201656480Y-90282186D01*
X201687990Y-90313696D01*
X201798619Y-90387616D01*
X201798623Y-90387618D01*
X201798626Y-90387620D01*
X201921559Y-90438541D01*
X202052059Y-90464499D01*
X202052063Y-90464500D01*
X202052064Y-90464500D01*
X202185126Y-90464500D01*
X206170837Y-90464500D01*
X206237876Y-90484185D01*
X206258518Y-90500819D01*
X206843517Y-91085818D01*
X206877002Y-91147141D01*
X206872018Y-91216833D01*
X206843517Y-91261180D01*
X205565096Y-92539601D01*
X205518370Y-92568961D01*
X205360480Y-92624209D01*
X205207737Y-92720184D01*
X205080184Y-92847737D01*
X204984211Y-93000476D01*
X204924631Y-93170745D01*
X204924630Y-93170750D01*
X204904435Y-93349996D01*
X204904435Y-93350003D01*
X204924630Y-93529249D01*
X204924631Y-93529254D01*
X204984211Y-93699523D01*
X205053943Y-93810500D01*
X205080184Y-93852262D01*
X205207738Y-93979816D01*
X205279342Y-94024808D01*
X205336110Y-94060478D01*
X205360478Y-94075789D01*
X205433353Y-94101289D01*
X205530745Y-94135368D01*
X205530750Y-94135369D01*
X205709996Y-94155565D01*
X205710000Y-94155565D01*
X205710004Y-94155565D01*
X205889249Y-94135369D01*
X205889252Y-94135368D01*
X205889255Y-94135368D01*
X206059522Y-94075789D01*
X206212262Y-93979816D01*
X206339816Y-93852262D01*
X206435789Y-93699522D01*
X206491039Y-93541623D01*
X206520397Y-93494902D01*
X208031402Y-91983897D01*
X208078123Y-91954539D01*
X208236022Y-91899289D01*
X208388762Y-91803316D01*
X208516316Y-91675762D01*
X208612289Y-91523022D01*
X208612290Y-91523018D01*
X208613405Y-91520705D01*
X208614524Y-91519465D01*
X208615994Y-91517126D01*
X208616403Y-91517383D01*
X208660225Y-91468842D01*
X208725128Y-91450500D01*
X209866903Y-91450500D01*
X209933942Y-91470185D01*
X209979697Y-91522989D01*
X209990903Y-91574500D01*
X209990903Y-93709634D01*
X209990902Y-93709652D01*
X209990902Y-93875358D01*
X209990901Y-93875358D01*
X209990902Y-93875361D01*
X210031826Y-94028089D01*
X210047906Y-94055941D01*
X210048641Y-94057213D01*
X210048642Y-94057215D01*
X210110880Y-94165016D01*
X210110884Y-94165021D01*
X210229752Y-94283889D01*
X210229758Y-94283894D01*
X210960238Y-95014374D01*
X210960248Y-95014385D01*
X210964578Y-95018715D01*
X210964579Y-95018716D01*
X211076383Y-95130520D01*
X211076385Y-95130521D01*
X211076389Y-95130524D01*
X211213308Y-95209573D01*
X211213311Y-95209575D01*
X211213315Y-95209577D01*
X211325064Y-95239520D01*
X211325063Y-95239520D01*
X211336043Y-95242461D01*
X211366041Y-95250500D01*
X211366042Y-95250500D01*
X217584828Y-95250500D01*
X217584844Y-95250501D01*
X217592440Y-95250501D01*
X217750551Y-95250501D01*
X217750554Y-95250501D01*
X217903282Y-95209577D01*
X217926132Y-95196384D01*
X217994028Y-95179910D01*
X218060056Y-95202760D01*
X218093126Y-95237797D01*
X218190182Y-95392260D01*
X218190184Y-95392262D01*
X218317738Y-95519816D01*
X218470478Y-95615789D01*
X218497194Y-95625137D01*
X218553970Y-95665859D01*
X218579717Y-95730812D01*
X218573281Y-95783133D01*
X218514632Y-95950742D01*
X218514630Y-95950750D01*
X218494435Y-96129996D01*
X218494435Y-96130003D01*
X218514630Y-96309249D01*
X218514633Y-96309262D01*
X218574209Y-96479518D01*
X218574210Y-96479522D01*
X218613065Y-96541358D01*
X218632065Y-96608595D01*
X218611697Y-96675430D01*
X218595752Y-96695011D01*
X218331286Y-96959478D01*
X218219481Y-97071282D01*
X218219480Y-97071284D01*
X218179369Y-97140759D01*
X218140423Y-97208215D01*
X218099499Y-97360943D01*
X218099499Y-97360945D01*
X218099499Y-97529046D01*
X218099500Y-97529059D01*
X218099500Y-98100902D01*
X218079815Y-98167941D01*
X218027011Y-98213696D01*
X217957853Y-98223640D01*
X217894297Y-98194615D01*
X217887819Y-98188583D01*
X217237590Y-97538355D01*
X217237588Y-97538352D01*
X217118717Y-97419481D01*
X217118709Y-97419475D01*
X217006954Y-97354954D01*
X217006953Y-97354953D01*
X216989262Y-97344740D01*
X216981785Y-97340423D01*
X216829057Y-97299499D01*
X216670943Y-97299499D01*
X216663347Y-97299499D01*
X216663331Y-97299500D01*
X212782412Y-97299500D01*
X212715373Y-97279815D01*
X212705097Y-97272445D01*
X212702263Y-97270185D01*
X212702262Y-97270184D01*
X212603636Y-97208213D01*
X212549523Y-97174211D01*
X212379254Y-97114631D01*
X212379249Y-97114630D01*
X212200004Y-97094435D01*
X212199996Y-97094435D01*
X212020750Y-97114630D01*
X212020745Y-97114631D01*
X211850476Y-97174211D01*
X211697737Y-97270184D01*
X211570184Y-97397737D01*
X211474211Y-97550476D01*
X211414631Y-97720745D01*
X211414630Y-97720750D01*
X211394435Y-97899996D01*
X211394435Y-97900003D01*
X211414630Y-98079249D01*
X211414631Y-98079254D01*
X211474211Y-98249523D01*
X211557667Y-98382342D01*
X211570184Y-98402262D01*
X211697738Y-98529816D01*
X211784161Y-98584119D01*
X211808965Y-98599705D01*
X211850478Y-98625789D01*
X212020745Y-98685368D01*
X212020750Y-98685369D01*
X212199996Y-98705565D01*
X212200000Y-98705565D01*
X212200004Y-98705565D01*
X212379249Y-98685369D01*
X212379252Y-98685368D01*
X212379255Y-98685368D01*
X212549522Y-98625789D01*
X212702262Y-98529816D01*
X212702267Y-98529810D01*
X212705097Y-98527555D01*
X212707275Y-98526665D01*
X212708158Y-98526111D01*
X212708255Y-98526265D01*
X212769783Y-98501145D01*
X212782412Y-98500500D01*
X216449903Y-98500500D01*
X216516942Y-98520185D01*
X216537584Y-98536819D01*
X217769463Y-99768699D01*
X217802948Y-99830022D01*
X217797964Y-99899714D01*
X217756092Y-99955647D01*
X217743784Y-99963766D01*
X217739390Y-99966303D01*
X217739387Y-99966304D01*
X217647290Y-100019475D01*
X217647282Y-100019481D01*
X217535478Y-100131286D01*
X215726797Y-101939966D01*
X215665474Y-101973451D01*
X215595782Y-101968467D01*
X215539849Y-101926595D01*
X215534129Y-101918267D01*
X215451620Y-101786955D01*
X215324066Y-101659401D01*
X215310039Y-101650587D01*
X215171327Y-101563428D01*
X215001058Y-101503848D01*
X215001053Y-101503847D01*
X214821808Y-101483652D01*
X214821800Y-101483652D01*
X214642554Y-101503847D01*
X214642549Y-101503848D01*
X214472280Y-101563428D01*
X214319541Y-101659401D01*
X214191989Y-101786953D01*
X214180254Y-101805629D01*
X214127917Y-101851918D01*
X214058864Y-101862564D01*
X214034308Y-101856695D01*
X213860503Y-101795878D01*
X213860495Y-101795876D01*
X213681250Y-101775681D01*
X213681242Y-101775681D01*
X213501992Y-101795877D01*
X213501991Y-101795877D01*
X213454671Y-101812435D01*
X213384893Y-101815996D01*
X213351714Y-101802778D01*
X213344447Y-101798582D01*
X213337920Y-101793573D01*
X213322708Y-101787272D01*
X213314546Y-101786198D01*
X213259435Y-101771431D01*
X213177587Y-101749499D01*
X213112187Y-101749499D01*
X213045148Y-101729814D01*
X212999394Y-101677009D01*
X212989451Y-101607850D01*
X212998652Y-101577663D01*
X212998489Y-101577606D01*
X212999889Y-101573603D01*
X213000474Y-101571686D01*
X213000785Y-101571039D01*
X213000789Y-101571033D01*
X213060368Y-101400766D01*
X213060369Y-101400760D01*
X213080565Y-101221514D01*
X213080565Y-101221507D01*
X213060369Y-101042261D01*
X213060368Y-101042256D01*
X213024549Y-100939892D01*
X213000789Y-100871989D01*
X212904816Y-100719249D01*
X212777262Y-100591695D01*
X212669698Y-100524108D01*
X212624521Y-100495721D01*
X212454249Y-100436141D01*
X212418735Y-100432140D01*
X212354321Y-100405073D01*
X212320004Y-100356175D01*
X212318810Y-100356751D01*
X212315789Y-100350477D01*
X212219815Y-100197737D01*
X212092262Y-100070184D01*
X211939523Y-99974211D01*
X211769254Y-99914631D01*
X211769249Y-99914630D01*
X211590004Y-99894435D01*
X211589996Y-99894435D01*
X211410750Y-99914630D01*
X211410737Y-99914633D01*
X211233905Y-99976511D01*
X211233123Y-99974277D01*
X211192888Y-99983500D01*
X199095669Y-99983500D01*
X199095653Y-99983499D01*
X199088057Y-99983499D01*
X198929943Y-99983499D01*
X198815397Y-100014192D01*
X198777214Y-100024423D01*
X198740948Y-100045362D01*
X198740947Y-100045362D01*
X198640287Y-100103477D01*
X198640282Y-100103481D01*
X196159481Y-102584282D01*
X196159477Y-102584287D01*
X196120995Y-102650942D01*
X196080424Y-102721211D01*
X196080423Y-102721212D01*
X196060803Y-102794435D01*
X196039499Y-102873943D01*
X196039499Y-102873945D01*
X196039499Y-103042046D01*
X196039500Y-103042059D01*
X196039500Y-103651980D01*
X196019815Y-103719019D01*
X195995466Y-103746750D01*
X195978599Y-103760982D01*
X195968960Y-103769323D01*
X195968578Y-103769662D01*
X195958831Y-103778544D01*
X195927827Y-103807549D01*
X195915721Y-103819259D01*
X195915259Y-103819721D01*
X195903549Y-103831827D01*
X195874544Y-103862831D01*
X195865662Y-103872578D01*
X195865323Y-103872960D01*
X195857028Y-103882544D01*
X195829976Y-103914606D01*
X195821633Y-103924760D01*
X195821303Y-103925173D01*
X195813128Y-103935673D01*
X195788044Y-103968783D01*
X195783120Y-103975397D01*
X195782795Y-103975840D01*
X195777848Y-103982724D01*
X195753857Y-104016712D01*
X195744481Y-104030468D01*
X195744124Y-104031012D01*
X195744108Y-104031038D01*
X195735133Y-104045192D01*
X195733892Y-104047223D01*
X195713135Y-104081186D01*
X195706049Y-104093149D01*
X195705766Y-104093642D01*
X195699510Y-104104870D01*
X195685084Y-104131560D01*
X195635889Y-104181175D01*
X195567680Y-104196318D01*
X195502113Y-104172179D01*
X195466916Y-104131560D01*
X195452489Y-104104870D01*
X195446233Y-104093642D01*
X195446093Y-104093398D01*
X195445960Y-104093166D01*
X195439541Y-104082329D01*
X195438864Y-104081186D01*
X195418108Y-104047223D01*
X195416867Y-104045192D01*
X195407892Y-104031038D01*
X195407748Y-104030819D01*
X195407518Y-104030468D01*
X195398142Y-104016712D01*
X195374151Y-103982724D01*
X195369204Y-103975840D01*
X195369099Y-103975697D01*
X195368942Y-103975482D01*
X195363901Y-103968711D01*
X195338901Y-103935711D01*
X195330700Y-103925178D01*
X195330372Y-103924768D01*
X195330366Y-103924760D01*
X195322023Y-103914606D01*
X195294971Y-103882544D01*
X195286676Y-103872960D01*
X195286337Y-103872578D01*
X195277455Y-103862831D01*
X195248450Y-103831827D01*
X195236740Y-103819721D01*
X195236278Y-103819259D01*
X195235774Y-103818771D01*
X195224168Y-103807545D01*
X195206109Y-103790651D01*
X195193168Y-103778544D01*
X195183421Y-103769662D01*
X195183039Y-103769323D01*
X195173455Y-103761028D01*
X195146532Y-103738312D01*
X195141431Y-103734008D01*
X195141428Y-103734005D01*
X195141393Y-103733976D01*
X195131239Y-103725633D01*
X195130826Y-103725303D01*
X195120326Y-103717128D01*
X195120289Y-103717099D01*
X195087289Y-103692099D01*
X195087265Y-103692081D01*
X195087216Y-103692044D01*
X195080602Y-103687120D01*
X195080552Y-103687083D01*
X195080518Y-103687058D01*
X195080246Y-103686859D01*
X195080159Y-103686795D01*
X195073275Y-103681848D01*
X195039287Y-103657857D01*
X195025531Y-103648481D01*
X195024987Y-103648124D01*
X195021300Y-103645786D01*
X195010808Y-103639133D01*
X194997650Y-103631092D01*
X194974813Y-103617135D01*
X194962850Y-103610049D01*
X194962357Y-103609766D01*
X194951129Y-103603510D01*
X194914158Y-103583526D01*
X194902970Y-103577672D01*
X194902102Y-103577218D01*
X194901628Y-103576978D01*
X194889679Y-103571124D01*
X194889669Y-103571119D01*
X194851673Y-103553121D01*
X194849420Y-103552083D01*
X194841761Y-103548556D01*
X194841361Y-103548377D01*
X194838692Y-103547218D01*
X194831064Y-103543905D01*
X194793066Y-103527906D01*
X194780612Y-103522879D01*
X194779111Y-103522273D01*
X194778534Y-103522050D01*
X194763296Y-103516441D01*
X194763290Y-103516439D01*
X194763255Y-103516426D01*
X194723359Y-103502462D01*
X194718162Y-103500715D01*
X194711461Y-103498462D01*
X194711030Y-103498323D01*
X194710984Y-103498308D01*
X194701136Y-103495243D01*
X194661085Y-103483228D01*
X194648703Y-103479685D01*
X194648223Y-103479554D01*
X194635165Y-103476184D01*
X194594185Y-103466188D01*
X194576674Y-103462245D01*
X194576008Y-103462107D01*
X194558726Y-103458847D01*
X194517841Y-103451867D01*
X194513294Y-103451111D01*
X194513065Y-103451074D01*
X194505705Y-103449941D01*
X194464624Y-103443928D01*
X194446072Y-103441564D01*
X194445343Y-103441485D01*
X194426740Y-103439811D01*
X194426730Y-103439810D01*
X194426727Y-103439810D01*
X194422534Y-103439510D01*
X194384680Y-103436806D01*
X194372174Y-103436069D01*
X194371641Y-103436045D01*
X194360325Y-103435647D01*
X194318242Y-103434645D01*
X194306252Y-103434503D01*
X194306238Y-103434503D01*
X194305762Y-103434503D01*
X194305748Y-103434503D01*
X194293757Y-103434645D01*
X194251674Y-103435647D01*
X194240358Y-103436045D01*
X194239825Y-103436069D01*
X194227319Y-103436806D01*
X194185259Y-103439811D01*
X194166656Y-103441485D01*
X194165927Y-103441564D01*
X194147375Y-103443928D01*
X194106294Y-103449941D01*
X194098934Y-103451074D01*
X194098705Y-103451111D01*
X194094158Y-103451867D01*
X194053273Y-103458847D01*
X194035991Y-103462107D01*
X194035325Y-103462245D01*
X194017814Y-103466188D01*
X193976834Y-103476184D01*
X193963776Y-103479554D01*
X193963296Y-103479685D01*
X193950914Y-103483228D01*
X193910863Y-103495243D01*
X193901015Y-103498308D01*
X193900539Y-103498462D01*
X193888640Y-103502462D01*
X193848744Y-103516426D01*
X193833460Y-103522052D01*
X193832886Y-103522274D01*
X193818933Y-103527906D01*
X193780935Y-103543905D01*
X193770698Y-103548351D01*
X193770670Y-103548363D01*
X193770639Y-103548377D01*
X193770239Y-103548556D01*
X193766963Y-103550064D01*
X193760326Y-103553121D01*
X193722330Y-103571119D01*
X193710396Y-103576966D01*
X193709880Y-103577227D01*
X193697841Y-103583526D01*
X193660870Y-103603510D01*
X193649642Y-103609766D01*
X193649149Y-103610049D01*
X193637186Y-103617135D01*
X193601216Y-103639118D01*
X193601201Y-103639127D01*
X193601192Y-103639133D01*
X193596816Y-103641907D01*
X193587012Y-103648124D01*
X193586468Y-103648481D01*
X193572712Y-103657857D01*
X193538724Y-103681848D01*
X193531840Y-103686795D01*
X193531397Y-103687120D01*
X193524783Y-103692044D01*
X193491673Y-103717128D01*
X193481173Y-103725303D01*
X193480760Y-103725633D01*
X193470606Y-103733976D01*
X193438544Y-103761028D01*
X193428960Y-103769323D01*
X193428578Y-103769662D01*
X193418831Y-103778544D01*
X193387827Y-103807549D01*
X193375721Y-103819259D01*
X193375259Y-103819721D01*
X193363549Y-103831827D01*
X193334544Y-103862831D01*
X193325662Y-103872578D01*
X193325323Y-103872960D01*
X193317028Y-103882544D01*
X193289976Y-103914606D01*
X193281633Y-103924760D01*
X193281303Y-103925173D01*
X193273128Y-103935673D01*
X193248044Y-103968783D01*
X193243120Y-103975397D01*
X193242795Y-103975840D01*
X193237848Y-103982724D01*
X193213857Y-104016712D01*
X193204481Y-104030468D01*
X193204124Y-104031012D01*
X193204108Y-104031038D01*
X193195133Y-104045192D01*
X193193892Y-104047223D01*
X193173135Y-104081186D01*
X193166049Y-104093149D01*
X193165766Y-104093642D01*
X193159512Y-104104867D01*
X193144798Y-104132088D01*
X193095602Y-104181703D01*
X193027393Y-104196843D01*
X192961826Y-104172704D01*
X192926632Y-104132087D01*
X192912051Y-104105113D01*
X192905804Y-104093900D01*
X192905516Y-104093398D01*
X192898429Y-104081434D01*
X192876438Y-104045449D01*
X192867465Y-104031298D01*
X192867149Y-104030819D01*
X192857719Y-104016980D01*
X192833759Y-103983038D01*
X192828720Y-103976025D01*
X192828480Y-103975697D01*
X192823510Y-103969022D01*
X192798491Y-103935998D01*
X192790336Y-103925524D01*
X192789964Y-103925058D01*
X192781621Y-103914905D01*
X192754580Y-103882856D01*
X192746292Y-103873280D01*
X192745976Y-103872924D01*
X192737092Y-103863176D01*
X192708091Y-103832175D01*
X192696378Y-103820064D01*
X192695935Y-103819621D01*
X192683824Y-103807908D01*
X192652823Y-103778907D01*
X192643075Y-103770023D01*
X192642719Y-103769707D01*
X192633143Y-103761419D01*
X192601094Y-103734378D01*
X192590941Y-103726035D01*
X192590475Y-103725663D01*
X192580001Y-103717508D01*
X192546977Y-103692489D01*
X192540255Y-103687484D01*
X192539974Y-103687279D01*
X192532961Y-103682240D01*
X192499019Y-103658280D01*
X192485180Y-103648850D01*
X192484701Y-103648534D01*
X192470532Y-103639550D01*
X192434558Y-103617566D01*
X192422580Y-103610471D01*
X192422090Y-103610190D01*
X192410890Y-103603950D01*
X192373942Y-103583977D01*
X192361892Y-103577672D01*
X192361366Y-103577406D01*
X192349485Y-103571585D01*
X192311410Y-103553549D01*
X192301595Y-103549029D01*
X192301102Y-103548809D01*
X192290901Y-103544379D01*
X192252802Y-103528338D01*
X192238982Y-103522760D01*
X192238331Y-103522508D01*
X192223162Y-103516923D01*
X192183172Y-103502927D01*
X192171286Y-103498931D01*
X192170899Y-103498806D01*
X192160902Y-103495695D01*
X192120991Y-103483722D01*
X192108640Y-103480187D01*
X192108080Y-103480035D01*
X192095036Y-103476667D01*
X192054028Y-103466666D01*
X192036550Y-103462730D01*
X192035916Y-103462599D01*
X192018651Y-103459342D01*
X192016000Y-103458889D01*
X192016000Y-107665000D01*
X192566002Y-107665000D01*
X192619988Y-107662106D01*
X192759259Y-107626557D01*
X192766330Y-107623628D01*
X192861076Y-107571893D01*
X192952676Y-107486612D01*
X193015156Y-107455337D01*
X193084625Y-107462806D01*
X193127928Y-107492873D01*
X193181737Y-107550669D01*
X193181740Y-107550673D01*
X193305474Y-107624089D01*
X193307545Y-107624947D01*
X193312548Y-107627019D01*
X193363584Y-107645024D01*
X193506000Y-107665500D01*
X193506003Y-107665500D01*
X195106002Y-107665500D01*
X195111796Y-107665189D01*
X195160041Y-107662603D01*
X195299452Y-107627019D01*
X195306523Y-107624090D01*
X195401364Y-107572303D01*
X195493017Y-107486972D01*
X195555494Y-107455700D01*
X195624964Y-107463169D01*
X195668266Y-107493236D01*
X195721737Y-107550670D01*
X195721740Y-107550673D01*
X195845474Y-107624089D01*
X195847545Y-107624947D01*
X195852548Y-107627019D01*
X195903584Y-107645024D01*
X196046000Y-107665500D01*
X196046003Y-107665500D01*
X197646002Y-107665500D01*
X197651796Y-107665189D01*
X197700041Y-107662603D01*
X197839452Y-107627019D01*
X197846523Y-107624090D01*
X197941364Y-107572303D01*
X198033017Y-107486972D01*
X198095494Y-107455700D01*
X198164964Y-107463169D01*
X198208266Y-107493236D01*
X198261737Y-107550670D01*
X198261740Y-107550673D01*
X198385474Y-107624089D01*
X198387545Y-107624947D01*
X198392548Y-107627019D01*
X198443584Y-107645024D01*
X198586000Y-107665500D01*
X198812666Y-107665500D01*
X198874665Y-107682112D01*
X198948216Y-107724577D01*
X199100943Y-107765500D01*
X199100945Y-107765500D01*
X199259055Y-107765500D01*
X199259057Y-107765500D01*
X199411784Y-107724577D01*
X199485334Y-107682112D01*
X199547334Y-107665500D01*
X200186002Y-107665500D01*
X200191796Y-107665189D01*
X200240041Y-107662603D01*
X200379452Y-107627019D01*
X200386523Y-107624090D01*
X200481364Y-107572303D01*
X200573017Y-107486972D01*
X200635494Y-107455700D01*
X200704964Y-107463169D01*
X200748266Y-107493236D01*
X200801737Y-107550670D01*
X200801740Y-107550673D01*
X200925474Y-107624089D01*
X200927545Y-107624947D01*
X200932548Y-107627019D01*
X200983584Y-107645024D01*
X201126000Y-107665500D01*
X201126003Y-107665500D01*
X202726002Y-107665500D01*
X202731796Y-107665189D01*
X202780041Y-107662603D01*
X202919452Y-107627019D01*
X202926523Y-107624090D01*
X203021364Y-107572303D01*
X203113017Y-107486972D01*
X203175494Y-107455700D01*
X203244964Y-107463169D01*
X203288266Y-107493236D01*
X203341737Y-107550670D01*
X203341740Y-107550673D01*
X203465474Y-107624089D01*
X203467545Y-107624947D01*
X203472548Y-107627019D01*
X203523584Y-107645024D01*
X203666000Y-107665500D01*
X203666003Y-107665500D01*
X205266002Y-107665500D01*
X205271796Y-107665189D01*
X205320041Y-107662603D01*
X205459452Y-107627019D01*
X205466523Y-107624090D01*
X205561364Y-107572303D01*
X205653017Y-107486972D01*
X205715494Y-107455700D01*
X205784964Y-107463169D01*
X205828266Y-107493236D01*
X205881737Y-107550670D01*
X205881740Y-107550673D01*
X206005474Y-107624089D01*
X206007545Y-107624947D01*
X206012548Y-107627019D01*
X206063584Y-107645024D01*
X206206000Y-107665500D01*
X206206003Y-107665500D01*
X207806002Y-107665500D01*
X207811796Y-107665189D01*
X207860041Y-107662603D01*
X207999452Y-107627019D01*
X208006523Y-107624090D01*
X208101364Y-107572303D01*
X208193017Y-107486972D01*
X208255494Y-107455700D01*
X208324964Y-107463169D01*
X208368266Y-107493236D01*
X208421737Y-107550670D01*
X208421740Y-107550673D01*
X208545474Y-107624089D01*
X208547545Y-107624947D01*
X208552548Y-107627019D01*
X208603584Y-107645024D01*
X208746000Y-107665500D01*
X208746003Y-107665500D01*
X210346002Y-107665500D01*
X210351796Y-107665189D01*
X210400041Y-107662603D01*
X210539452Y-107627019D01*
X210546523Y-107624090D01*
X210641364Y-107572303D01*
X210733017Y-107486972D01*
X210795494Y-107455700D01*
X210864964Y-107463169D01*
X210908266Y-107493236D01*
X210961737Y-107550670D01*
X210961740Y-107550673D01*
X211085474Y-107624089D01*
X211087545Y-107624947D01*
X211092548Y-107627019D01*
X211143584Y-107645024D01*
X211286000Y-107665500D01*
X211512666Y-107665500D01*
X211574665Y-107682112D01*
X211648216Y-107724577D01*
X211800943Y-107765500D01*
X211800945Y-107765500D01*
X211959055Y-107765500D01*
X211959057Y-107765500D01*
X212111784Y-107724577D01*
X212185334Y-107682112D01*
X212247334Y-107665500D01*
X212886002Y-107665500D01*
X212891796Y-107665189D01*
X212940041Y-107662603D01*
X213079452Y-107627019D01*
X213086523Y-107624090D01*
X213181364Y-107572303D01*
X213273017Y-107486972D01*
X213335494Y-107455700D01*
X213404964Y-107463169D01*
X213448266Y-107493236D01*
X213501737Y-107550670D01*
X213501740Y-107550673D01*
X213625474Y-107624089D01*
X213627545Y-107624947D01*
X213632548Y-107627019D01*
X213683584Y-107645024D01*
X213826000Y-107665500D01*
X213826003Y-107665500D01*
X215426002Y-107665500D01*
X215431796Y-107665189D01*
X215480041Y-107662603D01*
X215619452Y-107627019D01*
X215626523Y-107624090D01*
X215721364Y-107572303D01*
X215813017Y-107486972D01*
X215875494Y-107455700D01*
X215944964Y-107463169D01*
X215988266Y-107493236D01*
X216041737Y-107550670D01*
X216041740Y-107550673D01*
X216165474Y-107624089D01*
X216167545Y-107624947D01*
X216172548Y-107627019D01*
X216223584Y-107645024D01*
X216366000Y-107665500D01*
X216366003Y-107665500D01*
X217966002Y-107665500D01*
X217971796Y-107665189D01*
X218020041Y-107662603D01*
X218159452Y-107627019D01*
X218166523Y-107624090D01*
X218261364Y-107572303D01*
X218353017Y-107486972D01*
X218415494Y-107455700D01*
X218484964Y-107463169D01*
X218528266Y-107493236D01*
X218581737Y-107550670D01*
X218581740Y-107550673D01*
X218705474Y-107624089D01*
X218707545Y-107624947D01*
X218712548Y-107627019D01*
X218763584Y-107645024D01*
X218906000Y-107665500D01*
X218906003Y-107665500D01*
X220506002Y-107665500D01*
X220511796Y-107665189D01*
X220560041Y-107662603D01*
X220699452Y-107627019D01*
X220706523Y-107624090D01*
X220801364Y-107572303D01*
X220893017Y-107486972D01*
X220955494Y-107455700D01*
X221024964Y-107463169D01*
X221068266Y-107493236D01*
X221121737Y-107550670D01*
X221121740Y-107550673D01*
X221245474Y-107624089D01*
X221247545Y-107624947D01*
X221252548Y-107627019D01*
X221303584Y-107645024D01*
X221446000Y-107665500D01*
X221446003Y-107665500D01*
X223046002Y-107665500D01*
X223051796Y-107665189D01*
X223100041Y-107662603D01*
X223239452Y-107627019D01*
X223246523Y-107624090D01*
X223341364Y-107572303D01*
X223433017Y-107486972D01*
X223495494Y-107455700D01*
X223564964Y-107463169D01*
X223608266Y-107493236D01*
X223661737Y-107550670D01*
X223661740Y-107550673D01*
X223785474Y-107624089D01*
X223787545Y-107624947D01*
X223792548Y-107627019D01*
X223843584Y-107645024D01*
X223986000Y-107665500D01*
X223986003Y-107665500D01*
X225586002Y-107665500D01*
X225591796Y-107665189D01*
X225640041Y-107662603D01*
X225779452Y-107627019D01*
X225786523Y-107624090D01*
X225881364Y-107572303D01*
X225973017Y-107486972D01*
X226035494Y-107455700D01*
X226104964Y-107463169D01*
X226148266Y-107493236D01*
X226201737Y-107550670D01*
X226201740Y-107550673D01*
X226325474Y-107624089D01*
X226327545Y-107624947D01*
X226332548Y-107627019D01*
X226383584Y-107645024D01*
X226526000Y-107665500D01*
X226526003Y-107665500D01*
X228126002Y-107665500D01*
X228131796Y-107665189D01*
X228180041Y-107662603D01*
X228319452Y-107627019D01*
X228326523Y-107624090D01*
X228421364Y-107572303D01*
X228513017Y-107486972D01*
X228575494Y-107455700D01*
X228644964Y-107463169D01*
X228688266Y-107493236D01*
X228741737Y-107550670D01*
X228741740Y-107550673D01*
X228865474Y-107624089D01*
X228867545Y-107624947D01*
X228872548Y-107627019D01*
X228923584Y-107645024D01*
X229066000Y-107665500D01*
X229066003Y-107665500D01*
X230666002Y-107665500D01*
X230671796Y-107665189D01*
X230720041Y-107662603D01*
X230859452Y-107627019D01*
X230866523Y-107624090D01*
X230961364Y-107572303D01*
X231066671Y-107474261D01*
X231066672Y-107474259D01*
X231066673Y-107474259D01*
X231140089Y-107350525D01*
X231140090Y-107350523D01*
X231143019Y-107343452D01*
X231161024Y-107292416D01*
X231181500Y-107150000D01*
X231181500Y-104750000D01*
X231181460Y-104743629D01*
X231181457Y-104743391D01*
X231181456Y-104743350D01*
X231181455Y-104743238D01*
X231181400Y-104740288D01*
X231181354Y-104737730D01*
X231180354Y-104695730D01*
X231179953Y-104684325D01*
X231179931Y-104683851D01*
X231179930Y-104683825D01*
X231179193Y-104671319D01*
X231179190Y-104671273D01*
X231176190Y-104629273D01*
X231174515Y-104610664D01*
X231174435Y-104609928D01*
X231174435Y-104609927D01*
X231172071Y-104591375D01*
X231170919Y-104583508D01*
X231166068Y-104550356D01*
X231165573Y-104547145D01*
X231164925Y-104542934D01*
X231164888Y-104542705D01*
X231164875Y-104542625D01*
X231164147Y-104538243D01*
X231157147Y-104497243D01*
X231153893Y-104479995D01*
X231153751Y-104479308D01*
X231149819Y-104461849D01*
X231149817Y-104461842D01*
X231149811Y-104461814D01*
X231139815Y-104420834D01*
X231136445Y-104407776D01*
X231136314Y-104407296D01*
X231132771Y-104394914D01*
X231120756Y-104354863D01*
X231117691Y-104345015D01*
X231117677Y-104344970D01*
X231117538Y-104344539D01*
X231113559Y-104332704D01*
X231099559Y-104292704D01*
X231093950Y-104277466D01*
X231093727Y-104276889D01*
X231088103Y-104262956D01*
X231072103Y-104224956D01*
X231067623Y-104214639D01*
X231067444Y-104214239D01*
X231062876Y-104204321D01*
X231044876Y-104166321D01*
X231039022Y-104154372D01*
X231038782Y-104153898D01*
X231032489Y-104141871D01*
X231027201Y-104132088D01*
X231012489Y-104104870D01*
X231006233Y-104093642D01*
X231006093Y-104093398D01*
X231005960Y-104093166D01*
X230999541Y-104082329D01*
X230998864Y-104081186D01*
X230978108Y-104047223D01*
X230976867Y-104045192D01*
X230967892Y-104031038D01*
X230967748Y-104030819D01*
X230967518Y-104030468D01*
X230958142Y-104016712D01*
X230934151Y-103982724D01*
X230929204Y-103975840D01*
X230929099Y-103975697D01*
X230928942Y-103975482D01*
X230923901Y-103968711D01*
X230898901Y-103935711D01*
X230890700Y-103925178D01*
X230890372Y-103924768D01*
X230890366Y-103924760D01*
X230882023Y-103914606D01*
X230854971Y-103882544D01*
X230846676Y-103872960D01*
X230846337Y-103872578D01*
X230837455Y-103862831D01*
X230808450Y-103831827D01*
X230796740Y-103819721D01*
X230796278Y-103819259D01*
X230795774Y-103818771D01*
X230784168Y-103807545D01*
X230766109Y-103790651D01*
X230753168Y-103778544D01*
X230743421Y-103769662D01*
X230743039Y-103769323D01*
X230733455Y-103761028D01*
X230706532Y-103738312D01*
X230701431Y-103734008D01*
X230701428Y-103734005D01*
X230701393Y-103733976D01*
X230691239Y-103725633D01*
X230690826Y-103725303D01*
X230680326Y-103717128D01*
X230680289Y-103717099D01*
X230647289Y-103692099D01*
X230647265Y-103692081D01*
X230647216Y-103692044D01*
X230640602Y-103687120D01*
X230640552Y-103687083D01*
X230640518Y-103687058D01*
X230640246Y-103686859D01*
X230640159Y-103686795D01*
X230633275Y-103681848D01*
X230599287Y-103657857D01*
X230585531Y-103648481D01*
X230584987Y-103648124D01*
X230581300Y-103645786D01*
X230570808Y-103639133D01*
X230557650Y-103631092D01*
X230534813Y-103617135D01*
X230522850Y-103610049D01*
X230522357Y-103609766D01*
X230511129Y-103603510D01*
X230474158Y-103583526D01*
X230462970Y-103577672D01*
X230462102Y-103577218D01*
X230461628Y-103576978D01*
X230449679Y-103571124D01*
X230449669Y-103571119D01*
X230411673Y-103553121D01*
X230409420Y-103552083D01*
X230401761Y-103548556D01*
X230401361Y-103548377D01*
X230398692Y-103547218D01*
X230391064Y-103543905D01*
X230353066Y-103527906D01*
X230340317Y-103522760D01*
X230339111Y-103522273D01*
X230339104Y-103522270D01*
X230338256Y-103521928D01*
X230338372Y-103521638D01*
X230284025Y-103479545D01*
X230260687Y-103413688D01*
X230260500Y-103406875D01*
X230260500Y-101435500D01*
X230280185Y-101368461D01*
X230332989Y-101322706D01*
X230384500Y-101311500D01*
X232250860Y-101311500D01*
X232250876Y-101311501D01*
X232258472Y-101311501D01*
X232416583Y-101311501D01*
X232416586Y-101311501D01*
X232569314Y-101270577D01*
X232652315Y-101222656D01*
X232706245Y-101191520D01*
X232818049Y-101079716D01*
X232818049Y-101079714D01*
X232828253Y-101069511D01*
X232828257Y-101069506D01*
X234330836Y-99566927D01*
X255088099Y-99566927D01*
X255088099Y-99566942D01*
X255107392Y-99861298D01*
X255107393Y-99861308D01*
X255107394Y-99861315D01*
X255155562Y-100103477D01*
X255164946Y-100150651D01*
X255164949Y-100150665D01*
X255259777Y-100430015D01*
X255390253Y-100694595D01*
X255390257Y-100694602D01*
X255554153Y-100939890D01*
X255748669Y-101161693D01*
X255970472Y-101356209D01*
X256046325Y-101406892D01*
X256215763Y-101520107D01*
X256480351Y-101650587D01*
X256759706Y-101745416D01*
X257049048Y-101802969D01*
X257061528Y-101803787D01*
X257343421Y-101822264D01*
X257343428Y-101822264D01*
X257343435Y-101822264D01*
X257579103Y-101806816D01*
X257637808Y-101802969D01*
X257927150Y-101745416D01*
X258206505Y-101650587D01*
X258471093Y-101520107D01*
X258716385Y-101356208D01*
X258938186Y-101161693D01*
X259132701Y-100939892D01*
X259296600Y-100694600D01*
X259427080Y-100430012D01*
X259521909Y-100150657D01*
X259579462Y-99861315D01*
X259585269Y-99772713D01*
X259598757Y-99566942D01*
X259598757Y-99566927D01*
X259579463Y-99272571D01*
X259579462Y-99272555D01*
X259521909Y-98983213D01*
X259427080Y-98703858D01*
X259296600Y-98439271D01*
X259271871Y-98402262D01*
X259226500Y-98334358D01*
X259132701Y-98193978D01*
X259039236Y-98087402D01*
X258938186Y-97972176D01*
X258716383Y-97777660D01*
X258471095Y-97613764D01*
X258471088Y-97613760D01*
X258206508Y-97483284D01*
X257927158Y-97388456D01*
X257927152Y-97388454D01*
X257927150Y-97388454D01*
X257637808Y-97330901D01*
X257637801Y-97330900D01*
X257637791Y-97330899D01*
X257343435Y-97311606D01*
X257343421Y-97311606D01*
X257049064Y-97330899D01*
X257049052Y-97330900D01*
X257049048Y-97330901D01*
X257049040Y-97330902D01*
X257049037Y-97330903D01*
X256759711Y-97388453D01*
X256759697Y-97388456D01*
X256480347Y-97483284D01*
X256215762Y-97613763D01*
X255970469Y-97777663D01*
X255748669Y-97972176D01*
X255554156Y-98193976D01*
X255390256Y-98439269D01*
X255259777Y-98703854D01*
X255164949Y-98983204D01*
X255164946Y-98983218D01*
X255107396Y-99272544D01*
X255107392Y-99272571D01*
X255088099Y-99566927D01*
X234330836Y-99566927D01*
X238138506Y-95759257D01*
X238138511Y-95759253D01*
X238148714Y-95749049D01*
X238148716Y-95749049D01*
X238260520Y-95637245D01*
X238264153Y-95630951D01*
X238328316Y-95519819D01*
X238328317Y-95519816D01*
X238328318Y-95519815D01*
X238339577Y-95500314D01*
X238380500Y-95347587D01*
X238380500Y-95189472D01*
X238380500Y-94752096D01*
X238400185Y-94685057D01*
X238416815Y-94664419D01*
X239286535Y-93794698D01*
X239347856Y-93761215D01*
X239360311Y-93759163D01*
X239447255Y-93749368D01*
X239617522Y-93689789D01*
X239770262Y-93593816D01*
X239897816Y-93466262D01*
X239993789Y-93313522D01*
X240053368Y-93143255D01*
X240068774Y-93006523D01*
X240073565Y-92964003D01*
X240073565Y-92963999D01*
X240070904Y-92940385D01*
X240082958Y-92871563D01*
X240130306Y-92820183D01*
X240194124Y-92802500D01*
X242991331Y-92802500D01*
X242991347Y-92802501D01*
X242998943Y-92802501D01*
X243157054Y-92802501D01*
X243157057Y-92802501D01*
X243309785Y-92761577D01*
X243365378Y-92729480D01*
X243446716Y-92682520D01*
X243558520Y-92570716D01*
X243558520Y-92570714D01*
X243568724Y-92560511D01*
X243568727Y-92560506D01*
X250402416Y-85726819D01*
X250463739Y-85693334D01*
X250490097Y-85690500D01*
X250611331Y-85690500D01*
X250611347Y-85690501D01*
X250618943Y-85690501D01*
X250777054Y-85690501D01*
X250777057Y-85690501D01*
X250929785Y-85649577D01*
X250997601Y-85610423D01*
X251019114Y-85598003D01*
X251066709Y-85570524D01*
X251066708Y-85570524D01*
X251066716Y-85570520D01*
X251178520Y-85458716D01*
X251178520Y-85458714D01*
X251188724Y-85448511D01*
X251188728Y-85448506D01*
X251706506Y-84930728D01*
X251706511Y-84930724D01*
X251716714Y-84920520D01*
X251716716Y-84920520D01*
X251828520Y-84808716D01*
X251885316Y-84710342D01*
X251907577Y-84671785D01*
X251948501Y-84519057D01*
X251948501Y-84360943D01*
X251948501Y-84353348D01*
X251948500Y-84353330D01*
X251948500Y-83716868D01*
X251968185Y-83649829D01*
X252020989Y-83604074D01*
X252085756Y-83593579D01*
X252090516Y-83594090D01*
X252090517Y-83594091D01*
X252150127Y-83600500D01*
X252545872Y-83600499D01*
X252605483Y-83594091D01*
X252740331Y-83543796D01*
X252855546Y-83457546D01*
X252941796Y-83342331D01*
X252992091Y-83207483D01*
X252998500Y-83147873D01*
X252998499Y-81952128D01*
X252992091Y-81892517D01*
X252954183Y-81790881D01*
X252941797Y-81757671D01*
X252941793Y-81757664D01*
X252855547Y-81642455D01*
X252855544Y-81642452D01*
X252740335Y-81556206D01*
X252740326Y-81556201D01*
X252605487Y-81505910D01*
X252605484Y-81505909D01*
X252605483Y-81505909D01*
X252605480Y-81505908D01*
X252605477Y-81505908D01*
X252590328Y-81504279D01*
X252525778Y-81477539D01*
X252515907Y-81468671D01*
X251965590Y-80918355D01*
X251965588Y-80918352D01*
X251846717Y-80799481D01*
X251846716Y-80799480D01*
X251754014Y-80745959D01*
X251709785Y-80720423D01*
X251557057Y-80679499D01*
X251398943Y-80679499D01*
X251391347Y-80679499D01*
X251391331Y-80679500D01*
X241501412Y-80679500D01*
X241434373Y-80659815D01*
X241424097Y-80652445D01*
X241421263Y-80650185D01*
X241421262Y-80650184D01*
X241351814Y-80606547D01*
X241268523Y-80554211D01*
X241098254Y-80494631D01*
X241098249Y-80494630D01*
X240919004Y-80474435D01*
X240918996Y-80474435D01*
X240739750Y-80494630D01*
X240739745Y-80494631D01*
X240569476Y-80554211D01*
X240416737Y-80650184D01*
X240289184Y-80777737D01*
X240193211Y-80930476D01*
X240133631Y-81100745D01*
X240133630Y-81100750D01*
X240113435Y-81279996D01*
X240113435Y-81280003D01*
X240126095Y-81392369D01*
X240114040Y-81461191D01*
X240066691Y-81512570D01*
X240046209Y-81522434D01*
X239955669Y-81556203D01*
X239922310Y-81581176D01*
X239856845Y-81605592D01*
X239788572Y-81590740D01*
X239773690Y-81581176D01*
X239740330Y-81556203D01*
X239740328Y-81556202D01*
X239605486Y-81505910D01*
X239605485Y-81505909D01*
X239605483Y-81505909D01*
X239545873Y-81499500D01*
X239545863Y-81499500D01*
X239150129Y-81499500D01*
X239150120Y-81499501D01*
X239085752Y-81506420D01*
X239016992Y-81494012D01*
X238965856Y-81446400D01*
X238948500Y-81383130D01*
X238948500Y-80450001D01*
X253532500Y-80450001D01*
X253532500Y-82400002D01*
X253535397Y-82454043D01*
X253570978Y-82593444D01*
X253570981Y-82593452D01*
X253573909Y-82600521D01*
X253573911Y-82600526D01*
X253625695Y-82695362D01*
X253723740Y-82800672D01*
X253723740Y-82800673D01*
X253847474Y-82874089D01*
X253849545Y-82874947D01*
X253854548Y-82877019D01*
X253905584Y-82895024D01*
X254048000Y-82915500D01*
X254048003Y-82915500D01*
X256148002Y-82915500D01*
X256153796Y-82915189D01*
X256202041Y-82912603D01*
X256341452Y-82877019D01*
X256348523Y-82874090D01*
X256443364Y-82822303D01*
X256548671Y-82724261D01*
X256548672Y-82724259D01*
X256548673Y-82724259D01*
X256622089Y-82600525D01*
X256622091Y-82600521D01*
X256625019Y-82593452D01*
X256643024Y-82542416D01*
X256663500Y-82400000D01*
X256663500Y-80800000D01*
X256660603Y-80745959D01*
X256625019Y-80606548D01*
X256622090Y-80599477D01*
X256619345Y-80594449D01*
X256570304Y-80504637D01*
X256519436Y-80450000D01*
X256472261Y-80399329D01*
X256472260Y-80399328D01*
X256472259Y-80399327D01*
X256472259Y-80399326D01*
X256348525Y-80325910D01*
X256341452Y-80322981D01*
X256341431Y-80322973D01*
X256290417Y-80304976D01*
X256242944Y-80298150D01*
X256148000Y-80284500D01*
X256147998Y-80284500D01*
X255914787Y-80284500D01*
X255847748Y-80264815D01*
X255805955Y-80219927D01*
X255770304Y-80154638D01*
X255770303Y-80154636D01*
X255672261Y-80049329D01*
X255672260Y-80049328D01*
X255672259Y-80049327D01*
X255672259Y-80049326D01*
X255548525Y-79975910D01*
X255541452Y-79972981D01*
X255541431Y-79972973D01*
X255490417Y-79954976D01*
X255429293Y-79946188D01*
X255348000Y-79934500D01*
X254048000Y-79934500D01*
X254047998Y-79934500D01*
X253993956Y-79937397D01*
X253854555Y-79972978D01*
X253854547Y-79972981D01*
X253847478Y-79975909D01*
X253847473Y-79975911D01*
X253752637Y-80027695D01*
X253647327Y-80125740D01*
X253647326Y-80125740D01*
X253573910Y-80249474D01*
X253570981Y-80256547D01*
X253570973Y-80256568D01*
X253552976Y-80307582D01*
X253545126Y-80362181D01*
X253536213Y-80424179D01*
X253532500Y-80450001D01*
X238948500Y-80450001D01*
X238948500Y-79375373D01*
X238948501Y-79375360D01*
X238948501Y-79207259D01*
X238948501Y-79207257D01*
X238907577Y-79054529D01*
X238876197Y-79000178D01*
X238828520Y-78917598D01*
X238716716Y-78805794D01*
X238716715Y-78805793D01*
X238712385Y-78801463D01*
X238712374Y-78801453D01*
X236526523Y-76615602D01*
X236526521Y-76615599D01*
X236407650Y-76496728D01*
X236407649Y-76496727D01*
X236320837Y-76446607D01*
X236320837Y-76446606D01*
X236320833Y-76446605D01*
X236270718Y-76417670D01*
X236117990Y-76376746D01*
X235959876Y-76376746D01*
X235952280Y-76376746D01*
X235952264Y-76376747D01*
X227015135Y-76376747D01*
X226948096Y-76357062D01*
X226902341Y-76304258D01*
X226891915Y-76266630D01*
X226874867Y-76115318D01*
X226886922Y-76046496D01*
X226934271Y-75995117D01*
X226998087Y-75977435D01*
X257277533Y-75977435D01*
X257340718Y-75977435D01*
X257346127Y-75977553D01*
G37*
%TD.AperFunction*%
%TA.AperFunction,Conductor*%
G36*
X208349886Y-87547819D02*
G01*
X208385085Y-87588440D01*
X208399526Y-87615157D01*
X208405766Y-87626357D01*
X208406049Y-87626850D01*
X208413135Y-87638813D01*
X208421374Y-87652294D01*
X208435133Y-87674808D01*
X208442607Y-87686595D01*
X208444124Y-87688987D01*
X208444481Y-87689531D01*
X208453857Y-87703287D01*
X208477848Y-87737275D01*
X208482749Y-87744095D01*
X208482831Y-87744208D01*
X208482859Y-87744246D01*
X208483058Y-87744518D01*
X208483089Y-87744559D01*
X208483120Y-87744602D01*
X208488044Y-87751216D01*
X208488071Y-87751252D01*
X208488099Y-87751289D01*
X208513099Y-87784289D01*
X208513128Y-87784326D01*
X208521303Y-87794826D01*
X208521633Y-87795239D01*
X208529976Y-87805393D01*
X208557028Y-87837455D01*
X208565323Y-87847039D01*
X208565662Y-87847421D01*
X208574544Y-87857168D01*
X208597343Y-87881538D01*
X208603545Y-87888168D01*
X208615255Y-87900274D01*
X208615726Y-87900745D01*
X208616226Y-87901228D01*
X208627827Y-87912450D01*
X208658831Y-87941455D01*
X208668578Y-87950337D01*
X208668960Y-87950676D01*
X208678614Y-87959031D01*
X208695461Y-87973245D01*
X208734006Y-88031520D01*
X208739499Y-88068018D01*
X208739499Y-88220583D01*
X208739498Y-88220583D01*
X208780424Y-88373318D01*
X208780425Y-88373319D01*
X208804037Y-88414215D01*
X208804038Y-88414217D01*
X208859475Y-88510238D01*
X208859481Y-88510246D01*
X208978349Y-88629114D01*
X208978355Y-88629119D01*
X209451610Y-89102374D01*
X209451620Y-89102385D01*
X209455950Y-89106715D01*
X209455951Y-89106716D01*
X209567755Y-89218520D01*
X209567757Y-89218521D01*
X209567761Y-89218524D01*
X209703996Y-89297178D01*
X209704687Y-89297577D01*
X209816490Y-89327534D01*
X209857413Y-89338500D01*
X209857414Y-89338500D01*
X210103903Y-89338500D01*
X210170942Y-89358185D01*
X210191584Y-89374819D01*
X210437181Y-89620416D01*
X210470666Y-89681739D01*
X210473500Y-89708097D01*
X210473500Y-89725499D01*
X210453815Y-89792538D01*
X210401011Y-89838293D01*
X210349500Y-89849499D01*
X210318965Y-89849499D01*
X210318949Y-89849500D01*
X209044783Y-89849500D01*
X208977744Y-89829815D01*
X208957102Y-89813181D01*
X207881819Y-88737898D01*
X207848334Y-88676575D01*
X207845500Y-88650217D01*
X207845500Y-88462059D01*
X207845501Y-88462046D01*
X207845501Y-88293945D01*
X207845501Y-88293943D01*
X207804577Y-88141215D01*
X207804573Y-88141208D01*
X207801468Y-88133711D01*
X207804562Y-88132428D01*
X207791750Y-88079651D01*
X207814591Y-88013620D01*
X207836895Y-87989719D01*
X207841399Y-87986018D01*
X207841431Y-87985992D01*
X207873431Y-87958992D01*
X207883040Y-87950676D01*
X207883423Y-87950336D01*
X207893168Y-87941455D01*
X207924168Y-87912455D01*
X207936274Y-87900745D01*
X207936745Y-87900274D01*
X207948455Y-87888168D01*
X207977455Y-87857168D01*
X207986336Y-87847423D01*
X207986676Y-87847040D01*
X207994992Y-87837431D01*
X208021992Y-87805431D01*
X208030372Y-87795232D01*
X208030700Y-87794822D01*
X208038901Y-87784289D01*
X208063901Y-87751289D01*
X208068942Y-87744518D01*
X208069141Y-87744246D01*
X208069178Y-87744193D01*
X208069251Y-87744095D01*
X208074151Y-87737275D01*
X208098142Y-87703287D01*
X208107518Y-87689531D01*
X208107604Y-87689399D01*
X208107892Y-87688962D01*
X208116867Y-87674808D01*
X208138867Y-87638808D01*
X208145960Y-87626834D01*
X208146224Y-87626374D01*
X208152489Y-87615129D01*
X208166916Y-87588438D01*
X208216109Y-87538825D01*
X208284318Y-87523681D01*
X208349886Y-87547819D01*
G37*
%TD.AperFunction*%
%TA.AperFunction,Conductor*%
G36*
X213810432Y-83424185D02*
G01*
X213831074Y-83440819D01*
X214233073Y-83842819D01*
X214266558Y-83904142D01*
X214261574Y-83973834D01*
X214219702Y-84029767D01*
X214154238Y-84054184D01*
X214145392Y-84054500D01*
X213825998Y-84054500D01*
X213771956Y-84057397D01*
X213632555Y-84092978D01*
X213632547Y-84092981D01*
X213625478Y-84095909D01*
X213625473Y-84095911D01*
X213530638Y-84147695D01*
X213438983Y-84233026D01*
X213376503Y-84264299D01*
X213307034Y-84256829D01*
X213263733Y-84226763D01*
X213210262Y-84169329D01*
X213210259Y-84169326D01*
X213086525Y-84095910D01*
X213079452Y-84092981D01*
X213079431Y-84092973D01*
X213028417Y-84074976D01*
X212980944Y-84068150D01*
X212886000Y-84054500D01*
X211286000Y-84054500D01*
X211285998Y-84054500D01*
X211231956Y-84057397D01*
X211092555Y-84092978D01*
X211092547Y-84092981D01*
X211085478Y-84095909D01*
X211085473Y-84095911D01*
X210990638Y-84147695D01*
X210898983Y-84233026D01*
X210836503Y-84264299D01*
X210767034Y-84256829D01*
X210723733Y-84226763D01*
X210670262Y-84169329D01*
X210670259Y-84169326D01*
X210546525Y-84095910D01*
X210539452Y-84092981D01*
X210539431Y-84092973D01*
X210488417Y-84074976D01*
X210440944Y-84068150D01*
X210346000Y-84054500D01*
X208746000Y-84054500D01*
X208745998Y-84054500D01*
X208691956Y-84057397D01*
X208552555Y-84092978D01*
X208552547Y-84092981D01*
X208545478Y-84095909D01*
X208545473Y-84095911D01*
X208450638Y-84147695D01*
X208358983Y-84233026D01*
X208296503Y-84264299D01*
X208227034Y-84256829D01*
X208183733Y-84226763D01*
X208130262Y-84169329D01*
X208130259Y-84169326D01*
X208006525Y-84095910D01*
X207999452Y-84092981D01*
X207999431Y-84092973D01*
X207948417Y-84074976D01*
X207900944Y-84068150D01*
X207806000Y-84054500D01*
X206206000Y-84054500D01*
X206205998Y-84054500D01*
X206151956Y-84057397D01*
X206012555Y-84092978D01*
X206012547Y-84092981D01*
X206005478Y-84095909D01*
X206005473Y-84095911D01*
X205910638Y-84147695D01*
X205818983Y-84233026D01*
X205756503Y-84264299D01*
X205687034Y-84256829D01*
X205643733Y-84226763D01*
X205590262Y-84169329D01*
X205590259Y-84169326D01*
X205466525Y-84095910D01*
X205459452Y-84092981D01*
X205459431Y-84092973D01*
X205408417Y-84074976D01*
X205360944Y-84068150D01*
X205266000Y-84054500D01*
X203666000Y-84054500D01*
X203665998Y-84054500D01*
X203611956Y-84057397D01*
X203472555Y-84092978D01*
X203472547Y-84092981D01*
X203465478Y-84095909D01*
X203465473Y-84095911D01*
X203370638Y-84147695D01*
X203278983Y-84233026D01*
X203216503Y-84264299D01*
X203147034Y-84256829D01*
X203103733Y-84226763D01*
X203050262Y-84169329D01*
X203050259Y-84169326D01*
X202926525Y-84095910D01*
X202919452Y-84092981D01*
X202919431Y-84092973D01*
X202868417Y-84074976D01*
X202820944Y-84068150D01*
X202726000Y-84054500D01*
X202725998Y-84054500D01*
X201531280Y-84054500D01*
X201464241Y-84034815D01*
X201418486Y-83982011D01*
X201408060Y-83916617D01*
X201415565Y-83850004D01*
X201415565Y-83849996D01*
X201395369Y-83670750D01*
X201395366Y-83670737D01*
X201359926Y-83569455D01*
X201356364Y-83499676D01*
X201391092Y-83439049D01*
X201453086Y-83406821D01*
X201476967Y-83404500D01*
X210441943Y-83404500D01*
X213743393Y-83404500D01*
X213810432Y-83424185D01*
G37*
%TD.AperFunction*%
%TD*%
M02*
